%TF.GenerationSoftware,KiCad,Pcbnew,9.0.2+dfsg-1*%
%TF.CreationDate,2026-09-10T19:55:19+01:00*%
%TF.ProjectId,SDCore_progBoard,5344436f-7265-45f7-9072-6f67426f6172,rev?*%
%TF.SameCoordinates,Original*%
%TF.FileFunction,Drillmap*%
%TF.FilePolarity,Positive*%
%FSLAX45Y45*%
G04 Gerber Fmt 4.5, Leading zero omitted, Abs format (unit mm)*
G04 Created by KiCad (PCBNEW 9.0.2+dfsg-1) date 2026-09-10 19:55:19*
%MOMM*%
%LPD*%
G01*
G04 APERTURE LIST*
%ADD10C,0.050000*%
%ADD11C,0.254000*%
%ADD12C,0.200000*%
%ADD13C,0.160000*%
G04 APERTURE END LIST*
D10*
X11655000Y-9250000D02*
X11405000Y-9250000D01*
X16900000Y-12300000D02*
X16900000Y-9250000D01*
X11405000Y-9250000D02*
X11405000Y-12300000D01*
X11655000Y-9250000D02*
X12600000Y-9250000D01*
X16900000Y-9250000D02*
X12600000Y-9250000D01*
X12350000Y-12300000D02*
X16900000Y-12300000D01*
X12350000Y-12300000D02*
X11405000Y-12300000D01*
D11*
X11640006Y-11513577D02*
X11640006Y-12162443D01*
X12560000Y-11513577D02*
X11640006Y-11513577D01*
X12560000Y-11513577D02*
X12560000Y-12162443D01*
D12*
D13*
X16193585Y-9518959D02*
X16353585Y-9678959D01*
X16353585Y-9518959D02*
X16193585Y-9678959D01*
X16193585Y-11938959D02*
X16353585Y-12098959D01*
X16353585Y-11938959D02*
X16193585Y-12098959D01*
D12*
X11663277Y-12613984D02*
X11663277Y-12413984D01*
X11663277Y-12413984D02*
X11710896Y-12413984D01*
X11710896Y-12413984D02*
X11739467Y-12423508D01*
X11739467Y-12423508D02*
X11758515Y-12442555D01*
X11758515Y-12442555D02*
X11768039Y-12461603D01*
X11768039Y-12461603D02*
X11777562Y-12499698D01*
X11777562Y-12499698D02*
X11777562Y-12528269D01*
X11777562Y-12528269D02*
X11768039Y-12566365D01*
X11768039Y-12566365D02*
X11758515Y-12585412D01*
X11758515Y-12585412D02*
X11739467Y-12604460D01*
X11739467Y-12604460D02*
X11710896Y-12613984D01*
X11710896Y-12613984D02*
X11663277Y-12613984D01*
X11863277Y-12613984D02*
X11863277Y-12480650D01*
X11863277Y-12518746D02*
X11872801Y-12499698D01*
X11872801Y-12499698D02*
X11882324Y-12490174D01*
X11882324Y-12490174D02*
X11901372Y-12480650D01*
X11901372Y-12480650D02*
X11920420Y-12480650D01*
X11987086Y-12613984D02*
X11987086Y-12480650D01*
X11987086Y-12413984D02*
X11977562Y-12423508D01*
X11977562Y-12423508D02*
X11987086Y-12433031D01*
X11987086Y-12433031D02*
X11996610Y-12423508D01*
X11996610Y-12423508D02*
X11987086Y-12413984D01*
X11987086Y-12413984D02*
X11987086Y-12433031D01*
X12110896Y-12613984D02*
X12091848Y-12604460D01*
X12091848Y-12604460D02*
X12082324Y-12585412D01*
X12082324Y-12585412D02*
X12082324Y-12413984D01*
X12215658Y-12613984D02*
X12196610Y-12604460D01*
X12196610Y-12604460D02*
X12187086Y-12585412D01*
X12187086Y-12585412D02*
X12187086Y-12413984D01*
X12444229Y-12613984D02*
X12444229Y-12413984D01*
X12444229Y-12413984D02*
X12510896Y-12556841D01*
X12510896Y-12556841D02*
X12577562Y-12413984D01*
X12577562Y-12413984D02*
X12577562Y-12613984D01*
X12758515Y-12613984D02*
X12758515Y-12509222D01*
X12758515Y-12509222D02*
X12748991Y-12490174D01*
X12748991Y-12490174D02*
X12729943Y-12480650D01*
X12729943Y-12480650D02*
X12691848Y-12480650D01*
X12691848Y-12480650D02*
X12672801Y-12490174D01*
X12758515Y-12604460D02*
X12739467Y-12613984D01*
X12739467Y-12613984D02*
X12691848Y-12613984D01*
X12691848Y-12613984D02*
X12672801Y-12604460D01*
X12672801Y-12604460D02*
X12663277Y-12585412D01*
X12663277Y-12585412D02*
X12663277Y-12566365D01*
X12663277Y-12566365D02*
X12672801Y-12547317D01*
X12672801Y-12547317D02*
X12691848Y-12537793D01*
X12691848Y-12537793D02*
X12739467Y-12537793D01*
X12739467Y-12537793D02*
X12758515Y-12528269D01*
X12853753Y-12480650D02*
X12853753Y-12680650D01*
X12853753Y-12490174D02*
X12872801Y-12480650D01*
X12872801Y-12480650D02*
X12910896Y-12480650D01*
X12910896Y-12480650D02*
X12929943Y-12490174D01*
X12929943Y-12490174D02*
X12939467Y-12499698D01*
X12939467Y-12499698D02*
X12948991Y-12518746D01*
X12948991Y-12518746D02*
X12948991Y-12575888D01*
X12948991Y-12575888D02*
X12939467Y-12594936D01*
X12939467Y-12594936D02*
X12929943Y-12604460D01*
X12929943Y-12604460D02*
X12910896Y-12613984D01*
X12910896Y-12613984D02*
X12872801Y-12613984D01*
X12872801Y-12613984D02*
X12853753Y-12604460D01*
X13034705Y-12594936D02*
X13044229Y-12604460D01*
X13044229Y-12604460D02*
X13034705Y-12613984D01*
X13034705Y-12613984D02*
X13025182Y-12604460D01*
X13025182Y-12604460D02*
X13034705Y-12594936D01*
X13034705Y-12594936D02*
X13034705Y-12613984D01*
X13034705Y-12490174D02*
X13044229Y-12499698D01*
X13044229Y-12499698D02*
X13034705Y-12509222D01*
X13034705Y-12509222D02*
X13025182Y-12499698D01*
X13025182Y-12499698D02*
X13034705Y-12490174D01*
X13034705Y-12490174D02*
X13034705Y-12509222D01*
D13*
X11242500Y-12862500D02*
X11402500Y-13022500D01*
X11402500Y-12862500D02*
X11242500Y-13022500D01*
D12*
X11768039Y-13033984D02*
X11653753Y-13033984D01*
X11710896Y-13033984D02*
X11710896Y-12833984D01*
X11710896Y-12833984D02*
X11691848Y-12862555D01*
X11691848Y-12862555D02*
X11672801Y-12881603D01*
X11672801Y-12881603D02*
X11653753Y-12891127D01*
X11853753Y-13014936D02*
X11863277Y-13024460D01*
X11863277Y-13024460D02*
X11853753Y-13033984D01*
X11853753Y-13033984D02*
X11844229Y-13024460D01*
X11844229Y-13024460D02*
X11853753Y-13014936D01*
X11853753Y-13014936D02*
X11853753Y-13033984D01*
X12034705Y-12833984D02*
X11996610Y-12833984D01*
X11996610Y-12833984D02*
X11977562Y-12843508D01*
X11977562Y-12843508D02*
X11968039Y-12853031D01*
X11968039Y-12853031D02*
X11948991Y-12881603D01*
X11948991Y-12881603D02*
X11939467Y-12919698D01*
X11939467Y-12919698D02*
X11939467Y-12995888D01*
X11939467Y-12995888D02*
X11948991Y-13014936D01*
X11948991Y-13014936D02*
X11958515Y-13024460D01*
X11958515Y-13024460D02*
X11977562Y-13033984D01*
X11977562Y-13033984D02*
X12015658Y-13033984D01*
X12015658Y-13033984D02*
X12034705Y-13024460D01*
X12034705Y-13024460D02*
X12044229Y-13014936D01*
X12044229Y-13014936D02*
X12053753Y-12995888D01*
X12053753Y-12995888D02*
X12053753Y-12948269D01*
X12053753Y-12948269D02*
X12044229Y-12929222D01*
X12044229Y-12929222D02*
X12034705Y-12919698D01*
X12034705Y-12919698D02*
X12015658Y-12910174D01*
X12015658Y-12910174D02*
X11977562Y-12910174D01*
X11977562Y-12910174D02*
X11958515Y-12919698D01*
X11958515Y-12919698D02*
X11948991Y-12929222D01*
X11948991Y-12929222D02*
X11939467Y-12948269D01*
X12177562Y-12833984D02*
X12196610Y-12833984D01*
X12196610Y-12833984D02*
X12215658Y-12843508D01*
X12215658Y-12843508D02*
X12225182Y-12853031D01*
X12225182Y-12853031D02*
X12234705Y-12872079D01*
X12234705Y-12872079D02*
X12244229Y-12910174D01*
X12244229Y-12910174D02*
X12244229Y-12957793D01*
X12244229Y-12957793D02*
X12234705Y-12995888D01*
X12234705Y-12995888D02*
X12225182Y-13014936D01*
X12225182Y-13014936D02*
X12215658Y-13024460D01*
X12215658Y-13024460D02*
X12196610Y-13033984D01*
X12196610Y-13033984D02*
X12177562Y-13033984D01*
X12177562Y-13033984D02*
X12158515Y-13024460D01*
X12158515Y-13024460D02*
X12148991Y-13014936D01*
X12148991Y-13014936D02*
X12139467Y-12995888D01*
X12139467Y-12995888D02*
X12129943Y-12957793D01*
X12129943Y-12957793D02*
X12129943Y-12910174D01*
X12129943Y-12910174D02*
X12139467Y-12872079D01*
X12139467Y-12872079D02*
X12148991Y-12853031D01*
X12148991Y-12853031D02*
X12158515Y-12843508D01*
X12158515Y-12843508D02*
X12177562Y-12833984D01*
X12368039Y-12833984D02*
X12387086Y-12833984D01*
X12387086Y-12833984D02*
X12406134Y-12843508D01*
X12406134Y-12843508D02*
X12415658Y-12853031D01*
X12415658Y-12853031D02*
X12425182Y-12872079D01*
X12425182Y-12872079D02*
X12434705Y-12910174D01*
X12434705Y-12910174D02*
X12434705Y-12957793D01*
X12434705Y-12957793D02*
X12425182Y-12995888D01*
X12425182Y-12995888D02*
X12415658Y-13014936D01*
X12415658Y-13014936D02*
X12406134Y-13024460D01*
X12406134Y-13024460D02*
X12387086Y-13033984D01*
X12387086Y-13033984D02*
X12368039Y-13033984D01*
X12368039Y-13033984D02*
X12348991Y-13024460D01*
X12348991Y-13024460D02*
X12339467Y-13014936D01*
X12339467Y-13014936D02*
X12329943Y-12995888D01*
X12329943Y-12995888D02*
X12320420Y-12957793D01*
X12320420Y-12957793D02*
X12320420Y-12910174D01*
X12320420Y-12910174D02*
X12329943Y-12872079D01*
X12329943Y-12872079D02*
X12339467Y-12853031D01*
X12339467Y-12853031D02*
X12348991Y-12843508D01*
X12348991Y-12843508D02*
X12368039Y-12833984D01*
X12520420Y-13033984D02*
X12520420Y-12900650D01*
X12520420Y-12919698D02*
X12529943Y-12910174D01*
X12529943Y-12910174D02*
X12548991Y-12900650D01*
X12548991Y-12900650D02*
X12577563Y-12900650D01*
X12577563Y-12900650D02*
X12596610Y-12910174D01*
X12596610Y-12910174D02*
X12606134Y-12929222D01*
X12606134Y-12929222D02*
X12606134Y-13033984D01*
X12606134Y-12929222D02*
X12615658Y-12910174D01*
X12615658Y-12910174D02*
X12634705Y-12900650D01*
X12634705Y-12900650D02*
X12663277Y-12900650D01*
X12663277Y-12900650D02*
X12682324Y-12910174D01*
X12682324Y-12910174D02*
X12691848Y-12929222D01*
X12691848Y-12929222D02*
X12691848Y-13033984D01*
X12787086Y-13033984D02*
X12787086Y-12900650D01*
X12787086Y-12919698D02*
X12796610Y-12910174D01*
X12796610Y-12910174D02*
X12815658Y-12900650D01*
X12815658Y-12900650D02*
X12844229Y-12900650D01*
X12844229Y-12900650D02*
X12863277Y-12910174D01*
X12863277Y-12910174D02*
X12872801Y-12929222D01*
X12872801Y-12929222D02*
X12872801Y-13033984D01*
X12872801Y-12929222D02*
X12882324Y-12910174D01*
X12882324Y-12910174D02*
X12901372Y-12900650D01*
X12901372Y-12900650D02*
X12929943Y-12900650D01*
X12929943Y-12900650D02*
X12948991Y-12910174D01*
X12948991Y-12910174D02*
X12958515Y-12929222D01*
X12958515Y-12929222D02*
X12958515Y-13033984D01*
X13348991Y-12824460D02*
X13177563Y-13081603D01*
X13606134Y-12833984D02*
X13625182Y-12833984D01*
X13625182Y-12833984D02*
X13644229Y-12843508D01*
X13644229Y-12843508D02*
X13653753Y-12853031D01*
X13653753Y-12853031D02*
X13663277Y-12872079D01*
X13663277Y-12872079D02*
X13672801Y-12910174D01*
X13672801Y-12910174D02*
X13672801Y-12957793D01*
X13672801Y-12957793D02*
X13663277Y-12995888D01*
X13663277Y-12995888D02*
X13653753Y-13014936D01*
X13653753Y-13014936D02*
X13644229Y-13024460D01*
X13644229Y-13024460D02*
X13625182Y-13033984D01*
X13625182Y-13033984D02*
X13606134Y-13033984D01*
X13606134Y-13033984D02*
X13587086Y-13024460D01*
X13587086Y-13024460D02*
X13577563Y-13014936D01*
X13577563Y-13014936D02*
X13568039Y-12995888D01*
X13568039Y-12995888D02*
X13558515Y-12957793D01*
X13558515Y-12957793D02*
X13558515Y-12910174D01*
X13558515Y-12910174D02*
X13568039Y-12872079D01*
X13568039Y-12872079D02*
X13577563Y-12853031D01*
X13577563Y-12853031D02*
X13587086Y-12843508D01*
X13587086Y-12843508D02*
X13606134Y-12833984D01*
X13758515Y-13014936D02*
X13768039Y-13024460D01*
X13768039Y-13024460D02*
X13758515Y-13033984D01*
X13758515Y-13033984D02*
X13748991Y-13024460D01*
X13748991Y-13024460D02*
X13758515Y-13014936D01*
X13758515Y-13014936D02*
X13758515Y-13033984D01*
X13891848Y-12833984D02*
X13910896Y-12833984D01*
X13910896Y-12833984D02*
X13929944Y-12843508D01*
X13929944Y-12843508D02*
X13939467Y-12853031D01*
X13939467Y-12853031D02*
X13948991Y-12872079D01*
X13948991Y-12872079D02*
X13958515Y-12910174D01*
X13958515Y-12910174D02*
X13958515Y-12957793D01*
X13958515Y-12957793D02*
X13948991Y-12995888D01*
X13948991Y-12995888D02*
X13939467Y-13014936D01*
X13939467Y-13014936D02*
X13929944Y-13024460D01*
X13929944Y-13024460D02*
X13910896Y-13033984D01*
X13910896Y-13033984D02*
X13891848Y-13033984D01*
X13891848Y-13033984D02*
X13872801Y-13024460D01*
X13872801Y-13024460D02*
X13863277Y-13014936D01*
X13863277Y-13014936D02*
X13853753Y-12995888D01*
X13853753Y-12995888D02*
X13844229Y-12957793D01*
X13844229Y-12957793D02*
X13844229Y-12910174D01*
X13844229Y-12910174D02*
X13853753Y-12872079D01*
X13853753Y-12872079D02*
X13863277Y-12853031D01*
X13863277Y-12853031D02*
X13872801Y-12843508D01*
X13872801Y-12843508D02*
X13891848Y-12833984D01*
X14129944Y-12833984D02*
X14091848Y-12833984D01*
X14091848Y-12833984D02*
X14072801Y-12843508D01*
X14072801Y-12843508D02*
X14063277Y-12853031D01*
X14063277Y-12853031D02*
X14044229Y-12881603D01*
X14044229Y-12881603D02*
X14034706Y-12919698D01*
X14034706Y-12919698D02*
X14034706Y-12995888D01*
X14034706Y-12995888D02*
X14044229Y-13014936D01*
X14044229Y-13014936D02*
X14053753Y-13024460D01*
X14053753Y-13024460D02*
X14072801Y-13033984D01*
X14072801Y-13033984D02*
X14110896Y-13033984D01*
X14110896Y-13033984D02*
X14129944Y-13024460D01*
X14129944Y-13024460D02*
X14139467Y-13014936D01*
X14139467Y-13014936D02*
X14148991Y-12995888D01*
X14148991Y-12995888D02*
X14148991Y-12948269D01*
X14148991Y-12948269D02*
X14139467Y-12929222D01*
X14139467Y-12929222D02*
X14129944Y-12919698D01*
X14129944Y-12919698D02*
X14110896Y-12910174D01*
X14110896Y-12910174D02*
X14072801Y-12910174D01*
X14072801Y-12910174D02*
X14053753Y-12919698D01*
X14053753Y-12919698D02*
X14044229Y-12929222D01*
X14044229Y-12929222D02*
X14034706Y-12948269D01*
X14215658Y-12833984D02*
X14339467Y-12833984D01*
X14339467Y-12833984D02*
X14272801Y-12910174D01*
X14272801Y-12910174D02*
X14301372Y-12910174D01*
X14301372Y-12910174D02*
X14320420Y-12919698D01*
X14320420Y-12919698D02*
X14329944Y-12929222D01*
X14329944Y-12929222D02*
X14339467Y-12948269D01*
X14339467Y-12948269D02*
X14339467Y-12995888D01*
X14339467Y-12995888D02*
X14329944Y-13014936D01*
X14329944Y-13014936D02*
X14320420Y-13024460D01*
X14320420Y-13024460D02*
X14301372Y-13033984D01*
X14301372Y-13033984D02*
X14244229Y-13033984D01*
X14244229Y-13033984D02*
X14225182Y-13024460D01*
X14225182Y-13024460D02*
X14215658Y-13014936D01*
X14463277Y-12833984D02*
X14482325Y-12833984D01*
X14482325Y-12833984D02*
X14501372Y-12843508D01*
X14501372Y-12843508D02*
X14510896Y-12853031D01*
X14510896Y-12853031D02*
X14520420Y-12872079D01*
X14520420Y-12872079D02*
X14529944Y-12910174D01*
X14529944Y-12910174D02*
X14529944Y-12957793D01*
X14529944Y-12957793D02*
X14520420Y-12995888D01*
X14520420Y-12995888D02*
X14510896Y-13014936D01*
X14510896Y-13014936D02*
X14501372Y-13024460D01*
X14501372Y-13024460D02*
X14482325Y-13033984D01*
X14482325Y-13033984D02*
X14463277Y-13033984D01*
X14463277Y-13033984D02*
X14444229Y-13024460D01*
X14444229Y-13024460D02*
X14434706Y-13014936D01*
X14434706Y-13014936D02*
X14425182Y-12995888D01*
X14425182Y-12995888D02*
X14415658Y-12957793D01*
X14415658Y-12957793D02*
X14415658Y-12910174D01*
X14415658Y-12910174D02*
X14425182Y-12872079D01*
X14425182Y-12872079D02*
X14434706Y-12853031D01*
X14434706Y-12853031D02*
X14444229Y-12843508D01*
X14444229Y-12843508D02*
X14463277Y-12833984D01*
X14606134Y-12833984D02*
X14606134Y-12872079D01*
X14682325Y-12833984D02*
X14682325Y-12872079D01*
X14977563Y-13110174D02*
X14968039Y-13100650D01*
X14968039Y-13100650D02*
X14948991Y-13072079D01*
X14948991Y-13072079D02*
X14939468Y-13053031D01*
X14939468Y-13053031D02*
X14929944Y-13024460D01*
X14929944Y-13024460D02*
X14920420Y-12976841D01*
X14920420Y-12976841D02*
X14920420Y-12938746D01*
X14920420Y-12938746D02*
X14929944Y-12891127D01*
X14929944Y-12891127D02*
X14939468Y-12862555D01*
X14939468Y-12862555D02*
X14948991Y-12843508D01*
X14948991Y-12843508D02*
X14968039Y-12814936D01*
X14968039Y-12814936D02*
X14977563Y-12805412D01*
X15044229Y-12853031D02*
X15053753Y-12843508D01*
X15053753Y-12843508D02*
X15072801Y-12833984D01*
X15072801Y-12833984D02*
X15120420Y-12833984D01*
X15120420Y-12833984D02*
X15139468Y-12843508D01*
X15139468Y-12843508D02*
X15148991Y-12853031D01*
X15148991Y-12853031D02*
X15158515Y-12872079D01*
X15158515Y-12872079D02*
X15158515Y-12891127D01*
X15158515Y-12891127D02*
X15148991Y-12919698D01*
X15148991Y-12919698D02*
X15034706Y-13033984D01*
X15034706Y-13033984D02*
X15158515Y-13033984D01*
X15396610Y-13033984D02*
X15396610Y-12833984D01*
X15482325Y-13033984D02*
X15482325Y-12929222D01*
X15482325Y-12929222D02*
X15472801Y-12910174D01*
X15472801Y-12910174D02*
X15453753Y-12900650D01*
X15453753Y-12900650D02*
X15425182Y-12900650D01*
X15425182Y-12900650D02*
X15406134Y-12910174D01*
X15406134Y-12910174D02*
X15396610Y-12919698D01*
X15606134Y-13033984D02*
X15587087Y-13024460D01*
X15587087Y-13024460D02*
X15577563Y-13014936D01*
X15577563Y-13014936D02*
X15568039Y-12995888D01*
X15568039Y-12995888D02*
X15568039Y-12938746D01*
X15568039Y-12938746D02*
X15577563Y-12919698D01*
X15577563Y-12919698D02*
X15587087Y-12910174D01*
X15587087Y-12910174D02*
X15606134Y-12900650D01*
X15606134Y-12900650D02*
X15634706Y-12900650D01*
X15634706Y-12900650D02*
X15653753Y-12910174D01*
X15653753Y-12910174D02*
X15663277Y-12919698D01*
X15663277Y-12919698D02*
X15672801Y-12938746D01*
X15672801Y-12938746D02*
X15672801Y-12995888D01*
X15672801Y-12995888D02*
X15663277Y-13014936D01*
X15663277Y-13014936D02*
X15653753Y-13024460D01*
X15653753Y-13024460D02*
X15634706Y-13033984D01*
X15634706Y-13033984D02*
X15606134Y-13033984D01*
X15787087Y-13033984D02*
X15768039Y-13024460D01*
X15768039Y-13024460D02*
X15758515Y-13005412D01*
X15758515Y-13005412D02*
X15758515Y-12833984D01*
X15939468Y-13024460D02*
X15920420Y-13033984D01*
X15920420Y-13033984D02*
X15882325Y-13033984D01*
X15882325Y-13033984D02*
X15863277Y-13024460D01*
X15863277Y-13024460D02*
X15853753Y-13005412D01*
X15853753Y-13005412D02*
X15853753Y-12929222D01*
X15853753Y-12929222D02*
X15863277Y-12910174D01*
X15863277Y-12910174D02*
X15882325Y-12900650D01*
X15882325Y-12900650D02*
X15920420Y-12900650D01*
X15920420Y-12900650D02*
X15939468Y-12910174D01*
X15939468Y-12910174D02*
X15948991Y-12929222D01*
X15948991Y-12929222D02*
X15948991Y-12948269D01*
X15948991Y-12948269D02*
X15853753Y-12967317D01*
X16025182Y-13024460D02*
X16044230Y-13033984D01*
X16044230Y-13033984D02*
X16082325Y-13033984D01*
X16082325Y-13033984D02*
X16101372Y-13024460D01*
X16101372Y-13024460D02*
X16110896Y-13005412D01*
X16110896Y-13005412D02*
X16110896Y-12995888D01*
X16110896Y-12995888D02*
X16101372Y-12976841D01*
X16101372Y-12976841D02*
X16082325Y-12967317D01*
X16082325Y-12967317D02*
X16053753Y-12967317D01*
X16053753Y-12967317D02*
X16034706Y-12957793D01*
X16034706Y-12957793D02*
X16025182Y-12938746D01*
X16025182Y-12938746D02*
X16025182Y-12929222D01*
X16025182Y-12929222D02*
X16034706Y-12910174D01*
X16034706Y-12910174D02*
X16053753Y-12900650D01*
X16053753Y-12900650D02*
X16082325Y-12900650D01*
X16082325Y-12900650D02*
X16101372Y-12910174D01*
X16177563Y-13110174D02*
X16187087Y-13100650D01*
X16187087Y-13100650D02*
X16206134Y-13072079D01*
X16206134Y-13072079D02*
X16215658Y-13053031D01*
X16215658Y-13053031D02*
X16225182Y-13024460D01*
X16225182Y-13024460D02*
X16234706Y-12976841D01*
X16234706Y-12976841D02*
X16234706Y-12938746D01*
X16234706Y-12938746D02*
X16225182Y-12891127D01*
X16225182Y-12891127D02*
X16215658Y-12862555D01*
X16215658Y-12862555D02*
X16206134Y-12843508D01*
X16206134Y-12843508D02*
X16187087Y-12814936D01*
X16187087Y-12814936D02*
X16177563Y-12805412D01*
X16539468Y-13110174D02*
X16529944Y-13100650D01*
X16529944Y-13100650D02*
X16510896Y-13072079D01*
X16510896Y-13072079D02*
X16501372Y-13053031D01*
X16501372Y-13053031D02*
X16491849Y-13024460D01*
X16491849Y-13024460D02*
X16482325Y-12976841D01*
X16482325Y-12976841D02*
X16482325Y-12938746D01*
X16482325Y-12938746D02*
X16491849Y-12891127D01*
X16491849Y-12891127D02*
X16501372Y-12862555D01*
X16501372Y-12862555D02*
X16510896Y-12843508D01*
X16510896Y-12843508D02*
X16529944Y-12814936D01*
X16529944Y-12814936D02*
X16539468Y-12805412D01*
X16615658Y-12900650D02*
X16615658Y-13033984D01*
X16615658Y-12919698D02*
X16625182Y-12910174D01*
X16625182Y-12910174D02*
X16644230Y-12900650D01*
X16644230Y-12900650D02*
X16672801Y-12900650D01*
X16672801Y-12900650D02*
X16691849Y-12910174D01*
X16691849Y-12910174D02*
X16701372Y-12929222D01*
X16701372Y-12929222D02*
X16701372Y-13033984D01*
X16825182Y-13033984D02*
X16806134Y-13024460D01*
X16806134Y-13024460D02*
X16796611Y-13014936D01*
X16796611Y-13014936D02*
X16787087Y-12995888D01*
X16787087Y-12995888D02*
X16787087Y-12938746D01*
X16787087Y-12938746D02*
X16796611Y-12919698D01*
X16796611Y-12919698D02*
X16806134Y-12910174D01*
X16806134Y-12910174D02*
X16825182Y-12900650D01*
X16825182Y-12900650D02*
X16853754Y-12900650D01*
X16853754Y-12900650D02*
X16872801Y-12910174D01*
X16872801Y-12910174D02*
X16882325Y-12919698D01*
X16882325Y-12919698D02*
X16891849Y-12938746D01*
X16891849Y-12938746D02*
X16891849Y-12995888D01*
X16891849Y-12995888D02*
X16882325Y-13014936D01*
X16882325Y-13014936D02*
X16872801Y-13024460D01*
X16872801Y-13024460D02*
X16853754Y-13033984D01*
X16853754Y-13033984D02*
X16825182Y-13033984D01*
X16948992Y-12900650D02*
X17025182Y-12900650D01*
X16977563Y-12833984D02*
X16977563Y-13005412D01*
X16977563Y-13005412D02*
X16987087Y-13024460D01*
X16987087Y-13024460D02*
X17006134Y-13033984D01*
X17006134Y-13033984D02*
X17025182Y-13033984D01*
X17244230Y-12900650D02*
X17244230Y-13100650D01*
X17244230Y-12910174D02*
X17263277Y-12900650D01*
X17263277Y-12900650D02*
X17301373Y-12900650D01*
X17301373Y-12900650D02*
X17320420Y-12910174D01*
X17320420Y-12910174D02*
X17329944Y-12919698D01*
X17329944Y-12919698D02*
X17339468Y-12938746D01*
X17339468Y-12938746D02*
X17339468Y-12995888D01*
X17339468Y-12995888D02*
X17329944Y-13014936D01*
X17329944Y-13014936D02*
X17320420Y-13024460D01*
X17320420Y-13024460D02*
X17301373Y-13033984D01*
X17301373Y-13033984D02*
X17263277Y-13033984D01*
X17263277Y-13033984D02*
X17244230Y-13024460D01*
X17453754Y-13033984D02*
X17434706Y-13024460D01*
X17434706Y-13024460D02*
X17425182Y-13005412D01*
X17425182Y-13005412D02*
X17425182Y-12833984D01*
X17615658Y-13033984D02*
X17615658Y-12929222D01*
X17615658Y-12929222D02*
X17606135Y-12910174D01*
X17606135Y-12910174D02*
X17587087Y-12900650D01*
X17587087Y-12900650D02*
X17548992Y-12900650D01*
X17548992Y-12900650D02*
X17529944Y-12910174D01*
X17615658Y-13024460D02*
X17596611Y-13033984D01*
X17596611Y-13033984D02*
X17548992Y-13033984D01*
X17548992Y-13033984D02*
X17529944Y-13024460D01*
X17529944Y-13024460D02*
X17520420Y-13005412D01*
X17520420Y-13005412D02*
X17520420Y-12986365D01*
X17520420Y-12986365D02*
X17529944Y-12967317D01*
X17529944Y-12967317D02*
X17548992Y-12957793D01*
X17548992Y-12957793D02*
X17596611Y-12957793D01*
X17596611Y-12957793D02*
X17615658Y-12948269D01*
X17682325Y-12900650D02*
X17758515Y-12900650D01*
X17710896Y-12833984D02*
X17710896Y-13005412D01*
X17710896Y-13005412D02*
X17720420Y-13024460D01*
X17720420Y-13024460D02*
X17739468Y-13033984D01*
X17739468Y-13033984D02*
X17758515Y-13033984D01*
X17901373Y-13024460D02*
X17882325Y-13033984D01*
X17882325Y-13033984D02*
X17844230Y-13033984D01*
X17844230Y-13033984D02*
X17825182Y-13024460D01*
X17825182Y-13024460D02*
X17815658Y-13005412D01*
X17815658Y-13005412D02*
X17815658Y-12929222D01*
X17815658Y-12929222D02*
X17825182Y-12910174D01*
X17825182Y-12910174D02*
X17844230Y-12900650D01*
X17844230Y-12900650D02*
X17882325Y-12900650D01*
X17882325Y-12900650D02*
X17901373Y-12910174D01*
X17901373Y-12910174D02*
X17910896Y-12929222D01*
X17910896Y-12929222D02*
X17910896Y-12948269D01*
X17910896Y-12948269D02*
X17815658Y-12967317D01*
X18082325Y-13033984D02*
X18082325Y-12833984D01*
X18082325Y-13024460D02*
X18063277Y-13033984D01*
X18063277Y-13033984D02*
X18025182Y-13033984D01*
X18025182Y-13033984D02*
X18006135Y-13024460D01*
X18006135Y-13024460D02*
X17996611Y-13014936D01*
X17996611Y-13014936D02*
X17987087Y-12995888D01*
X17987087Y-12995888D02*
X17987087Y-12938746D01*
X17987087Y-12938746D02*
X17996611Y-12919698D01*
X17996611Y-12919698D02*
X18006135Y-12910174D01*
X18006135Y-12910174D02*
X18025182Y-12900650D01*
X18025182Y-12900650D02*
X18063277Y-12900650D01*
X18063277Y-12900650D02*
X18082325Y-12910174D01*
X18158516Y-13110174D02*
X18168039Y-13100650D01*
X18168039Y-13100650D02*
X18187087Y-13072079D01*
X18187087Y-13072079D02*
X18196611Y-13053031D01*
X18196611Y-13053031D02*
X18206135Y-13024460D01*
X18206135Y-13024460D02*
X18215658Y-12976841D01*
X18215658Y-12976841D02*
X18215658Y-12938746D01*
X18215658Y-12938746D02*
X18206135Y-12891127D01*
X18206135Y-12891127D02*
X18196611Y-12862555D01*
X18196611Y-12862555D02*
X18187087Y-12843508D01*
X18187087Y-12843508D02*
X18168039Y-12814936D01*
X18168039Y-12814936D02*
X18158516Y-12805412D01*
M02*
