%TF.GenerationSoftware,KiCad,Pcbnew,9.0.2+dfsg-1*%
%TF.CreationDate,2026-09-10T19:55:19+01:00*%
%TF.ProjectId,SDCore_progBoard,5344436f-7265-45f7-9072-6f67426f6172,rev?*%
%TF.SameCoordinates,Original*%
%TF.FileFunction,Drillmap*%
%TF.FilePolarity,Positive*%
%FSLAX45Y45*%
G04 Gerber Fmt 4.5, Leading zero omitted, Abs format (unit mm)*
G04 Created by KiCad (PCBNEW 9.0.2+dfsg-1) date 2026-09-10 19:55:19*
%MOMM*%
%LPD*%
G01*
G04 APERTURE LIST*
%ADD10C,0.050000*%
%ADD11C,0.254000*%
%ADD12C,0.200000*%
%ADD13C,0.100000*%
G04 APERTURE END LIST*
D10*
X11655000Y-9250000D02*
X11405000Y-9250000D01*
X16900000Y-12300000D02*
X16900000Y-9250000D01*
X11405000Y-9250000D02*
X11405000Y-12300000D01*
X11655000Y-9250000D02*
X12600000Y-9250000D01*
X16900000Y-9250000D02*
X12600000Y-9250000D01*
X12350000Y-12300000D02*
X16900000Y-12300000D01*
X12350000Y-12300000D02*
X11405000Y-12300000D01*
D11*
X11640006Y-11513577D02*
X11640006Y-12162443D01*
X12560000Y-11513577D02*
X11640006Y-11513577D01*
X12560000Y-11513577D02*
X12560000Y-12162443D01*
D12*
D13*
X12019000Y-11425230D02*
X12031000Y-11437230D01*
X12031000Y-11425230D02*
X12019000Y-11437230D01*
X12114000Y-10894000D02*
X12126000Y-10906000D01*
X12126000Y-10894000D02*
X12114000Y-10906000D01*
X12119000Y-11425230D02*
X12131000Y-11437230D01*
X12131000Y-11425230D02*
X12119000Y-11437230D01*
X13839563Y-11775959D02*
X13851563Y-11787959D01*
X13851563Y-11775959D02*
X13839563Y-11787959D01*
X11585000Y-10280000D02*
G75*
G02*
X11555000Y-10280000I-15000J0D01*
G01*
X11555000Y-10280000D02*
G75*
G02*
X11585000Y-10280000I15000J0D01*
G01*
X11685000Y-9410000D02*
G75*
G02*
X11655000Y-9410000I-15000J0D01*
G01*
X11655000Y-9410000D02*
G75*
G02*
X11685000Y-9410000I15000J0D01*
G01*
X11816500Y-9935000D02*
G75*
G02*
X11786500Y-9935000I-15000J0D01*
G01*
X11786500Y-9935000D02*
G75*
G02*
X11816500Y-9935000I15000J0D01*
G01*
X11875000Y-11431230D02*
G75*
G02*
X11845000Y-11431230I-15000J0D01*
G01*
X11845000Y-11431230D02*
G75*
G02*
X11875000Y-11431230I15000J0D01*
G01*
X12095000Y-11860000D02*
G75*
G02*
X12065000Y-11860000I-15000J0D01*
G01*
X12065000Y-11860000D02*
G75*
G02*
X12095000Y-11860000I15000J0D01*
G01*
X12255000Y-10430000D02*
G75*
G02*
X12225000Y-10430000I-15000J0D01*
G01*
X12225000Y-10430000D02*
G75*
G02*
X12255000Y-10430000I15000J0D01*
G01*
X12355000Y-11431230D02*
G75*
G02*
X12325000Y-11431230I-15000J0D01*
G01*
X12325000Y-11431230D02*
G75*
G02*
X12355000Y-11431230I15000J0D01*
G01*
X12383500Y-9705000D02*
G75*
G02*
X12353500Y-9705000I-15000J0D01*
G01*
X12353500Y-9705000D02*
G75*
G02*
X12383500Y-9705000I15000J0D01*
G01*
X12383500Y-9935000D02*
G75*
G02*
X12353500Y-9935000I-15000J0D01*
G01*
X12353500Y-9935000D02*
G75*
G02*
X12383500Y-9935000I15000J0D01*
G01*
X12885000Y-10960000D02*
G75*
G02*
X12855000Y-10960000I-15000J0D01*
G01*
X12855000Y-10960000D02*
G75*
G02*
X12885000Y-10960000I15000J0D01*
G01*
X13155000Y-9420000D02*
G75*
G02*
X13125000Y-9420000I-15000J0D01*
G01*
X13125000Y-9420000D02*
G75*
G02*
X13155000Y-9420000I15000J0D01*
G01*
X13165000Y-12070000D02*
G75*
G02*
X13135000Y-12070000I-15000J0D01*
G01*
X13135000Y-12070000D02*
G75*
G02*
X13165000Y-12070000I15000J0D01*
G01*
X13475000Y-10270000D02*
G75*
G02*
X13445000Y-10270000I-15000J0D01*
G01*
X13445000Y-10270000D02*
G75*
G02*
X13475000Y-10270000I15000J0D01*
G01*
X13860563Y-10703959D02*
G75*
G02*
X13830563Y-10703959I-15000J0D01*
G01*
X13830563Y-10703959D02*
G75*
G02*
X13860563Y-10703959I15000J0D01*
G01*
X13860563Y-10868959D02*
G75*
G02*
X13830563Y-10868959I-15000J0D01*
G01*
X13830563Y-10868959D02*
G75*
G02*
X13860563Y-10868959I15000J0D01*
G01*
X13860563Y-11368959D02*
G75*
G02*
X13830563Y-11368959I-15000J0D01*
G01*
X13830563Y-11368959D02*
G75*
G02*
X13860563Y-11368959I15000J0D01*
G01*
X14225000Y-11360000D02*
G75*
G02*
X14195000Y-11360000I-15000J0D01*
G01*
X14195000Y-11360000D02*
G75*
G02*
X14225000Y-11360000I15000J0D01*
G01*
X14605000Y-10040000D02*
G75*
G02*
X14575000Y-10040000I-15000J0D01*
G01*
X14575000Y-10040000D02*
G75*
G02*
X14605000Y-10040000I15000J0D01*
G01*
X14745000Y-10860000D02*
G75*
G02*
X14715000Y-10860000I-15000J0D01*
G01*
X14715000Y-10860000D02*
G75*
G02*
X14745000Y-10860000I15000J0D01*
G01*
X14745000Y-11590000D02*
G75*
G02*
X14715000Y-11590000I-15000J0D01*
G01*
X14715000Y-11590000D02*
G75*
G02*
X14745000Y-11590000I15000J0D01*
G01*
X15085000Y-10370000D02*
G75*
G02*
X15055000Y-10370000I-15000J0D01*
G01*
X15055000Y-10370000D02*
G75*
G02*
X15085000Y-10370000I15000J0D01*
G01*
X15625000Y-11270000D02*
G75*
G02*
X15595000Y-11270000I-15000J0D01*
G01*
X15595000Y-11270000D02*
G75*
G02*
X15625000Y-11270000I15000J0D01*
G01*
X15958584Y-9368959D02*
G75*
G02*
X15928584Y-9368959I-15000J0D01*
G01*
X15928584Y-9368959D02*
G75*
G02*
X15958584Y-9368959I15000J0D01*
G01*
X16078583Y-12168959D02*
G75*
G02*
X16048583Y-12168959I-15000J0D01*
G01*
X16048583Y-12168959D02*
G75*
G02*
X16078583Y-12168959I15000J0D01*
G01*
X11538000Y-11513658D02*
X11538000Y-11593658D01*
X11498000Y-11553658D02*
X11578000Y-11553658D01*
X11498000Y-11513658D02*
X11498000Y-11593658D01*
X11578000Y-11593658D02*
G75*
G02*
X11498000Y-11593658I-40000J0D01*
G01*
X11578000Y-11593658D02*
X11578000Y-11513658D01*
X11578000Y-11513658D02*
G75*
G03*
X11498000Y-11513658I-40000J0D01*
G01*
X11538000Y-11913657D02*
X11538000Y-11993657D01*
X11498000Y-11953657D02*
X11578000Y-11953657D01*
X11498000Y-11893657D02*
X11498000Y-12013657D01*
X11578000Y-12013657D02*
G75*
G02*
X11498000Y-12013657I-40000J0D01*
G01*
X11578000Y-12013657D02*
X11578000Y-11893657D01*
X11578000Y-11893657D02*
G75*
G03*
X11498000Y-11893657I-40000J0D01*
G01*
X12662000Y-11513658D02*
X12662000Y-11593658D01*
X12622000Y-11553658D02*
X12702000Y-11553658D01*
X12622000Y-11513658D02*
X12622000Y-11593658D01*
X12702000Y-11593658D02*
G75*
G02*
X12622000Y-11593658I-40000J0D01*
G01*
X12702000Y-11593658D02*
X12702000Y-11513658D01*
X12702000Y-11513658D02*
G75*
G03*
X12622000Y-11513658I-40000J0D01*
G01*
X12662000Y-11913657D02*
X12662000Y-11993657D01*
X12622000Y-11953657D02*
X12702000Y-11953657D01*
X12622000Y-11893657D02*
X12622000Y-12013657D01*
X12702000Y-12013657D02*
G75*
G02*
X12622000Y-12013657I-40000J0D01*
G01*
X12702000Y-12013657D02*
X12702000Y-11893657D01*
X12702000Y-11893657D02*
G75*
G03*
X12622000Y-11893657I-40000J0D01*
G01*
D12*
X11663277Y-12613984D02*
X11663277Y-12413984D01*
X11663277Y-12413984D02*
X11710896Y-12413984D01*
X11710896Y-12413984D02*
X11739467Y-12423508D01*
X11739467Y-12423508D02*
X11758515Y-12442555D01*
X11758515Y-12442555D02*
X11768039Y-12461603D01*
X11768039Y-12461603D02*
X11777562Y-12499698D01*
X11777562Y-12499698D02*
X11777562Y-12528269D01*
X11777562Y-12528269D02*
X11768039Y-12566365D01*
X11768039Y-12566365D02*
X11758515Y-12585412D01*
X11758515Y-12585412D02*
X11739467Y-12604460D01*
X11739467Y-12604460D02*
X11710896Y-12613984D01*
X11710896Y-12613984D02*
X11663277Y-12613984D01*
X11863277Y-12613984D02*
X11863277Y-12480650D01*
X11863277Y-12518746D02*
X11872801Y-12499698D01*
X11872801Y-12499698D02*
X11882324Y-12490174D01*
X11882324Y-12490174D02*
X11901372Y-12480650D01*
X11901372Y-12480650D02*
X11920420Y-12480650D01*
X11987086Y-12613984D02*
X11987086Y-12480650D01*
X11987086Y-12413984D02*
X11977562Y-12423508D01*
X11977562Y-12423508D02*
X11987086Y-12433031D01*
X11987086Y-12433031D02*
X11996610Y-12423508D01*
X11996610Y-12423508D02*
X11987086Y-12413984D01*
X11987086Y-12413984D02*
X11987086Y-12433031D01*
X12110896Y-12613984D02*
X12091848Y-12604460D01*
X12091848Y-12604460D02*
X12082324Y-12585412D01*
X12082324Y-12585412D02*
X12082324Y-12413984D01*
X12215658Y-12613984D02*
X12196610Y-12604460D01*
X12196610Y-12604460D02*
X12187086Y-12585412D01*
X12187086Y-12585412D02*
X12187086Y-12413984D01*
X12444229Y-12613984D02*
X12444229Y-12413984D01*
X12444229Y-12413984D02*
X12510896Y-12556841D01*
X12510896Y-12556841D02*
X12577562Y-12413984D01*
X12577562Y-12413984D02*
X12577562Y-12613984D01*
X12758515Y-12613984D02*
X12758515Y-12509222D01*
X12758515Y-12509222D02*
X12748991Y-12490174D01*
X12748991Y-12490174D02*
X12729943Y-12480650D01*
X12729943Y-12480650D02*
X12691848Y-12480650D01*
X12691848Y-12480650D02*
X12672801Y-12490174D01*
X12758515Y-12604460D02*
X12739467Y-12613984D01*
X12739467Y-12613984D02*
X12691848Y-12613984D01*
X12691848Y-12613984D02*
X12672801Y-12604460D01*
X12672801Y-12604460D02*
X12663277Y-12585412D01*
X12663277Y-12585412D02*
X12663277Y-12566365D01*
X12663277Y-12566365D02*
X12672801Y-12547317D01*
X12672801Y-12547317D02*
X12691848Y-12537793D01*
X12691848Y-12537793D02*
X12739467Y-12537793D01*
X12739467Y-12537793D02*
X12758515Y-12528269D01*
X12853753Y-12480650D02*
X12853753Y-12680650D01*
X12853753Y-12490174D02*
X12872801Y-12480650D01*
X12872801Y-12480650D02*
X12910896Y-12480650D01*
X12910896Y-12480650D02*
X12929943Y-12490174D01*
X12929943Y-12490174D02*
X12939467Y-12499698D01*
X12939467Y-12499698D02*
X12948991Y-12518746D01*
X12948991Y-12518746D02*
X12948991Y-12575888D01*
X12948991Y-12575888D02*
X12939467Y-12594936D01*
X12939467Y-12594936D02*
X12929943Y-12604460D01*
X12929943Y-12604460D02*
X12910896Y-12613984D01*
X12910896Y-12613984D02*
X12872801Y-12613984D01*
X12872801Y-12613984D02*
X12853753Y-12604460D01*
X13034705Y-12594936D02*
X13044229Y-12604460D01*
X13044229Y-12604460D02*
X13034705Y-12613984D01*
X13034705Y-12613984D02*
X13025182Y-12604460D01*
X13025182Y-12604460D02*
X13034705Y-12594936D01*
X13034705Y-12594936D02*
X13034705Y-12613984D01*
X13034705Y-12490174D02*
X13044229Y-12499698D01*
X13044229Y-12499698D02*
X13034705Y-12509222D01*
X13034705Y-12509222D02*
X13025182Y-12499698D01*
X13025182Y-12499698D02*
X13034705Y-12490174D01*
X13034705Y-12490174D02*
X13034705Y-12509222D01*
D13*
X11390500Y-12936500D02*
X11402500Y-12948500D01*
X11402500Y-12936500D02*
X11390500Y-12948500D01*
D12*
X11701372Y-12833984D02*
X11720420Y-12833984D01*
X11720420Y-12833984D02*
X11739467Y-12843508D01*
X11739467Y-12843508D02*
X11748991Y-12853031D01*
X11748991Y-12853031D02*
X11758515Y-12872079D01*
X11758515Y-12872079D02*
X11768039Y-12910174D01*
X11768039Y-12910174D02*
X11768039Y-12957793D01*
X11768039Y-12957793D02*
X11758515Y-12995888D01*
X11758515Y-12995888D02*
X11748991Y-13014936D01*
X11748991Y-13014936D02*
X11739467Y-13024460D01*
X11739467Y-13024460D02*
X11720420Y-13033984D01*
X11720420Y-13033984D02*
X11701372Y-13033984D01*
X11701372Y-13033984D02*
X11682324Y-13024460D01*
X11682324Y-13024460D02*
X11672801Y-13014936D01*
X11672801Y-13014936D02*
X11663277Y-12995888D01*
X11663277Y-12995888D02*
X11653753Y-12957793D01*
X11653753Y-12957793D02*
X11653753Y-12910174D01*
X11653753Y-12910174D02*
X11663277Y-12872079D01*
X11663277Y-12872079D02*
X11672801Y-12853031D01*
X11672801Y-12853031D02*
X11682324Y-12843508D01*
X11682324Y-12843508D02*
X11701372Y-12833984D01*
X11853753Y-13014936D02*
X11863277Y-13024460D01*
X11863277Y-13024460D02*
X11853753Y-13033984D01*
X11853753Y-13033984D02*
X11844229Y-13024460D01*
X11844229Y-13024460D02*
X11853753Y-13014936D01*
X11853753Y-13014936D02*
X11853753Y-13033984D01*
X12053753Y-13033984D02*
X11939467Y-13033984D01*
X11996610Y-13033984D02*
X11996610Y-12833984D01*
X11996610Y-12833984D02*
X11977562Y-12862555D01*
X11977562Y-12862555D02*
X11958515Y-12881603D01*
X11958515Y-12881603D02*
X11939467Y-12891127D01*
X12129943Y-12853031D02*
X12139467Y-12843508D01*
X12139467Y-12843508D02*
X12158515Y-12833984D01*
X12158515Y-12833984D02*
X12206134Y-12833984D01*
X12206134Y-12833984D02*
X12225182Y-12843508D01*
X12225182Y-12843508D02*
X12234705Y-12853031D01*
X12234705Y-12853031D02*
X12244229Y-12872079D01*
X12244229Y-12872079D02*
X12244229Y-12891127D01*
X12244229Y-12891127D02*
X12234705Y-12919698D01*
X12234705Y-12919698D02*
X12120420Y-13033984D01*
X12120420Y-13033984D02*
X12244229Y-13033984D01*
X12368039Y-12833984D02*
X12387086Y-12833984D01*
X12387086Y-12833984D02*
X12406134Y-12843508D01*
X12406134Y-12843508D02*
X12415658Y-12853031D01*
X12415658Y-12853031D02*
X12425182Y-12872079D01*
X12425182Y-12872079D02*
X12434705Y-12910174D01*
X12434705Y-12910174D02*
X12434705Y-12957793D01*
X12434705Y-12957793D02*
X12425182Y-12995888D01*
X12425182Y-12995888D02*
X12415658Y-13014936D01*
X12415658Y-13014936D02*
X12406134Y-13024460D01*
X12406134Y-13024460D02*
X12387086Y-13033984D01*
X12387086Y-13033984D02*
X12368039Y-13033984D01*
X12368039Y-13033984D02*
X12348991Y-13024460D01*
X12348991Y-13024460D02*
X12339467Y-13014936D01*
X12339467Y-13014936D02*
X12329943Y-12995888D01*
X12329943Y-12995888D02*
X12320420Y-12957793D01*
X12320420Y-12957793D02*
X12320420Y-12910174D01*
X12320420Y-12910174D02*
X12329943Y-12872079D01*
X12329943Y-12872079D02*
X12339467Y-12853031D01*
X12339467Y-12853031D02*
X12348991Y-12843508D01*
X12348991Y-12843508D02*
X12368039Y-12833984D01*
X12520420Y-13033984D02*
X12520420Y-12900650D01*
X12520420Y-12919698D02*
X12529943Y-12910174D01*
X12529943Y-12910174D02*
X12548991Y-12900650D01*
X12548991Y-12900650D02*
X12577563Y-12900650D01*
X12577563Y-12900650D02*
X12596610Y-12910174D01*
X12596610Y-12910174D02*
X12606134Y-12929222D01*
X12606134Y-12929222D02*
X12606134Y-13033984D01*
X12606134Y-12929222D02*
X12615658Y-12910174D01*
X12615658Y-12910174D02*
X12634705Y-12900650D01*
X12634705Y-12900650D02*
X12663277Y-12900650D01*
X12663277Y-12900650D02*
X12682324Y-12910174D01*
X12682324Y-12910174D02*
X12691848Y-12929222D01*
X12691848Y-12929222D02*
X12691848Y-13033984D01*
X12787086Y-13033984D02*
X12787086Y-12900650D01*
X12787086Y-12919698D02*
X12796610Y-12910174D01*
X12796610Y-12910174D02*
X12815658Y-12900650D01*
X12815658Y-12900650D02*
X12844229Y-12900650D01*
X12844229Y-12900650D02*
X12863277Y-12910174D01*
X12863277Y-12910174D02*
X12872801Y-12929222D01*
X12872801Y-12929222D02*
X12872801Y-13033984D01*
X12872801Y-12929222D02*
X12882324Y-12910174D01*
X12882324Y-12910174D02*
X12901372Y-12900650D01*
X12901372Y-12900650D02*
X12929943Y-12900650D01*
X12929943Y-12900650D02*
X12948991Y-12910174D01*
X12948991Y-12910174D02*
X12958515Y-12929222D01*
X12958515Y-12929222D02*
X12958515Y-13033984D01*
X13348991Y-12824460D02*
X13177563Y-13081603D01*
X13606134Y-12833984D02*
X13625182Y-12833984D01*
X13625182Y-12833984D02*
X13644229Y-12843508D01*
X13644229Y-12843508D02*
X13653753Y-12853031D01*
X13653753Y-12853031D02*
X13663277Y-12872079D01*
X13663277Y-12872079D02*
X13672801Y-12910174D01*
X13672801Y-12910174D02*
X13672801Y-12957793D01*
X13672801Y-12957793D02*
X13663277Y-12995888D01*
X13663277Y-12995888D02*
X13653753Y-13014936D01*
X13653753Y-13014936D02*
X13644229Y-13024460D01*
X13644229Y-13024460D02*
X13625182Y-13033984D01*
X13625182Y-13033984D02*
X13606134Y-13033984D01*
X13606134Y-13033984D02*
X13587086Y-13024460D01*
X13587086Y-13024460D02*
X13577563Y-13014936D01*
X13577563Y-13014936D02*
X13568039Y-12995888D01*
X13568039Y-12995888D02*
X13558515Y-12957793D01*
X13558515Y-12957793D02*
X13558515Y-12910174D01*
X13558515Y-12910174D02*
X13568039Y-12872079D01*
X13568039Y-12872079D02*
X13577563Y-12853031D01*
X13577563Y-12853031D02*
X13587086Y-12843508D01*
X13587086Y-12843508D02*
X13606134Y-12833984D01*
X13758515Y-13014936D02*
X13768039Y-13024460D01*
X13768039Y-13024460D02*
X13758515Y-13033984D01*
X13758515Y-13033984D02*
X13748991Y-13024460D01*
X13748991Y-13024460D02*
X13758515Y-13014936D01*
X13758515Y-13014936D02*
X13758515Y-13033984D01*
X13891848Y-12833984D02*
X13910896Y-12833984D01*
X13910896Y-12833984D02*
X13929944Y-12843508D01*
X13929944Y-12843508D02*
X13939467Y-12853031D01*
X13939467Y-12853031D02*
X13948991Y-12872079D01*
X13948991Y-12872079D02*
X13958515Y-12910174D01*
X13958515Y-12910174D02*
X13958515Y-12957793D01*
X13958515Y-12957793D02*
X13948991Y-12995888D01*
X13948991Y-12995888D02*
X13939467Y-13014936D01*
X13939467Y-13014936D02*
X13929944Y-13024460D01*
X13929944Y-13024460D02*
X13910896Y-13033984D01*
X13910896Y-13033984D02*
X13891848Y-13033984D01*
X13891848Y-13033984D02*
X13872801Y-13024460D01*
X13872801Y-13024460D02*
X13863277Y-13014936D01*
X13863277Y-13014936D02*
X13853753Y-12995888D01*
X13853753Y-12995888D02*
X13844229Y-12957793D01*
X13844229Y-12957793D02*
X13844229Y-12910174D01*
X13844229Y-12910174D02*
X13853753Y-12872079D01*
X13853753Y-12872079D02*
X13863277Y-12853031D01*
X13863277Y-12853031D02*
X13872801Y-12843508D01*
X13872801Y-12843508D02*
X13891848Y-12833984D01*
X14082325Y-12833984D02*
X14101372Y-12833984D01*
X14101372Y-12833984D02*
X14120420Y-12843508D01*
X14120420Y-12843508D02*
X14129944Y-12853031D01*
X14129944Y-12853031D02*
X14139467Y-12872079D01*
X14139467Y-12872079D02*
X14148991Y-12910174D01*
X14148991Y-12910174D02*
X14148991Y-12957793D01*
X14148991Y-12957793D02*
X14139467Y-12995888D01*
X14139467Y-12995888D02*
X14129944Y-13014936D01*
X14129944Y-13014936D02*
X14120420Y-13024460D01*
X14120420Y-13024460D02*
X14101372Y-13033984D01*
X14101372Y-13033984D02*
X14082325Y-13033984D01*
X14082325Y-13033984D02*
X14063277Y-13024460D01*
X14063277Y-13024460D02*
X14053753Y-13014936D01*
X14053753Y-13014936D02*
X14044229Y-12995888D01*
X14044229Y-12995888D02*
X14034706Y-12957793D01*
X14034706Y-12957793D02*
X14034706Y-12910174D01*
X14034706Y-12910174D02*
X14044229Y-12872079D01*
X14044229Y-12872079D02*
X14053753Y-12853031D01*
X14053753Y-12853031D02*
X14063277Y-12843508D01*
X14063277Y-12843508D02*
X14082325Y-12833984D01*
X14320420Y-12900650D02*
X14320420Y-13033984D01*
X14272801Y-12824460D02*
X14225182Y-12967317D01*
X14225182Y-12967317D02*
X14348991Y-12967317D01*
X14406134Y-12833984D02*
X14539467Y-12833984D01*
X14539467Y-12833984D02*
X14453753Y-13033984D01*
X14606134Y-12833984D02*
X14606134Y-12872079D01*
X14682325Y-12833984D02*
X14682325Y-12872079D01*
X14977563Y-13110174D02*
X14968039Y-13100650D01*
X14968039Y-13100650D02*
X14948991Y-13072079D01*
X14948991Y-13072079D02*
X14939468Y-13053031D01*
X14939468Y-13053031D02*
X14929944Y-13024460D01*
X14929944Y-13024460D02*
X14920420Y-12976841D01*
X14920420Y-12976841D02*
X14920420Y-12938746D01*
X14920420Y-12938746D02*
X14929944Y-12891127D01*
X14929944Y-12891127D02*
X14939468Y-12862555D01*
X14939468Y-12862555D02*
X14948991Y-12843508D01*
X14948991Y-12843508D02*
X14968039Y-12814936D01*
X14968039Y-12814936D02*
X14977563Y-12805412D01*
X15139468Y-12900650D02*
X15139468Y-13033984D01*
X15091848Y-12824460D02*
X15044229Y-12967317D01*
X15044229Y-12967317D02*
X15168039Y-12967317D01*
X15396610Y-13033984D02*
X15396610Y-12833984D01*
X15482325Y-13033984D02*
X15482325Y-12929222D01*
X15482325Y-12929222D02*
X15472801Y-12910174D01*
X15472801Y-12910174D02*
X15453753Y-12900650D01*
X15453753Y-12900650D02*
X15425182Y-12900650D01*
X15425182Y-12900650D02*
X15406134Y-12910174D01*
X15406134Y-12910174D02*
X15396610Y-12919698D01*
X15606134Y-13033984D02*
X15587087Y-13024460D01*
X15587087Y-13024460D02*
X15577563Y-13014936D01*
X15577563Y-13014936D02*
X15568039Y-12995888D01*
X15568039Y-12995888D02*
X15568039Y-12938746D01*
X15568039Y-12938746D02*
X15577563Y-12919698D01*
X15577563Y-12919698D02*
X15587087Y-12910174D01*
X15587087Y-12910174D02*
X15606134Y-12900650D01*
X15606134Y-12900650D02*
X15634706Y-12900650D01*
X15634706Y-12900650D02*
X15653753Y-12910174D01*
X15653753Y-12910174D02*
X15663277Y-12919698D01*
X15663277Y-12919698D02*
X15672801Y-12938746D01*
X15672801Y-12938746D02*
X15672801Y-12995888D01*
X15672801Y-12995888D02*
X15663277Y-13014936D01*
X15663277Y-13014936D02*
X15653753Y-13024460D01*
X15653753Y-13024460D02*
X15634706Y-13033984D01*
X15634706Y-13033984D02*
X15606134Y-13033984D01*
X15787087Y-13033984D02*
X15768039Y-13024460D01*
X15768039Y-13024460D02*
X15758515Y-13005412D01*
X15758515Y-13005412D02*
X15758515Y-12833984D01*
X15939468Y-13024460D02*
X15920420Y-13033984D01*
X15920420Y-13033984D02*
X15882325Y-13033984D01*
X15882325Y-13033984D02*
X15863277Y-13024460D01*
X15863277Y-13024460D02*
X15853753Y-13005412D01*
X15853753Y-13005412D02*
X15853753Y-12929222D01*
X15853753Y-12929222D02*
X15863277Y-12910174D01*
X15863277Y-12910174D02*
X15882325Y-12900650D01*
X15882325Y-12900650D02*
X15920420Y-12900650D01*
X15920420Y-12900650D02*
X15939468Y-12910174D01*
X15939468Y-12910174D02*
X15948991Y-12929222D01*
X15948991Y-12929222D02*
X15948991Y-12948269D01*
X15948991Y-12948269D02*
X15853753Y-12967317D01*
X16025182Y-13024460D02*
X16044230Y-13033984D01*
X16044230Y-13033984D02*
X16082325Y-13033984D01*
X16082325Y-13033984D02*
X16101372Y-13024460D01*
X16101372Y-13024460D02*
X16110896Y-13005412D01*
X16110896Y-13005412D02*
X16110896Y-12995888D01*
X16110896Y-12995888D02*
X16101372Y-12976841D01*
X16101372Y-12976841D02*
X16082325Y-12967317D01*
X16082325Y-12967317D02*
X16053753Y-12967317D01*
X16053753Y-12967317D02*
X16034706Y-12957793D01*
X16034706Y-12957793D02*
X16025182Y-12938746D01*
X16025182Y-12938746D02*
X16025182Y-12929222D01*
X16025182Y-12929222D02*
X16034706Y-12910174D01*
X16034706Y-12910174D02*
X16053753Y-12900650D01*
X16053753Y-12900650D02*
X16082325Y-12900650D01*
X16082325Y-12900650D02*
X16101372Y-12910174D01*
X16177563Y-13110174D02*
X16187087Y-13100650D01*
X16187087Y-13100650D02*
X16206134Y-13072079D01*
X16206134Y-13072079D02*
X16215658Y-13053031D01*
X16215658Y-13053031D02*
X16225182Y-13024460D01*
X16225182Y-13024460D02*
X16234706Y-12976841D01*
X16234706Y-12976841D02*
X16234706Y-12938746D01*
X16234706Y-12938746D02*
X16225182Y-12891127D01*
X16225182Y-12891127D02*
X16215658Y-12862555D01*
X16215658Y-12862555D02*
X16206134Y-12843508D01*
X16206134Y-12843508D02*
X16187087Y-12814936D01*
X16187087Y-12814936D02*
X16177563Y-12805412D01*
D13*
X11402500Y-13206500D02*
G75*
G02*
X11372500Y-13206500I-15000J0D01*
G01*
X11372500Y-13206500D02*
G75*
G02*
X11402500Y-13206500I15000J0D01*
G01*
D12*
X11701372Y-13097984D02*
X11720420Y-13097984D01*
X11720420Y-13097984D02*
X11739467Y-13107508D01*
X11739467Y-13107508D02*
X11748991Y-13117031D01*
X11748991Y-13117031D02*
X11758515Y-13136079D01*
X11758515Y-13136079D02*
X11768039Y-13174174D01*
X11768039Y-13174174D02*
X11768039Y-13221793D01*
X11768039Y-13221793D02*
X11758515Y-13259888D01*
X11758515Y-13259888D02*
X11748991Y-13278936D01*
X11748991Y-13278936D02*
X11739467Y-13288460D01*
X11739467Y-13288460D02*
X11720420Y-13297984D01*
X11720420Y-13297984D02*
X11701372Y-13297984D01*
X11701372Y-13297984D02*
X11682324Y-13288460D01*
X11682324Y-13288460D02*
X11672801Y-13278936D01*
X11672801Y-13278936D02*
X11663277Y-13259888D01*
X11663277Y-13259888D02*
X11653753Y-13221793D01*
X11653753Y-13221793D02*
X11653753Y-13174174D01*
X11653753Y-13174174D02*
X11663277Y-13136079D01*
X11663277Y-13136079D02*
X11672801Y-13117031D01*
X11672801Y-13117031D02*
X11682324Y-13107508D01*
X11682324Y-13107508D02*
X11701372Y-13097984D01*
X11853753Y-13278936D02*
X11863277Y-13288460D01*
X11863277Y-13288460D02*
X11853753Y-13297984D01*
X11853753Y-13297984D02*
X11844229Y-13288460D01*
X11844229Y-13288460D02*
X11853753Y-13278936D01*
X11853753Y-13278936D02*
X11853753Y-13297984D01*
X11929943Y-13097984D02*
X12053753Y-13097984D01*
X12053753Y-13097984D02*
X11987086Y-13174174D01*
X11987086Y-13174174D02*
X12015658Y-13174174D01*
X12015658Y-13174174D02*
X12034705Y-13183698D01*
X12034705Y-13183698D02*
X12044229Y-13193222D01*
X12044229Y-13193222D02*
X12053753Y-13212269D01*
X12053753Y-13212269D02*
X12053753Y-13259888D01*
X12053753Y-13259888D02*
X12044229Y-13278936D01*
X12044229Y-13278936D02*
X12034705Y-13288460D01*
X12034705Y-13288460D02*
X12015658Y-13297984D01*
X12015658Y-13297984D02*
X11958515Y-13297984D01*
X11958515Y-13297984D02*
X11939467Y-13288460D01*
X11939467Y-13288460D02*
X11929943Y-13278936D01*
X12177562Y-13097984D02*
X12196610Y-13097984D01*
X12196610Y-13097984D02*
X12215658Y-13107508D01*
X12215658Y-13107508D02*
X12225182Y-13117031D01*
X12225182Y-13117031D02*
X12234705Y-13136079D01*
X12234705Y-13136079D02*
X12244229Y-13174174D01*
X12244229Y-13174174D02*
X12244229Y-13221793D01*
X12244229Y-13221793D02*
X12234705Y-13259888D01*
X12234705Y-13259888D02*
X12225182Y-13278936D01*
X12225182Y-13278936D02*
X12215658Y-13288460D01*
X12215658Y-13288460D02*
X12196610Y-13297984D01*
X12196610Y-13297984D02*
X12177562Y-13297984D01*
X12177562Y-13297984D02*
X12158515Y-13288460D01*
X12158515Y-13288460D02*
X12148991Y-13278936D01*
X12148991Y-13278936D02*
X12139467Y-13259888D01*
X12139467Y-13259888D02*
X12129943Y-13221793D01*
X12129943Y-13221793D02*
X12129943Y-13174174D01*
X12129943Y-13174174D02*
X12139467Y-13136079D01*
X12139467Y-13136079D02*
X12148991Y-13117031D01*
X12148991Y-13117031D02*
X12158515Y-13107508D01*
X12158515Y-13107508D02*
X12177562Y-13097984D01*
X12368039Y-13097984D02*
X12387086Y-13097984D01*
X12387086Y-13097984D02*
X12406134Y-13107508D01*
X12406134Y-13107508D02*
X12415658Y-13117031D01*
X12415658Y-13117031D02*
X12425182Y-13136079D01*
X12425182Y-13136079D02*
X12434705Y-13174174D01*
X12434705Y-13174174D02*
X12434705Y-13221793D01*
X12434705Y-13221793D02*
X12425182Y-13259888D01*
X12425182Y-13259888D02*
X12415658Y-13278936D01*
X12415658Y-13278936D02*
X12406134Y-13288460D01*
X12406134Y-13288460D02*
X12387086Y-13297984D01*
X12387086Y-13297984D02*
X12368039Y-13297984D01*
X12368039Y-13297984D02*
X12348991Y-13288460D01*
X12348991Y-13288460D02*
X12339467Y-13278936D01*
X12339467Y-13278936D02*
X12329943Y-13259888D01*
X12329943Y-13259888D02*
X12320420Y-13221793D01*
X12320420Y-13221793D02*
X12320420Y-13174174D01*
X12320420Y-13174174D02*
X12329943Y-13136079D01*
X12329943Y-13136079D02*
X12339467Y-13117031D01*
X12339467Y-13117031D02*
X12348991Y-13107508D01*
X12348991Y-13107508D02*
X12368039Y-13097984D01*
X12520420Y-13297984D02*
X12520420Y-13164650D01*
X12520420Y-13183698D02*
X12529943Y-13174174D01*
X12529943Y-13174174D02*
X12548991Y-13164650D01*
X12548991Y-13164650D02*
X12577563Y-13164650D01*
X12577563Y-13164650D02*
X12596610Y-13174174D01*
X12596610Y-13174174D02*
X12606134Y-13193222D01*
X12606134Y-13193222D02*
X12606134Y-13297984D01*
X12606134Y-13193222D02*
X12615658Y-13174174D01*
X12615658Y-13174174D02*
X12634705Y-13164650D01*
X12634705Y-13164650D02*
X12663277Y-13164650D01*
X12663277Y-13164650D02*
X12682324Y-13174174D01*
X12682324Y-13174174D02*
X12691848Y-13193222D01*
X12691848Y-13193222D02*
X12691848Y-13297984D01*
X12787086Y-13297984D02*
X12787086Y-13164650D01*
X12787086Y-13183698D02*
X12796610Y-13174174D01*
X12796610Y-13174174D02*
X12815658Y-13164650D01*
X12815658Y-13164650D02*
X12844229Y-13164650D01*
X12844229Y-13164650D02*
X12863277Y-13174174D01*
X12863277Y-13174174D02*
X12872801Y-13193222D01*
X12872801Y-13193222D02*
X12872801Y-13297984D01*
X12872801Y-13193222D02*
X12882324Y-13174174D01*
X12882324Y-13174174D02*
X12901372Y-13164650D01*
X12901372Y-13164650D02*
X12929943Y-13164650D01*
X12929943Y-13164650D02*
X12948991Y-13174174D01*
X12948991Y-13174174D02*
X12958515Y-13193222D01*
X12958515Y-13193222D02*
X12958515Y-13297984D01*
X13348991Y-13088460D02*
X13177563Y-13345603D01*
X13606134Y-13097984D02*
X13625182Y-13097984D01*
X13625182Y-13097984D02*
X13644229Y-13107508D01*
X13644229Y-13107508D02*
X13653753Y-13117031D01*
X13653753Y-13117031D02*
X13663277Y-13136079D01*
X13663277Y-13136079D02*
X13672801Y-13174174D01*
X13672801Y-13174174D02*
X13672801Y-13221793D01*
X13672801Y-13221793D02*
X13663277Y-13259888D01*
X13663277Y-13259888D02*
X13653753Y-13278936D01*
X13653753Y-13278936D02*
X13644229Y-13288460D01*
X13644229Y-13288460D02*
X13625182Y-13297984D01*
X13625182Y-13297984D02*
X13606134Y-13297984D01*
X13606134Y-13297984D02*
X13587086Y-13288460D01*
X13587086Y-13288460D02*
X13577563Y-13278936D01*
X13577563Y-13278936D02*
X13568039Y-13259888D01*
X13568039Y-13259888D02*
X13558515Y-13221793D01*
X13558515Y-13221793D02*
X13558515Y-13174174D01*
X13558515Y-13174174D02*
X13568039Y-13136079D01*
X13568039Y-13136079D02*
X13577563Y-13117031D01*
X13577563Y-13117031D02*
X13587086Y-13107508D01*
X13587086Y-13107508D02*
X13606134Y-13097984D01*
X13758515Y-13278936D02*
X13768039Y-13288460D01*
X13768039Y-13288460D02*
X13758515Y-13297984D01*
X13758515Y-13297984D02*
X13748991Y-13288460D01*
X13748991Y-13288460D02*
X13758515Y-13278936D01*
X13758515Y-13278936D02*
X13758515Y-13297984D01*
X13891848Y-13097984D02*
X13910896Y-13097984D01*
X13910896Y-13097984D02*
X13929944Y-13107508D01*
X13929944Y-13107508D02*
X13939467Y-13117031D01*
X13939467Y-13117031D02*
X13948991Y-13136079D01*
X13948991Y-13136079D02*
X13958515Y-13174174D01*
X13958515Y-13174174D02*
X13958515Y-13221793D01*
X13958515Y-13221793D02*
X13948991Y-13259888D01*
X13948991Y-13259888D02*
X13939467Y-13278936D01*
X13939467Y-13278936D02*
X13929944Y-13288460D01*
X13929944Y-13288460D02*
X13910896Y-13297984D01*
X13910896Y-13297984D02*
X13891848Y-13297984D01*
X13891848Y-13297984D02*
X13872801Y-13288460D01*
X13872801Y-13288460D02*
X13863277Y-13278936D01*
X13863277Y-13278936D02*
X13853753Y-13259888D01*
X13853753Y-13259888D02*
X13844229Y-13221793D01*
X13844229Y-13221793D02*
X13844229Y-13174174D01*
X13844229Y-13174174D02*
X13853753Y-13136079D01*
X13853753Y-13136079D02*
X13863277Y-13117031D01*
X13863277Y-13117031D02*
X13872801Y-13107508D01*
X13872801Y-13107508D02*
X13891848Y-13097984D01*
X14148991Y-13297984D02*
X14034706Y-13297984D01*
X14091848Y-13297984D02*
X14091848Y-13097984D01*
X14091848Y-13097984D02*
X14072801Y-13126555D01*
X14072801Y-13126555D02*
X14053753Y-13145603D01*
X14053753Y-13145603D02*
X14034706Y-13155127D01*
X14339467Y-13297984D02*
X14225182Y-13297984D01*
X14282325Y-13297984D02*
X14282325Y-13097984D01*
X14282325Y-13097984D02*
X14263277Y-13126555D01*
X14263277Y-13126555D02*
X14244229Y-13145603D01*
X14244229Y-13145603D02*
X14225182Y-13155127D01*
X14453753Y-13183698D02*
X14434706Y-13174174D01*
X14434706Y-13174174D02*
X14425182Y-13164650D01*
X14425182Y-13164650D02*
X14415658Y-13145603D01*
X14415658Y-13145603D02*
X14415658Y-13136079D01*
X14415658Y-13136079D02*
X14425182Y-13117031D01*
X14425182Y-13117031D02*
X14434706Y-13107508D01*
X14434706Y-13107508D02*
X14453753Y-13097984D01*
X14453753Y-13097984D02*
X14491848Y-13097984D01*
X14491848Y-13097984D02*
X14510896Y-13107508D01*
X14510896Y-13107508D02*
X14520420Y-13117031D01*
X14520420Y-13117031D02*
X14529944Y-13136079D01*
X14529944Y-13136079D02*
X14529944Y-13145603D01*
X14529944Y-13145603D02*
X14520420Y-13164650D01*
X14520420Y-13164650D02*
X14510896Y-13174174D01*
X14510896Y-13174174D02*
X14491848Y-13183698D01*
X14491848Y-13183698D02*
X14453753Y-13183698D01*
X14453753Y-13183698D02*
X14434706Y-13193222D01*
X14434706Y-13193222D02*
X14425182Y-13202746D01*
X14425182Y-13202746D02*
X14415658Y-13221793D01*
X14415658Y-13221793D02*
X14415658Y-13259888D01*
X14415658Y-13259888D02*
X14425182Y-13278936D01*
X14425182Y-13278936D02*
X14434706Y-13288460D01*
X14434706Y-13288460D02*
X14453753Y-13297984D01*
X14453753Y-13297984D02*
X14491848Y-13297984D01*
X14491848Y-13297984D02*
X14510896Y-13288460D01*
X14510896Y-13288460D02*
X14520420Y-13278936D01*
X14520420Y-13278936D02*
X14529944Y-13259888D01*
X14529944Y-13259888D02*
X14529944Y-13221793D01*
X14529944Y-13221793D02*
X14520420Y-13202746D01*
X14520420Y-13202746D02*
X14510896Y-13193222D01*
X14510896Y-13193222D02*
X14491848Y-13183698D01*
X14606134Y-13097984D02*
X14606134Y-13136079D01*
X14682325Y-13097984D02*
X14682325Y-13136079D01*
X14977563Y-13374174D02*
X14968039Y-13364650D01*
X14968039Y-13364650D02*
X14948991Y-13336079D01*
X14948991Y-13336079D02*
X14939468Y-13317031D01*
X14939468Y-13317031D02*
X14929944Y-13288460D01*
X14929944Y-13288460D02*
X14920420Y-13240841D01*
X14920420Y-13240841D02*
X14920420Y-13202746D01*
X14920420Y-13202746D02*
X14929944Y-13155127D01*
X14929944Y-13155127D02*
X14939468Y-13126555D01*
X14939468Y-13126555D02*
X14948991Y-13107508D01*
X14948991Y-13107508D02*
X14968039Y-13078936D01*
X14968039Y-13078936D02*
X14977563Y-13069412D01*
X15044229Y-13117031D02*
X15053753Y-13107508D01*
X15053753Y-13107508D02*
X15072801Y-13097984D01*
X15072801Y-13097984D02*
X15120420Y-13097984D01*
X15120420Y-13097984D02*
X15139468Y-13107508D01*
X15139468Y-13107508D02*
X15148991Y-13117031D01*
X15148991Y-13117031D02*
X15158515Y-13136079D01*
X15158515Y-13136079D02*
X15158515Y-13155127D01*
X15158515Y-13155127D02*
X15148991Y-13183698D01*
X15148991Y-13183698D02*
X15034706Y-13297984D01*
X15034706Y-13297984D02*
X15158515Y-13297984D01*
X15329944Y-13164650D02*
X15329944Y-13297984D01*
X15282325Y-13088460D02*
X15234706Y-13231317D01*
X15234706Y-13231317D02*
X15358515Y-13231317D01*
X15587087Y-13297984D02*
X15587087Y-13097984D01*
X15672801Y-13297984D02*
X15672801Y-13193222D01*
X15672801Y-13193222D02*
X15663277Y-13174174D01*
X15663277Y-13174174D02*
X15644230Y-13164650D01*
X15644230Y-13164650D02*
X15615658Y-13164650D01*
X15615658Y-13164650D02*
X15596610Y-13174174D01*
X15596610Y-13174174D02*
X15587087Y-13183698D01*
X15796610Y-13297984D02*
X15777563Y-13288460D01*
X15777563Y-13288460D02*
X15768039Y-13278936D01*
X15768039Y-13278936D02*
X15758515Y-13259888D01*
X15758515Y-13259888D02*
X15758515Y-13202746D01*
X15758515Y-13202746D02*
X15768039Y-13183698D01*
X15768039Y-13183698D02*
X15777563Y-13174174D01*
X15777563Y-13174174D02*
X15796610Y-13164650D01*
X15796610Y-13164650D02*
X15825182Y-13164650D01*
X15825182Y-13164650D02*
X15844230Y-13174174D01*
X15844230Y-13174174D02*
X15853753Y-13183698D01*
X15853753Y-13183698D02*
X15863277Y-13202746D01*
X15863277Y-13202746D02*
X15863277Y-13259888D01*
X15863277Y-13259888D02*
X15853753Y-13278936D01*
X15853753Y-13278936D02*
X15844230Y-13288460D01*
X15844230Y-13288460D02*
X15825182Y-13297984D01*
X15825182Y-13297984D02*
X15796610Y-13297984D01*
X15977563Y-13297984D02*
X15958515Y-13288460D01*
X15958515Y-13288460D02*
X15948991Y-13269412D01*
X15948991Y-13269412D02*
X15948991Y-13097984D01*
X16129944Y-13288460D02*
X16110896Y-13297984D01*
X16110896Y-13297984D02*
X16072801Y-13297984D01*
X16072801Y-13297984D02*
X16053753Y-13288460D01*
X16053753Y-13288460D02*
X16044230Y-13269412D01*
X16044230Y-13269412D02*
X16044230Y-13193222D01*
X16044230Y-13193222D02*
X16053753Y-13174174D01*
X16053753Y-13174174D02*
X16072801Y-13164650D01*
X16072801Y-13164650D02*
X16110896Y-13164650D01*
X16110896Y-13164650D02*
X16129944Y-13174174D01*
X16129944Y-13174174D02*
X16139468Y-13193222D01*
X16139468Y-13193222D02*
X16139468Y-13212269D01*
X16139468Y-13212269D02*
X16044230Y-13231317D01*
X16215658Y-13288460D02*
X16234706Y-13297984D01*
X16234706Y-13297984D02*
X16272801Y-13297984D01*
X16272801Y-13297984D02*
X16291849Y-13288460D01*
X16291849Y-13288460D02*
X16301372Y-13269412D01*
X16301372Y-13269412D02*
X16301372Y-13259888D01*
X16301372Y-13259888D02*
X16291849Y-13240841D01*
X16291849Y-13240841D02*
X16272801Y-13231317D01*
X16272801Y-13231317D02*
X16244230Y-13231317D01*
X16244230Y-13231317D02*
X16225182Y-13221793D01*
X16225182Y-13221793D02*
X16215658Y-13202746D01*
X16215658Y-13202746D02*
X16215658Y-13193222D01*
X16215658Y-13193222D02*
X16225182Y-13174174D01*
X16225182Y-13174174D02*
X16244230Y-13164650D01*
X16244230Y-13164650D02*
X16272801Y-13164650D01*
X16272801Y-13164650D02*
X16291849Y-13174174D01*
X16368039Y-13374174D02*
X16377563Y-13364650D01*
X16377563Y-13364650D02*
X16396611Y-13336079D01*
X16396611Y-13336079D02*
X16406134Y-13317031D01*
X16406134Y-13317031D02*
X16415658Y-13288460D01*
X16415658Y-13288460D02*
X16425182Y-13240841D01*
X16425182Y-13240841D02*
X16425182Y-13202746D01*
X16425182Y-13202746D02*
X16415658Y-13155127D01*
X16415658Y-13155127D02*
X16406134Y-13126555D01*
X16406134Y-13126555D02*
X16396611Y-13107508D01*
X16396611Y-13107508D02*
X16377563Y-13078936D01*
X16377563Y-13078936D02*
X16368039Y-13069412D01*
D13*
X11362500Y-13430500D02*
X11362500Y-13510500D01*
X11322500Y-13470500D02*
X11402500Y-13470500D01*
D12*
X11701372Y-13361984D02*
X11720420Y-13361984D01*
X11720420Y-13361984D02*
X11739467Y-13371508D01*
X11739467Y-13371508D02*
X11748991Y-13381031D01*
X11748991Y-13381031D02*
X11758515Y-13400079D01*
X11758515Y-13400079D02*
X11768039Y-13438174D01*
X11768039Y-13438174D02*
X11768039Y-13485793D01*
X11768039Y-13485793D02*
X11758515Y-13523888D01*
X11758515Y-13523888D02*
X11748991Y-13542936D01*
X11748991Y-13542936D02*
X11739467Y-13552460D01*
X11739467Y-13552460D02*
X11720420Y-13561984D01*
X11720420Y-13561984D02*
X11701372Y-13561984D01*
X11701372Y-13561984D02*
X11682324Y-13552460D01*
X11682324Y-13552460D02*
X11672801Y-13542936D01*
X11672801Y-13542936D02*
X11663277Y-13523888D01*
X11663277Y-13523888D02*
X11653753Y-13485793D01*
X11653753Y-13485793D02*
X11653753Y-13438174D01*
X11653753Y-13438174D02*
X11663277Y-13400079D01*
X11663277Y-13400079D02*
X11672801Y-13381031D01*
X11672801Y-13381031D02*
X11682324Y-13371508D01*
X11682324Y-13371508D02*
X11701372Y-13361984D01*
X11853753Y-13542936D02*
X11863277Y-13552460D01*
X11863277Y-13552460D02*
X11853753Y-13561984D01*
X11853753Y-13561984D02*
X11844229Y-13552460D01*
X11844229Y-13552460D02*
X11853753Y-13542936D01*
X11853753Y-13542936D02*
X11853753Y-13561984D01*
X11977562Y-13447698D02*
X11958515Y-13438174D01*
X11958515Y-13438174D02*
X11948991Y-13428650D01*
X11948991Y-13428650D02*
X11939467Y-13409603D01*
X11939467Y-13409603D02*
X11939467Y-13400079D01*
X11939467Y-13400079D02*
X11948991Y-13381031D01*
X11948991Y-13381031D02*
X11958515Y-13371508D01*
X11958515Y-13371508D02*
X11977562Y-13361984D01*
X11977562Y-13361984D02*
X12015658Y-13361984D01*
X12015658Y-13361984D02*
X12034705Y-13371508D01*
X12034705Y-13371508D02*
X12044229Y-13381031D01*
X12044229Y-13381031D02*
X12053753Y-13400079D01*
X12053753Y-13400079D02*
X12053753Y-13409603D01*
X12053753Y-13409603D02*
X12044229Y-13428650D01*
X12044229Y-13428650D02*
X12034705Y-13438174D01*
X12034705Y-13438174D02*
X12015658Y-13447698D01*
X12015658Y-13447698D02*
X11977562Y-13447698D01*
X11977562Y-13447698D02*
X11958515Y-13457222D01*
X11958515Y-13457222D02*
X11948991Y-13466746D01*
X11948991Y-13466746D02*
X11939467Y-13485793D01*
X11939467Y-13485793D02*
X11939467Y-13523888D01*
X11939467Y-13523888D02*
X11948991Y-13542936D01*
X11948991Y-13542936D02*
X11958515Y-13552460D01*
X11958515Y-13552460D02*
X11977562Y-13561984D01*
X11977562Y-13561984D02*
X12015658Y-13561984D01*
X12015658Y-13561984D02*
X12034705Y-13552460D01*
X12034705Y-13552460D02*
X12044229Y-13542936D01*
X12044229Y-13542936D02*
X12053753Y-13523888D01*
X12053753Y-13523888D02*
X12053753Y-13485793D01*
X12053753Y-13485793D02*
X12044229Y-13466746D01*
X12044229Y-13466746D02*
X12034705Y-13457222D01*
X12034705Y-13457222D02*
X12015658Y-13447698D01*
X12177562Y-13361984D02*
X12196610Y-13361984D01*
X12196610Y-13361984D02*
X12215658Y-13371508D01*
X12215658Y-13371508D02*
X12225182Y-13381031D01*
X12225182Y-13381031D02*
X12234705Y-13400079D01*
X12234705Y-13400079D02*
X12244229Y-13438174D01*
X12244229Y-13438174D02*
X12244229Y-13485793D01*
X12244229Y-13485793D02*
X12234705Y-13523888D01*
X12234705Y-13523888D02*
X12225182Y-13542936D01*
X12225182Y-13542936D02*
X12215658Y-13552460D01*
X12215658Y-13552460D02*
X12196610Y-13561984D01*
X12196610Y-13561984D02*
X12177562Y-13561984D01*
X12177562Y-13561984D02*
X12158515Y-13552460D01*
X12158515Y-13552460D02*
X12148991Y-13542936D01*
X12148991Y-13542936D02*
X12139467Y-13523888D01*
X12139467Y-13523888D02*
X12129943Y-13485793D01*
X12129943Y-13485793D02*
X12129943Y-13438174D01*
X12129943Y-13438174D02*
X12139467Y-13400079D01*
X12139467Y-13400079D02*
X12148991Y-13381031D01*
X12148991Y-13381031D02*
X12158515Y-13371508D01*
X12158515Y-13371508D02*
X12177562Y-13361984D01*
X12368039Y-13361984D02*
X12387086Y-13361984D01*
X12387086Y-13361984D02*
X12406134Y-13371508D01*
X12406134Y-13371508D02*
X12415658Y-13381031D01*
X12415658Y-13381031D02*
X12425182Y-13400079D01*
X12425182Y-13400079D02*
X12434705Y-13438174D01*
X12434705Y-13438174D02*
X12434705Y-13485793D01*
X12434705Y-13485793D02*
X12425182Y-13523888D01*
X12425182Y-13523888D02*
X12415658Y-13542936D01*
X12415658Y-13542936D02*
X12406134Y-13552460D01*
X12406134Y-13552460D02*
X12387086Y-13561984D01*
X12387086Y-13561984D02*
X12368039Y-13561984D01*
X12368039Y-13561984D02*
X12348991Y-13552460D01*
X12348991Y-13552460D02*
X12339467Y-13542936D01*
X12339467Y-13542936D02*
X12329943Y-13523888D01*
X12329943Y-13523888D02*
X12320420Y-13485793D01*
X12320420Y-13485793D02*
X12320420Y-13438174D01*
X12320420Y-13438174D02*
X12329943Y-13400079D01*
X12329943Y-13400079D02*
X12339467Y-13381031D01*
X12339467Y-13381031D02*
X12348991Y-13371508D01*
X12348991Y-13371508D02*
X12368039Y-13361984D01*
X12520420Y-13561984D02*
X12520420Y-13428650D01*
X12520420Y-13447698D02*
X12529943Y-13438174D01*
X12529943Y-13438174D02*
X12548991Y-13428650D01*
X12548991Y-13428650D02*
X12577563Y-13428650D01*
X12577563Y-13428650D02*
X12596610Y-13438174D01*
X12596610Y-13438174D02*
X12606134Y-13457222D01*
X12606134Y-13457222D02*
X12606134Y-13561984D01*
X12606134Y-13457222D02*
X12615658Y-13438174D01*
X12615658Y-13438174D02*
X12634705Y-13428650D01*
X12634705Y-13428650D02*
X12663277Y-13428650D01*
X12663277Y-13428650D02*
X12682324Y-13438174D01*
X12682324Y-13438174D02*
X12691848Y-13457222D01*
X12691848Y-13457222D02*
X12691848Y-13561984D01*
X12787086Y-13561984D02*
X12787086Y-13428650D01*
X12787086Y-13447698D02*
X12796610Y-13438174D01*
X12796610Y-13438174D02*
X12815658Y-13428650D01*
X12815658Y-13428650D02*
X12844229Y-13428650D01*
X12844229Y-13428650D02*
X12863277Y-13438174D01*
X12863277Y-13438174D02*
X12872801Y-13457222D01*
X12872801Y-13457222D02*
X12872801Y-13561984D01*
X12872801Y-13457222D02*
X12882324Y-13438174D01*
X12882324Y-13438174D02*
X12901372Y-13428650D01*
X12901372Y-13428650D02*
X12929943Y-13428650D01*
X12929943Y-13428650D02*
X12948991Y-13438174D01*
X12948991Y-13438174D02*
X12958515Y-13457222D01*
X12958515Y-13457222D02*
X12958515Y-13561984D01*
X13348991Y-13352460D02*
X13177563Y-13609603D01*
X13606134Y-13361984D02*
X13625182Y-13361984D01*
X13625182Y-13361984D02*
X13644229Y-13371508D01*
X13644229Y-13371508D02*
X13653753Y-13381031D01*
X13653753Y-13381031D02*
X13663277Y-13400079D01*
X13663277Y-13400079D02*
X13672801Y-13438174D01*
X13672801Y-13438174D02*
X13672801Y-13485793D01*
X13672801Y-13485793D02*
X13663277Y-13523888D01*
X13663277Y-13523888D02*
X13653753Y-13542936D01*
X13653753Y-13542936D02*
X13644229Y-13552460D01*
X13644229Y-13552460D02*
X13625182Y-13561984D01*
X13625182Y-13561984D02*
X13606134Y-13561984D01*
X13606134Y-13561984D02*
X13587086Y-13552460D01*
X13587086Y-13552460D02*
X13577563Y-13542936D01*
X13577563Y-13542936D02*
X13568039Y-13523888D01*
X13568039Y-13523888D02*
X13558515Y-13485793D01*
X13558515Y-13485793D02*
X13558515Y-13438174D01*
X13558515Y-13438174D02*
X13568039Y-13400079D01*
X13568039Y-13400079D02*
X13577563Y-13381031D01*
X13577563Y-13381031D02*
X13587086Y-13371508D01*
X13587086Y-13371508D02*
X13606134Y-13361984D01*
X13758515Y-13542936D02*
X13768039Y-13552460D01*
X13768039Y-13552460D02*
X13758515Y-13561984D01*
X13758515Y-13561984D02*
X13748991Y-13552460D01*
X13748991Y-13552460D02*
X13758515Y-13542936D01*
X13758515Y-13542936D02*
X13758515Y-13561984D01*
X13891848Y-13361984D02*
X13910896Y-13361984D01*
X13910896Y-13361984D02*
X13929944Y-13371508D01*
X13929944Y-13371508D02*
X13939467Y-13381031D01*
X13939467Y-13381031D02*
X13948991Y-13400079D01*
X13948991Y-13400079D02*
X13958515Y-13438174D01*
X13958515Y-13438174D02*
X13958515Y-13485793D01*
X13958515Y-13485793D02*
X13948991Y-13523888D01*
X13948991Y-13523888D02*
X13939467Y-13542936D01*
X13939467Y-13542936D02*
X13929944Y-13552460D01*
X13929944Y-13552460D02*
X13910896Y-13561984D01*
X13910896Y-13561984D02*
X13891848Y-13561984D01*
X13891848Y-13561984D02*
X13872801Y-13552460D01*
X13872801Y-13552460D02*
X13863277Y-13542936D01*
X13863277Y-13542936D02*
X13853753Y-13523888D01*
X13853753Y-13523888D02*
X13844229Y-13485793D01*
X13844229Y-13485793D02*
X13844229Y-13438174D01*
X13844229Y-13438174D02*
X13853753Y-13400079D01*
X13853753Y-13400079D02*
X13863277Y-13381031D01*
X13863277Y-13381031D02*
X13872801Y-13371508D01*
X13872801Y-13371508D02*
X13891848Y-13361984D01*
X14025182Y-13361984D02*
X14148991Y-13361984D01*
X14148991Y-13361984D02*
X14082325Y-13438174D01*
X14082325Y-13438174D02*
X14110896Y-13438174D01*
X14110896Y-13438174D02*
X14129944Y-13447698D01*
X14129944Y-13447698D02*
X14139467Y-13457222D01*
X14139467Y-13457222D02*
X14148991Y-13476269D01*
X14148991Y-13476269D02*
X14148991Y-13523888D01*
X14148991Y-13523888D02*
X14139467Y-13542936D01*
X14139467Y-13542936D02*
X14129944Y-13552460D01*
X14129944Y-13552460D02*
X14110896Y-13561984D01*
X14110896Y-13561984D02*
X14053753Y-13561984D01*
X14053753Y-13561984D02*
X14034706Y-13552460D01*
X14034706Y-13552460D02*
X14025182Y-13542936D01*
X14339467Y-13561984D02*
X14225182Y-13561984D01*
X14282325Y-13561984D02*
X14282325Y-13361984D01*
X14282325Y-13361984D02*
X14263277Y-13390555D01*
X14263277Y-13390555D02*
X14244229Y-13409603D01*
X14244229Y-13409603D02*
X14225182Y-13419127D01*
X14520420Y-13361984D02*
X14425182Y-13361984D01*
X14425182Y-13361984D02*
X14415658Y-13457222D01*
X14415658Y-13457222D02*
X14425182Y-13447698D01*
X14425182Y-13447698D02*
X14444229Y-13438174D01*
X14444229Y-13438174D02*
X14491848Y-13438174D01*
X14491848Y-13438174D02*
X14510896Y-13447698D01*
X14510896Y-13447698D02*
X14520420Y-13457222D01*
X14520420Y-13457222D02*
X14529944Y-13476269D01*
X14529944Y-13476269D02*
X14529944Y-13523888D01*
X14529944Y-13523888D02*
X14520420Y-13542936D01*
X14520420Y-13542936D02*
X14510896Y-13552460D01*
X14510896Y-13552460D02*
X14491848Y-13561984D01*
X14491848Y-13561984D02*
X14444229Y-13561984D01*
X14444229Y-13561984D02*
X14425182Y-13552460D01*
X14425182Y-13552460D02*
X14415658Y-13542936D01*
X14606134Y-13361984D02*
X14606134Y-13400079D01*
X14682325Y-13361984D02*
X14682325Y-13400079D01*
X14977563Y-13638174D02*
X14968039Y-13628650D01*
X14968039Y-13628650D02*
X14948991Y-13600079D01*
X14948991Y-13600079D02*
X14939468Y-13581031D01*
X14939468Y-13581031D02*
X14929944Y-13552460D01*
X14929944Y-13552460D02*
X14920420Y-13504841D01*
X14920420Y-13504841D02*
X14920420Y-13466746D01*
X14920420Y-13466746D02*
X14929944Y-13419127D01*
X14929944Y-13419127D02*
X14939468Y-13390555D01*
X14939468Y-13390555D02*
X14948991Y-13371508D01*
X14948991Y-13371508D02*
X14968039Y-13342936D01*
X14968039Y-13342936D02*
X14977563Y-13333412D01*
X15091848Y-13361984D02*
X15110896Y-13361984D01*
X15110896Y-13361984D02*
X15129944Y-13371508D01*
X15129944Y-13371508D02*
X15139468Y-13381031D01*
X15139468Y-13381031D02*
X15148991Y-13400079D01*
X15148991Y-13400079D02*
X15158515Y-13438174D01*
X15158515Y-13438174D02*
X15158515Y-13485793D01*
X15158515Y-13485793D02*
X15148991Y-13523888D01*
X15148991Y-13523888D02*
X15139468Y-13542936D01*
X15139468Y-13542936D02*
X15129944Y-13552460D01*
X15129944Y-13552460D02*
X15110896Y-13561984D01*
X15110896Y-13561984D02*
X15091848Y-13561984D01*
X15091848Y-13561984D02*
X15072801Y-13552460D01*
X15072801Y-13552460D02*
X15063277Y-13542936D01*
X15063277Y-13542936D02*
X15053753Y-13523888D01*
X15053753Y-13523888D02*
X15044229Y-13485793D01*
X15044229Y-13485793D02*
X15044229Y-13438174D01*
X15044229Y-13438174D02*
X15053753Y-13400079D01*
X15053753Y-13400079D02*
X15063277Y-13381031D01*
X15063277Y-13381031D02*
X15072801Y-13371508D01*
X15072801Y-13371508D02*
X15091848Y-13361984D01*
X15396610Y-13561984D02*
X15396610Y-13361984D01*
X15482325Y-13561984D02*
X15482325Y-13457222D01*
X15482325Y-13457222D02*
X15472801Y-13438174D01*
X15472801Y-13438174D02*
X15453753Y-13428650D01*
X15453753Y-13428650D02*
X15425182Y-13428650D01*
X15425182Y-13428650D02*
X15406134Y-13438174D01*
X15406134Y-13438174D02*
X15396610Y-13447698D01*
X15606134Y-13561984D02*
X15587087Y-13552460D01*
X15587087Y-13552460D02*
X15577563Y-13542936D01*
X15577563Y-13542936D02*
X15568039Y-13523888D01*
X15568039Y-13523888D02*
X15568039Y-13466746D01*
X15568039Y-13466746D02*
X15577563Y-13447698D01*
X15577563Y-13447698D02*
X15587087Y-13438174D01*
X15587087Y-13438174D02*
X15606134Y-13428650D01*
X15606134Y-13428650D02*
X15634706Y-13428650D01*
X15634706Y-13428650D02*
X15653753Y-13438174D01*
X15653753Y-13438174D02*
X15663277Y-13447698D01*
X15663277Y-13447698D02*
X15672801Y-13466746D01*
X15672801Y-13466746D02*
X15672801Y-13523888D01*
X15672801Y-13523888D02*
X15663277Y-13542936D01*
X15663277Y-13542936D02*
X15653753Y-13552460D01*
X15653753Y-13552460D02*
X15634706Y-13561984D01*
X15634706Y-13561984D02*
X15606134Y-13561984D01*
X15787087Y-13561984D02*
X15768039Y-13552460D01*
X15768039Y-13552460D02*
X15758515Y-13533412D01*
X15758515Y-13533412D02*
X15758515Y-13361984D01*
X15939468Y-13552460D02*
X15920420Y-13561984D01*
X15920420Y-13561984D02*
X15882325Y-13561984D01*
X15882325Y-13561984D02*
X15863277Y-13552460D01*
X15863277Y-13552460D02*
X15853753Y-13533412D01*
X15853753Y-13533412D02*
X15853753Y-13457222D01*
X15853753Y-13457222D02*
X15863277Y-13438174D01*
X15863277Y-13438174D02*
X15882325Y-13428650D01*
X15882325Y-13428650D02*
X15920420Y-13428650D01*
X15920420Y-13428650D02*
X15939468Y-13438174D01*
X15939468Y-13438174D02*
X15948991Y-13457222D01*
X15948991Y-13457222D02*
X15948991Y-13476269D01*
X15948991Y-13476269D02*
X15853753Y-13495317D01*
X16025182Y-13552460D02*
X16044230Y-13561984D01*
X16044230Y-13561984D02*
X16082325Y-13561984D01*
X16082325Y-13561984D02*
X16101372Y-13552460D01*
X16101372Y-13552460D02*
X16110896Y-13533412D01*
X16110896Y-13533412D02*
X16110896Y-13523888D01*
X16110896Y-13523888D02*
X16101372Y-13504841D01*
X16101372Y-13504841D02*
X16082325Y-13495317D01*
X16082325Y-13495317D02*
X16053753Y-13495317D01*
X16053753Y-13495317D02*
X16034706Y-13485793D01*
X16034706Y-13485793D02*
X16025182Y-13466746D01*
X16025182Y-13466746D02*
X16025182Y-13457222D01*
X16025182Y-13457222D02*
X16034706Y-13438174D01*
X16034706Y-13438174D02*
X16053753Y-13428650D01*
X16053753Y-13428650D02*
X16082325Y-13428650D01*
X16082325Y-13428650D02*
X16101372Y-13438174D01*
X16348992Y-13485793D02*
X16501373Y-13485793D01*
X16425182Y-13561984D02*
X16425182Y-13409603D01*
X16834706Y-13428650D02*
X16834706Y-13561984D01*
X16787087Y-13352460D02*
X16739468Y-13495317D01*
X16739468Y-13495317D02*
X16863277Y-13495317D01*
X17082325Y-13552460D02*
X17101373Y-13561984D01*
X17101373Y-13561984D02*
X17139468Y-13561984D01*
X17139468Y-13561984D02*
X17158516Y-13552460D01*
X17158516Y-13552460D02*
X17168039Y-13533412D01*
X17168039Y-13533412D02*
X17168039Y-13523888D01*
X17168039Y-13523888D02*
X17158516Y-13504841D01*
X17158516Y-13504841D02*
X17139468Y-13495317D01*
X17139468Y-13495317D02*
X17110896Y-13495317D01*
X17110896Y-13495317D02*
X17091849Y-13485793D01*
X17091849Y-13485793D02*
X17082325Y-13466746D01*
X17082325Y-13466746D02*
X17082325Y-13457222D01*
X17082325Y-13457222D02*
X17091849Y-13438174D01*
X17091849Y-13438174D02*
X17110896Y-13428650D01*
X17110896Y-13428650D02*
X17139468Y-13428650D01*
X17139468Y-13428650D02*
X17158516Y-13438174D01*
X17282325Y-13561984D02*
X17263277Y-13552460D01*
X17263277Y-13552460D02*
X17253754Y-13533412D01*
X17253754Y-13533412D02*
X17253754Y-13361984D01*
X17387087Y-13561984D02*
X17368039Y-13552460D01*
X17368039Y-13552460D02*
X17358516Y-13542936D01*
X17358516Y-13542936D02*
X17348992Y-13523888D01*
X17348992Y-13523888D02*
X17348992Y-13466746D01*
X17348992Y-13466746D02*
X17358516Y-13447698D01*
X17358516Y-13447698D02*
X17368039Y-13438174D01*
X17368039Y-13438174D02*
X17387087Y-13428650D01*
X17387087Y-13428650D02*
X17415658Y-13428650D01*
X17415658Y-13428650D02*
X17434706Y-13438174D01*
X17434706Y-13438174D02*
X17444230Y-13447698D01*
X17444230Y-13447698D02*
X17453754Y-13466746D01*
X17453754Y-13466746D02*
X17453754Y-13523888D01*
X17453754Y-13523888D02*
X17444230Y-13542936D01*
X17444230Y-13542936D02*
X17434706Y-13552460D01*
X17434706Y-13552460D02*
X17415658Y-13561984D01*
X17415658Y-13561984D02*
X17387087Y-13561984D01*
X17510897Y-13428650D02*
X17587087Y-13428650D01*
X17539468Y-13361984D02*
X17539468Y-13533412D01*
X17539468Y-13533412D02*
X17548992Y-13552460D01*
X17548992Y-13552460D02*
X17568039Y-13561984D01*
X17568039Y-13561984D02*
X17587087Y-13561984D01*
X17644230Y-13552460D02*
X17663277Y-13561984D01*
X17663277Y-13561984D02*
X17701373Y-13561984D01*
X17701373Y-13561984D02*
X17720420Y-13552460D01*
X17720420Y-13552460D02*
X17729944Y-13533412D01*
X17729944Y-13533412D02*
X17729944Y-13523888D01*
X17729944Y-13523888D02*
X17720420Y-13504841D01*
X17720420Y-13504841D02*
X17701373Y-13495317D01*
X17701373Y-13495317D02*
X17672801Y-13495317D01*
X17672801Y-13495317D02*
X17653754Y-13485793D01*
X17653754Y-13485793D02*
X17644230Y-13466746D01*
X17644230Y-13466746D02*
X17644230Y-13457222D01*
X17644230Y-13457222D02*
X17653754Y-13438174D01*
X17653754Y-13438174D02*
X17672801Y-13428650D01*
X17672801Y-13428650D02*
X17701373Y-13428650D01*
X17701373Y-13428650D02*
X17720420Y-13438174D01*
X17796611Y-13638174D02*
X17806135Y-13628650D01*
X17806135Y-13628650D02*
X17825182Y-13600079D01*
X17825182Y-13600079D02*
X17834706Y-13581031D01*
X17834706Y-13581031D02*
X17844230Y-13552460D01*
X17844230Y-13552460D02*
X17853754Y-13504841D01*
X17853754Y-13504841D02*
X17853754Y-13466746D01*
X17853754Y-13466746D02*
X17844230Y-13419127D01*
X17844230Y-13419127D02*
X17834706Y-13390555D01*
X17834706Y-13390555D02*
X17825182Y-13371508D01*
X17825182Y-13371508D02*
X17806135Y-13342936D01*
X17806135Y-13342936D02*
X17796611Y-13333412D01*
M02*
