M48
; DRILL file {KiCad 9.0.2+dfsg-1} date 2026-09-10T19:55:19+0100
; FORMAT={-:-/ absolute / metric / decimal}
; #@! TF.CreationDate,2026-09-10T19:55:19+01:00
; #@! TF.GenerationSoftware,Kicad,Pcbnew,9.0.2+dfsg-1
; #@! TF.FileFunction,Plated,1,2,PTH
FMAT,2
METRIC
; #@! TA.AperFunction,Plated,PTH,ViaDrill
T1C0.120
; #@! TA.AperFunction,Plated,PTH,ViaDrill
T2C0.300
; #@! TA.AperFunction,Plated,PTH,ComponentDrill
T3C0.800
%
G90
G05
T1
X120.25Y-114.312
X121.2Y-109.0
X121.25Y-114.312
X138.456Y-117.82
T2
X115.7Y-102.8
X116.7Y-94.1
X118.015Y-99.35
X118.6Y-114.312
X120.8Y-118.6
X122.4Y-104.3
X123.4Y-114.312
X123.685Y-97.05
X123.685Y-99.35
X128.7Y-109.6
X131.4Y-94.2
X131.5Y-120.7
X134.6Y-102.7
X138.456Y-107.04
X138.456Y-108.69
X138.456Y-113.69
X142.1Y-113.6
X145.9Y-100.4
X147.3Y-108.6
X147.3Y-115.9
X150.7Y-103.7
X156.1Y-112.7
X159.436Y-93.69
X160.636Y-121.69
T3
G00X115.38Y-115.137
M15
G01X115.38Y-115.937
M16
G05
G00X115.38Y-118.937
M15
G01X115.38Y-120.137
M16
G05
G00X126.62Y-115.137
M15
G01X126.62Y-115.937
M16
G05
G00X126.62Y-118.937
M15
G01X126.62Y-120.137
M16
G05
M30
