G04 #@! TF.GenerationSoftware,KiCad,Pcbnew,9.0.2+dfsg-1*
G04 #@! TF.CreationDate,2026-09-10T19:55:19+01:00*
G04 #@! TF.ProjectId,SDCore_progBoard,5344436f-7265-45f7-9072-6f67426f6172,rev?*
G04 #@! TF.SameCoordinates,Original*
G04 #@! TF.FileFunction,Soldermask,Top*
G04 #@! TF.FilePolarity,Negative*
%FSLAX46Y46*%
G04 Gerber Fmt 4.6, Leading zero omitted, Abs format (unit mm)*
G04 Created by KiCad (PCBNEW 9.0.2+dfsg-1) date 2026-09-10 19:55:19*
%MOMM*%
%LPD*%
G01*
G04 APERTURE LIST*
%ADD10C,1.600000*%
%ADD11R,1.500000X1.000000*%
%ADD12R,2.000000X1.200000*%
%ADD13O,1.200000X2.000000*%
%ADD14O,1.200000X2.400000*%
%ADD15R,0.300000X1.200000*%
%ADD16R,0.806475X0.864000*%
%ADD17R,2.470000X0.980000*%
%ADD18R,2.470000X3.600000*%
G04 APERTURE END LIST*
D10*
G04 #@! TO.C,Card1*
X162735855Y-95989591D03*
X162735855Y-120189591D03*
D11*
X138455635Y-101189591D03*
X138455635Y-103689591D03*
X138455635Y-107039591D03*
X138455635Y-108689591D03*
X138455635Y-111189591D03*
X138455635Y-113689591D03*
X138455635Y-116119591D03*
X138455635Y-117819591D03*
X138455436Y-98689591D03*
X138455635Y-105389591D03*
D12*
X159435836Y-93689591D03*
X160635834Y-121689591D03*
D11*
X138455635Y-121169591D03*
G04 #@! TD*
D13*
G04 #@! TO.C,USB1*
X115380000Y-115536578D03*
D14*
X115380000Y-119536570D03*
D13*
X126620000Y-115536578D03*
D14*
X126620000Y-119536570D03*
D15*
X117650000Y-114312298D03*
X118450000Y-114312298D03*
X119750000Y-114312298D03*
X120750000Y-114312298D03*
X121250000Y-114312298D03*
X122249680Y-114312298D03*
X123550160Y-114312298D03*
X124350000Y-114312298D03*
X124050000Y-114312298D03*
X123250000Y-114312298D03*
X122750060Y-114312298D03*
X121750000Y-114312298D03*
X120250000Y-114312298D03*
X119249940Y-114312298D03*
X118750000Y-114312298D03*
X117950000Y-114312298D03*
G04 #@! TD*
D16*
G04 #@! TO.C,R2*
X124203364Y-110300000D03*
X122696636Y-110300000D03*
G04 #@! TD*
D17*
G04 #@! TO.C,U1*
X123685000Y-101650000D03*
X123685000Y-99350000D03*
X123685000Y-97050000D03*
D18*
X118015000Y-99350000D03*
G04 #@! TD*
D16*
G04 #@! TO.C,R1*
X119253364Y-110300000D03*
X117746636Y-110300000D03*
G04 #@! TD*
M02*
