#VRML V2.0 utf8

Shape {
  appearance Appearance {
    material Material {
      diffuseColor 0.8314 0.6706 0.1294
      specularColor 0.6667 0.5373 0.1020
      ambientIntensity 0.2
      transparency 0.0000
      shininess 0.5
    }
  }
  geometry IndexedFaceSet {
    ccw TRUE
    solid FALSE
    coord DEF co Coordinate {
      point [
        -0.096654 0.094488 0.082677,
        -0.096654 -0.094488 0.082677,
        -0.096654 0.094488 -0.003937,
        -0.096654 -0.094488 -0.003937,
        -0.181102 0.094488 0.082677,
        -0.181102 0.094488 -0.003937,
        -0.181596 0.090108 0.082677,
        -0.181596 0.090108 -0.003937,
        -0.183052 0.085947 0.082677,
        -0.183052 0.085947 -0.003937,
        -0.185397 0.082215 0.082677,
        -0.185397 0.082215 -0.003937,
        -0.188514 0.079098 0.082677,
        -0.188514 0.079098 -0.003937,
        -0.192246 0.076753 0.082677,
        -0.192246 0.076753 -0.003937,
        -0.196407 0.075297 0.082677,
        -0.196407 0.075297 -0.003937,
        -0.200787 0.074803 0.082677,
        -0.200787 0.074803 -0.003937,
        -0.200787 -0.074803 0.082677,
        -0.200787 -0.074803 -0.003937,
        -0.196407 -0.075297 0.082677,
        -0.196407 -0.075297 -0.003937,
        -0.192246 -0.076753 0.082677,
        -0.192246 -0.076753 -0.003937,
        -0.188514 -0.079098 0.082677,
        -0.188514 -0.079098 -0.003937,
        -0.185397 -0.082215 0.082677,
        -0.185397 -0.082215 -0.003937,
        -0.183052 -0.085947 0.082677,
        -0.183052 -0.085947 -0.003937,
        -0.181596 -0.090108 0.082677,
        -0.181596 -0.090108 -0.003937,
        -0.181102 -0.094488 0.082677,
        -0.181102 -0.094488 -0.003937,
      ]
    }
    coordIndex [
      0, 1, 2, -1,
      2, 1, 3, -1,
      4, 0, 5, -1,
      5, 0, 2, -1,
      4, 5, 6, -1,
      6, 5, 7, -1,
      6, 7, 8, -1,
      8, 7, 9, -1,
      8, 9, 10, -1,
      10, 9, 11, -1,
      10, 11, 12, -1,
      12, 11, 13, -1,
      12, 13, 14, -1,
      14, 13, 15, -1,
      14, 15, 16, -1,
      16, 15, 17, -1,
      16, 17, 18, -1,
      18, 17, 19, -1,
      20, 18, 21, -1,
      21, 18, 19, -1,
      20, 21, 22, -1,
      22, 21, 23, -1,
      22, 23, 24, -1,
      24, 23, 25, -1,
      24, 25, 26, -1,
      26, 25, 27, -1,
      26, 27, 28, -1,
      28, 27, 29, -1,
      28, 29, 30, -1,
      30, 29, 31, -1,
      30, 31, 32, -1,
      32, 31, 33, -1,
      32, 33, 34, -1,
      34, 33, 35, -1,
      1, 34, 3, -1,
      3, 34, 35, -1,
      32, 34, 1, -1,
      32, 1, 30, -1,
      12, 14, 1, -1,
      4, 6, 0, -1,
      0, 6, 8, -1,
      0, 8, 1, -1,
      1, 8, 10, -1,
      1, 10, 12, -1,
      18, 20, 16, -1,
      16, 20, 22, -1,
      16, 22, 14, -1,
      22, 24, 14, -1,
      14, 24, 26, -1,
      14, 26, 1, -1,
      1, 26, 28, -1,
      1, 28, 30, -1,
      7, 5, 2, -1,
      3, 35, 33, -1,
      25, 23, 15, -1,
      15, 13, 3, -1,
      3, 13, 11, -1,
      3, 11, 2, -1,
      2, 11, 9, -1,
      2, 9, 7, -1,
      21, 19, 23, -1,
      23, 19, 17, -1,
      23, 17, 15, -1,
      33, 31, 3, -1,
      3, 31, 29, -1,
      3, 29, 15, -1,
      15, 29, 27, -1,
      15, 27, 25, -1,
    ]
  }
}

Shape {
  appearance Appearance {
    material Material {
      diffuseColor 1.0000 1.0000 1.0000
      specularColor 0.5020 0.5020 0.5020
      ambientIntensity 0.2
      transparency 0.0000
      shininess 0.5
    }
  }
  geometry IndexedFaceSet {
    ccw TRUE
    solid FALSE
    coord DEF co Coordinate {
      point [
        -0.190737 -0.075608 0.000000,
        -0.196850 -0.074803 0.000000,
        -0.196850 -0.017403 0.000000,
        0.096654 -0.094488 0.000000,
        0.173559 -0.094488 0.000000,
        0.173228 -0.098425 0.000000,
        0.033079 0.018366 0.000000,
        0.036956 0.017930 0.000000,
        0.024565 -0.011193 0.000000,
        0.032034 -0.017403 0.000000,
        0.020018 -0.017403 0.000000,
        0.028056 -0.016846 0.000000,
        0.023859 -0.015123 0.000000,
        0.173228 0.098425 0.000000,
        0.173559 0.094488 0.000000,
        0.096654 0.094488 0.000000,
        0.076672 0.022207 0.000000,
        0.096654 -0.017403 0.000000,
        0.076672 -0.017163 0.000000,
        0.037007 -0.017403 0.000000,
        0.056507 -0.017163 0.000000,
        0.039544 -0.017140 0.000000,
        0.043390 -0.015812 0.000000,
        0.020018 0.098425 0.000000,
        0.071391 0.022207 0.000000,
        0.039902 0.016867 0.000000,
        0.042627 0.015044 0.000000,
        0.045005 0.012419 0.000000,
        0.047865 0.002102 0.000000,
        0.047467 -0.002160 0.000000,
        0.046389 -0.005563 0.000000,
        0.037679 -0.012900 0.000000,
        0.033964 -0.013322 0.000000,
        0.040546 -0.011833 0.000000,
        0.042958 -0.010194 0.000000,
        0.044759 -0.008289 0.000000,
        0.028738 -0.012742 0.000000,
        0.028294 0.017744 0.000000,
        0.023859 -0.010802 0.000000,
        0.023859 0.015845 0.000000,
        0.023859 0.021126 0.000000,
        0.046628 0.009380 0.000000,
        0.047677 0.005165 0.000000,
        0.046555 -0.013781 0.000000,
        0.049504 -0.010663 0.000000,
        0.056507 -0.012842 0.000000,
        0.051594 -0.006916 0.000000,
        0.071391 -0.012842 0.000000,
        0.051182 0.011594 0.000000,
        0.048924 0.015314 0.000000,
        0.045440 0.018761 0.000000,
        0.041719 0.020979 0.000000,
        0.037333 0.022319 0.000000,
        0.052772 -0.002746 0.000000,
        0.053146 0.001779 0.000000,
        0.052658 0.007000 0.000000,
        0.033124 0.022687 0.000000,
        0.028411 0.022362 0.000000,
        0.033615 -0.017625 0.000000,
        0.020018 -0.098425 0.000000,
        0.034692 -0.017643 0.000000,
        -0.047199 -0.017163 0.000000,
        -0.042430 -0.006211 0.000000,
        -0.040210 -0.009752 0.000000,
        -0.004948 -0.017163 0.000000,
        0.016177 -0.017163 0.000000,
        0.016177 0.022207 0.000000,
        -0.003988 0.022207 0.000000,
        -0.173228 0.098425 0.000000,
        -0.174033 0.092311 0.000000,
        -0.067365 0.022207 0.000000,
        -0.037000 -0.012885 0.000000,
        -0.032948 -0.015298 0.000000,
        -0.028417 -0.016699 0.000000,
        -0.062083 0.022207 0.000000,
        -0.029059 0.021681 0.000000,
        -0.033698 0.020144 0.000000,
        0.010896 0.017886 0.000000,
        0.010896 0.004922 0.000000,
        -0.003988 0.017886 0.000000,
        -0.003028 0.004922 0.000000,
        -0.012630 0.022207 0.000000,
        -0.003028 0.000601 0.000000,
        0.010896 0.000601 0.000000,
        0.010896 -0.012842 0.000000,
        -0.004948 -0.012842 0.000000,
        -0.012630 -0.017163 0.000000,
        -0.023335 -0.017163 0.000000,
        -0.042326 0.012039 0.000000,
        -0.043735 0.008186 0.000000,
        -0.044319 0.003017 0.000000,
        -0.043809 -0.002055 0.000000,
        -0.037668 0.017656 0.000000,
        -0.040154 0.015261 0.000000,
        -0.076967 -0.017163 0.000000,
        -0.082728 -0.017163 0.000000,
        -0.190737 0.075608 0.000000,
        -0.196850 0.074803 0.000000,
        -0.023741 0.022207 0.000000,
        -0.072983 -0.006120 0.000000,
        -0.056719 -0.006120 0.000000,
        -0.052961 -0.017163 0.000000,
        -0.185039 0.077968 0.000000,
        -0.180147 0.081722 0.000000,
        -0.176393 0.086614 0.000000,
        -0.173228 -0.098425 0.000000,
        -0.174033 -0.092311 0.000000,
        -0.176393 -0.086614 0.000000,
        -0.180147 -0.081722 0.000000,
        -0.185039 -0.077968 0.000000,
        -0.173228 0.098425 0.078740,
        0.173228 0.098425 0.078740,
        -0.196850 0.074803 0.078740,
        -0.196850 -0.074803 0.078740,
        -0.173228 -0.098425 0.078740,
        0.173228 -0.098425 0.078740,
        0.096654 0.094488 0.078740,
        0.173559 0.094488 0.078740,
        -0.174033 -0.092311 0.078740,
        0.096654 -0.094488 0.078740,
        0.173559 -0.094488 0.078740,
        -0.174033 0.092311 0.078740,
        -0.190737 0.075608 0.078740,
        -0.185039 -0.077968 0.078740,
        -0.180147 -0.081722 0.078740,
        -0.176393 0.086614 0.078740,
        -0.180147 0.081722 0.078740,
        -0.190737 -0.075608 0.078740,
        -0.185039 0.077968 0.078740,
        -0.176393 -0.086614 0.078740,
      ]
    }
    coordIndex [
      0, 1, 2, -1,
      3, 4, 5, -1,
      6, 7, 8, -1,
      9, 10, 11, -1,
      11, 10, 12, -1,
      13, 14, 15, -1,
      16, 15, 17, -1,
      18, 19, 20, -1,
      20, 19, 21, -1,
      20, 21, 22, -1,
      13, 15, 23, -1,
      23, 15, 16, -1,
      23, 16, 24, -1,
      7, 25, 8, -1,
      8, 25, 26, -1,
      8, 26, 27, -1,
      28, 29, 8, -1,
      8, 29, 30, -1,
      31, 32, 33, -1,
      33, 32, 34, -1,
      30, 35, 8, -1,
      8, 35, 34, -1,
      8, 34, 36, -1,
      36, 34, 32, -1,
      6, 8, 37, -1,
      37, 8, 38, -1,
      37, 38, 39, -1,
      39, 38, 23, -1,
      39, 23, 40, -1,
      27, 41, 8, -1,
      8, 41, 42, -1,
      8, 42, 28, -1,
      22, 43, 20, -1,
      20, 43, 44, -1,
      20, 44, 45, -1,
      45, 44, 46, -1,
      45, 46, 47, -1,
      48, 49, 24, -1,
      24, 49, 50, -1,
      24, 50, 23, -1,
      23, 50, 51, -1,
      23, 51, 52, -1,
      46, 53, 47, -1,
      47, 53, 54, -1,
      47, 54, 24, -1,
      24, 54, 55, -1,
      24, 55, 48, -1,
      52, 56, 23, -1,
      23, 56, 57, -1,
      23, 57, 40, -1,
      9, 58, 59, -1,
      59, 58, 60, -1,
      59, 60, 19, -1,
      5, 59, 3, -1,
      3, 59, 19, -1,
      3, 19, 17, -1,
      17, 19, 18, -1,
      17, 18, 16, -1,
      61, 62, 63, -1,
      64, 65, 10, -1,
      10, 65, 66, -1,
      67, 68, 66, -1,
      66, 68, 23, -1,
      66, 23, 10, -1,
      10, 23, 38, -1,
      10, 38, 12, -1,
      69, 68, 70, -1,
      63, 71, 61, -1,
      61, 71, 72, -1,
      61, 72, 73, -1,
      70, 68, 74, -1,
      75, 76, 74, -1,
      77, 78, 79, -1,
      79, 78, 80, -1,
      79, 80, 81, -1,
      81, 80, 82, -1,
      83, 84, 82, -1,
      82, 84, 85, -1,
      82, 85, 81, -1,
      81, 85, 64, -1,
      81, 64, 86, -1,
      86, 64, 10, -1,
      86, 10, 87, -1,
      88, 89, 74, -1,
      74, 89, 90, -1,
      74, 90, 61, -1,
      61, 90, 91, -1,
      61, 91, 62, -1,
      76, 92, 74, -1,
      74, 92, 93, -1,
      74, 93, 88, -1,
      94, 10, 95, -1,
      95, 10, 2, -1,
      95, 2, 96, -1,
      96, 2, 97, -1,
      75, 74, 98, -1,
      98, 74, 68, -1,
      98, 68, 81, -1,
      81, 68, 67, -1,
      81, 67, 79, -1,
      99, 100, 94, -1,
      94, 100, 101, -1,
      94, 101, 10, -1,
      10, 101, 61, -1,
      10, 61, 87, -1,
      87, 61, 73, -1,
      96, 102, 95, -1,
      95, 102, 103, -1,
      95, 103, 70, -1,
      70, 103, 104, -1,
      70, 104, 69, -1,
      9, 59, 10, -1,
      10, 59, 105, -1,
      10, 105, 106, -1,
      106, 107, 10, -1,
      10, 107, 108, -1,
      10, 108, 2, -1,
      2, 108, 109, -1,
      2, 109, 0, -1,
      68, 110, 23, -1,
      23, 110, 111, -1,
      23, 111, 13, -1,
      112, 97, 113, -1,
      113, 97, 2, -1,
      113, 2, 1, -1,
      114, 105, 115, -1,
      115, 105, 59, -1,
      115, 59, 5, -1,
      116, 117, 111, -1,
      118, 114, 119, -1,
      119, 114, 115, -1,
      119, 115, 120, -1,
      111, 110, 116, -1,
      116, 110, 121, -1,
      116, 121, 119, -1,
      122, 123, 124, -1,
      121, 125, 119, -1,
      119, 125, 126, -1,
      119, 126, 118, -1,
      112, 113, 122, -1,
      122, 113, 127, -1,
      122, 127, 123, -1,
      126, 128, 118, -1,
      118, 128, 122, -1,
      118, 122, 129, -1,
      129, 122, 124, -1,
    ]
  }
}

Shape {
  appearance Appearance {
    material Material {
      diffuseColor 0.8314 0.6706 0.1294
      specularColor 0.6667 0.5373 0.1020
      ambientIntensity 0.2
      transparency 0.0000
      shininess 0.5
    }
  }
  geometry IndexedFaceSet {
    ccw TRUE
    solid FALSE
    coord DEF co Coordinate {
      point [
        0.173559 -0.094488 0.000000,
        0.173228 -0.098425 0.000000,
        -0.173228 0.098425 0.000000,
        -0.174033 0.092311 0.000000,
        -0.190737 0.075608 0.000000,
        -0.196850 0.074803 0.000000,
        -0.185039 0.077968 0.000000,
        -0.180147 0.081722 0.000000,
        -0.176393 0.086614 0.000000,
        -0.173228 0.098425 0.078740,
        -0.196850 0.074803 0.078740,
        0.173228 -0.098425 0.078740,
        0.173559 -0.094488 0.078740,
        -0.174033 0.092311 0.078740,
        -0.190737 0.075608 0.078740,
        -0.176393 0.086614 0.078740,
        -0.180147 0.081722 0.078740,
        -0.185039 0.077968 0.078740,
      ]
    }
    coordIndex [
      5, 10, 4, -1,
      4, 10, 14, -1,
      4, 14, 6, -1,
      6, 14, 17, -1,
      6, 17, 7, -1,
      7, 17, 16, -1,
      7, 16, 8, -1,
      8, 16, 15, -1,
      8, 15, 3, -1,
      3, 15, 13, -1,
      3, 13, 2, -1,
      2, 13, 9, -1,
      0, 12, 1, -1,
      1, 12, 11, -1,
    ]
  }
}

Shape {
  appearance Appearance {
    material Material {
      diffuseColor 1.0000 1.0000 1.0000
      specularColor 0.8784 0.8784 0.8784
      ambientIntensity 0.2
      transparency 0.0000
      shininess 0.5
    }
  }
  geometry IndexedFaceSet {
    ccw TRUE
    solid FALSE
    coord DEF co Coordinate {
      point [
        -0.190737 -0.075608 0.000000,
        -0.196850 -0.074803 0.000000,
        0.173228 0.098425 0.000000,
        0.173559 0.094488 0.000000,
        -0.173228 -0.098425 0.000000,
        -0.174033 -0.092311 0.000000,
        -0.176393 -0.086614 0.000000,
        -0.180147 -0.081722 0.000000,
        -0.185039 -0.077968 0.000000,
        0.173228 0.098425 0.078740,
        -0.196850 -0.074803 0.078740,
        -0.173228 -0.098425 0.078740,
        0.173559 0.094488 0.078740,
        -0.174033 -0.092311 0.078740,
        -0.185039 -0.077968 0.078740,
        -0.180147 -0.081722 0.078740,
        -0.190737 -0.075608 0.078740,
        -0.176393 -0.086614 0.078740,
      ]
    }
    coordIndex [
      2, 9, 3, -1,
      3, 9, 12, -1,
      4, 11, 5, -1,
      5, 11, 13, -1,
      5, 13, 6, -1,
      6, 13, 17, -1,
      6, 17, 7, -1,
      7, 17, 15, -1,
      7, 15, 8, -1,
      8, 15, 14, -1,
      8, 14, 0, -1,
      0, 14, 16, -1,
      0, 16, 1, -1,
      1, 16, 10, -1,
    ]
  }
}

Shape {
  appearance Appearance {
    material Material {
      diffuseColor 0.8314 0.6706 0.1294
      specularColor 0.6667 0.5373 0.1020
      ambientIntensity 0.2
      transparency 0.0000
      shininess 0.5
    }
  }
  geometry IndexedFaceSet {
    ccw TRUE
    solid FALSE
    coord DEF co Coordinate {
      point [
        0.096654 -0.094488 0.000000,
        0.173559 -0.094488 0.000000,
        0.173559 0.094488 0.000000,
        0.096654 0.094488 0.000000,
        0.096654 -0.017403 0.000000,
        0.096654 0.094488 0.078740,
        0.173559 0.094488 0.078740,
        0.096654 -0.094488 0.078740,
        0.173559 -0.094488 0.078740,
        0.096654 -0.094488 0.082677,
        0.096654 0.094488 0.082677,
        0.096654 -0.094488 -0.003937,
        0.181102 -0.094488 -0.003937,
        0.181102 -0.094488 0.082677,
        0.181102 0.094488 0.082677,
        0.181102 0.094488 -0.003937,
        0.096654 0.094488 -0.003937,
        0.200787 0.074803 0.082677,
        0.200787 0.074803 -0.003937,
        0.195693 0.075474 0.082677,
        0.195693 0.075474 -0.003937,
        0.190945 0.077441 0.082677,
        0.190945 0.077441 -0.003937,
        0.186868 0.080569 0.082677,
        0.186868 0.080569 -0.003937,
        0.183740 0.084646 0.082677,
        0.183740 0.084646 -0.003937,
        0.181773 0.089393 0.082677,
        0.181773 0.089393 -0.003937,
        0.200787 -0.074803 0.082677,
        0.200787 -0.074803 -0.003937,
        0.181773 -0.089393 0.082677,
        0.181773 -0.089393 -0.003937,
        0.183740 -0.084646 0.082677,
        0.183740 -0.084646 -0.003937,
        0.186868 -0.080569 0.082677,
        0.186868 -0.080569 -0.003937,
        0.190945 -0.077441 0.082677,
        0.190945 -0.077441 -0.003937,
        0.195693 -0.075474 0.082677,
        0.195693 -0.075474 -0.003937,
      ]
    }
    coordIndex [
      9, 10, 7, -1,
      7, 10, 5, -1,
      0, 11, 1, -1,
      1, 11, 12, -1,
      1, 12, 8, -1,
      8, 12, 13, -1,
      8, 13, 7, -1,
      7, 13, 9, -1,
      5, 10, 6, -1,
      6, 10, 14, -1,
      6, 14, 2, -1,
      2, 14, 15, -1,
      2, 15, 3, -1,
      3, 15, 16, -1,
      3, 16, 4, -1,
      4, 16, 11, -1,
      4, 11, 0, -1,
      17, 18, 19, -1,
      19, 18, 20, -1,
      19, 20, 21, -1,
      21, 20, 22, -1,
      21, 22, 23, -1,
      23, 22, 24, -1,
      23, 24, 25, -1,
      25, 24, 26, -1,
      25, 26, 27, -1,
      27, 26, 28, -1,
      27, 28, 14, -1,
      14, 28, 15, -1,
      17, 29, 18, -1,
      18, 29, 30, -1,
      13, 12, 31, -1,
      31, 12, 32, -1,
      31, 32, 33, -1,
      33, 32, 34, -1,
      33, 34, 35, -1,
      35, 34, 36, -1,
      35, 36, 37, -1,
      37, 36, 38, -1,
      37, 38, 39, -1,
      39, 38, 40, -1,
      39, 40, 29, -1,
      29, 40, 30, -1,
      27, 14, 10, -1,
      33, 10, 31, -1,
      31, 10, 9, -1,
      31, 9, 13, -1,
      19, 33, 35, -1,
      29, 17, 39, -1,
      39, 17, 19, -1,
      39, 19, 37, -1,
      37, 19, 35, -1,
      19, 21, 33, -1,
      33, 21, 23, -1,
      33, 23, 10, -1,
      10, 23, 25, -1,
      10, 25, 27, -1,
      16, 15, 28, -1,
      26, 24, 34, -1,
      28, 26, 16, -1,
      16, 26, 34, -1,
      16, 34, 11, -1,
      11, 34, 32, -1,
      11, 32, 12, -1,
      18, 30, 20, -1,
      20, 30, 40, -1,
      20, 40, 22, -1,
      22, 40, 38, -1,
      22, 38, 24, -1,
      24, 38, 36, -1,
      24, 36, 34, -1,
    ]
  }
}

Shape {
  appearance Appearance {
    material Material {
      diffuseColor 0.2235 0.2235 0.2235
      specularColor 0.1137 0.1137 0.1137
      ambientIntensity 0.2
      transparency 0.0000
      shininess 0.5
    }
  }
  geometry IndexedFaceSet {
    ccw TRUE
    solid FALSE
    coord DEF co Coordinate {
      point [
        0.033079 0.018366 0.000000,
        0.036956 0.017930 0.000000,
        0.024565 -0.011193 0.000000,
        0.032034 -0.017403 0.000000,
        0.028056 -0.016846 0.000000,
        0.023859 -0.015123 0.000000,
        0.076672 0.022207 0.000000,
        0.076672 -0.017163 0.000000,
        0.037007 -0.017403 0.000000,
        0.056507 -0.017163 0.000000,
        0.039544 -0.017140 0.000000,
        0.043390 -0.015812 0.000000,
        0.071391 0.022207 0.000000,
        0.039902 0.016867 0.000000,
        0.042627 0.015044 0.000000,
        0.045005 0.012419 0.000000,
        0.047865 0.002102 0.000000,
        0.047467 -0.002160 0.000000,
        0.046389 -0.005563 0.000000,
        0.037679 -0.012900 0.000000,
        0.033964 -0.013322 0.000000,
        0.040546 -0.011833 0.000000,
        0.042958 -0.010194 0.000000,
        0.044759 -0.008289 0.000000,
        0.028738 -0.012742 0.000000,
        0.028294 0.017744 0.000000,
        0.023859 -0.010802 0.000000,
        0.023859 0.015845 0.000000,
        0.023859 0.021126 0.000000,
        0.046628 0.009380 0.000000,
        0.047677 0.005165 0.000000,
        0.046555 -0.013781 0.000000,
        0.049504 -0.010663 0.000000,
        0.056507 -0.012842 0.000000,
        0.051594 -0.006916 0.000000,
        0.071391 -0.012842 0.000000,
        0.051182 0.011594 0.000000,
        0.048924 0.015314 0.000000,
        0.045440 0.018761 0.000000,
        0.041719 0.020979 0.000000,
        0.037333 0.022319 0.000000,
        0.052772 -0.002746 0.000000,
        0.053146 0.001779 0.000000,
        0.052658 0.007000 0.000000,
        0.033124 0.022687 0.000000,
        0.028411 0.022362 0.000000,
        0.033615 -0.017625 0.000000,
        0.034692 -0.017643 0.000000,
        -0.047199 -0.017163 0.000000,
        -0.042430 -0.006211 0.000000,
        -0.040210 -0.009752 0.000000,
        -0.004948 -0.017163 0.000000,
        0.016177 -0.017163 0.000000,
        0.016177 0.022207 0.000000,
        -0.003988 0.022207 0.000000,
        -0.067365 0.022207 0.000000,
        -0.037000 -0.012885 0.000000,
        -0.032948 -0.015298 0.000000,
        -0.028417 -0.016699 0.000000,
        -0.062083 0.022207 0.000000,
        -0.029059 0.021681 0.000000,
        -0.033698 0.020144 0.000000,
        0.010896 0.017886 0.000000,
        0.010896 0.004922 0.000000,
        -0.003988 0.017886 0.000000,
        -0.003028 0.004922 0.000000,
        -0.012630 0.022207 0.000000,
        -0.003028 0.000601 0.000000,
        0.010896 0.000601 0.000000,
        0.010896 -0.012842 0.000000,
        -0.004948 -0.012842 0.000000,
        -0.012630 -0.017163 0.000000,
        -0.023335 -0.017163 0.000000,
        -0.042326 0.012039 0.000000,
        -0.043735 0.008186 0.000000,
        -0.044319 0.003017 0.000000,
        -0.043809 -0.002055 0.000000,
        -0.037668 0.017656 0.000000,
        -0.040154 0.015261 0.000000,
        -0.076967 -0.017163 0.000000,
        -0.082728 -0.017163 0.000000,
        -0.023741 0.022207 0.000000,
        -0.072983 -0.006120 0.000000,
        -0.056719 -0.006120 0.000000,
        -0.052961 -0.017163 0.000000,
        -0.067365 0.022207 0.003937,
        -0.082728 -0.017163 0.003937,
        -0.076967 -0.017163 0.003937,
        -0.072983 -0.006120 0.003937,
        -0.056719 -0.006120 0.003937,
        -0.052961 -0.017163 0.003937,
        -0.047199 -0.017163 0.003937,
        -0.062083 0.022207 0.003937,
        -0.058047 -0.001799 0.003937,
        -0.071213 -0.001799 0.003937,
        -0.063921 0.014645 0.003937,
        -0.064300 0.016010 0.003937,
        -0.064551 0.017406 0.003937,
        -0.064679 0.017406 0.003937,
        -0.064935 0.016015 0.003937,
        -0.065286 0.014645 0.003937,
        -0.058047 -0.001799 0.000000,
        -0.071213 -0.001799 0.000000,
        -0.063921 0.014645 0.000000,
        -0.064300 0.016010 0.000000,
        -0.064551 0.017406 0.000000,
        -0.064679 0.017406 0.000000,
        -0.064935 0.016015 0.000000,
        -0.065286 0.014645 0.000000,
        -0.023335 -0.017163 0.003937,
        -0.012630 -0.017163 0.003937,
        -0.012630 0.022207 0.003937,
        -0.023741 0.022207 0.003937,
        -0.044319 0.003017 0.003937,
        -0.043735 0.008186 0.003937,
        -0.042326 0.012039 0.003937,
        -0.040154 0.015261 0.003937,
        -0.037668 0.017656 0.003937,
        -0.033698 0.020144 0.003937,
        -0.029059 0.021681 0.003937,
        -0.028417 -0.016699 0.003937,
        -0.032948 -0.015298 0.003937,
        -0.037000 -0.012885 0.003937,
        -0.040210 -0.009752 0.003937,
        -0.042430 -0.006211 0.003937,
        -0.043809 -0.002055 0.003937,
        -0.023718 0.017886 0.003937,
        -0.017912 0.017886 0.003937,
        -0.017912 -0.012842 0.003937,
        -0.023501 -0.012842 0.003937,
        -0.027654 -0.012456 0.003937,
        -0.030988 -0.011412 0.003937,
        -0.033669 -0.009815 0.003937,
        -0.035873 -0.007630 0.003937,
        -0.037530 -0.004912 0.003937,
        -0.038681 -0.001204 0.003937,
        -0.039037 0.002904 0.003937,
        -0.038703 0.006823 0.003937,
        -0.037772 0.009963 0.003937,
        -0.036401 0.012385 0.003937,
        -0.034485 0.014411 0.003937,
        -0.031604 0.016265 0.003937,
        -0.028350 0.017397 0.003937,
        -0.023718 0.017886 0.000000,
        -0.017912 0.017886 0.000000,
        -0.028350 0.017397 0.000000,
        -0.031604 0.016265 0.000000,
        -0.034485 0.014411 0.000000,
        -0.036401 0.012385 0.000000,
        -0.037772 0.009963 0.000000,
        -0.038703 0.006823 0.000000,
        -0.039037 0.002904 0.000000,
        -0.038681 -0.001204 0.000000,
        -0.037530 -0.004912 0.000000,
        -0.035873 -0.007630 0.000000,
        -0.033669 -0.009815 0.000000,
        -0.030988 -0.011412 0.000000,
        -0.027654 -0.012456 0.000000,
        -0.023501 -0.012842 0.000000,
        -0.017912 -0.012842 0.000000,
        -0.004948 -0.012842 0.003937,
        -0.004948 -0.017163 0.003937,
        0.016177 -0.017163 0.003937,
        0.016177 0.022207 0.003937,
        -0.003988 0.022207 0.003937,
        -0.003988 0.017886 0.003937,
        0.010896 0.017886 0.003937,
        0.010896 0.004922 0.003937,
        -0.003028 0.004922 0.003937,
        -0.003028 0.000601 0.003937,
        0.010896 0.000601 0.003937,
        0.010896 -0.012842 0.003937,
        0.023859 -0.010802 0.003937,
        0.023859 -0.015123 0.003937,
        0.028056 -0.016846 0.003937,
        0.034692 -0.017643 0.003937,
        0.033615 -0.017625 0.003937,
        0.053146 0.001779 0.003937,
        0.052772 -0.002746 0.003937,
        0.051594 -0.006916 0.003937,
        0.049504 -0.010663 0.003937,
        0.046555 -0.013781 0.003937,
        0.043390 -0.015812 0.003937,
        0.039544 -0.017140 0.003937,
        0.033124 0.022687 0.003937,
        0.037333 0.022319 0.003937,
        0.041719 0.020979 0.003937,
        0.045440 0.018761 0.003937,
        0.048924 0.015314 0.003937,
        0.051182 0.011594 0.003937,
        0.052658 0.007000 0.003937,
        0.023859 0.021126 0.003937,
        0.028411 0.022362 0.003937,
        0.023859 0.015845 0.003937,
        0.033079 0.018366 0.003937,
        0.028294 0.017744 0.003937,
        0.047865 0.002102 0.003937,
        0.047677 0.005165 0.003937,
        0.046628 0.009380 0.003937,
        0.045005 0.012419 0.003937,
        0.042627 0.015044 0.003937,
        0.039902 0.016867 0.003937,
        0.036956 0.017930 0.003937,
        0.033964 -0.013322 0.003937,
        0.037679 -0.012900 0.003937,
        0.040546 -0.011833 0.003937,
        0.042958 -0.010194 0.003937,
        0.044759 -0.008289 0.003937,
        0.046389 -0.005563 0.003937,
        0.047467 -0.002160 0.003937,
        0.024565 -0.011193 0.003937,
        0.028738 -0.012742 0.003937,
        0.056507 -0.012842 0.003937,
        0.056507 -0.017163 0.003937,
        0.076672 -0.017163 0.003937,
        0.076672 0.022207 0.003937,
        0.071391 0.022207 0.003937,
        0.071391 -0.012842 0.003937,
      ]
    }
    coordIndex [
      85, 86, 55, -1,
      55, 86, 80, -1,
      86, 87, 80, -1,
      80, 87, 79, -1,
      87, 88, 79, -1,
      79, 88, 82, -1,
      88, 89, 82, -1,
      82, 89, 83, -1,
      89, 90, 83, -1,
      83, 90, 84, -1,
      90, 91, 84, -1,
      84, 91, 48, -1,
      91, 92, 48, -1,
      48, 92, 59, -1,
      92, 85, 59, -1,
      59, 85, 55, -1,
      93, 89, 94, -1,
      94, 89, 88, -1,
      95, 92, 93, -1,
      93, 92, 91, -1,
      93, 91, 89, -1,
      89, 91, 90, -1,
      95, 96, 92, -1,
      92, 96, 97, -1,
      92, 97, 85, -1,
      85, 97, 98, -1,
      85, 98, 99, -1,
      99, 100, 85, -1,
      85, 100, 94, -1,
      85, 94, 86, -1,
      86, 94, 88, -1,
      86, 88, 87, -1,
      93, 94, 101, -1,
      101, 94, 102, -1,
      95, 93, 103, -1,
      103, 93, 101, -1,
      95, 103, 104, -1,
      95, 104, 96, -1,
      96, 104, 105, -1,
      96, 105, 97, -1,
      98, 97, 106, -1,
      106, 97, 105, -1,
      98, 106, 107, -1,
      98, 107, 99, -1,
      99, 107, 108, -1,
      99, 108, 100, -1,
      94, 100, 102, -1,
      102, 100, 108, -1,
      109, 110, 72, -1,
      72, 110, 71, -1,
      110, 111, 71, -1,
      71, 111, 66, -1,
      111, 112, 66, -1,
      66, 112, 81, -1,
      113, 75, 74, -1,
      113, 74, 114, -1,
      114, 74, 73, -1,
      114, 73, 115, -1,
      115, 73, 78, -1,
      115, 78, 116, -1,
      116, 78, 77, -1,
      116, 77, 117, -1,
      117, 77, 61, -1,
      117, 61, 118, -1,
      118, 61, 60, -1,
      118, 60, 119, -1,
      119, 60, 81, -1,
      119, 81, 112, -1,
      109, 72, 58, -1,
      109, 58, 120, -1,
      120, 58, 57, -1,
      120, 57, 121, -1,
      121, 57, 56, -1,
      121, 56, 122, -1,
      122, 56, 50, -1,
      122, 50, 123, -1,
      123, 50, 49, -1,
      123, 49, 124, -1,
      124, 49, 76, -1,
      124, 76, 125, -1,
      125, 76, 75, -1,
      125, 75, 113, -1,
      126, 112, 127, -1,
      127, 112, 111, -1,
      127, 111, 128, -1,
      128, 111, 110, -1,
      128, 110, 129, -1,
      129, 110, 109, -1,
      129, 109, 130, -1,
      130, 109, 120, -1,
      130, 120, 131, -1,
      131, 120, 121, -1,
      131, 121, 132, -1,
      132, 121, 122, -1,
      132, 122, 133, -1,
      133, 122, 123, -1,
      133, 123, 134, -1,
      134, 123, 124, -1,
      134, 124, 135, -1,
      135, 124, 125, -1,
      135, 125, 136, -1,
      136, 125, 113, -1,
      136, 113, 137, -1,
      137, 113, 114, -1,
      137, 114, 138, -1,
      138, 114, 115, -1,
      138, 115, 139, -1,
      139, 115, 116, -1,
      139, 116, 140, -1,
      140, 116, 117, -1,
      140, 117, 141, -1,
      141, 117, 118, -1,
      141, 118, 142, -1,
      142, 118, 119, -1,
      142, 119, 126, -1,
      126, 119, 112, -1,
      126, 127, 143, -1,
      143, 127, 144, -1,
      126, 143, 145, -1,
      126, 145, 142, -1,
      142, 145, 146, -1,
      142, 146, 141, -1,
      141, 146, 147, -1,
      141, 147, 140, -1,
      140, 147, 148, -1,
      140, 148, 139, -1,
      139, 148, 149, -1,
      139, 149, 138, -1,
      138, 149, 150, -1,
      138, 150, 137, -1,
      137, 150, 151, -1,
      137, 151, 136, -1,
      136, 151, 152, -1,
      136, 152, 135, -1,
      135, 152, 153, -1,
      135, 153, 134, -1,
      134, 153, 154, -1,
      134, 154, 133, -1,
      133, 154, 155, -1,
      133, 155, 132, -1,
      132, 155, 156, -1,
      132, 156, 131, -1,
      131, 156, 157, -1,
      131, 157, 130, -1,
      130, 157, 158, -1,
      130, 158, 129, -1,
      128, 129, 159, -1,
      159, 129, 158, -1,
      127, 128, 144, -1,
      144, 128, 159, -1,
      160, 161, 70, -1,
      70, 161, 51, -1,
      161, 162, 51, -1,
      51, 162, 52, -1,
      162, 163, 52, -1,
      52, 163, 53, -1,
      163, 164, 53, -1,
      53, 164, 54, -1,
      164, 165, 54, -1,
      54, 165, 64, -1,
      165, 166, 64, -1,
      64, 166, 62, -1,
      166, 167, 62, -1,
      62, 167, 63, -1,
      167, 168, 63, -1,
      63, 168, 65, -1,
      168, 169, 65, -1,
      65, 169, 67, -1,
      169, 170, 67, -1,
      67, 170, 68, -1,
      170, 171, 68, -1,
      68, 171, 69, -1,
      171, 160, 69, -1,
      69, 160, 70, -1,
      162, 161, 160, -1,
      160, 171, 162, -1,
      162, 171, 170, -1,
      162, 170, 163, -1,
      165, 164, 166, -1,
      166, 164, 163, -1,
      166, 163, 167, -1,
      167, 163, 170, -1,
      167, 170, 168, -1,
      168, 170, 169, -1,
      172, 173, 26, -1,
      26, 173, 5, -1,
      5, 173, 174, -1,
      175, 47, 46, -1,
      175, 46, 176, -1,
      176, 46, 3, -1,
      176, 3, 174, -1,
      174, 3, 4, -1,
      174, 4, 5, -1,
      177, 42, 41, -1,
      177, 41, 178, -1,
      178, 41, 34, -1,
      178, 34, 179, -1,
      179, 34, 32, -1,
      179, 32, 180, -1,
      180, 32, 31, -1,
      180, 31, 181, -1,
      181, 31, 11, -1,
      181, 11, 182, -1,
      182, 11, 10, -1,
      182, 10, 183, -1,
      183, 10, 175, -1,
      175, 10, 8, -1,
      175, 8, 47, -1,
      184, 44, 40, -1,
      184, 40, 185, -1,
      185, 40, 39, -1,
      185, 39, 186, -1,
      186, 39, 38, -1,
      186, 38, 187, -1,
      187, 38, 37, -1,
      187, 37, 188, -1,
      188, 37, 36, -1,
      188, 36, 189, -1,
      189, 36, 43, -1,
      189, 43, 190, -1,
      190, 43, 42, -1,
      190, 42, 177, -1,
      191, 28, 45, -1,
      191, 45, 192, -1,
      192, 45, 44, -1,
      192, 44, 184, -1,
      191, 193, 28, -1,
      28, 193, 27, -1,
      194, 0, 25, -1,
      194, 25, 195, -1,
      195, 25, 27, -1,
      195, 27, 193, -1,
      196, 16, 30, -1,
      196, 30, 197, -1,
      197, 30, 29, -1,
      197, 29, 198, -1,
      198, 29, 15, -1,
      198, 15, 199, -1,
      199, 15, 14, -1,
      199, 14, 200, -1,
      200, 14, 13, -1,
      200, 13, 201, -1,
      201, 13, 1, -1,
      201, 1, 202, -1,
      202, 1, 0, -1,
      202, 0, 194, -1,
      203, 20, 19, -1,
      203, 19, 204, -1,
      204, 19, 21, -1,
      204, 21, 205, -1,
      205, 21, 22, -1,
      205, 22, 206, -1,
      206, 22, 23, -1,
      206, 23, 207, -1,
      207, 23, 18, -1,
      207, 18, 208, -1,
      208, 18, 17, -1,
      208, 17, 209, -1,
      209, 17, 16, -1,
      209, 16, 196, -1,
      172, 26, 2, -1,
      172, 2, 210, -1,
      210, 2, 24, -1,
      210, 24, 211, -1,
      211, 24, 20, -1,
      211, 20, 203, -1,
      204, 175, 203, -1,
      203, 175, 176, -1,
      203, 176, 211, -1,
      211, 176, 174, -1,
      211, 174, 210, -1,
      210, 174, 173, -1,
      210, 173, 172, -1,
      193, 191, 195, -1,
      195, 191, 192, -1,
      195, 192, 194, -1,
      194, 192, 184, -1,
      194, 184, 202, -1,
      202, 184, 185, -1,
      202, 185, 201, -1,
      201, 185, 186, -1,
      201, 186, 200, -1,
      200, 186, 187, -1,
      200, 187, 199, -1,
      199, 187, 188, -1,
      199, 188, 198, -1,
      198, 188, 189, -1,
      198, 189, 197, -1,
      197, 189, 190, -1,
      197, 190, 196, -1,
      196, 190, 177, -1,
      196, 177, 209, -1,
      209, 177, 178, -1,
      209, 178, 208, -1,
      208, 178, 179, -1,
      208, 179, 207, -1,
      207, 179, 180, -1,
      207, 180, 206, -1,
      206, 180, 181, -1,
      206, 181, 205, -1,
      205, 181, 182, -1,
      205, 182, 204, -1,
      204, 182, 183, -1,
      204, 183, 175, -1,
      212, 213, 33, -1,
      33, 213, 9, -1,
      213, 214, 9, -1,
      9, 214, 7, -1,
      214, 215, 7, -1,
      7, 215, 6, -1,
      215, 216, 6, -1,
      6, 216, 12, -1,
      216, 217, 12, -1,
      12, 217, 35, -1,
      217, 212, 35, -1,
      35, 212, 33, -1,
      216, 215, 217, -1,
      217, 215, 214, -1,
      217, 214, 212, -1,
      212, 214, 213, -1,
    ]
  }
}

Shape {
  appearance Appearance {
    material Material {
      diffuseColor 1.0000 1.0000 1.0000
      specularColor 0.5020 0.5020 0.5020
      ambientIntensity 0.2
      transparency 0.0000
      shininess 0.5
    }
  }
  geometry IndexedFaceSet {
    ccw TRUE
    solid FALSE
    coord DEF co Coordinate {
      point [
        -0.058047 -0.001799 0.000000,
        -0.071213 -0.001799 0.000000,
        -0.063921 0.014645 0.000000,
        -0.064300 0.016010 0.000000,
        -0.064551 0.017406 0.000000,
        -0.064679 0.017406 0.000000,
        -0.064935 0.016015 0.000000,
        -0.065286 0.014645 0.000000,
        -0.023718 0.017886 0.000000,
        -0.017912 0.017886 0.000000,
        -0.028350 0.017397 0.000000,
        -0.031604 0.016265 0.000000,
        -0.034485 0.014411 0.000000,
        -0.036401 0.012385 0.000000,
        -0.037772 0.009963 0.000000,
        -0.038703 0.006823 0.000000,
        -0.039037 0.002904 0.000000,
        -0.038681 -0.001204 0.000000,
        -0.037530 -0.004912 0.000000,
        -0.035873 -0.007630 0.000000,
        -0.033669 -0.009815 0.000000,
        -0.030988 -0.011412 0.000000,
        -0.027654 -0.012456 0.000000,
        -0.023501 -0.012842 0.000000,
        -0.017912 -0.012842 0.000000,
        0.098600 0.088757 0.157480,
        0.098600 -0.088757 0.157480,
        0.108268 0.098425 0.078740,
        0.108268 -0.098425 0.078740,
        -0.098600 0.088757 0.157480,
        -0.108268 0.098425 0.078740,
        -0.098600 -0.088757 0.157480,
        -0.108268 -0.098425 0.078740,
      ]
    }
    coordIndex [
      0, 1, 2, -1,
      2, 1, 7, -1,
      2, 7, 3, -1,
      3, 7, 6, -1,
      3, 6, 4, -1,
      4, 6, 5, -1,
      9, 24, 8, -1,
      8, 24, 23, -1,
      8, 23, 22, -1,
      16, 15, 8, -1,
      8, 15, 14, -1,
      8, 14, 10, -1,
      22, 21, 8, -1,
      8, 21, 20, -1,
      8, 20, 19, -1,
      19, 18, 8, -1,
      8, 18, 17, -1,
      8, 17, 16, -1,
      13, 12, 14, -1,
      14, 12, 11, -1,
      14, 11, 10, -1,
      25, 26, 27, -1,
      27, 26, 28, -1,
      29, 25, 30, -1,
      30, 25, 27, -1,
      31, 29, 32, -1,
      32, 29, 30, -1,
      26, 31, 28, -1,
      28, 31, 32, -1,
      29, 31, 25, -1,
      25, 31, 26, -1,
      32, 30, 28, -1,
      28, 30, 27, -1,
    ]
  }
}
