%TF.GenerationSoftware,KiCad,Pcbnew,9.0.2+dfsg-1*%
%TF.CreationDate,2026-09-12T17:13:16+01:00*%
%TF.ProjectId,SDcore,5344636f-7265-42e6-9b69-6361645f7063,rev?*%
%TF.SameCoordinates,Original*%
%TF.FileFunction,Copper,L4,Bot*%
%TF.FilePolarity,Positive*%
%FSLAX46Y46*%
G04 Gerber Fmt 4.6, Leading zero omitted, Abs format (unit mm)*
G04 Created by KiCad (PCBNEW 9.0.2+dfsg-1) date 2026-09-12 17:13:16*
%MOMM*%
%LPD*%
G01*
G04 APERTURE LIST*
%TA.AperFunction,ViaPad*%
%ADD10C,0.300000*%
%TD*%
%TA.AperFunction,Conductor*%
%ADD11C,0.150000*%
%TD*%
%TA.AperFunction,Conductor*%
%ADD12C,0.100000*%
%TD*%
G04 APERTURE END LIST*
D10*
%TO.N,GND*%
X173645020Y-105647385D03*
%TO.N,+3V3*%
X175906047Y-81813953D03*
%TO.N,GND*%
X159740000Y-103680000D03*
X179521985Y-84078015D03*
X181600000Y-88360000D03*
X168475000Y-79500000D03*
X176846985Y-81903015D03*
X173603015Y-82346985D03*
X171403015Y-84246985D03*
X169363015Y-86366985D03*
%TO.N,+3V3*%
X166100000Y-106277559D03*
X177248797Y-85288798D03*
X175901985Y-93058015D03*
X173041242Y-91192870D03*
%TO.N,+1V1*%
X173040727Y-84439273D03*
X176980686Y-84990686D03*
%TO.N,GND*%
X173889150Y-83590850D03*
X174750000Y-86080000D03*
X175303015Y-93646985D03*
X176000000Y-99230000D03*
X173600000Y-94317461D03*
X161560000Y-93522441D03*
X159200000Y-88417184D03*
%TO.N,+3V3*%
X163017184Y-83200000D03*
X162795000Y-85377400D03*
X169079449Y-89369449D03*
X170975000Y-79500000D03*
%TO.N,GND*%
X169103015Y-90553015D03*
X170753015Y-91253015D03*
%TO.N,P_GPIO16*%
X177440000Y-87580000D03*
%TO.N,P_GPIO17*%
X177835000Y-87235000D03*
%TO.N,P_GPIO14*%
X178944953Y-96590000D03*
%TO.N,P_GPIO13*%
X174110000Y-90330000D03*
%TO.N,GND*%
X176125000Y-105650000D03*
X180125000Y-107425000D03*
X176275000Y-108000000D03*
%TO.N,+3V3*%
X177675000Y-108000000D03*
%TO.N,P_GPIO14*%
X179075000Y-108000000D03*
%TO.N,P_GPIO12*%
X178375000Y-108000000D03*
%TO.N,P_GPIO17*%
X179775000Y-108000000D03*
%TO.N,SWDIO*%
X176975000Y-108000000D03*
%TO.N,P_GPIO29*%
X179625000Y-105650000D03*
%TO.N,P_GPIO28*%
X179275000Y-106225000D03*
%TO.N,P_GPIO27*%
X178925000Y-105650000D03*
%TO.N,P_GPIO26*%
X178575000Y-106225000D03*
%TO.N,P_GPIO23*%
X178225000Y-105650000D03*
%TO.N,P_GPIO22*%
X177875000Y-106225000D03*
%TO.N,P_GPIO21*%
X177525000Y-105650000D03*
%TO.N,P_GPIO20*%
X177175000Y-106225000D03*
%TO.N,P_GPIO19*%
X176825000Y-105650000D03*
%TO.N,P_GPIO18*%
X176475000Y-106225000D03*
%TO.N,P_GPIO16*%
X179425000Y-107425000D03*
%TO.N,P_GPIO13*%
X178725000Y-107425000D03*
%TO.N,P_GPIO15*%
X178025000Y-107425000D03*
%TO.N,RUN*%
X177325000Y-107425000D03*
%TO.N,SWCLK*%
X176625000Y-107425000D03*
%TO.N,OUT_CLK*%
X171400000Y-93925000D03*
%TO.N,GPIO_0*%
X171050000Y-88025000D03*
%TO.N,SPI1_CSn*%
X173250000Y-92075000D03*
%TO.N,P_GPIO15*%
X175210000Y-91160000D03*
%TO.N,SPI1_RX_MISO*%
X171450000Y-92575000D03*
%TO.N,SPI1_TX_MOSI*%
X170455209Y-92810005D03*
%TO.N,DATA_DIRECT_2*%
X170500000Y-89750000D03*
%TO.N,DATA_DIRECT_1*%
X169800000Y-89275000D03*
%TO.N,SPI1_CSn*%
X163825000Y-89775000D03*
%TO.N,SPI1_RX_MISO*%
X165394838Y-91422600D03*
%TO.N,SPI1_SCK_CLK*%
X166694810Y-85950000D03*
%TO.N,DATA_DIRECT_1*%
X167344796Y-85950000D03*
%TO.N,SPI1_TX_MOSI*%
X166044824Y-91422600D03*
%TO.N,DATA_DIRECT_2*%
X166694810Y-91422600D03*
%TO.N,OUT_DAT0*%
X171675000Y-90300000D03*
%TO.N,OUT_DAT3*%
X172525000Y-90025000D03*
%TO.N,OUT_CLK*%
X172125000Y-90975000D03*
%TO.N,OUT_CMD*%
X173125000Y-90575000D03*
%TO.N,SPI1_SCK_CLK*%
X174225000Y-91725000D03*
%TO.N,P_GPIO12*%
X174900000Y-92200000D03*
%TO.N,P_GPIO13*%
X174725000Y-91675000D03*
%TO.N,SWDIO*%
X177025000Y-89125000D03*
%TO.N,SWCLK*%
X177178816Y-89614236D03*
%TO.N,RUN*%
X177749607Y-89121044D03*
%TO.N,P_GPIO18*%
X178025000Y-88050000D03*
%TO.N,P_GPIO29*%
X175475000Y-84225000D03*
%TO.N,P_GPIO28*%
X176500000Y-83800000D03*
%TO.N,P_GPIO27*%
X176025000Y-84825000D03*
%TO.N,P_GPIO26*%
X177050000Y-84350000D03*
%TO.N,DATA_SD_SNIFF_2*%
X177874244Y-85235007D03*
%TO.N,DATA_SD_SNIFF_1*%
X177450000Y-86225000D03*
%TO.N,P_GPIO23*%
X178475000Y-85775000D03*
%TO.N,P_GPIO22*%
X178050000Y-86750000D03*
%TO.N,P_GPIO21*%
X179025000Y-86350000D03*
%TO.N,P_GPIO20*%
X178600000Y-87325000D03*
%TO.N,P_GPIO19*%
X179575000Y-86925000D03*
%TO.N,DATA_SD_SNIFF_2*%
X169400172Y-106277559D03*
%TO.N,OUT_DAT3*%
X168300000Y-106277559D03*
%TO.N,OUT_CMD*%
X167200000Y-106277559D03*
%TO.N,OUT_CLK*%
X165000130Y-106277559D03*
%TO.N,OUT_DAT0*%
X162800000Y-106277559D03*
%TO.N,DATA_SD_SNIFF_1*%
X161700162Y-106277559D03*
%TO.N,DATA_SD_SNIFF_2*%
X161495000Y-91422600D03*
%TO.N,DATA_SD_SNIFF_1*%
X160195204Y-91422600D03*
%TO.N,OUT_CLK*%
X160845000Y-85377400D03*
%TO.N,OUT_DAT3*%
X163445134Y-91422600D03*
%TO.N,OUT_DAT0*%
X162795000Y-91422600D03*
%TO.N,OUT_CMD*%
X162145000Y-91422600D03*
%TO.N,FLASH_IO3*%
X172325000Y-86525000D03*
%TO.N,FLASH_IO1*%
X170150000Y-86650000D03*
%TO.N,FLASH_CLK*%
X171625000Y-86450000D03*
%TO.N,FLASH_IO0*%
X170700000Y-86050000D03*
%TO.N,FLASH_IO2*%
X171100000Y-87025000D03*
%TO.N,GPIO_0*%
X175550000Y-102600000D03*
%TO.N,FLASH_IO3*%
X176820000Y-95000000D03*
%TO.N,FLASH_CLK*%
X178090000Y-95000000D03*
%TO.N,FLASH_IO0*%
X179360000Y-95000000D03*
%TO.N,FLASH_IO1*%
X176820000Y-102599713D03*
%TO.N,FLASH_IO2*%
X178090000Y-102599713D03*
%TO.N,IN_DAT1*%
X164094866Y-85377400D03*
X180100000Y-79600000D03*
X172732816Y-82100000D03*
%TO.N,Net-(U1-USB_DM)*%
X172550000Y-84500000D03*
%TO.N,Net-(U1-USB_DP)*%
X172250000Y-84800000D03*
X169132816Y-85200000D03*
%TO.N,Net-(U1-USB_DM)*%
X171867184Y-82100000D03*
%TO.N,PROG_VSS*%
X178693953Y-103893953D03*
%TO.N,BOOT_SIGNAL*%
X181150000Y-99767184D03*
%TO.N,PROG_VSS*%
X173300000Y-101250000D03*
%TO.N,BOOT_SIGNAL*%
X181931081Y-88058919D03*
%TO.N,SELECT_SD_PIN*%
X167344796Y-91450000D03*
X169975000Y-90525000D03*
%TO.N,IN_CMD*%
X160195204Y-85377400D03*
X165975000Y-79600000D03*
%TO.N,IN_DAT0*%
X162145000Y-85377400D03*
X162150000Y-83150000D03*
%TO.N,+1V1*%
X176493708Y-88942666D03*
X180853015Y-87753015D03*
%TO.N,+3V3*%
X169956985Y-85773015D03*
X172040621Y-85440621D03*
%TD*%
D11*
%TO.N,+3V3*%
X175906047Y-81813953D02*
X173288953Y-81813953D01*
X173288953Y-81813953D02*
X170975000Y-79500000D01*
%TO.N,BOOT_SIGNAL*%
X181931081Y-88058919D02*
X182174000Y-88301838D01*
X182174000Y-88301838D02*
X182174000Y-98776000D01*
X182174000Y-98776000D02*
X181182816Y-99767184D01*
X181182816Y-99767184D02*
X181150000Y-99767184D01*
%TO.N,IN_DAT1*%
X180100000Y-79600000D02*
X176920000Y-82780000D01*
X173412816Y-82780000D02*
X172732816Y-82100000D01*
X176920000Y-82780000D02*
X173412816Y-82780000D01*
D12*
%TO.N,Net-(U1-USB_DP)*%
X172250000Y-84800000D02*
X172110000Y-84660000D01*
X172110000Y-84660000D02*
X169672816Y-84660000D01*
X169672816Y-84660000D02*
X169132816Y-85200000D01*
D11*
%TO.N,+1V1*%
X173040727Y-84439273D02*
X173702454Y-85101000D01*
X173702454Y-85101000D02*
X176870372Y-85101000D01*
X176870372Y-85101000D02*
X176980686Y-84990686D01*
%TO.N,SELECT_SD_PIN*%
X169975000Y-90525000D02*
X169060000Y-91440000D01*
X169060000Y-91440000D02*
X167354796Y-91440000D01*
X167354796Y-91440000D02*
X167344796Y-91450000D01*
D12*
%TO.N,P_GPIO13*%
X174110000Y-90330000D02*
X174110000Y-91255032D01*
X174110000Y-91255032D02*
X174529968Y-91675000D01*
X174529968Y-91675000D02*
X174725000Y-91675000D01*
D11*
%TO.N,OUT_CLK*%
X162650000Y-89475000D02*
X164600000Y-91425000D01*
X166810399Y-93937005D02*
X171400000Y-93937005D01*
X164600000Y-91425000D02*
X164600000Y-91726605D01*
X164600000Y-91726605D02*
X166810399Y-93937005D01*
X162650000Y-89475000D02*
X164350000Y-91175000D01*
%TO.N,SPI1_CSn*%
X173675000Y-89703328D02*
X172723336Y-88751664D01*
X163825000Y-87750822D02*
X163825000Y-89775000D01*
X173675000Y-91650000D02*
X173675000Y-89703328D01*
X173250000Y-92075000D02*
X173675000Y-91650000D01*
X172723336Y-88751664D02*
X171174209Y-88751664D01*
X171174209Y-88751664D02*
X167946545Y-85524000D01*
X166051822Y-85524000D02*
X163825000Y-87750822D01*
X167946545Y-85524000D02*
X166051822Y-85524000D01*
%TO.N,SPI1_SCK_CLK*%
X166694810Y-85950000D02*
X166122210Y-85950000D01*
X166122210Y-85950000D02*
X164968838Y-87103372D01*
%TO.N,DATA_DIRECT_1*%
X167344796Y-86819796D02*
X167344796Y-85950000D01*
%TO.N,GPIO_0*%
X172472060Y-88004000D02*
X171071000Y-88004000D01*
X171071000Y-88004000D02*
X171050000Y-88025000D01*
%TO.N,SPI1_SCK_CLK*%
X172363995Y-93586005D02*
X174225000Y-91725000D01*
X164968838Y-87103372D02*
X164968838Y-91599055D01*
X164968838Y-91599055D02*
X166955788Y-93586005D01*
X166955788Y-93586005D02*
X172363995Y-93586005D01*
%TO.N,GPIO_0*%
X176499000Y-93169530D02*
X175223000Y-94445529D01*
X172472060Y-88004000D02*
X176499000Y-92030940D01*
X176499000Y-92030940D02*
X176499000Y-93169530D01*
X175223000Y-94445529D02*
X175223000Y-95494620D01*
X175223000Y-95494620D02*
X175550000Y-95821620D01*
X175550000Y-95821620D02*
X175550000Y-102600000D01*
%TO.N,FLASH_IO0*%
X170700000Y-86050000D02*
X170726000Y-86024000D01*
X170726000Y-86024000D02*
X172974001Y-86024000D01*
X178254000Y-91303998D02*
X178254000Y-93894000D01*
X172974001Y-86024000D02*
X178254000Y-91303998D01*
X178254000Y-93894000D02*
X179360000Y-95000000D01*
%TO.N,FLASH_IO3*%
X172325000Y-86525000D02*
X172978612Y-86525000D01*
X177900000Y-93813933D02*
X177900000Y-93920000D01*
X172978612Y-86525000D02*
X177903000Y-91449387D01*
X177900000Y-93920000D02*
X176820000Y-95000000D01*
X177903000Y-91449387D02*
X177903000Y-93751084D01*
X177903000Y-93751084D02*
X177901000Y-93753085D01*
X177901000Y-93753085D02*
X177901000Y-93812934D01*
X177901000Y-93812934D02*
X177900000Y-93813933D01*
%TO.N,FLASH_CLK*%
X171625000Y-86450000D02*
X172126000Y-86951000D01*
X177552000Y-91594776D02*
X177552000Y-93605696D01*
X177550000Y-93607696D02*
X177550000Y-93667545D01*
X172126000Y-86951000D02*
X172908225Y-86951000D01*
X177552000Y-93605696D02*
X177550000Y-93607696D01*
X177664000Y-95426000D02*
X178090000Y-95000000D01*
X172908225Y-86951000D02*
X177552000Y-91594776D01*
X176325000Y-95107455D02*
X176643545Y-95426000D01*
X177550000Y-93667545D02*
X176325000Y-94892545D01*
X176325000Y-94892545D02*
X176325000Y-95107455D01*
X176643545Y-95426000D02*
X177664000Y-95426000D01*
%TO.N,FLASH_IO2*%
X171100000Y-87025000D02*
X171377000Y-87302000D01*
X171377000Y-87302000D02*
X172762836Y-87302000D01*
X177201000Y-93460307D02*
X175925000Y-94736306D01*
X175925000Y-94736306D02*
X175925000Y-95203843D01*
X172762836Y-87302000D02*
X177201000Y-91740164D01*
X177201000Y-91740164D02*
X177201000Y-93460307D01*
X175925000Y-95203843D02*
X178090000Y-97368843D01*
X178090000Y-97368843D02*
X178090000Y-102599713D01*
%TO.N,FLASH_IO1*%
X170150000Y-86650000D02*
X170150000Y-86677455D01*
X170150000Y-86677455D02*
X171125545Y-87653000D01*
X171125545Y-87653000D02*
X172617448Y-87653000D01*
X172617448Y-87653000D02*
X176850000Y-91885552D01*
X176850000Y-91885552D02*
X176850000Y-93314918D01*
X176850000Y-93314918D02*
X175574000Y-94590918D01*
X175574000Y-94590918D02*
X175574000Y-95349231D01*
X175574000Y-95349231D02*
X176820000Y-96595231D01*
X176820000Y-96595231D02*
X176820000Y-102599713D01*
X170150000Y-86700000D02*
X170150000Y-86650000D01*
%TO.N,SPI1_RX_MISO*%
X165394838Y-91422600D02*
X167207243Y-93235005D01*
X167207243Y-93235005D02*
X170789995Y-93235005D01*
X170789995Y-93235005D02*
X171450000Y-92575000D01*
%TO.N,SPI1_TX_MOSI*%
X167431229Y-92809005D02*
X166044824Y-91422600D01*
X170455209Y-92810005D02*
X170454209Y-92809005D01*
X170454209Y-92809005D02*
X167431229Y-92809005D01*
%TO.N,DATA_DIRECT_2*%
X170500000Y-89750000D02*
X168367410Y-89750000D01*
X168367410Y-89750000D02*
X166694810Y-91422600D01*
%TO.N,DATA_DIRECT_1*%
X169800000Y-89275000D02*
X167344796Y-86819796D01*
%TO.N,OUT_CLK*%
X160845000Y-85377400D02*
X160845000Y-87670000D01*
X160845000Y-87670000D02*
X162650000Y-89475000D01*
X164350000Y-91175000D02*
X164350000Y-105627429D01*
X164350000Y-105627429D02*
X165000130Y-106277559D01*
%TO.N,OUT_CMD*%
X162145000Y-91422600D02*
X162571000Y-90996600D01*
X163621589Y-90996600D02*
X163871134Y-91246145D01*
X162571000Y-90996600D02*
X163621589Y-90996600D01*
X166752559Y-106725000D02*
X167200000Y-106277559D01*
X163871134Y-91246145D02*
X163871134Y-106346134D01*
X163871134Y-106346134D02*
X164250000Y-106725000D01*
X164250000Y-106725000D02*
X166752559Y-106725000D01*
%TO.N,+1V1*%
X180853015Y-87753015D02*
X180650000Y-87550000D01*
X180650000Y-87550000D02*
X178977455Y-87550000D01*
X178977455Y-87550000D02*
X178776455Y-87751000D01*
X177886374Y-87550000D02*
X176493708Y-88942666D01*
X178776455Y-87751000D02*
X178423545Y-87751000D01*
X178423545Y-87751000D02*
X178222545Y-87550000D01*
X178222545Y-87550000D02*
X177886374Y-87550000D01*
%TO.N,DATA_SD_SNIFF_2*%
X169400172Y-106277559D02*
X168202731Y-107475000D01*
X168202731Y-107475000D02*
X163394986Y-107475000D01*
X163394986Y-107475000D02*
X162126162Y-106206176D01*
X162126162Y-106206176D02*
X162126162Y-92053762D01*
X162126162Y-92053762D02*
X161495000Y-91422600D01*
%TO.N,OUT_DAT3*%
X163445134Y-91422600D02*
X163445134Y-106416522D01*
X163445134Y-106416522D02*
X164153612Y-107125000D01*
X164153612Y-107125000D02*
X167452559Y-107125000D01*
X167452559Y-107125000D02*
X168300000Y-106277559D01*
%TO.N,OUT_DAT0*%
X162795000Y-91422600D02*
X162795000Y-106272559D01*
X162795000Y-106272559D02*
X162800000Y-106277559D01*
%TO.N,DATA_SD_SNIFF_1*%
X161700162Y-106277559D02*
X160195204Y-104772601D01*
X160195204Y-104772601D02*
X160195204Y-91422600D01*
D12*
%TO.N,+3V3*%
X169956985Y-85773015D02*
X170631000Y-85099000D01*
X170631000Y-85099000D02*
X171699000Y-85099000D01*
X171699000Y-85099000D02*
X172040621Y-85440621D01*
D11*
%TO.N,IN_DAT1*%
X164094866Y-85377400D02*
X167773266Y-81699000D01*
X167773266Y-81699000D02*
X172331816Y-81699000D01*
X172331816Y-81699000D02*
X172732816Y-82100000D01*
D12*
%TO.N,Net-(U1-USB_DM)*%
X172550000Y-84500000D02*
X171867184Y-83817184D01*
X171867184Y-83817184D02*
X171867184Y-82100000D01*
D11*
%TO.N,PROG_VSS*%
X173300000Y-101250000D02*
X175943953Y-103893953D01*
X175943953Y-103893953D02*
X178693953Y-103893953D01*
%TO.N,IN_CMD*%
X165975000Y-79600000D02*
X165097545Y-79600000D01*
X165097545Y-79600000D02*
X160195204Y-84502341D01*
X160195204Y-84502341D02*
X160195204Y-85377400D01*
%TO.N,IN_DAT0*%
X162145000Y-83155000D02*
X162145000Y-85377400D01*
%TD*%
M02*
