%TF.GenerationSoftware,KiCad,Pcbnew,9.0.2+dfsg-1*%
%TF.CreationDate,2026-09-12T17:13:16+01:00*%
%TF.ProjectId,SDcore,5344636f-7265-42e6-9b69-6361645f7063,rev?*%
%TF.SameCoordinates,Original*%
%TF.FileFunction,Copper,L1,Top*%
%TF.FilePolarity,Positive*%
%FSLAX46Y46*%
G04 Gerber Fmt 4.6, Leading zero omitted, Abs format (unit mm)*
G04 Created by KiCad (PCBNEW 9.0.2+dfsg-1) date 2026-09-12 17:13:16*
%MOMM*%
%LPD*%
G01*
G04 APERTURE LIST*
G04 Aperture macros list*
%AMRoundRect*
0 Rectangle with rounded corners*
0 $1 Rounding radius*
0 $2 $3 $4 $5 $6 $7 $8 $9 X,Y pos of 4 corners*
0 Add a 4 corners polygon primitive as box body*
4,1,4,$2,$3,$4,$5,$6,$7,$8,$9,$2,$3,0*
0 Add four circle primitives for the rounded corners*
1,1,$1+$1,$2,$3*
1,1,$1+$1,$4,$5*
1,1,$1+$1,$6,$7*
1,1,$1+$1,$8,$9*
0 Add four rect primitives between the rounded corners*
20,1,$1+$1,$2,$3,$4,$5,0*
20,1,$1+$1,$4,$5,$6,$7,0*
20,1,$1+$1,$6,$7,$8,$9,0*
20,1,$1+$1,$8,$9,$2,$3,0*%
%AMRotRect*
0 Rectangle, with rotation*
0 The origin of the aperture is its center*
0 $1 length*
0 $2 width*
0 $3 Rotation angle, in degrees counterclockwise*
0 Add horizontal line*
21,1,$1,$2,0,0,$3*%
G04 Aperture macros list end*
%TA.AperFunction,SMDPad,CuDef*%
%ADD10RotRect,1.400000X1.200000X315.000000*%
%TD*%
%TA.AperFunction,SMDPad,CuDef*%
%ADD11RotRect,0.500000X0.540000X45.000000*%
%TD*%
%TA.AperFunction,SMDPad,CuDef*%
%ADD12R,0.565658X0.540000*%
%TD*%
%TA.AperFunction,SMDPad,CuDef*%
%ADD13R,0.500000X0.540000*%
%TD*%
%TA.AperFunction,SMDPad,CuDef*%
%ADD14RotRect,0.565658X0.540000X135.000000*%
%TD*%
%TA.AperFunction,SMDPad,CuDef*%
%ADD15R,0.540000X0.565658*%
%TD*%
%TA.AperFunction,SMDPad,CuDef*%
%ADD16R,0.400000X1.650000*%
%TD*%
%TA.AperFunction,SMDPad,CuDef*%
%ADD17RotRect,0.500000X0.540000X315.000000*%
%TD*%
%TA.AperFunction,SMDPad,CuDef*%
%ADD18RotRect,0.500000X0.540000X225.000000*%
%TD*%
%TA.AperFunction,ConnectorPad*%
%ADD19RoundRect,0.100000X-0.600000X-1.600000X0.600000X-1.600000X0.600000X1.600000X-0.600000X1.600000X0*%
%TD*%
%TA.AperFunction,ConnectorPad*%
%ADD20RoundRect,0.100000X-0.600000X-1.700000X0.600000X-1.700000X0.600000X1.700000X-0.600000X1.700000X0*%
%TD*%
%TA.AperFunction,ConnectorPad*%
%ADD21RoundRect,0.078571X-0.471429X-1.621429X0.471429X-1.621429X0.471429X1.621429X-0.471429X1.621429X0*%
%TD*%
%TA.AperFunction,ConnectorPad*%
%ADD22RoundRect,0.064286X-0.385714X-1.635714X0.385714X-1.635714X0.385714X1.635714X-0.385714X1.635714X0*%
%TD*%
%TA.AperFunction,SMDPad,CuDef*%
%ADD23R,0.150000X0.325000*%
%TD*%
%TA.AperFunction,SMDPad,CuDef*%
%ADD24R,0.750000X0.235000*%
%TD*%
%TA.AperFunction,SMDPad,CuDef*%
%ADD25R,0.215000X1.040000*%
%TD*%
%TA.AperFunction,SMDPad,CuDef*%
%ADD26RotRect,1.000000X1.600000X225.000000*%
%TD*%
%TA.AperFunction,SMDPad,CuDef*%
%ADD27RotRect,0.875000X0.200000X45.000000*%
%TD*%
%TA.AperFunction,SMDPad,CuDef*%
%ADD28RotRect,0.200000X0.875000X45.000000*%
%TD*%
%TA.AperFunction,SMDPad,CuDef*%
%ADD29RotRect,3.400000X3.400000X45.000000*%
%TD*%
%TA.AperFunction,SMDPad,CuDef*%
%ADD30RotRect,0.500000X0.540000X135.000000*%
%TD*%
%TA.AperFunction,SMDPad,CuDef*%
%ADD31R,0.600000X0.400000*%
%TD*%
%TA.AperFunction,SMDPad,CuDef*%
%ADD32R,0.600000X1.600000*%
%TD*%
%TA.AperFunction,SMDPad,CuDef*%
%ADD33R,1.150000X2.500000*%
%TD*%
%TA.AperFunction,SMDPad,CuDef*%
%ADD34R,1.150000X2.200000*%
%TD*%
%TA.AperFunction,SMDPad,CuDef*%
%ADD35R,1.500000X1.150000*%
%TD*%
%TA.AperFunction,SMDPad,CuDef*%
%ADD36R,1.160000X1.200000*%
%TD*%
%TA.AperFunction,SMDPad,CuDef*%
%ADD37R,1.160000X1.250000*%
%TD*%
%TA.AperFunction,SMDPad,CuDef*%
%ADD38RotRect,0.565658X0.540000X45.000000*%
%TD*%
%TA.AperFunction,SMDPad,CuDef*%
%ADD39R,0.600000X1.200000*%
%TD*%
%TA.AperFunction,SMDPad,CuDef*%
%ADD40R,4.300000X3.400000*%
%TD*%
%TA.AperFunction,ViaPad*%
%ADD41C,0.300000*%
%TD*%
%TA.AperFunction,Conductor*%
%ADD42C,0.100000*%
%TD*%
%TA.AperFunction,Conductor*%
%ADD43C,0.150000*%
%TD*%
G04 APERTURE END LIST*
D10*
%TO.P,X1,1,1*%
%TO.N,XIN*%
X178532459Y-91473223D03*
%TO.P,X1,2,GND*%
%TO.N,GND*%
X180088094Y-93028858D03*
%TO.P,X1,3,3*%
%TO.N,Net-(C14-Pad2)*%
X181290175Y-91826777D03*
%TO.P,X1,4,GND*%
%TO.N,GND*%
X179734540Y-90271142D03*
%TD*%
D11*
%TO.P,C7,1,1*%
%TO.N,GND*%
X169363015Y-86366985D03*
%TO.P,C7,2,2*%
%TO.N,+3V3*%
X169956985Y-85773015D03*
%TD*%
D12*
%TO.P,R3,1,1*%
%TO.N,Net-(U1-USB_DM)*%
X171867184Y-82100000D03*
%TO.P,R3,2,2*%
%TO.N,IN_DAT1*%
X172732816Y-82100000D03*
%TD*%
D13*
%TO.P,PROG,1,K*%
%TO.N,GND*%
X181375000Y-104250000D03*
%TO.P,PROG,2,A*%
%TO.N,Net-(LED2-A)*%
X180525000Y-104250000D03*
%TD*%
D14*
%TO.P,R6,1,1*%
%TO.N,Net-(C14-Pad2)*%
X180906047Y-89506047D03*
%TO.P,R6,2,2*%
%TO.N,XOUT*%
X180293953Y-88893953D03*
%TD*%
D15*
%TO.P,R7,1,1*%
%TO.N,GPIO_0*%
X181100000Y-101667184D03*
%TO.P,R7,2,2*%
%TO.N,+3V3*%
X181100000Y-102532816D03*
%TD*%
D16*
%TO.P,U2,1,2Y0*%
%TO.N,DATA_DIRECT_1*%
X167344796Y-85377400D03*
%TO.P,U2,2,1Y0*%
%TO.N,SPI1_SCK_CLK*%
X166694810Y-85377400D03*
%TO.P,U2,3,n.c*%
%TO.N,unconnected-(U2-n.c-Pad3)*%
X166044824Y-85377400D03*
%TO.P,U2,4,1Z*%
%TO.N,IN_CLK*%
X165394838Y-85377400D03*
%TO.P,U2,5,GND*%
%TO.N,GND*%
X164744852Y-85377400D03*
%TO.P,U2,6,2Z*%
%TO.N,IN_DAT1*%
X164094866Y-85377400D03*
%TO.P,U2,7,3Z*%
%TO.N,IN_DAT2*%
X163445134Y-85377400D03*
%TO.P,U2,8,VCC*%
%TO.N,+3V3*%
X162795000Y-85377400D03*
%TO.P,U2,9,4Z*%
%TO.N,IN_DAT0*%
X162145000Y-85377400D03*
%TO.P,U2,10,5Z*%
%TO.N,IN_DAT3*%
X161495000Y-85377400D03*
%TO.P,U2,11,1Y1*%
%TO.N,OUT_CLK*%
X160845000Y-85377400D03*
%TO.P,U2,12,6Z*%
%TO.N,IN_CMD*%
X160195204Y-85377400D03*
%TO.P,U2,13,2Y1*%
%TO.N,DATA_SD_SNIFF_1*%
X160195204Y-91422600D03*
%TO.P,U2,14,S1*%
%TO.N,SELECT_SD_PIN*%
X160845000Y-91422600D03*
%TO.P,U2,15,3Y1*%
%TO.N,DATA_SD_SNIFF_2*%
X161495000Y-91422600D03*
%TO.P,U2,16,6Y1*%
%TO.N,OUT_CMD*%
X162145000Y-91422600D03*
%TO.P,U2,17,4Y1*%
%TO.N,OUT_DAT0*%
X162795000Y-91422600D03*
%TO.P,U2,18,5Y1*%
%TO.N,OUT_DAT3*%
X163445134Y-91422600D03*
%TO.P,U2,19,5Y0*%
%TO.N,SPI1_CSn*%
X164094866Y-91422600D03*
%TO.P,U2,20,EN#*%
%TO.N,PROG_VSS*%
X164744852Y-91422600D03*
%TO.P,U2,21,4Y0*%
%TO.N,SPI1_RX_MISO*%
X165394838Y-91422600D03*
%TO.P,U2,22,6Y0*%
%TO.N,SPI1_TX_MOSI*%
X166044824Y-91422600D03*
%TO.P,U2,23,3Y0*%
%TO.N,DATA_DIRECT_2*%
X166694810Y-91422600D03*
%TO.P,U2,24,S0*%
%TO.N,SELECT_SD_PIN*%
X167344796Y-91422600D03*
%TD*%
D17*
%TO.P,C15,1,1*%
%TO.N,XIN*%
X177953015Y-93003015D03*
%TO.P,C15,2,2*%
%TO.N,GND*%
X178546985Y-93596985D03*
%TD*%
D18*
%TO.P,C5,1,1*%
%TO.N,GND*%
X178746985Y-83153015D03*
%TO.P,C5,2,2*%
%TO.N,+1V1*%
X178153015Y-83746985D03*
%TD*%
D13*
%TO.P,C13,1,1*%
%TO.N,+3V3*%
X176530000Y-93750000D03*
%TO.P,C13,2,2*%
%TO.N,GND*%
X177370000Y-93750000D03*
%TD*%
D12*
%TO.P,R2,1,1*%
%TO.N,Net-(U1-USB_DP)*%
X169132816Y-85200000D03*
%TO.P,R2,2,2*%
%TO.N,IN_DAT2*%
X168267184Y-85200000D03*
%TD*%
D15*
%TO.P,R5,1,1*%
%TO.N,BOOT_SIGNAL*%
X181150000Y-99767184D03*
%TO.P,R5,2,2*%
%TO.N,GPIO_0*%
X181150000Y-100632816D03*
%TD*%
D19*
%TO.P,J1,1,CD/DAT3*%
%TO.N,IN_DAT3*%
X163475000Y-79600000D03*
%TO.P,J1,2,CMD*%
%TO.N,IN_CMD*%
X165975000Y-79600000D03*
D20*
%TO.P,J1,3,VSS*%
%TO.N,GND*%
X168475000Y-79500000D03*
%TO.P,J1,4,VDD*%
%TO.N,+3V3*%
X170975000Y-79500000D03*
D19*
%TO.P,J1,5,CLK*%
%TO.N,IN_CLK*%
X173475000Y-79600000D03*
%TO.P,J1,6,PROG/VSS*%
%TO.N,PROG_VSS*%
X175975000Y-79600000D03*
D21*
%TO.P,J1,7,DAT0*%
%TO.N,IN_DAT0*%
X178400000Y-79600000D03*
D22*
%TO.P,J1,8,DAT1*%
%TO.N,IN_DAT1*%
X180100000Y-79600000D03*
D19*
%TO.P,J1,9,DAT2*%
%TO.N,IN_DAT2*%
X160975000Y-81900000D03*
%TD*%
D17*
%TO.P,C14,1,1*%
%TO.N,GND*%
X181203015Y-90103015D03*
%TO.P,C14,2,2*%
%TO.N,Net-(C14-Pad2)*%
X181796985Y-90696985D03*
%TD*%
%TO.P,C9,1,1*%
%TO.N,GND*%
X170753015Y-91253015D03*
%TO.P,C9,2,2*%
%TO.N,+3V3*%
X171346985Y-91846985D03*
%TD*%
D23*
%TO.P,GPIO1,1,1*%
%TO.N,GND*%
X176200000Y-107716551D03*
%TO.P,GPIO1,2,2*%
X176200000Y-105941599D03*
%TO.P,GPIO1,3,3*%
%TO.N,SWCLK*%
X176550000Y-107716551D03*
%TO.P,GPIO1,4,4*%
%TO.N,P_GPIO18*%
X176550000Y-105941599D03*
%TO.P,GPIO1,5,5*%
%TO.N,SWDIO*%
X176900000Y-107716551D03*
%TO.P,GPIO1,6,6*%
%TO.N,P_GPIO19*%
X176900000Y-105941599D03*
%TO.P,GPIO1,7,7*%
%TO.N,RUN*%
X177250000Y-107716551D03*
%TO.P,GPIO1,8,8*%
%TO.N,P_GPIO20*%
X177250000Y-105941599D03*
%TO.P,GPIO1,9,9*%
%TO.N,+3V3*%
X177600000Y-107716551D03*
%TO.P,GPIO1,10,10*%
%TO.N,P_GPIO21*%
X177600000Y-105941599D03*
%TO.P,GPIO1,11,11*%
%TO.N,P_GPIO15*%
X177950000Y-107716551D03*
%TO.P,GPIO1,12,12*%
%TO.N,P_GPIO22*%
X177950000Y-105941599D03*
%TO.P,GPIO1,13,13*%
%TO.N,P_GPIO12*%
X178300000Y-107716551D03*
%TO.P,GPIO1,14,14*%
%TO.N,P_GPIO23*%
X178300000Y-105941599D03*
%TO.P,GPIO1,15,15*%
%TO.N,P_GPIO13*%
X178650000Y-107716551D03*
%TO.P,GPIO1,16,16*%
%TO.N,P_GPIO26*%
X178650000Y-105941599D03*
%TO.P,GPIO1,17,17*%
%TO.N,P_GPIO14*%
X179000000Y-107716551D03*
%TO.P,GPIO1,18,18*%
%TO.N,P_GPIO27*%
X179000000Y-105941599D03*
%TO.P,GPIO1,19,19*%
%TO.N,P_GPIO16*%
X179350000Y-107716551D03*
%TO.P,GPIO1,20,20*%
%TO.N,P_GPIO28*%
X179350000Y-105941599D03*
%TO.P,GPIO1,21,21*%
%TO.N,P_GPIO17*%
X179700000Y-107716551D03*
%TO.P,GPIO1,22,22*%
%TO.N,P_GPIO29*%
X179700000Y-105941599D03*
%TO.P,GPIO1,23,23*%
%TO.N,GND*%
X180050000Y-107716551D03*
%TO.P,GPIO1,24,24*%
%TO.N,+3V3*%
X180050000Y-105941599D03*
D24*
%TO.P,GPIO1,25,25*%
%TO.N,GND*%
X180785000Y-107762100D03*
D25*
%TO.P,GPIO1,26,26*%
X181365000Y-106829100D03*
D24*
%TO.P,GPIO1,27,27*%
X180785000Y-105896100D03*
%TO.P,GPIO1,28,28*%
X175465000Y-105896641D03*
D25*
%TO.P,GPIO1,29,29*%
X174885000Y-106829100D03*
D24*
%TO.P,GPIO1,30,30*%
X175465000Y-107762100D03*
%TD*%
D13*
%TO.P,SELECT,1,A*%
%TO.N,Net-(LED3-A)*%
X176131047Y-104306047D03*
%TO.P,SELECT,2,C*%
%TO.N,GND*%
X175281047Y-104306047D03*
%TD*%
D26*
%TO.P,L1,1,1*%
%TO.N,Net-(U1-VREG_LX)*%
X170307107Y-82321960D03*
%TO.P,L1,2,2*%
%TO.N,+1V1*%
X168892893Y-83736174D03*
%TD*%
D18*
%TO.P,C4,1,1*%
%TO.N,GND*%
X171016985Y-83653015D03*
%TO.P,C4,2,2*%
%TO.N,+1V1*%
X170423015Y-84246985D03*
%TD*%
D15*
%TO.P,R11,1,1*%
%TO.N,SELECT_SD_PIN*%
X159200000Y-89282816D03*
%TO.P,R11,2,2*%
%TO.N,GND*%
X159200000Y-88417184D03*
%TD*%
D27*
%TO.P,U1,1,IOVDD*%
%TO.N,+3V3*%
X170212815Y-88364443D03*
%TO.P,U1,2,GPIO0*%
%TO.N,GPIO_0*%
X170495658Y-88647285D03*
%TO.P,U1,3,GPIO1*%
%TO.N,DATA_DIRECT_1*%
X170778593Y-88930221D03*
%TO.P,U1,4,GPIO2*%
%TO.N,DATA_DIRECT_2*%
X171061471Y-89213099D03*
%TO.P,U1,5,GPIO3*%
%TO.N,SELECT_SD_PIN*%
X171344186Y-89495814D03*
%TO.P,U1,6,DVDD*%
%TO.N,+1V1*%
X171627029Y-89778656D03*
%TO.P,U1,7,GPIO4*%
%TO.N,OUT_DAT0*%
X171909872Y-90061499D03*
%TO.P,U1,8,GPIO5*%
%TO.N,OUT_DAT3*%
X172192804Y-90344432D03*
%TO.P,U1,9,GPIO6*%
%TO.N,OUT_CLK*%
X172475557Y-90627184D03*
%TO.P,U1,10,GPIO7*%
%TO.N,OUT_CMD*%
X172758400Y-90910027D03*
%TO.P,U1,11,IOVDD*%
%TO.N,+3V3*%
X173041242Y-91192870D03*
%TO.P,U1,12,GPIO8*%
%TO.N,SPI1_RX_MISO*%
X173324085Y-91475713D03*
%TO.P,U1,13,GPIO9*%
%TO.N,SPI1_CSn*%
X173606928Y-91758555D03*
%TO.P,U1,14,GPIO10*%
%TO.N,SPI1_SCK_CLK*%
X173889893Y-92041520D03*
%TO.P,U1,15,GPIO11*%
%TO.N,SPI1_TX_MOSI*%
X174172613Y-92324241D03*
D28*
%TO.P,U1,16,GPIO12*%
%TO.N,P_GPIO12*%
X175268740Y-92324129D03*
%TO.P,U1,17,GPIO13*%
%TO.N,P_GPIO13*%
X175551471Y-92041398D03*
%TO.P,U1,18,GPIO14*%
%TO.N,P_GPIO14*%
X175834314Y-91758555D03*
%TO.P,U1,19,GPIO15*%
%TO.N,P_GPIO15*%
X176117157Y-91475713D03*
%TO.P,U1,20,IOVDD*%
%TO.N,+3V3*%
X176400000Y-91192870D03*
%TO.P,U1,21,XIN*%
%TO.N,XIN*%
X176682951Y-90909918D03*
%TO.P,U1,22,XOUT*%
%TO.N,XOUT*%
X176965685Y-90627184D03*
%TO.P,U1,23,DVDD*%
%TO.N,+1V1*%
X177248528Y-90344342D03*
%TO.P,U1,24,SWCLK*%
%TO.N,SWCLK*%
X177531370Y-90061499D03*
%TO.P,U1,25,SWDIO*%
%TO.N,SWDIO*%
X177814284Y-89778586D03*
%TO.P,U1,26,RUN*%
%TO.N,RUN*%
X178097162Y-89495708D03*
%TO.P,U1,27,GPIO16*%
%TO.N,P_GPIO16*%
X178379899Y-89212971D03*
%TO.P,U1,28,GPIO17*%
%TO.N,P_GPIO17*%
X178662741Y-88930128D03*
%TO.P,U1,29,GPIO18*%
%TO.N,P_GPIO18*%
X178945584Y-88647285D03*
%TO.P,U1,30,IOVDD*%
%TO.N,+3V3*%
X179228427Y-88364443D03*
D27*
%TO.P,U1,31,GPIO19*%
%TO.N,P_GPIO19*%
X179228427Y-87268427D03*
%TO.P,U1,32,GPIO20*%
%TO.N,P_GPIO20*%
X178945584Y-86985585D03*
%TO.P,U1,33,GPIO21*%
%TO.N,P_GPIO21*%
X178663008Y-86703008D03*
%TO.P,U1,34,GPIO22*%
%TO.N,P_GPIO22*%
X178379899Y-86419899D03*
%TO.P,U1,35,GPIO23*%
%TO.N,P_GPIO23*%
X178097056Y-86137056D03*
%TO.P,U1,36,GPIO24*%
%TO.N,DATA_SD_SNIFF_1*%
X177814213Y-85854214D03*
%TO.P,U1,37,GPIO25*%
%TO.N,DATA_SD_SNIFF_2*%
X177531370Y-85571371D03*
%TO.P,U1,38,IOVDD*%
%TO.N,+3V3*%
X177248797Y-85288798D03*
%TO.P,U1,39,DVDD*%
%TO.N,+1V1*%
X176965685Y-85005686D03*
%TO.P,U1,40,GPIO26_ADC0*%
%TO.N,P_GPIO26*%
X176682842Y-84722843D03*
%TO.P,U1,41,GPIO27_ADC1*%
%TO.N,P_GPIO27*%
X176400000Y-84440000D03*
%TO.P,U1,42,GPIO28_ADC2*%
%TO.N,P_GPIO28*%
X176117157Y-84157157D03*
%TO.P,U1,43,GPIO29_ADC3*%
%TO.N,P_GPIO29*%
X175834586Y-83874587D03*
%TO.P,U1,44,ADC_AVDD*%
%TO.N,+3V3*%
X175551471Y-83591472D03*
%TO.P,U1,45,IOVDD*%
X175268629Y-83308629D03*
D28*
%TO.P,U1,46,VREG_AVDD*%
%TO.N,Net-(U1-VREG_AVDD)*%
X174172613Y-83308629D03*
%TO.P,U1,47,VREG_PGND*%
%TO.N,GND*%
X173889771Y-83591472D03*
%TO.P,U1,48,VREG_LX*%
%TO.N,Net-(U1-VREG_LX)*%
X173606928Y-83874315D03*
%TO.P,U1,49,VREG_VIN*%
%TO.N,+3V3*%
X173324085Y-84157157D03*
%TO.P,U1,50,VREG_FB*%
%TO.N,+1V1*%
X173041348Y-84439894D03*
%TO.P,U1,51,USB_DM*%
%TO.N,Net-(U1-USB_DM)*%
X172758470Y-84722772D03*
%TO.P,U1,52,USB_DP*%
%TO.N,Net-(U1-USB_DP)*%
X172475557Y-85005686D03*
%TO.P,U1,53,USB_OTP_VDD*%
%TO.N,+3V3*%
X172192714Y-85288528D03*
%TO.P,U1,54,QSPI_IOVDD*%
X171909872Y-85571371D03*
%TO.P,U1,55,QSPI_SD3*%
%TO.N,FLASH_IO3*%
X171627138Y-85854105D03*
%TO.P,U1,56,QSPI_SCLK*%
%TO.N,FLASH_CLK*%
X171344186Y-86137056D03*
%TO.P,U1,57,QSPI_SD0*%
%TO.N,FLASH_IO0*%
X171061343Y-86419899D03*
%TO.P,U1,58,QSPI_SD2*%
%TO.N,FLASH_IO2*%
X170778501Y-86702742D03*
%TO.P,U1,59,QSPI_SD1*%
%TO.N,FLASH_IO1*%
X170495658Y-86985585D03*
%TO.P,U1,60,QSPI_SS*%
%TO.N,GPIO_0*%
X170212927Y-87268316D03*
D29*
%TO.P,U1,61,GND*%
%TO.N,GND*%
X174720711Y-87816525D03*
%TD*%
D18*
%TO.P,C2,1,1*%
%TO.N,Net-(U1-VREG_AVDD)*%
X174196985Y-81753015D03*
%TO.P,C2,2,2*%
%TO.N,GND*%
X173603015Y-82346985D03*
%TD*%
D30*
%TO.P,C10,1,1*%
%TO.N,GND*%
X169678355Y-89958484D03*
%TO.P,C10,2,2*%
%TO.N,+3V3*%
X169084385Y-89364514D03*
%TD*%
D12*
%TO.P,R8,1,1*%
%TO.N,Net-(LED1-A)*%
X163882816Y-83200000D03*
%TO.P,R8,2,2*%
%TO.N,+3V3*%
X163017184Y-83200000D03*
%TD*%
D31*
%TO.P,Q1,1,G*%
%TO.N,PROG_VSS*%
X179640000Y-81950000D03*
%TO.P,Q1,2,S*%
%TO.N,GND*%
X179640000Y-83250000D03*
%TO.P,Q1,3,D*%
%TO.N,BOOT_SIGNAL*%
X181460000Y-82600000D03*
%TD*%
D32*
%TO.P,Card1,1,DAT2*%
%TO.N,DATA_SD_SNIFF_2*%
X169400172Y-106277559D03*
%TO.P,Card1,2,CD/DAT3*%
%TO.N,OUT_DAT3*%
X168300000Y-106277559D03*
%TO.P,Card1,3,CMD*%
%TO.N,OUT_CMD*%
X167200000Y-106277559D03*
%TO.P,Card1,4,VDD*%
%TO.N,+3V3*%
X166100000Y-106277559D03*
%TO.P,Card1,5,CLK*%
%TO.N,OUT_CLK*%
X165000130Y-106277559D03*
%TO.P,Card1,6,VSS*%
%TO.N,GND*%
X163900000Y-106277559D03*
%TO.P,Card1,7,DAT0*%
%TO.N,OUT_DAT0*%
X162800000Y-106277559D03*
%TO.P,Card1,8,DAT1*%
%TO.N,DATA_SD_SNIFF_1*%
X161700162Y-106277559D03*
D33*
%TO.P,Card1,9,EH*%
%TO.N,GND*%
X173645020Y-105647385D03*
D34*
X173645020Y-94317461D03*
D35*
X169340000Y-93522441D03*
X161560000Y-93522441D03*
D36*
X159760000Y-94647407D03*
D37*
X159759856Y-103647389D03*
D34*
X159354980Y-105797499D03*
%TD*%
D14*
%TO.P,R9,1,1*%
%TO.N,Net-(LED2-A)*%
X179306047Y-104506047D03*
%TO.P,R9,2,2*%
%TO.N,PROG_VSS*%
X178693953Y-103893953D03*
%TD*%
D38*
%TO.P,R4,1,1*%
%TO.N,Net-(U1-VREG_AVDD)*%
X175293953Y-82426047D03*
%TO.P,R4,2,2*%
%TO.N,+3V3*%
X175906047Y-81813953D03*
%TD*%
D18*
%TO.P,C12,1,1*%
%TO.N,GND*%
X176846985Y-81903015D03*
%TO.P,C12,2,2*%
%TO.N,+3V3*%
X176253015Y-82496985D03*
%TD*%
D11*
%TO.P,C3,1,1*%
%TO.N,GND*%
X171403015Y-84246985D03*
%TO.P,C3,2,2*%
%TO.N,+3V3*%
X171996985Y-83653015D03*
%TD*%
D14*
%TO.P,R10,1,1*%
%TO.N,Net-(LED3-A)*%
X177956047Y-104606047D03*
%TO.P,R10,2,2*%
%TO.N,SELECT_SD_PIN*%
X177343953Y-103993953D03*
%TD*%
D30*
%TO.P,C16,1,1*%
%TO.N,GND*%
X181446985Y-88346985D03*
%TO.P,C16,2,2*%
%TO.N,+1V1*%
X180853015Y-87753015D03*
%TD*%
D39*
%TO.P,U3,1,CS#*%
%TO.N,GPIO_0*%
X175550000Y-102600000D03*
%TO.P,U3,2,DO(IO1)*%
%TO.N,FLASH_IO1*%
X176820000Y-102599713D03*
%TO.P,U3,3,WP#(IO2)*%
%TO.N,FLASH_IO2*%
X178090000Y-102599713D03*
%TO.P,U3,4,GND*%
%TO.N,GND*%
X179360000Y-102600000D03*
%TO.P,U3,5,DI(IO0)*%
%TO.N,FLASH_IO0*%
X179360000Y-95000000D03*
%TO.P,U3,6,CLK*%
%TO.N,FLASH_CLK*%
X178090000Y-95000000D03*
%TO.P,U3,7,HOLD#_or_RESET#(IO3)*%
%TO.N,FLASH_IO3*%
X176820000Y-95000000D03*
%TO.P,U3,8,VCC*%
%TO.N,+3V3*%
X175550000Y-95000000D03*
D40*
%TO.P,U3,9,EP*%
%TO.N,GND*%
X177455254Y-98799619D03*
%TD*%
D13*
%TO.P,POWER,1,K*%
%TO.N,GND*%
X166375000Y-83200000D03*
%TO.P,POWER,2,A*%
%TO.N,Net-(LED1-A)*%
X165525000Y-83200000D03*
%TD*%
D17*
%TO.P,C8,1,1*%
%TO.N,GND*%
X180003015Y-85353015D03*
%TO.P,C8,2,2*%
%TO.N,+3V3*%
X180596985Y-85946985D03*
%TD*%
%TO.P,C1,1,1*%
%TO.N,GND*%
X169103015Y-90553015D03*
%TO.P,C1,2,2*%
%TO.N,+1V1*%
X169696985Y-91146985D03*
%TD*%
D11*
%TO.P,C6,1,1*%
%TO.N,GND*%
X175303015Y-93646985D03*
%TO.P,C6,2,2*%
%TO.N,+3V3*%
X175896985Y-93053015D03*
%TD*%
D12*
%TO.P,R1,1,1*%
%TO.N,GND*%
X177817184Y-82150000D03*
%TO.P,R1,2,2*%
%TO.N,PROG_VSS*%
X178682816Y-82150000D03*
%TD*%
D18*
%TO.P,C11,1,1*%
%TO.N,GND*%
X179496985Y-84053015D03*
%TO.P,C11,2,2*%
%TO.N,+3V3*%
X178903015Y-84646985D03*
%TD*%
D41*
%TO.N,GND*%
X173645020Y-105647385D03*
%TO.N,+3V3*%
X175906047Y-81813953D03*
%TO.N,GND*%
X159740000Y-103680000D03*
X179521985Y-84078015D03*
X181600000Y-88360000D03*
X168475000Y-79500000D03*
X176846985Y-81903015D03*
X173603015Y-82346985D03*
X171403015Y-84246985D03*
X169363015Y-86366985D03*
%TO.N,+3V3*%
X166100000Y-106277559D03*
X177248797Y-85288798D03*
X175901985Y-93058015D03*
X173041242Y-91192870D03*
%TO.N,+1V1*%
X173040727Y-84439273D03*
X176980686Y-84990686D03*
%TO.N,GND*%
X173889150Y-83590850D03*
X174750000Y-86080000D03*
X175303015Y-93646985D03*
X176000000Y-99230000D03*
X173600000Y-94317461D03*
X161560000Y-93522441D03*
X159200000Y-88417184D03*
%TO.N,+3V3*%
X163017184Y-83200000D03*
X162795000Y-85377400D03*
X169079449Y-89369449D03*
X170975000Y-79500000D03*
%TO.N,GND*%
X169103015Y-90553015D03*
X170753015Y-91253015D03*
%TO.N,P_GPIO16*%
X177440000Y-87580000D03*
%TO.N,P_GPIO17*%
X177835000Y-87235000D03*
%TO.N,P_GPIO14*%
X178944953Y-96590000D03*
%TO.N,P_GPIO13*%
X174110000Y-90330000D03*
%TO.N,GND*%
X176125000Y-105650000D03*
X180125000Y-107425000D03*
X176275000Y-108000000D03*
%TO.N,+3V3*%
X177675000Y-108000000D03*
%TO.N,P_GPIO14*%
X179075000Y-108000000D03*
%TO.N,P_GPIO12*%
X178375000Y-108000000D03*
%TO.N,P_GPIO17*%
X179775000Y-108000000D03*
%TO.N,SWDIO*%
X176975000Y-108000000D03*
%TO.N,P_GPIO29*%
X179625000Y-105650000D03*
%TO.N,P_GPIO28*%
X179275000Y-106225000D03*
%TO.N,P_GPIO27*%
X178925000Y-105650000D03*
%TO.N,P_GPIO26*%
X178575000Y-106225000D03*
%TO.N,P_GPIO23*%
X178225000Y-105650000D03*
%TO.N,P_GPIO22*%
X177875000Y-106225000D03*
%TO.N,P_GPIO21*%
X177525000Y-105650000D03*
%TO.N,P_GPIO20*%
X177175000Y-106225000D03*
%TO.N,P_GPIO19*%
X176825000Y-105650000D03*
%TO.N,P_GPIO18*%
X176475000Y-106225000D03*
%TO.N,P_GPIO16*%
X179425000Y-107425000D03*
%TO.N,P_GPIO13*%
X178725000Y-107425000D03*
%TO.N,P_GPIO15*%
X178025000Y-107425000D03*
%TO.N,RUN*%
X177325000Y-107425000D03*
%TO.N,SWCLK*%
X176625000Y-107425000D03*
%TO.N,OUT_CLK*%
X171400000Y-93925000D03*
%TO.N,GPIO_0*%
X171050000Y-88025000D03*
%TO.N,SPI1_CSn*%
X173250000Y-92075000D03*
%TO.N,P_GPIO15*%
X175210000Y-91160000D03*
%TO.N,SPI1_RX_MISO*%
X171450000Y-92575000D03*
%TO.N,SPI1_TX_MOSI*%
X170455209Y-92810005D03*
%TO.N,DATA_DIRECT_2*%
X170500000Y-89750000D03*
%TO.N,DATA_DIRECT_1*%
X169800000Y-89275000D03*
%TO.N,SPI1_CSn*%
X163825000Y-89775000D03*
%TO.N,SPI1_RX_MISO*%
X165394838Y-91422600D03*
%TO.N,SPI1_SCK_CLK*%
X166694810Y-85950000D03*
%TO.N,DATA_DIRECT_1*%
X167344796Y-85950000D03*
%TO.N,SPI1_TX_MOSI*%
X166044824Y-91422600D03*
%TO.N,DATA_DIRECT_2*%
X166694810Y-91422600D03*
%TO.N,OUT_DAT0*%
X171675000Y-90300000D03*
%TO.N,OUT_DAT3*%
X172525000Y-90025000D03*
%TO.N,OUT_CLK*%
X172125000Y-90975000D03*
%TO.N,OUT_CMD*%
X173125000Y-90575000D03*
%TO.N,SPI1_SCK_CLK*%
X174225000Y-91725000D03*
%TO.N,P_GPIO12*%
X174900000Y-92200000D03*
%TO.N,P_GPIO13*%
X174725000Y-91675000D03*
%TO.N,SWDIO*%
X177025000Y-89125000D03*
%TO.N,SWCLK*%
X177178816Y-89614236D03*
%TO.N,RUN*%
X177749607Y-89121044D03*
%TO.N,P_GPIO18*%
X178025000Y-88050000D03*
%TO.N,P_GPIO29*%
X175475000Y-84225000D03*
%TO.N,P_GPIO28*%
X176500000Y-83800000D03*
%TO.N,P_GPIO27*%
X176025000Y-84825000D03*
%TO.N,P_GPIO26*%
X177050000Y-84350000D03*
%TO.N,DATA_SD_SNIFF_2*%
X177874244Y-85235007D03*
%TO.N,DATA_SD_SNIFF_1*%
X177450000Y-86225000D03*
%TO.N,P_GPIO23*%
X178475000Y-85775000D03*
%TO.N,P_GPIO22*%
X178050000Y-86750000D03*
%TO.N,P_GPIO21*%
X179025000Y-86350000D03*
%TO.N,P_GPIO20*%
X178600000Y-87325000D03*
%TO.N,P_GPIO19*%
X179575000Y-86925000D03*
%TO.N,DATA_SD_SNIFF_2*%
X169400172Y-106277559D03*
%TO.N,OUT_DAT3*%
X168300000Y-106277559D03*
%TO.N,OUT_CMD*%
X167200000Y-106277559D03*
%TO.N,OUT_CLK*%
X165000130Y-106277559D03*
%TO.N,OUT_DAT0*%
X162800000Y-106277559D03*
%TO.N,DATA_SD_SNIFF_1*%
X161700162Y-106277559D03*
%TO.N,DATA_SD_SNIFF_2*%
X161495000Y-91422600D03*
%TO.N,DATA_SD_SNIFF_1*%
X160195204Y-91422600D03*
%TO.N,OUT_CLK*%
X160845000Y-85377400D03*
%TO.N,OUT_DAT3*%
X163445134Y-91422600D03*
%TO.N,OUT_DAT0*%
X162795000Y-91422600D03*
%TO.N,OUT_CMD*%
X162145000Y-91422600D03*
%TO.N,FLASH_IO3*%
X172325000Y-86525000D03*
%TO.N,FLASH_IO1*%
X170150000Y-86650000D03*
%TO.N,FLASH_CLK*%
X171625000Y-86450000D03*
%TO.N,FLASH_IO0*%
X170700000Y-86050000D03*
%TO.N,FLASH_IO2*%
X171100000Y-87025000D03*
%TO.N,GPIO_0*%
X175550000Y-102600000D03*
%TO.N,FLASH_IO3*%
X176820000Y-95000000D03*
%TO.N,FLASH_CLK*%
X178090000Y-95000000D03*
%TO.N,FLASH_IO0*%
X179360000Y-95000000D03*
%TO.N,FLASH_IO1*%
X176820000Y-102599713D03*
%TO.N,FLASH_IO2*%
X178090000Y-102599713D03*
%TO.N,IN_DAT1*%
X164094866Y-85377400D03*
X180100000Y-79600000D03*
X172732816Y-82100000D03*
%TO.N,Net-(U1-USB_DM)*%
X172550000Y-84500000D03*
%TO.N,Net-(U1-USB_DP)*%
X172250000Y-84800000D03*
X169132816Y-85200000D03*
%TO.N,Net-(U1-USB_DM)*%
X171867184Y-82100000D03*
%TO.N,PROG_VSS*%
X178693953Y-103893953D03*
%TO.N,BOOT_SIGNAL*%
X181150000Y-99767184D03*
%TO.N,PROG_VSS*%
X173300000Y-101250000D03*
%TO.N,BOOT_SIGNAL*%
X181931081Y-88058919D03*
%TO.N,SELECT_SD_PIN*%
X167344796Y-91450000D03*
X169975000Y-90525000D03*
%TO.N,IN_CMD*%
X160195204Y-85377400D03*
X165975000Y-79600000D03*
%TO.N,IN_DAT0*%
X162145000Y-85377400D03*
X162150000Y-83150000D03*
%TO.N,+1V1*%
X176493708Y-88942666D03*
X180853015Y-87753015D03*
%TO.N,+3V3*%
X169956985Y-85773015D03*
X172040621Y-85440621D03*
%TD*%
D42*
%TO.N,P_GPIO17*%
X177835000Y-87235000D02*
X177690000Y-87380000D01*
X177690000Y-87380000D02*
X177690000Y-88098808D01*
X177690000Y-88098808D02*
X178521320Y-88930128D01*
X178521320Y-88930128D02*
X178662741Y-88930128D01*
%TO.N,P_GPIO16*%
X177440000Y-87580000D02*
X177330000Y-87690000D01*
X177330000Y-87690000D02*
X177330000Y-88163072D01*
X177330000Y-88163072D02*
X178379899Y-89212971D01*
D43*
%TO.N,Net-(U1-VREG_AVDD)*%
X174172613Y-83308629D02*
X174411371Y-83308629D01*
X174411371Y-83308629D02*
X175293953Y-82426047D01*
X175293953Y-82426047D02*
X174870017Y-82426047D01*
X174870017Y-82426047D02*
X174196985Y-81753015D01*
%TO.N,BOOT_SIGNAL*%
X181931081Y-88058919D02*
X181240681Y-87368519D01*
X181240681Y-87368519D02*
X181240681Y-83909319D01*
X181240681Y-83909319D02*
X181460000Y-83690000D01*
X181460000Y-83690000D02*
X181460000Y-82600000D01*
%TO.N,XOUT*%
X180293953Y-88893953D02*
X179836047Y-88893953D01*
X179836047Y-88893953D02*
X177729588Y-91000412D01*
X177729588Y-91000412D02*
X177338913Y-91000412D01*
X177338913Y-91000412D02*
X176965685Y-90627184D01*
%TO.N,+3V3*%
X179051000Y-107149000D02*
X180050000Y-106150000D01*
X180050000Y-106150000D02*
X180050000Y-105941599D01*
%TO.N,GND*%
X179521985Y-84078015D02*
X179496985Y-84053015D01*
X178746985Y-83303015D02*
X179496985Y-84053015D01*
%TO.N,+1V1*%
X177248528Y-90344342D02*
X177024186Y-90120000D01*
X177024186Y-90120000D02*
X175920000Y-90120000D01*
X175920000Y-90120000D02*
X175434000Y-90606000D01*
X175434000Y-90606000D02*
X173546323Y-90606000D01*
X173546323Y-90606000D02*
X172490323Y-89550000D01*
X172490323Y-89550000D02*
X171855685Y-89550000D01*
X171855685Y-89550000D02*
X171627029Y-89778656D01*
%TO.N,P_GPIO15*%
X175801444Y-91160000D02*
X176117157Y-91475713D01*
X175210000Y-91160000D02*
X175801444Y-91160000D01*
D42*
%TO.N,P_GPIO14*%
X175834314Y-91758555D02*
X176032541Y-91956782D01*
X176032541Y-91956782D02*
X176032541Y-92321884D01*
X176032541Y-92321884D02*
X174430000Y-93924425D01*
X174430000Y-94982000D02*
X175149000Y-95701000D01*
X174430000Y-93924425D02*
X174430000Y-94982000D01*
X175149000Y-95701000D02*
X178055953Y-95701000D01*
X178055953Y-95701000D02*
X178944953Y-96590000D01*
D43*
%TO.N,+3V3*%
X175901985Y-93058015D02*
X175896985Y-93053015D01*
X178903015Y-84646985D02*
X178903015Y-85000539D01*
X178903015Y-85000539D02*
X179849461Y-85946985D01*
X179849461Y-85946985D02*
X180596985Y-85946985D01*
X178903015Y-84646985D02*
X178903015Y-83965239D01*
X178903015Y-83965239D02*
X177434761Y-82496985D01*
X177434761Y-82496985D02*
X176253015Y-82496985D01*
X173318464Y-84151536D02*
X172819943Y-83653015D01*
%TO.N,+1V1*%
X173040727Y-84439273D02*
X173041348Y-84439894D01*
X176980686Y-84990686D02*
X176965685Y-85005686D01*
%TO.N,GND*%
X173889150Y-83590850D02*
X173889771Y-83591472D01*
X173603015Y-82346985D02*
X173603015Y-83304716D01*
X173603015Y-83304716D02*
X173889150Y-83590850D01*
X177817184Y-82150000D02*
X177093970Y-82150000D01*
X177093970Y-82150000D02*
X176846985Y-81903015D01*
X178746985Y-83153015D02*
X178746985Y-83079801D01*
X178746985Y-83079801D02*
X177817184Y-82150000D01*
X178746985Y-83153015D02*
X178746985Y-83303015D01*
X179640000Y-83250000D02*
X178843970Y-83250000D01*
X178843970Y-83250000D02*
X178746985Y-83153015D01*
X179496985Y-84053015D02*
X179496985Y-83393015D01*
X179496985Y-83393015D02*
X179640000Y-83250000D01*
X180003015Y-85353015D02*
X180003015Y-84559045D01*
X180003015Y-84559045D02*
X179521985Y-84078015D01*
X181446985Y-88346985D02*
X179734540Y-90059430D01*
X179734540Y-90059430D02*
X179734540Y-90271142D01*
X179734540Y-90271142D02*
X181034888Y-90271142D01*
X181034888Y-90271142D02*
X181203015Y-90103015D01*
X179734540Y-90271142D02*
X179734540Y-92675304D01*
X179734540Y-92675304D02*
X180088094Y-93028858D01*
X178546985Y-93596985D02*
X177523015Y-93596985D01*
X177523015Y-93596985D02*
X177370000Y-93750000D01*
X180088094Y-93028858D02*
X179115112Y-93028858D01*
X179115112Y-93028858D02*
X178546985Y-93596985D01*
X177455254Y-98799619D02*
X180088094Y-96166779D01*
X180088094Y-96166779D02*
X180088094Y-93028858D01*
X181775000Y-102402987D02*
X181775000Y-102670000D01*
X181546000Y-100223987D02*
X181775000Y-100452987D01*
X177455254Y-98799619D02*
X178879622Y-100223987D01*
X178879622Y-100223987D02*
X181546000Y-100223987D01*
X181775000Y-100452987D02*
X181775000Y-102670000D01*
X179360000Y-102600000D02*
X179836013Y-102123987D01*
X179836013Y-102123987D02*
X181496000Y-102123987D01*
X181496000Y-102123987D02*
X181775000Y-102402987D01*
X181775000Y-102670000D02*
X181775000Y-103850000D01*
X181775000Y-103850000D02*
X181375000Y-104250000D01*
X175465000Y-105896641D02*
X175465000Y-104490000D01*
X175465000Y-104490000D02*
X175281047Y-104306047D01*
X173645020Y-105647385D02*
X173939709Y-105647385D01*
X173939709Y-105647385D02*
X175281047Y-104306047D01*
X173645020Y-105647385D02*
X173703285Y-105647385D01*
X173703285Y-105647385D02*
X174885000Y-106829100D01*
X175465000Y-107762100D02*
X176154451Y-107762100D01*
X176154451Y-107762100D02*
X176200000Y-107716551D01*
X175465000Y-105896641D02*
X176155042Y-105896641D01*
X176155042Y-105896641D02*
X176200000Y-105941599D01*
X174885000Y-106829100D02*
X174885000Y-106476641D01*
X174885000Y-106476641D02*
X175465000Y-105896641D01*
X174885000Y-106829100D02*
X174885000Y-107182100D01*
X174885000Y-107182100D02*
X175465000Y-107762100D01*
X180785000Y-107762100D02*
X180095549Y-107762100D01*
X180095549Y-107762100D02*
X180050000Y-107716551D01*
X181365000Y-106829100D02*
X181365000Y-107182100D01*
X181365000Y-107182100D02*
X180785000Y-107762100D01*
X181365000Y-106829100D02*
X181365000Y-106476100D01*
X181365000Y-106476100D02*
X180785000Y-105896100D01*
X181375000Y-104250000D02*
X181375000Y-105306100D01*
X181375000Y-105306100D02*
X180785000Y-105896100D01*
X173600000Y-94317461D02*
X170135020Y-94317461D01*
X159200000Y-88417184D02*
X158804000Y-88813184D01*
X158804000Y-88813184D02*
X158804000Y-91666441D01*
X158804000Y-91666441D02*
X160660000Y-93522441D01*
X160660000Y-93522441D02*
X161560000Y-93522441D01*
%TO.N,+3V3*%
X162795000Y-85377400D02*
X162795000Y-86002400D01*
X162795000Y-86002400D02*
X166162049Y-89369449D01*
X166162049Y-89369449D02*
X169079449Y-89369449D01*
X169079449Y-89369449D02*
X168459319Y-89989580D01*
%TO.N,GND*%
X169103015Y-90553015D02*
X169103015Y-90533824D01*
X169103015Y-90533824D02*
X169678355Y-89958484D01*
X171016985Y-83653015D02*
X171016985Y-83860955D01*
X171016985Y-83860955D02*
X171403015Y-84246985D01*
X166375000Y-83200000D02*
X168475000Y-81100000D01*
X168475000Y-81100000D02*
X168475000Y-79500000D01*
X164744852Y-85377400D02*
X164744852Y-84402400D01*
X164744852Y-84402400D02*
X165551252Y-83596000D01*
X165551252Y-83596000D02*
X165979000Y-83596000D01*
X165979000Y-83596000D02*
X166375000Y-83200000D01*
X173645020Y-105647385D02*
X173349194Y-105351559D01*
X173349194Y-105351559D02*
X164574130Y-105351559D01*
X164574130Y-105351559D02*
X163900000Y-106025689D01*
X163900000Y-106025689D02*
X163900000Y-106277559D01*
X159354980Y-105797499D02*
X160761040Y-107203559D01*
X160761040Y-107203559D02*
X163226000Y-107203559D01*
X163226000Y-107203559D02*
X163900000Y-106529559D01*
X163900000Y-106529559D02*
X163900000Y-106277559D01*
X159759856Y-103647389D02*
X159759856Y-105392623D01*
X159759856Y-105392623D02*
X159354980Y-105797499D01*
X159760000Y-94647407D02*
X159760000Y-103647245D01*
X159760000Y-103647245D02*
X159759856Y-103647389D01*
X161560000Y-93522441D02*
X160884966Y-93522441D01*
X160884966Y-93522441D02*
X159760000Y-94647407D01*
X173645020Y-94317461D02*
X173600000Y-94317461D01*
X170135020Y-94317461D02*
X169340000Y-93522441D01*
X177455254Y-98799619D02*
X173645020Y-94989385D01*
X173645020Y-94989385D02*
X173645020Y-94317461D01*
%TO.N,+3V3*%
X179051000Y-107149000D02*
X177910677Y-107149000D01*
X177910677Y-107149000D02*
X177600000Y-107459677D01*
X177600000Y-107459677D02*
X177600000Y-107716551D01*
X181100000Y-102532816D02*
X180999000Y-102633816D01*
X180999000Y-102633816D02*
X180999000Y-104992599D01*
X180999000Y-104992599D02*
X180050000Y-105941599D01*
%TO.N,Net-(LED3-A)*%
X177956047Y-104606047D02*
X176431047Y-104606047D01*
X176431047Y-104606047D02*
X176131047Y-104306047D01*
%TO.N,Net-(LED2-A)*%
X180525000Y-104250000D02*
X179562094Y-104250000D01*
X179562094Y-104250000D02*
X179306047Y-104506047D01*
%TO.N,+3V3*%
X169084385Y-89364514D02*
X169079449Y-89369449D01*
X169674549Y-91896711D02*
X171297259Y-91896711D01*
X168459319Y-89989580D02*
X168459319Y-90681481D01*
X168459319Y-90681481D02*
X169674549Y-91896711D01*
X171297259Y-91896711D02*
X171346985Y-91846985D01*
%TO.N,PROG_VSS*%
X164744852Y-91422600D02*
X164744852Y-90495586D01*
X168025000Y-90525804D02*
X168025000Y-95975000D01*
X164744852Y-90495586D02*
X164918838Y-90321600D01*
X164918838Y-90321600D02*
X167820796Y-90321600D01*
X167820796Y-90321600D02*
X168025000Y-90525804D01*
X168025000Y-95975000D02*
X173300000Y-101250000D01*
%TO.N,GPIO_0*%
X170212927Y-87268316D02*
X170969611Y-88025000D01*
X170969611Y-88025000D02*
X171050000Y-88025000D01*
X170495658Y-88647285D02*
X171050000Y-88092943D01*
X171050000Y-88092943D02*
X171050000Y-88025000D01*
%TO.N,P_GPIO12*%
X175268740Y-92324129D02*
X175024129Y-92324129D01*
X175024129Y-92324129D02*
X174900000Y-92200000D01*
%TO.N,P_GPIO13*%
X175551471Y-92041398D02*
X175178132Y-91668059D01*
X175178132Y-91668059D02*
X174731941Y-91668059D01*
X174731941Y-91668059D02*
X174725000Y-91675000D01*
%TO.N,SWCLK*%
X177531370Y-90061499D02*
X177158214Y-89688343D01*
X177158214Y-89688343D02*
X177158214Y-89614236D01*
%TO.N,SPI1_RX_MISO*%
X171450000Y-92575000D02*
X172224798Y-92575000D01*
X172224798Y-92575000D02*
X173324085Y-91475713D01*
%TO.N,SPI1_TX_MOSI*%
X170455209Y-92810005D02*
X170501000Y-92810005D01*
X170640995Y-92950000D02*
X172794020Y-92950000D01*
X170501000Y-92810005D02*
X170640995Y-92950000D01*
X172794020Y-92950000D02*
X172794020Y-92941461D01*
X172794020Y-92941461D02*
X173555393Y-92941461D01*
X173555393Y-92941461D02*
X174172613Y-92324241D01*
%TO.N,SELECT_SD_PIN*%
X169975000Y-90525000D02*
X169975000Y-90504803D01*
X169975000Y-90504803D02*
X170329803Y-90150000D01*
X170329803Y-90150000D02*
X170690000Y-90150000D01*
X170690000Y-90150000D02*
X171344186Y-89495814D01*
D42*
%TO.N,DATA_DIRECT_1*%
X170778593Y-88930221D02*
X170778593Y-88999589D01*
X170778593Y-88999589D02*
X170278182Y-89500000D01*
X170278182Y-89500000D02*
X170025000Y-89500000D01*
X170025000Y-89500000D02*
X169800000Y-89275000D01*
D43*
%TO.N,DATA_DIRECT_2*%
X171061471Y-89213099D02*
X171036901Y-89213099D01*
X171036901Y-89213099D02*
X170500000Y-89750000D01*
%TO.N,SPI1_CSn*%
X164094866Y-90044866D02*
X163825000Y-89775000D01*
X164094866Y-91422600D02*
X164094866Y-90044866D01*
%TO.N,PROG_VSS*%
X179640000Y-81950000D02*
X179116000Y-81426000D01*
X159350000Y-79850000D02*
X159350000Y-86800000D01*
X179116000Y-81426000D02*
X179116000Y-77931658D01*
X178033342Y-76849000D02*
X162351000Y-76849000D01*
X179116000Y-77931658D02*
X178033342Y-76849000D01*
X162351000Y-76849000D02*
X159350000Y-79850000D01*
X159350000Y-86800000D02*
X160500000Y-87950000D01*
X160500000Y-87950000D02*
X162800000Y-87950000D01*
X162800000Y-87950000D02*
X164744852Y-89894852D01*
X164744852Y-89894852D02*
X164744852Y-91422600D01*
%TO.N,+3V3*%
X174046873Y-84530385D02*
X174513629Y-84063629D01*
X174513629Y-84063629D02*
X175033916Y-84063629D01*
X175033916Y-84063629D02*
X175506073Y-83591472D01*
X175506073Y-83591472D02*
X175551471Y-83591472D01*
X173324085Y-84157157D02*
X173697313Y-84530385D01*
X173697313Y-84530385D02*
X174046873Y-84530385D01*
X174513629Y-84063629D02*
X175268629Y-83308629D01*
X172828529Y-85661756D02*
X172565942Y-85661756D01*
X172565942Y-85661756D02*
X172192714Y-85288528D01*
X173324085Y-84157157D02*
X173697418Y-84530490D01*
X173697418Y-84530490D02*
X173697418Y-84792866D01*
X173697418Y-84792866D02*
X172828529Y-85661756D01*
X172828529Y-85661756D02*
X172000257Y-85661756D01*
X172000257Y-85661756D02*
X171909872Y-85571371D01*
D42*
%TO.N,P_GPIO18*%
X178945584Y-88647285D02*
X178945584Y-88578484D01*
X178945584Y-88578484D02*
X178417100Y-88050000D01*
X178417100Y-88050000D02*
X178025000Y-88050000D01*
%TO.N,P_GPIO16*%
X178379899Y-89212971D02*
X178379899Y-89184236D01*
%TO.N,SWDIO*%
X177814284Y-89778586D02*
X177160698Y-89125000D01*
X177160698Y-89125000D02*
X177025000Y-89125000D01*
%TO.N,+1V1*%
X176493708Y-88942666D02*
X176493708Y-89610808D01*
X176493708Y-89610808D02*
X177237885Y-90354985D01*
D43*
X177265498Y-90327372D02*
X177248528Y-90344342D01*
%TO.N,GPIO_0*%
X170212927Y-87268316D02*
X170900000Y-87955389D01*
X170900000Y-87955389D02*
X170900000Y-88242943D01*
X170900000Y-88242943D02*
X170495658Y-88647285D01*
%TO.N,FLASH_IO3*%
X171627138Y-85854105D02*
X171654105Y-85854105D01*
X171654105Y-85854105D02*
X172325000Y-86525000D01*
D42*
%TO.N,IN_DAT2*%
X168267184Y-85200000D02*
X168267184Y-85882816D01*
X168267184Y-85882816D02*
X167200000Y-86950000D01*
X167200000Y-86950000D02*
X164050000Y-86950000D01*
X164050000Y-86950000D02*
X163445134Y-86345134D01*
X163445134Y-86345134D02*
X163445134Y-85377400D01*
D43*
%TO.N,SELECT_SD_PIN*%
X167344796Y-91450000D02*
X167344796Y-91422600D01*
%TO.N,+1V1*%
X169696985Y-91146985D02*
X170053015Y-91146985D01*
X170053015Y-91146985D02*
X170600000Y-90600000D01*
X170600000Y-90600000D02*
X170805685Y-90600000D01*
X170805685Y-90600000D02*
X171627029Y-89778656D01*
%TO.N,SELECT_SD_PIN*%
X162438159Y-92523600D02*
X167170810Y-92523600D01*
X167170810Y-92523600D02*
X167344796Y-92349614D01*
X167344796Y-92349614D02*
X167344796Y-91450000D01*
X177343953Y-103993953D02*
X176826000Y-103476000D01*
X176826000Y-103476000D02*
X173390559Y-103476000D01*
X173390559Y-103476000D02*
X162438159Y-92523600D01*
X162438159Y-92523600D02*
X161019000Y-92523600D01*
X161019000Y-92523600D02*
X160845000Y-92349600D01*
X160845000Y-92349600D02*
X160845000Y-91422600D01*
%TO.N,GPIO_0*%
X181100000Y-101667184D02*
X176132816Y-101667184D01*
X176132816Y-101667184D02*
X175550000Y-102250000D01*
X175550000Y-102250000D02*
X175550000Y-102600000D01*
X181150000Y-100632816D02*
X181150000Y-101617184D01*
X181150000Y-101617184D02*
X181100000Y-101667184D01*
%TO.N,IN_CLK*%
X173475000Y-79600000D02*
X173475000Y-77900001D01*
X173148999Y-77574000D02*
X170278616Y-77574000D01*
X173475000Y-77900001D02*
X173148999Y-77574000D01*
X170278616Y-77574000D02*
X169650000Y-78202616D01*
X169650000Y-78202616D02*
X169650000Y-81200000D01*
X169650000Y-81200000D02*
X166850000Y-84000000D01*
X166850000Y-84000000D02*
X165750000Y-84000000D01*
X165750000Y-84000000D02*
X165394838Y-84355162D01*
X165394838Y-84355162D02*
X165394838Y-85377400D01*
%TO.N,IN_DAT0*%
X178400000Y-79600000D02*
X178400000Y-77900000D01*
X164500000Y-81450000D02*
X163750000Y-82200000D01*
X162150000Y-82962355D02*
X162150000Y-83150000D01*
X178400000Y-77900000D02*
X177700000Y-77200000D01*
X177700000Y-77200000D02*
X165300000Y-77200000D01*
X165300000Y-77200000D02*
X164500000Y-78000000D01*
X163750000Y-82200000D02*
X162912355Y-82200000D01*
X164500000Y-78000000D02*
X164500000Y-81450000D01*
X162912355Y-82200000D02*
X162150000Y-82962355D01*
%TO.N,IN_DAT3*%
X161495000Y-85377400D02*
X161495000Y-84395000D01*
X160552206Y-79600000D02*
X163475000Y-79600000D01*
X161495000Y-84395000D02*
X161150000Y-84050000D01*
X159950000Y-83650000D02*
X159950000Y-80202206D01*
X161150000Y-84050000D02*
X160350000Y-84050000D01*
X160350000Y-84050000D02*
X159950000Y-83650000D01*
X159950000Y-80202206D02*
X160552206Y-79600000D01*
%TO.N,IN_DAT2*%
X160975000Y-81900000D02*
X160975000Y-82675000D01*
X160975000Y-82675000D02*
X162576400Y-84276400D01*
X162576400Y-84276400D02*
X163245266Y-84276400D01*
X163245266Y-84276400D02*
X163445134Y-84476268D01*
X163445134Y-84476268D02*
X163445134Y-85377400D01*
%TO.N,SELECT_SD_PIN*%
X159200000Y-89282816D02*
X159680216Y-89282816D01*
X159680216Y-89282816D02*
X160845000Y-90447600D01*
X160845000Y-90447600D02*
X160845000Y-91422600D01*
%TO.N,+1V1*%
X178153015Y-83746985D02*
X178153015Y-83818356D01*
X178153015Y-83818356D02*
X176980686Y-84990686D01*
%TO.N,+3V3*%
X177248797Y-85288798D02*
X177890610Y-84646985D01*
X177890610Y-84646985D02*
X178903015Y-84646985D01*
X180596985Y-85946985D02*
X180596985Y-86995885D01*
X180596985Y-86995885D02*
X179228427Y-88364443D01*
%TO.N,Net-(C14-Pad2)*%
X181796985Y-90696985D02*
X181846711Y-90647259D01*
X181846711Y-90647259D02*
X181846711Y-89974549D01*
X181846711Y-89974549D02*
X181222162Y-89350000D01*
X181062094Y-89350000D02*
X180906047Y-89506047D01*
X181222162Y-89350000D02*
X181062094Y-89350000D01*
X181290175Y-91826777D02*
X181290175Y-91203795D01*
X181290175Y-91203795D02*
X181796985Y-90696985D01*
%TO.N,XIN*%
X178532459Y-91473223D02*
X177246256Y-91473223D01*
X177246256Y-91473223D02*
X176682951Y-90909918D01*
X177953015Y-93003015D02*
X177953015Y-92052667D01*
X177953015Y-92052667D02*
X178532459Y-91473223D01*
%TO.N,+3V3*%
X176530000Y-93750000D02*
X176530000Y-93686030D01*
X176530000Y-93686030D02*
X175901985Y-93058015D01*
X176530000Y-93750000D02*
X175550000Y-94730000D01*
X175550000Y-94730000D02*
X175550000Y-95000000D01*
X175896985Y-93053015D02*
X176807277Y-92142723D01*
X176807277Y-92142723D02*
X176807277Y-91600147D01*
X176807277Y-91600147D02*
X176400000Y-91192870D01*
X171346985Y-91846985D02*
X172387127Y-91846985D01*
X172387127Y-91846985D02*
X173041242Y-91192870D01*
X169084385Y-89364514D02*
X170084456Y-88364443D01*
X170084456Y-88364443D02*
X170212815Y-88364443D01*
%TO.N,Net-(LED1-A)*%
X163882816Y-83200000D02*
X165525000Y-83200000D01*
%TO.N,+3V3*%
X172040621Y-85440621D02*
X171909872Y-85571371D01*
%TO.N,+1V1*%
X170423015Y-84246985D02*
X171066711Y-84890681D01*
X171066711Y-84890681D02*
X171559319Y-84890681D01*
X171559319Y-84890681D02*
X172383298Y-84066702D01*
X172383298Y-84066702D02*
X172668156Y-84066702D01*
X172668156Y-84066702D02*
X173040727Y-84439273D01*
X168892893Y-83736174D02*
X169912204Y-83736174D01*
X169912204Y-83736174D02*
X170423015Y-84246985D01*
%TO.N,Net-(U1-VREG_LX)*%
X173606928Y-83874315D02*
X172741932Y-83009319D01*
X172741932Y-83009319D02*
X170994466Y-83009319D01*
X170994466Y-83009319D02*
X170307107Y-82321960D01*
%TO.N,+3V3*%
X173324085Y-84157157D02*
X173318464Y-84151536D01*
X172819943Y-83653015D02*
X171996985Y-83653015D01*
%TO.N,Net-(U1-VREG_LX)*%
X170429808Y-82321960D02*
X170307107Y-82321960D01*
%TO.N,+3V3*%
X172192714Y-85288528D02*
X172040621Y-85440621D01*
X175268629Y-83308629D02*
X175551471Y-83591472D01*
X176253015Y-82496985D02*
X176080273Y-82496985D01*
X176080273Y-82496985D02*
X175268629Y-83308629D01*
%TO.N,PROG_VSS*%
X178682816Y-82150000D02*
X179440000Y-82150000D01*
X179440000Y-82150000D02*
X179640000Y-81950000D01*
X175975000Y-79600000D02*
X177979000Y-81604000D01*
X178682816Y-81730000D02*
X178682816Y-82150000D01*
X177979000Y-81604000D02*
X178556816Y-81604000D01*
X178556816Y-81604000D02*
X178682816Y-81730000D01*
%TD*%
M02*
