%TF.GenerationSoftware,KiCad,Pcbnew,9.0.2+dfsg-1*%
%TF.CreationDate,2026-09-12T17:13:16+01:00*%
%TF.ProjectId,SDcore,5344636f-7265-42e6-9b69-6361645f7063,rev?*%
%TF.SameCoordinates,Original*%
%TF.FileFunction,Copper,L3,Inr*%
%TF.FilePolarity,Positive*%
%FSLAX46Y46*%
G04 Gerber Fmt 4.6, Leading zero omitted, Abs format (unit mm)*
G04 Created by KiCad (PCBNEW 9.0.2+dfsg-1) date 2026-09-12 17:13:16*
%MOMM*%
%LPD*%
G01*
G04 APERTURE LIST*
%TA.AperFunction,ViaPad*%
%ADD10C,0.300000*%
%TD*%
%TA.AperFunction,Conductor*%
%ADD11C,0.100000*%
%TD*%
%TA.AperFunction,Conductor*%
%ADD12C,0.150000*%
%TD*%
G04 APERTURE END LIST*
D10*
%TO.N,GND*%
X173645020Y-105647385D03*
%TO.N,+3V3*%
X175906047Y-81813953D03*
%TO.N,GND*%
X159740000Y-103680000D03*
X179521985Y-84078015D03*
X181600000Y-88360000D03*
X168475000Y-79500000D03*
X176846985Y-81903015D03*
X173603015Y-82346985D03*
X171403015Y-84246985D03*
X169363015Y-86366985D03*
%TO.N,+3V3*%
X166100000Y-106277559D03*
X177248797Y-85288798D03*
X175901985Y-93058015D03*
X173041242Y-91192870D03*
%TO.N,+1V1*%
X173040727Y-84439273D03*
X176980686Y-84990686D03*
%TO.N,GND*%
X173889150Y-83590850D03*
X174750000Y-86080000D03*
X175303015Y-93646985D03*
X176000000Y-99230000D03*
X173600000Y-94317461D03*
X161560000Y-93522441D03*
X159200000Y-88417184D03*
%TO.N,+3V3*%
X163017184Y-83200000D03*
X162795000Y-85377400D03*
X169079449Y-89369449D03*
X170975000Y-79500000D03*
%TO.N,GND*%
X169103015Y-90553015D03*
X170753015Y-91253015D03*
%TO.N,P_GPIO16*%
X177440000Y-87580000D03*
%TO.N,P_GPIO17*%
X177835000Y-87235000D03*
%TO.N,P_GPIO14*%
X178944953Y-96590000D03*
%TO.N,P_GPIO13*%
X174110000Y-90330000D03*
%TO.N,GND*%
X176125000Y-105650000D03*
X180125000Y-107425000D03*
X176275000Y-108000000D03*
%TO.N,+3V3*%
X177675000Y-108000000D03*
%TO.N,P_GPIO14*%
X179075000Y-108000000D03*
%TO.N,P_GPIO12*%
X178375000Y-108000000D03*
%TO.N,P_GPIO17*%
X179775000Y-108000000D03*
%TO.N,SWDIO*%
X176975000Y-108000000D03*
%TO.N,P_GPIO29*%
X179625000Y-105650000D03*
%TO.N,P_GPIO28*%
X179275000Y-106225000D03*
%TO.N,P_GPIO27*%
X178925000Y-105650000D03*
%TO.N,P_GPIO26*%
X178575000Y-106225000D03*
%TO.N,P_GPIO23*%
X178225000Y-105650000D03*
%TO.N,P_GPIO22*%
X177875000Y-106225000D03*
%TO.N,P_GPIO21*%
X177525000Y-105650000D03*
%TO.N,P_GPIO20*%
X177175000Y-106225000D03*
%TO.N,P_GPIO19*%
X176825000Y-105650000D03*
%TO.N,P_GPIO18*%
X176475000Y-106225000D03*
%TO.N,P_GPIO16*%
X179425000Y-107425000D03*
%TO.N,P_GPIO13*%
X178725000Y-107425000D03*
%TO.N,P_GPIO15*%
X178025000Y-107425000D03*
%TO.N,RUN*%
X177325000Y-107425000D03*
%TO.N,SWCLK*%
X176625000Y-107425000D03*
%TO.N,OUT_CLK*%
X171400000Y-93925000D03*
%TO.N,GPIO_0*%
X171050000Y-88025000D03*
%TO.N,SPI1_CSn*%
X173250000Y-92075000D03*
%TO.N,P_GPIO15*%
X175210000Y-91160000D03*
%TO.N,SPI1_RX_MISO*%
X171450000Y-92575000D03*
%TO.N,SPI1_TX_MOSI*%
X170455209Y-92810005D03*
%TO.N,DATA_DIRECT_2*%
X170500000Y-89750000D03*
%TO.N,DATA_DIRECT_1*%
X169800000Y-89275000D03*
%TO.N,SPI1_CSn*%
X163825000Y-89775000D03*
%TO.N,SPI1_RX_MISO*%
X165394838Y-91422600D03*
%TO.N,SPI1_SCK_CLK*%
X166694810Y-85950000D03*
%TO.N,DATA_DIRECT_1*%
X167344796Y-85950000D03*
%TO.N,SPI1_TX_MOSI*%
X166044824Y-91422600D03*
%TO.N,DATA_DIRECT_2*%
X166694810Y-91422600D03*
%TO.N,OUT_DAT0*%
X171675000Y-90300000D03*
%TO.N,OUT_DAT3*%
X172525000Y-90025000D03*
%TO.N,OUT_CLK*%
X172125000Y-90975000D03*
%TO.N,OUT_CMD*%
X173125000Y-90575000D03*
%TO.N,SPI1_SCK_CLK*%
X174225000Y-91725000D03*
%TO.N,P_GPIO12*%
X174900000Y-92200000D03*
%TO.N,P_GPIO13*%
X174725000Y-91675000D03*
%TO.N,SWDIO*%
X177025000Y-89125000D03*
%TO.N,SWCLK*%
X177178816Y-89614236D03*
%TO.N,RUN*%
X177749607Y-89121044D03*
%TO.N,P_GPIO18*%
X178025000Y-88050000D03*
%TO.N,P_GPIO29*%
X175475000Y-84225000D03*
%TO.N,P_GPIO28*%
X176500000Y-83800000D03*
%TO.N,P_GPIO27*%
X176025000Y-84825000D03*
%TO.N,P_GPIO26*%
X177050000Y-84350000D03*
%TO.N,DATA_SD_SNIFF_2*%
X177874244Y-85235007D03*
%TO.N,DATA_SD_SNIFF_1*%
X177450000Y-86225000D03*
%TO.N,P_GPIO23*%
X178475000Y-85775000D03*
%TO.N,P_GPIO22*%
X178050000Y-86750000D03*
%TO.N,P_GPIO21*%
X179025000Y-86350000D03*
%TO.N,P_GPIO20*%
X178600000Y-87325000D03*
%TO.N,P_GPIO19*%
X179575000Y-86925000D03*
%TO.N,DATA_SD_SNIFF_2*%
X169400172Y-106277559D03*
%TO.N,OUT_DAT3*%
X168300000Y-106277559D03*
%TO.N,OUT_CMD*%
X167200000Y-106277559D03*
%TO.N,OUT_CLK*%
X165000130Y-106277559D03*
%TO.N,OUT_DAT0*%
X162800000Y-106277559D03*
%TO.N,DATA_SD_SNIFF_1*%
X161700162Y-106277559D03*
%TO.N,DATA_SD_SNIFF_2*%
X161495000Y-91422600D03*
%TO.N,DATA_SD_SNIFF_1*%
X160195204Y-91422600D03*
%TO.N,OUT_CLK*%
X160845000Y-85377400D03*
%TO.N,OUT_DAT3*%
X163445134Y-91422600D03*
%TO.N,OUT_DAT0*%
X162795000Y-91422600D03*
%TO.N,OUT_CMD*%
X162145000Y-91422600D03*
%TO.N,FLASH_IO3*%
X172325000Y-86525000D03*
%TO.N,FLASH_IO1*%
X170150000Y-86650000D03*
%TO.N,FLASH_CLK*%
X171625000Y-86450000D03*
%TO.N,FLASH_IO0*%
X170700000Y-86050000D03*
%TO.N,FLASH_IO2*%
X171100000Y-87025000D03*
%TO.N,GPIO_0*%
X175550000Y-102600000D03*
%TO.N,FLASH_IO3*%
X176820000Y-95000000D03*
%TO.N,FLASH_CLK*%
X178090000Y-95000000D03*
%TO.N,FLASH_IO0*%
X179360000Y-95000000D03*
%TO.N,FLASH_IO1*%
X176820000Y-102599713D03*
%TO.N,FLASH_IO2*%
X178090000Y-102599713D03*
%TO.N,IN_DAT1*%
X164094866Y-85377400D03*
X180100000Y-79600000D03*
X172732816Y-82100000D03*
%TO.N,Net-(U1-USB_DM)*%
X172550000Y-84500000D03*
%TO.N,Net-(U1-USB_DP)*%
X172250000Y-84800000D03*
X169132816Y-85200000D03*
%TO.N,Net-(U1-USB_DM)*%
X171867184Y-82100000D03*
%TO.N,PROG_VSS*%
X178693953Y-103893953D03*
%TO.N,BOOT_SIGNAL*%
X181150000Y-99767184D03*
%TO.N,PROG_VSS*%
X173300000Y-101250000D03*
%TO.N,BOOT_SIGNAL*%
X181931081Y-88058919D03*
%TO.N,SELECT_SD_PIN*%
X167344796Y-91450000D03*
X169975000Y-90525000D03*
%TO.N,IN_CMD*%
X160195204Y-85377400D03*
X165975000Y-79600000D03*
%TO.N,IN_DAT0*%
X162145000Y-85377400D03*
X162150000Y-83150000D03*
%TO.N,+1V1*%
X176493708Y-88942666D03*
X180853015Y-87753015D03*
%TO.N,+3V3*%
X169956985Y-85773015D03*
X172040621Y-85440621D03*
%TD*%
D11*
%TO.N,P_GPIO17*%
X179775000Y-106495000D02*
X179775000Y-108000000D01*
X179526000Y-105909047D02*
X179526000Y-106246000D01*
X179374000Y-95736000D02*
X179374000Y-105757047D01*
X179526000Y-106246000D02*
X179775000Y-106495000D01*
X178910000Y-87989968D02*
X178910000Y-95272000D01*
X179374000Y-105757047D02*
X179526000Y-105909047D01*
X178910000Y-95272000D02*
X179374000Y-95736000D01*
X178070032Y-87150000D02*
X178910000Y-87989968D01*
X177920000Y-87150000D02*
X178070032Y-87150000D01*
X177835000Y-87235000D02*
X177920000Y-87150000D01*
%TO.N,P_GPIO16*%
X177909968Y-87580000D02*
X178710514Y-88380546D01*
X177440000Y-87580000D02*
X177909968Y-87580000D01*
X179024000Y-106328968D02*
X179425000Y-106729968D01*
X178710514Y-88380546D02*
X178710514Y-95510514D01*
X178710514Y-95510514D02*
X179195953Y-95995953D01*
X179195953Y-95995953D02*
X179195953Y-105734015D01*
X179425000Y-106729968D02*
X179425000Y-107425000D01*
X179195953Y-105734015D02*
X179024000Y-105905968D01*
X179024000Y-105905968D02*
X179024000Y-106328968D01*
D12*
%TO.N,GND*%
X176275000Y-108000000D02*
X176125000Y-107850000D01*
X176125000Y-107850000D02*
X176125000Y-105650000D01*
X181600000Y-88360000D02*
X181129015Y-87889015D01*
X181129015Y-87889015D02*
X181129015Y-85685045D01*
X181129015Y-85685045D02*
X179521985Y-84078015D01*
D11*
%TO.N,P_GPIO15*%
X178000607Y-89225012D02*
X177776000Y-89449619D01*
X178000607Y-89017076D02*
X178000607Y-89225012D01*
X177776000Y-105788000D02*
X177577000Y-105987000D01*
X177784531Y-88801000D02*
X178000607Y-89017076D01*
X175089533Y-91039533D02*
X175089533Y-90705499D01*
X175089533Y-90705499D02*
X176994032Y-88801000D01*
X177776000Y-89449619D02*
X177776000Y-105788000D01*
X175210000Y-91160000D02*
X175089533Y-91039533D01*
X177577000Y-105987000D02*
X177577000Y-106977000D01*
X177577000Y-106977000D02*
X178025000Y-107425000D01*
X176994032Y-88801000D02*
X177784531Y-88801000D01*
D12*
%TO.N,+1V1*%
X176980686Y-84990686D02*
X177012365Y-84959007D01*
X177012365Y-84959007D02*
X178059007Y-84959007D01*
X178059007Y-84959007D02*
X180853015Y-87753015D01*
%TO.N,GND*%
X168475000Y-79500000D02*
X168475000Y-81318970D01*
X168475000Y-81318970D02*
X171403015Y-84246985D01*
X171403015Y-84246985D02*
X171049461Y-84246985D01*
X171049461Y-84246985D02*
X169363015Y-85933431D01*
X169363015Y-85933431D02*
X169363015Y-86366985D01*
%TO.N,OUT_DAT0*%
X162795000Y-91422600D02*
X163248400Y-91876000D01*
X163248400Y-91876000D02*
X169424000Y-91876000D01*
X169424000Y-91876000D02*
X171000000Y-90300000D01*
X171000000Y-90300000D02*
X171675000Y-90300000D01*
D11*
%TO.N,P_GPIO13*%
X174110000Y-90330000D02*
X174293349Y-90330000D01*
X174293349Y-90330000D02*
X176475349Y-88148000D01*
X176475349Y-88148000D02*
X177766514Y-88148000D01*
X178324000Y-105905968D02*
X178324000Y-106328968D01*
X177766514Y-88148000D02*
X178559514Y-88941000D01*
X178559514Y-88941000D02*
X178559514Y-102698713D01*
X178559514Y-102698713D02*
X178280000Y-102978227D01*
X178280000Y-102978227D02*
X178280000Y-104240000D01*
X178280000Y-104240000D02*
X178476000Y-104436000D01*
X178476000Y-104436000D02*
X178476000Y-105753968D01*
X178476000Y-105753968D02*
X178324000Y-105905968D01*
X178324000Y-106328968D02*
X178725000Y-106729968D01*
X178725000Y-106729968D02*
X178725000Y-107425000D01*
%TO.N,P_GPIO14*%
X178944953Y-96590000D02*
X178944953Y-105275079D01*
X178980000Y-106710000D02*
X178980000Y-107905000D01*
X178944953Y-105275079D02*
X178674000Y-105546032D01*
X178674000Y-105546032D02*
X178674000Y-105974000D01*
X178674000Y-105974000D02*
X178678968Y-105974000D01*
X178678968Y-105974000D02*
X178826000Y-106121032D01*
X178826000Y-106121032D02*
X178826000Y-106556000D01*
X178826000Y-106556000D02*
X178980000Y-106710000D01*
X178980000Y-107905000D02*
X179075000Y-108000000D01*
%TO.N,P_GPIO12*%
X178375000Y-108000000D02*
X178375000Y-106775000D01*
X174121032Y-91266064D02*
X173974000Y-91413096D01*
X178375000Y-106775000D02*
X178126000Y-106526000D01*
X178126000Y-106526000D02*
X178126000Y-106036000D01*
X178126000Y-106036000D02*
X177974000Y-105884000D01*
X177974000Y-105884000D02*
X177974000Y-103070681D01*
X177974000Y-103070681D02*
X178341000Y-102703681D01*
X178341000Y-102703681D02*
X178341000Y-88936032D01*
X178341000Y-88936032D02*
X177703968Y-88299000D01*
X177703968Y-88299000D02*
X176537895Y-88299000D01*
X176537895Y-88299000D02*
X174121032Y-90715863D01*
X174121032Y-90715863D02*
X174121032Y-91266064D01*
X173974000Y-91413096D02*
X173974000Y-91828968D01*
X173974000Y-91828968D02*
X174345032Y-92200000D01*
X174345032Y-92200000D02*
X174900000Y-92200000D01*
D12*
%TO.N,DATA_SD_SNIFF_1*%
X160195204Y-91422600D02*
X162359609Y-93587005D01*
X162359609Y-93587005D02*
X172340450Y-93587005D01*
X173526000Y-92189323D02*
X173526000Y-91960677D01*
X172340450Y-93587005D02*
X173520000Y-92407455D01*
X173520000Y-92407455D02*
X173520000Y-92195323D01*
X173520000Y-92195323D02*
X173526000Y-92189323D01*
X173526000Y-91960677D02*
X173520000Y-91954677D01*
X173801000Y-91110711D02*
X173801000Y-89874000D01*
X173520000Y-91954677D02*
X173520000Y-91391711D01*
X173520000Y-91391711D02*
X173801000Y-91110711D01*
X173801000Y-89874000D02*
X177450000Y-86225000D01*
D11*
%TO.N,RUN*%
X177749607Y-89121044D02*
X177501872Y-89368779D01*
X177501872Y-89368779D02*
X177580816Y-89447722D01*
X177580816Y-89447722D02*
X177580816Y-89780750D01*
X177580816Y-89780750D02*
X177231000Y-90130566D01*
X177231000Y-90130566D02*
X177231000Y-105926032D01*
X177231000Y-105926032D02*
X177426000Y-106121032D01*
X177426000Y-106121032D02*
X177426000Y-107324000D01*
X177426000Y-107324000D02*
X177325000Y-107425000D01*
%TO.N,SWDIO*%
X176975000Y-108000000D02*
X176881000Y-107906000D01*
X177429816Y-89718204D02*
X177429816Y-89510268D01*
X176881000Y-107906000D02*
X176881000Y-105948968D01*
X176881000Y-105948968D02*
X177080000Y-105749968D01*
X177080000Y-105749968D02*
X177080000Y-90068020D01*
X177080000Y-90068020D02*
X177429816Y-89718204D01*
X177429816Y-89510268D02*
X177044548Y-89125000D01*
X177044548Y-89125000D02*
X177025000Y-89125000D01*
%TO.N,SWCLK*%
X176625000Y-107425000D02*
X176730000Y-107320000D01*
X176730000Y-107320000D02*
X176730000Y-105980679D01*
X176730000Y-105980679D02*
X176519000Y-105769679D01*
X176519000Y-105769679D02*
X176519000Y-90274052D01*
X176519000Y-90274052D02*
X177178816Y-89614236D01*
D12*
%TO.N,DATA_SD_SNIFF_2*%
X161495000Y-91422600D02*
X163308405Y-93236005D01*
X163308405Y-93236005D02*
X171391450Y-93236005D01*
X171391450Y-93236005D02*
X173600000Y-91027455D01*
X173600000Y-91027455D02*
X173600000Y-89472545D01*
X173600000Y-89472545D02*
X177837538Y-85235007D01*
X177837538Y-85235007D02*
X177874244Y-85235007D01*
%TO.N,OUT_CMD*%
X162145000Y-91422600D02*
X162571000Y-90996600D01*
X162571000Y-90996600D02*
X163374746Y-90996600D01*
X163374746Y-90996600D02*
X165873346Y-88498000D01*
X165873346Y-88498000D02*
X171600455Y-88498000D01*
X171600455Y-88498000D02*
X173125000Y-90022545D01*
X173125000Y-90022545D02*
X173125000Y-90575000D01*
%TO.N,OUT_DAT3*%
X163445134Y-91422600D02*
X166018734Y-88849000D01*
X166018734Y-88849000D02*
X171349000Y-88849000D01*
X171349000Y-88849000D02*
X172525000Y-90025000D01*
%TD*%
M02*
