M48
; DRILL file {KiCad 9.0.2+dfsg-1} date 2026-09-12T17:13:14+0100
; FORMAT={-:-/ absolute / metric / decimal}
; #@! TF.CreationDate,2026-09-12T17:13:14+01:00
; #@! TF.GenerationSoftware,Kicad,Pcbnew,9.0.2+dfsg-1
; #@! TF.FileFunction,Plated,1,4,PTH
FMAT,2
METRIC
; #@! TA.AperFunction,Plated,PTH,ViaDrill
T1C0.200
%
G90
G05
T1
X159.2Y-88.417
X159.74Y-103.68
X160.195Y-85.377
X160.195Y-91.423
X160.845Y-85.377
X161.495Y-91.423
X161.56Y-93.522
X161.7Y-106.278
X162.145Y-85.377
X162.145Y-91.423
X162.15Y-83.15
X162.795Y-85.377
X162.795Y-91.423
X162.8Y-106.278
X163.017Y-83.2
X163.445Y-91.423
X163.825Y-89.775
X164.095Y-85.377
X165.0Y-106.278
X165.395Y-91.423
X165.975Y-79.6
X166.045Y-91.423
X166.1Y-106.278
X166.695Y-85.95
X166.695Y-91.423
X167.2Y-106.278
X167.345Y-85.95
X167.345Y-91.45
X168.3Y-106.278
X168.475Y-79.5
X169.079Y-89.369
X169.103Y-90.553
X169.133Y-85.2
X169.363Y-86.367
X169.4Y-106.278
X169.8Y-89.275
X169.957Y-85.773
X169.975Y-90.525
X170.15Y-86.65
X170.455Y-92.81
X170.5Y-89.75
X170.7Y-86.05
X170.753Y-91.253
X170.975Y-79.5
X171.05Y-88.025
X171.1Y-87.025
X171.4Y-93.925
X171.403Y-84.247
X171.45Y-92.575
X171.625Y-86.45
X171.675Y-90.3
X171.867Y-82.1
X172.041Y-85.441
X172.125Y-90.975
X172.25Y-84.8
X172.325Y-86.525
X172.525Y-90.025
X172.55Y-84.5
X172.733Y-82.1
X173.041Y-84.439
X173.041Y-91.193
X173.125Y-90.575
X173.25Y-92.075
X173.3Y-101.25
X173.6Y-94.317
X173.603Y-82.347
X173.645Y-105.647
X173.889Y-83.591
X174.11Y-90.33
X174.225Y-91.725
X174.725Y-91.675
X174.75Y-86.08
X174.9Y-92.2
X175.21Y-91.16
X175.303Y-93.647
X175.475Y-84.225
X175.55Y-102.6
X175.902Y-93.058
X175.906Y-81.814
X176.0Y-99.23
X176.025Y-84.825
X176.125Y-105.65
X176.275Y-108.0
X176.475Y-106.225
X176.494Y-88.943
X176.5Y-83.8
X176.625Y-107.425
X176.82Y-95.0
X176.82Y-102.6
X176.825Y-105.65
X176.847Y-81.903
X176.975Y-108.0
X176.981Y-84.991
X177.025Y-89.125
X177.05Y-84.35
X177.175Y-106.225
X177.179Y-89.614
X177.249Y-85.289
X177.325Y-107.425
X177.44Y-87.58
X177.45Y-86.225
X177.525Y-105.65
X177.675Y-108.0
X177.75Y-89.121
X177.835Y-87.235
X177.874Y-85.235
X177.875Y-106.225
X178.025Y-88.05
X178.025Y-107.425
X178.05Y-86.75
X178.09Y-95.0
X178.09Y-102.6
X178.225Y-105.65
X178.375Y-108.0
X178.475Y-85.775
X178.575Y-106.225
X178.6Y-87.325
X178.694Y-103.894
X178.725Y-107.425
X178.925Y-105.65
X178.945Y-96.59
X179.025Y-86.35
X179.075Y-108.0
X179.275Y-106.225
X179.36Y-95.0
X179.425Y-107.425
X179.522Y-84.078
X179.575Y-86.925
X179.625Y-105.65
X179.775Y-108.0
X180.1Y-79.6
X180.125Y-107.425
X180.853Y-87.753
X181.15Y-99.767
X181.6Y-88.36
X181.931Y-88.059
M30
