%TF.GenerationSoftware,KiCad,Pcbnew,9.0.2+dfsg-1*%
%TF.CreationDate,2026-09-12T17:13:17+01:00*%
%TF.ProjectId,SDcore,5344636f-7265-42e6-9b69-6361645f7063,rev?*%
%TF.SameCoordinates,Original*%
%TF.FileFunction,Legend,Top*%
%TF.FilePolarity,Positive*%
%FSLAX46Y46*%
G04 Gerber Fmt 4.6, Leading zero omitted, Abs format (unit mm)*
G04 Created by KiCad (PCBNEW 9.0.2+dfsg-1) date 2026-09-12 17:13:17*
%MOMM*%
%LPD*%
G01*
G04 APERTURE LIST*
%ADD10C,0.060000*%
%ADD11C,0.152400*%
%ADD12C,0.000000*%
%ADD13C,0.254000*%
%ADD14C,0.150000*%
%ADD15C,0.097300*%
%ADD16C,0.253999*%
%ADD17C,0.100000*%
%ADD18C,0.200000*%
G04 APERTURE END LIST*
D10*
G36*
X158967937Y-92040314D02*
G01*
X158966367Y-92069458D01*
X158961636Y-92098565D01*
X158953991Y-92127373D01*
X158943318Y-92156793D01*
X158884528Y-92156793D01*
X158902046Y-92125711D01*
X158913789Y-92097198D01*
X158920782Y-92069288D01*
X158923094Y-92041144D01*
X158920761Y-92013814D01*
X158914375Y-91992451D01*
X158904483Y-91975785D01*
X158890596Y-91963098D01*
X158873029Y-91955314D01*
X158850628Y-91952533D01*
X158831751Y-91954486D01*
X158817028Y-91959877D01*
X158805516Y-91968408D01*
X158797431Y-91978093D01*
X158790739Y-91990415D01*
X158785529Y-92004662D01*
X158780359Y-92024169D01*
X158773520Y-92053722D01*
X158766244Y-92080295D01*
X158757937Y-92101985D01*
X158747257Y-92121193D01*
X158734685Y-92136277D01*
X158721105Y-92147264D01*
X158705273Y-92155241D01*
X158686751Y-92160233D01*
X158664954Y-92161995D01*
X158637777Y-92159524D01*
X158614506Y-92152471D01*
X158594389Y-92141057D01*
X158576905Y-92125066D01*
X158563247Y-92106090D01*
X158552847Y-92083105D01*
X158546591Y-92057609D01*
X158544371Y-92027466D01*
X158545641Y-92003496D01*
X158549574Y-91977958D01*
X158556266Y-91951458D01*
X158565694Y-91923272D01*
X158621748Y-91923272D01*
X158607411Y-91948845D01*
X158597421Y-91973586D01*
X158591242Y-91999167D01*
X158589214Y-92024462D01*
X158591477Y-92049939D01*
X158597731Y-92070225D01*
X158607533Y-92086402D01*
X158621140Y-92098993D01*
X158637610Y-92106560D01*
X158657847Y-92109214D01*
X158671137Y-92108144D01*
X158681245Y-92105258D01*
X158690058Y-92100469D01*
X158697487Y-92094169D01*
X158705755Y-92082814D01*
X158713877Y-92065037D01*
X158721570Y-92038677D01*
X158728115Y-92009685D01*
X158736264Y-91981284D01*
X158746138Y-91958477D01*
X158757491Y-91940385D01*
X158770223Y-91926277D01*
X158785001Y-91915069D01*
X158802493Y-91906833D01*
X158823228Y-91901626D01*
X158847892Y-91899776D01*
X158877660Y-91902332D01*
X158901088Y-91909351D01*
X158921348Y-91920829D01*
X158937309Y-91935582D01*
X158949939Y-91954110D01*
X158959495Y-91977081D01*
X158965693Y-92005432D01*
X158967937Y-92040314D01*
G37*
G36*
X158799695Y-91562885D02*
G01*
X158835765Y-91568898D01*
X158865592Y-91578159D01*
X158890144Y-91590264D01*
X158910223Y-91605024D01*
X158927233Y-91623485D01*
X158940852Y-91645762D01*
X158951085Y-91672489D01*
X158957649Y-91704508D01*
X158960000Y-91742826D01*
X158960000Y-91825673D01*
X158551748Y-91825673D01*
X158551748Y-91743925D01*
X158597152Y-91743925D01*
X158597152Y-91770181D01*
X158914619Y-91770181D01*
X158914619Y-91743925D01*
X158911978Y-91708436D01*
X158904879Y-91681551D01*
X158894180Y-91661400D01*
X158880157Y-91646570D01*
X158862802Y-91635945D01*
X158837873Y-91627274D01*
X158803084Y-91621261D01*
X158755739Y-91618970D01*
X158708200Y-91621248D01*
X158673380Y-91627217D01*
X158648531Y-91635805D01*
X158631322Y-91646301D01*
X158620901Y-91656532D01*
X158612296Y-91669288D01*
X158605505Y-91684989D01*
X158599390Y-91711064D01*
X158597152Y-91743925D01*
X158551748Y-91743925D01*
X158551748Y-91742826D01*
X158554098Y-91704508D01*
X158560662Y-91672489D01*
X158570895Y-91645762D01*
X158584514Y-91623485D01*
X158601524Y-91605024D01*
X158621589Y-91590289D01*
X158646194Y-91578188D01*
X158676160Y-91568918D01*
X158712477Y-91562891D01*
X158756277Y-91560718D01*
X158799695Y-91562885D01*
G37*
G36*
X158960000Y-90949891D02*
G01*
X158921434Y-90954801D01*
X158938382Y-90966978D01*
X158951175Y-90981075D01*
X158960310Y-90997291D01*
X158965958Y-91016045D01*
X158967937Y-91037941D01*
X158966229Y-91059794D01*
X158961402Y-91078280D01*
X158953722Y-91093995D01*
X158943184Y-91108087D01*
X158930570Y-91120115D01*
X158915694Y-91130216D01*
X158890877Y-91141784D01*
X158863060Y-91149780D01*
X158834087Y-91154288D01*
X158804954Y-91155788D01*
X158768002Y-91153497D01*
X158736966Y-91147084D01*
X158710905Y-91137058D01*
X158689036Y-91123670D01*
X158670224Y-91106018D01*
X158657101Y-91086027D01*
X158649133Y-91063225D01*
X158646367Y-91036842D01*
X158647266Y-91028904D01*
X158689012Y-91028904D01*
X158690385Y-91044604D01*
X158694205Y-91057307D01*
X158700223Y-91067616D01*
X158713015Y-91080377D01*
X158729361Y-91089745D01*
X158747769Y-91096031D01*
X158767780Y-91100003D01*
X158806884Y-91102739D01*
X158846109Y-91100003D01*
X158866230Y-91096028D01*
X158884675Y-91089745D01*
X158901029Y-91080385D01*
X158913935Y-91067616D01*
X158920022Y-91057298D01*
X158923882Y-91044595D01*
X158925268Y-91028904D01*
X158923901Y-91013403D01*
X158920086Y-91000790D01*
X158914057Y-90990484D01*
X158901277Y-90977644D01*
X158884944Y-90968063D01*
X158866507Y-90961577D01*
X158846402Y-90957536D01*
X158806884Y-90954801D01*
X158767780Y-90957536D01*
X158747782Y-90961573D01*
X158729361Y-90968063D01*
X158713007Y-90977645D01*
X158700223Y-90990484D01*
X158694194Y-91000790D01*
X158690380Y-91013403D01*
X158689012Y-91028904D01*
X158647266Y-91028904D01*
X158649280Y-91011108D01*
X158657725Y-90988726D01*
X158666513Y-90975649D01*
X158678095Y-90964380D01*
X158692847Y-90954801D01*
X158534528Y-90954801D01*
X158534528Y-90904487D01*
X158960000Y-90904487D01*
X158960000Y-90949891D01*
G37*
G36*
X158960000Y-90596618D02*
G01*
X158937163Y-90604019D01*
X158913520Y-90608391D01*
X158930440Y-90620596D01*
X158944020Y-90635402D01*
X158954553Y-90653087D01*
X158961994Y-90672505D01*
X158966442Y-90692537D01*
X158967937Y-90713391D01*
X158966226Y-90735269D01*
X158961315Y-90754462D01*
X158953378Y-90771428D01*
X158942365Y-90786517D01*
X158928667Y-90798801D01*
X158912267Y-90807734D01*
X158892613Y-90813360D01*
X158868946Y-90815362D01*
X158843170Y-90812989D01*
X158822930Y-90806456D01*
X158807030Y-90796238D01*
X158793784Y-90782352D01*
X158783366Y-90765811D01*
X158775718Y-90746193D01*
X158768987Y-90714606D01*
X158766681Y-90680296D01*
X158766681Y-90676461D01*
X158806053Y-90676461D01*
X158807255Y-90697596D01*
X158810840Y-90718178D01*
X158817901Y-90736989D01*
X158829036Y-90751810D01*
X158838764Y-90758875D01*
X158851490Y-90763395D01*
X158868115Y-90765048D01*
X158886616Y-90762874D01*
X158900711Y-90756881D01*
X158911468Y-90747292D01*
X158919235Y-90734722D01*
X158924098Y-90719540D01*
X158925830Y-90701081D01*
X158923979Y-90680815D01*
X158918786Y-90664155D01*
X158910516Y-90650376D01*
X158899342Y-90638579D01*
X158886086Y-90629085D01*
X158870460Y-90621800D01*
X158845022Y-90615064D01*
X158817264Y-90612763D01*
X158806053Y-90612763D01*
X158806053Y-90676461D01*
X158766681Y-90676461D01*
X158766681Y-90612763D01*
X158758743Y-90612763D01*
X158733495Y-90615375D01*
X158716072Y-90622226D01*
X158704326Y-90632595D01*
X158696220Y-90646612D01*
X158690948Y-90664780D01*
X158689012Y-90688234D01*
X158690930Y-90715854D01*
X158696681Y-90742920D01*
X158705877Y-90768921D01*
X158718004Y-90792941D01*
X158667690Y-90792941D01*
X158659212Y-90767601D01*
X158652400Y-90742090D01*
X158647881Y-90716168D01*
X158646367Y-90689602D01*
X158648255Y-90662573D01*
X158653890Y-90636406D01*
X158663890Y-90612159D01*
X158678510Y-90591709D01*
X158690898Y-90580725D01*
X158705992Y-90572332D01*
X158724305Y-90566552D01*
X158747092Y-90563468D01*
X158785268Y-90562180D01*
X158847892Y-90562180D01*
X158904776Y-90559298D01*
X158934784Y-90554392D01*
X158960000Y-90546036D01*
X158960000Y-90596618D01*
G37*
G36*
X158961099Y-90295027D02*
G01*
X158959310Y-90323982D01*
X158954520Y-90346015D01*
X158947388Y-90362551D01*
X158938262Y-90374748D01*
X158926267Y-90384131D01*
X158910052Y-90391422D01*
X158888495Y-90396303D01*
X158860202Y-90398122D01*
X158692847Y-90398122D01*
X158692847Y-90479870D01*
X158653743Y-90479870D01*
X158653743Y-90398122D01*
X158573632Y-90398122D01*
X158551748Y-90347808D01*
X158653743Y-90347808D01*
X158653743Y-90233503D01*
X158692847Y-90233503D01*
X158692847Y-90347808D01*
X158860202Y-90347808D01*
X158882364Y-90346045D01*
X158897438Y-90341513D01*
X158907365Y-90334961D01*
X158914326Y-90325411D01*
X158919066Y-90311065D01*
X158920896Y-90290118D01*
X158920896Y-90233503D01*
X158961099Y-90233503D01*
X158961099Y-90295027D01*
G37*
G36*
X158960000Y-89922899D02*
G01*
X158937163Y-89930300D01*
X158913520Y-89934672D01*
X158930440Y-89946877D01*
X158944020Y-89961683D01*
X158954553Y-89979368D01*
X158961994Y-89998786D01*
X158966442Y-90018817D01*
X158967937Y-90039672D01*
X158966226Y-90061549D01*
X158961315Y-90080743D01*
X158953378Y-90097708D01*
X158942365Y-90112798D01*
X158928667Y-90125081D01*
X158912267Y-90134014D01*
X158892613Y-90139640D01*
X158868946Y-90141643D01*
X158843170Y-90139269D01*
X158822930Y-90132737D01*
X158807030Y-90122519D01*
X158793784Y-90108632D01*
X158783366Y-90092091D01*
X158775718Y-90072473D01*
X158768987Y-90040887D01*
X158766681Y-90006577D01*
X158766681Y-90002742D01*
X158806053Y-90002742D01*
X158807255Y-90023876D01*
X158810840Y-90044459D01*
X158817901Y-90063269D01*
X158829036Y-90078091D01*
X158838764Y-90085156D01*
X158851490Y-90089675D01*
X158868115Y-90091329D01*
X158886616Y-90089154D01*
X158900711Y-90083161D01*
X158911468Y-90073572D01*
X158919235Y-90061002D01*
X158924098Y-90045821D01*
X158925830Y-90027362D01*
X158923979Y-90007096D01*
X158918786Y-89990435D01*
X158910516Y-89976657D01*
X158899342Y-89964859D01*
X158886086Y-89955365D01*
X158870460Y-89948080D01*
X158845022Y-89941344D01*
X158817264Y-89939043D01*
X158806053Y-89939043D01*
X158806053Y-90002742D01*
X158766681Y-90002742D01*
X158766681Y-89939043D01*
X158758743Y-89939043D01*
X158733495Y-89941655D01*
X158716072Y-89948507D01*
X158704326Y-89958876D01*
X158696220Y-89972892D01*
X158690948Y-89991061D01*
X158689012Y-90014515D01*
X158690930Y-90042135D01*
X158696681Y-90069200D01*
X158705877Y-90095202D01*
X158718004Y-90119221D01*
X158667690Y-90119221D01*
X158659212Y-90093881D01*
X158652400Y-90068370D01*
X158647881Y-90042448D01*
X158646367Y-90015882D01*
X158648255Y-89988854D01*
X158653890Y-89962686D01*
X158663890Y-89938439D01*
X158678510Y-89917990D01*
X158690898Y-89907006D01*
X158705992Y-89898613D01*
X158724305Y-89892833D01*
X158747092Y-89889748D01*
X158785268Y-89888461D01*
X158847892Y-89888461D01*
X158904776Y-89885579D01*
X158934784Y-89880672D01*
X158960000Y-89872316D01*
X158960000Y-89922899D01*
G37*
G36*
X159639937Y-92038946D02*
G01*
X159638060Y-92067841D01*
X159631952Y-92101829D01*
X159620789Y-92141748D01*
X159568838Y-92141748D01*
X159585769Y-92102563D01*
X159594987Y-92068800D01*
X159597830Y-92039483D01*
X159596162Y-92018517D01*
X159591565Y-92001756D01*
X159584421Y-91988363D01*
X159574302Y-91977587D01*
X159562555Y-91971348D01*
X159548591Y-91969214D01*
X159536457Y-91971004D01*
X159526192Y-91976231D01*
X159517303Y-91985212D01*
X159507289Y-92004007D01*
X159498008Y-92036210D01*
X159493636Y-92057264D01*
X159485864Y-92085391D01*
X159476122Y-92105955D01*
X159464791Y-92120572D01*
X159450244Y-92131479D01*
X159432291Y-92138255D01*
X159409958Y-92140673D01*
X159388433Y-92138639D01*
X159370382Y-92132878D01*
X159355110Y-92123600D01*
X159342157Y-92110607D01*
X159332335Y-92095150D01*
X159324906Y-92076221D01*
X159320101Y-92053119D01*
X159318367Y-92025000D01*
X159320371Y-91993989D01*
X159326364Y-91963719D01*
X159336417Y-91933946D01*
X159385632Y-91933946D01*
X159371513Y-91963373D01*
X159363227Y-91993124D01*
X159360475Y-92023632D01*
X159362874Y-92050633D01*
X159369042Y-92068734D01*
X159378042Y-92080445D01*
X159389899Y-92087348D01*
X159405586Y-92089797D01*
X159419363Y-92088226D01*
X159428985Y-92084057D01*
X159436412Y-92076449D01*
X159443468Y-92062198D01*
X159448983Y-92044048D01*
X159455632Y-92014619D01*
X159459466Y-91994371D01*
X159466596Y-91969443D01*
X159476376Y-91950585D01*
X159488536Y-91936601D01*
X159503194Y-91926693D01*
X159520849Y-91920544D01*
X159542314Y-91918363D01*
X159564411Y-91920503D01*
X159583302Y-91926620D01*
X159599633Y-91936570D01*
X159613828Y-91950628D01*
X159624749Y-91967280D01*
X159632890Y-91987123D01*
X159638084Y-92010763D01*
X159639937Y-92038946D01*
G37*
G36*
X159490900Y-91776727D02*
G01*
X159492537Y-91776727D01*
X159516398Y-91774983D01*
X159536690Y-91770054D01*
X159554012Y-91762230D01*
X159568838Y-91751570D01*
X159580851Y-91738102D01*
X159589663Y-91721671D01*
X159595261Y-91701651D01*
X159597268Y-91677198D01*
X159595009Y-91649178D01*
X159588256Y-91622121D01*
X159578259Y-91595879D01*
X159566371Y-91570561D01*
X159616417Y-91570561D01*
X159626033Y-91596793D01*
X159633489Y-91623220D01*
X159638319Y-91650122D01*
X159639937Y-91677759D01*
X159638053Y-91706221D01*
X159632677Y-91731073D01*
X159624089Y-91752862D01*
X159612372Y-91772033D01*
X159597415Y-91788914D01*
X159575088Y-91806026D01*
X159548842Y-91818552D01*
X159517917Y-91826443D01*
X159481326Y-91829239D01*
X159451228Y-91827381D01*
X159423835Y-91821991D01*
X159398772Y-91813241D01*
X159375610Y-91800691D01*
X159356192Y-91784894D01*
X159340105Y-91765662D01*
X159328312Y-91743661D01*
X159320959Y-91717925D01*
X159318367Y-91687602D01*
X159318539Y-91685673D01*
X159361012Y-91685673D01*
X159362479Y-91703922D01*
X159366617Y-91719290D01*
X159373200Y-91732299D01*
X159387387Y-91748923D01*
X159405879Y-91761559D01*
X159427276Y-91770062D01*
X159451528Y-91774822D01*
X159451528Y-91609127D01*
X159426906Y-91611111D01*
X159405611Y-91616772D01*
X159387099Y-91626799D01*
X159373053Y-91641245D01*
X159366611Y-91653040D01*
X159362496Y-91667622D01*
X159361012Y-91685673D01*
X159318539Y-91685673D01*
X159321046Y-91657476D01*
X159328620Y-91632170D01*
X159340758Y-91610759D01*
X159357617Y-91592592D01*
X159377979Y-91578439D01*
X159402330Y-91567918D01*
X159431449Y-91561209D01*
X159466305Y-91558813D01*
X159490900Y-91558813D01*
X159490900Y-91776727D01*
G37*
G36*
X159634198Y-91301796D02*
G01*
X159632212Y-91323970D01*
X159626596Y-91342580D01*
X159617595Y-91358313D01*
X159605084Y-91371650D01*
X159589994Y-91381961D01*
X159571753Y-91389673D01*
X159549734Y-91394618D01*
X159523165Y-91396392D01*
X159245900Y-91396392D01*
X159245900Y-91477065D01*
X159206528Y-91477065D01*
X159206528Y-91346078D01*
X159523165Y-91346078D01*
X159545144Y-91344446D01*
X159561703Y-91340072D01*
X159574041Y-91333499D01*
X159583670Y-91323959D01*
X159589474Y-91312006D01*
X159591528Y-91296863D01*
X159591528Y-91238073D01*
X159634198Y-91238073D01*
X159634198Y-91301796D01*
G37*
G36*
X159490900Y-91103007D02*
G01*
X159492537Y-91103007D01*
X159516398Y-91101263D01*
X159536690Y-91096334D01*
X159554012Y-91088511D01*
X159568838Y-91077850D01*
X159580851Y-91064383D01*
X159589663Y-91047951D01*
X159595261Y-91027932D01*
X159597268Y-91003478D01*
X159595009Y-90975459D01*
X159588256Y-90948401D01*
X159578259Y-90922159D01*
X159566371Y-90896842D01*
X159616417Y-90896842D01*
X159626033Y-90923074D01*
X159633489Y-90949501D01*
X159638319Y-90976403D01*
X159639937Y-91004040D01*
X159638053Y-91032501D01*
X159632677Y-91057354D01*
X159624089Y-91079142D01*
X159612372Y-91098313D01*
X159597415Y-91115195D01*
X159575088Y-91132306D01*
X159548842Y-91144833D01*
X159517917Y-91152723D01*
X159481326Y-91155519D01*
X159451228Y-91153661D01*
X159423835Y-91148271D01*
X159398772Y-91139521D01*
X159375610Y-91126971D01*
X159356192Y-91111174D01*
X159340105Y-91091943D01*
X159328312Y-91069941D01*
X159320959Y-91044206D01*
X159318367Y-91013883D01*
X159318539Y-91011953D01*
X159361012Y-91011953D01*
X159362479Y-91030203D01*
X159366617Y-91045571D01*
X159373200Y-91058579D01*
X159387387Y-91075204D01*
X159405879Y-91087840D01*
X159427276Y-91096342D01*
X159451528Y-91101102D01*
X159451528Y-90935408D01*
X159426906Y-90937391D01*
X159405611Y-90943053D01*
X159387099Y-90953079D01*
X159373053Y-90967526D01*
X159366611Y-90979321D01*
X159362496Y-90993902D01*
X159361012Y-91011953D01*
X159318539Y-91011953D01*
X159321046Y-90983757D01*
X159328620Y-90958451D01*
X159340758Y-90937039D01*
X159357617Y-90918872D01*
X159377979Y-90904720D01*
X159402330Y-90894198D01*
X159431449Y-90887490D01*
X159466305Y-90885094D01*
X159490900Y-90885094D01*
X159490900Y-91103007D01*
G37*
G36*
X159639937Y-90659780D02*
G01*
X159637486Y-90691503D01*
X159630566Y-90718335D01*
X159619568Y-90741137D01*
X159604253Y-90761265D01*
X159585477Y-90777775D01*
X159562830Y-90790914D01*
X159538059Y-90800054D01*
X159510332Y-90805739D01*
X159479152Y-90807718D01*
X159447798Y-90805716D01*
X159420039Y-90799978D01*
X159395353Y-90790767D01*
X159372790Y-90777555D01*
X159354051Y-90760959D01*
X159338737Y-90740722D01*
X159327750Y-90717821D01*
X159320824Y-90690777D01*
X159318367Y-90658705D01*
X159319906Y-90633978D01*
X159324254Y-90612763D01*
X159331446Y-90592394D01*
X159341888Y-90570924D01*
X159394644Y-90570924D01*
X159379354Y-90590878D01*
X159369219Y-90609905D01*
X159363146Y-90630334D01*
X159361012Y-90654309D01*
X159362983Y-90678478D01*
X159368421Y-90697799D01*
X159376888Y-90713244D01*
X159388606Y-90726491D01*
X159402709Y-90737020D01*
X159419533Y-90744972D01*
X159447311Y-90752158D01*
X159479152Y-90754668D01*
X159510750Y-90752130D01*
X159538625Y-90744825D01*
X159555558Y-90736806D01*
X159569706Y-90726279D01*
X159581417Y-90713122D01*
X159589876Y-90697759D01*
X159595303Y-90678572D01*
X159597268Y-90654602D01*
X159595251Y-90631130D01*
X159589355Y-90609759D01*
X159579273Y-90589931D01*
X159564198Y-90570924D01*
X159616417Y-90570924D01*
X159629362Y-90597846D01*
X159637235Y-90627273D01*
X159639937Y-90659780D01*
G37*
G36*
X159633099Y-90295027D02*
G01*
X159631310Y-90323982D01*
X159626520Y-90346015D01*
X159619388Y-90362551D01*
X159610262Y-90374748D01*
X159598267Y-90384131D01*
X159582052Y-90391422D01*
X159560495Y-90396303D01*
X159532202Y-90398122D01*
X159364847Y-90398122D01*
X159364847Y-90479870D01*
X159325743Y-90479870D01*
X159325743Y-90398122D01*
X159245632Y-90398122D01*
X159223748Y-90347808D01*
X159325743Y-90347808D01*
X159325743Y-90233503D01*
X159364847Y-90233503D01*
X159364847Y-90347808D01*
X159532202Y-90347808D01*
X159554364Y-90346045D01*
X159569438Y-90341513D01*
X159579365Y-90334961D01*
X159586326Y-90325411D01*
X159591066Y-90311065D01*
X159592896Y-90290118D01*
X159592896Y-90233503D01*
X159633099Y-90233503D01*
X159633099Y-90295027D01*
G37*
G36*
X181135520Y-98976165D02*
G01*
X181135520Y-98890314D01*
X180842673Y-98890314D01*
X180916776Y-98955380D01*
X180880115Y-98985471D01*
X180773748Y-98890851D01*
X180773748Y-98835628D01*
X181135520Y-98835628D01*
X181135520Y-98750851D01*
X181182000Y-98750851D01*
X181182000Y-98976165D01*
X181135520Y-98976165D01*
G37*
G36*
X181083956Y-98414716D02*
G01*
X181111661Y-98421303D01*
X181134599Y-98431606D01*
X181153570Y-98445450D01*
X181169030Y-98463105D01*
X181180300Y-98484241D01*
X181187407Y-98509565D01*
X181189937Y-98540045D01*
X181188310Y-98564753D01*
X181183767Y-98585305D01*
X181176675Y-98602400D01*
X181166609Y-98617931D01*
X181153972Y-98631554D01*
X181138524Y-98643408D01*
X181120060Y-98653532D01*
X181098341Y-98662020D01*
X181072896Y-98668712D01*
X181032621Y-98674632D01*
X180984041Y-98676772D01*
X180937584Y-98674792D01*
X180899026Y-98669310D01*
X180867229Y-98660915D01*
X180841175Y-98650049D01*
X180819983Y-98636985D01*
X180800793Y-98619785D01*
X180786032Y-98600135D01*
X180775347Y-98577711D01*
X180768701Y-98551989D01*
X180766371Y-98522288D01*
X180767471Y-98500551D01*
X180770475Y-98481256D01*
X180775946Y-98460642D01*
X180782785Y-98442152D01*
X180833636Y-98442152D01*
X180824526Y-98460130D01*
X180818053Y-98478813D01*
X180814096Y-98498768D01*
X180812851Y-98518722D01*
X180815502Y-98544608D01*
X180822997Y-98566019D01*
X180835105Y-98583901D01*
X180852223Y-98598834D01*
X180872268Y-98609789D01*
X180897589Y-98618279D01*
X180929307Y-98623876D01*
X180968727Y-98625921D01*
X180951596Y-98615829D01*
X180937685Y-98603740D01*
X180926619Y-98589553D01*
X180918699Y-98573310D01*
X180913812Y-98554955D01*
X180912578Y-98539776D01*
X180955318Y-98539776D01*
X180957088Y-98558068D01*
X180962034Y-98572871D01*
X180970027Y-98585697D01*
X180980475Y-98596099D01*
X180993578Y-98604447D01*
X181010150Y-98611022D01*
X181028571Y-98614934D01*
X181051012Y-98616346D01*
X181073474Y-98614934D01*
X181091898Y-98611022D01*
X181108470Y-98604447D01*
X181121574Y-98596099D01*
X181132026Y-98585698D01*
X181140039Y-98572871D01*
X181144973Y-98558103D01*
X181146731Y-98540045D01*
X181145056Y-98522211D01*
X181140351Y-98507544D01*
X181132838Y-98495403D01*
X181122380Y-98485359D01*
X181105142Y-98475632D01*
X181081931Y-98469180D01*
X181051012Y-98466772D01*
X181019924Y-98469183D01*
X180996632Y-98475640D01*
X180979376Y-98485359D01*
X180968454Y-98496095D01*
X180961057Y-98508879D01*
X180956794Y-98523355D01*
X180955318Y-98539776D01*
X180912578Y-98539776D01*
X180912111Y-98534036D01*
X180914564Y-98506377D01*
X180921543Y-98482802D01*
X180932792Y-98462536D01*
X180948479Y-98445034D01*
X180967433Y-98431338D01*
X180990211Y-98421165D01*
X181017572Y-98414676D01*
X181050475Y-98412355D01*
X181083956Y-98414716D01*
G37*
G36*
X180773748Y-98352759D02*
G01*
X180773748Y-98278925D01*
X180981574Y-98208387D01*
X180773748Y-98137288D01*
X180773748Y-98063185D01*
X181182000Y-98063185D01*
X181182000Y-98114330D01*
X180821326Y-98114330D01*
X181036528Y-98187065D01*
X181036528Y-98228904D01*
X180821326Y-98301908D01*
X181182000Y-98301908D01*
X181182000Y-98352759D01*
X180773748Y-98352759D01*
G37*
G36*
X181097294Y-97731029D02*
G01*
X181119654Y-97738066D01*
X181138196Y-97749295D01*
X181153570Y-97764891D01*
X181165159Y-97783628D01*
X181174051Y-97807192D01*
X181179876Y-97836624D01*
X181182000Y-97873164D01*
X181182000Y-97994040D01*
X180773748Y-97994040D01*
X180773748Y-97874263D01*
X180819152Y-97874263D01*
X180819152Y-97938524D01*
X180942202Y-97938524D01*
X180942202Y-97874263D01*
X180942115Y-97873164D01*
X180987045Y-97873164D01*
X180987045Y-97938524D01*
X181136619Y-97938524D01*
X181136619Y-97873164D01*
X181134315Y-97841705D01*
X181128332Y-97819626D01*
X181119644Y-97804532D01*
X181106890Y-97793679D01*
X181089063Y-97786660D01*
X181064421Y-97784040D01*
X181038705Y-97786766D01*
X181019657Y-97794139D01*
X181005632Y-97805631D01*
X180995955Y-97821344D01*
X180989485Y-97843204D01*
X180987045Y-97873164D01*
X180942115Y-97873164D01*
X180940096Y-97847612D01*
X180934621Y-97828989D01*
X180926619Y-97816304D01*
X180915193Y-97806858D01*
X180899526Y-97800778D01*
X180878210Y-97798524D01*
X180857661Y-97800771D01*
X180843057Y-97806761D01*
X180832830Y-97816011D01*
X180825861Y-97828706D01*
X180821023Y-97847431D01*
X180819152Y-97874263D01*
X180773748Y-97874263D01*
X180773748Y-97873164D01*
X180775719Y-97841474D01*
X180781185Y-97815432D01*
X180789642Y-97794083D01*
X180800834Y-97776639D01*
X180815552Y-97761989D01*
X180832875Y-97751526D01*
X180853323Y-97745030D01*
X180877673Y-97742739D01*
X180896148Y-97743971D01*
X180911427Y-97747404D01*
X180925209Y-97753112D01*
X180936462Y-97760519D01*
X180945878Y-97770283D01*
X180953828Y-97782672D01*
X180959605Y-97796877D01*
X180963524Y-97814375D01*
X180970228Y-97788766D01*
X180981602Y-97768013D01*
X180997694Y-97751214D01*
X181017586Y-97738916D01*
X181041409Y-97731245D01*
X181070161Y-97728524D01*
X181097294Y-97731029D01*
G37*
G36*
X180914847Y-97238279D02*
G01*
X180914847Y-97320027D01*
X180875743Y-97320027D01*
X180875743Y-97238279D01*
X180854421Y-97238279D01*
X180828915Y-97236556D01*
X180808701Y-97231843D01*
X180792770Y-97224643D01*
X180780318Y-97215174D01*
X180770512Y-97202985D01*
X180763109Y-97187461D01*
X180758288Y-97167833D01*
X180756528Y-97143122D01*
X180756528Y-97082697D01*
X180798367Y-97082697D01*
X180798367Y-97139849D01*
X180799875Y-97157416D01*
X180803766Y-97169392D01*
X180809456Y-97177316D01*
X180817599Y-97182731D01*
X180830112Y-97186495D01*
X180848681Y-97187965D01*
X180875743Y-97187965D01*
X180875743Y-97082697D01*
X180914847Y-97082697D01*
X180914847Y-97187965D01*
X181182000Y-97187965D01*
X181182000Y-97238279D01*
X180914847Y-97238279D01*
G37*
G36*
X181184198Y-96804357D02*
G01*
X181182212Y-96826531D01*
X181176596Y-96845141D01*
X181167595Y-96860874D01*
X181155084Y-96874211D01*
X181139994Y-96884522D01*
X181121753Y-96892234D01*
X181099734Y-96897179D01*
X181073165Y-96898953D01*
X180795900Y-96898953D01*
X180795900Y-96979626D01*
X180756528Y-96979626D01*
X180756528Y-96848639D01*
X181073165Y-96848639D01*
X181095144Y-96847007D01*
X181111703Y-96842633D01*
X181124041Y-96836060D01*
X181133670Y-96826520D01*
X181139474Y-96814567D01*
X181141528Y-96799424D01*
X181141528Y-96740635D01*
X181184198Y-96740635D01*
X181184198Y-96804357D01*
G37*
G36*
X181182000Y-96436039D02*
G01*
X181159163Y-96443440D01*
X181135520Y-96447812D01*
X181152440Y-96460017D01*
X181166020Y-96474823D01*
X181176553Y-96492508D01*
X181183994Y-96511926D01*
X181188442Y-96531957D01*
X181189937Y-96552812D01*
X181188226Y-96574689D01*
X181183315Y-96593883D01*
X181175378Y-96610849D01*
X181164365Y-96625938D01*
X181150667Y-96638221D01*
X181134267Y-96647155D01*
X181114613Y-96652781D01*
X181090946Y-96654783D01*
X181065170Y-96652409D01*
X181044930Y-96645877D01*
X181029030Y-96635659D01*
X181015784Y-96621772D01*
X181005366Y-96605231D01*
X180997718Y-96585614D01*
X180990987Y-96554027D01*
X180988681Y-96519717D01*
X180988681Y-96515882D01*
X181028053Y-96515882D01*
X181029255Y-96537017D01*
X181032840Y-96557599D01*
X181039901Y-96576409D01*
X181051036Y-96591231D01*
X181060764Y-96598296D01*
X181073490Y-96602815D01*
X181090115Y-96604469D01*
X181108616Y-96602294D01*
X181122711Y-96596302D01*
X181133468Y-96586713D01*
X181141235Y-96574143D01*
X181146098Y-96558961D01*
X181147830Y-96540502D01*
X181145979Y-96520236D01*
X181140786Y-96503576D01*
X181132516Y-96489797D01*
X181121342Y-96477999D01*
X181108086Y-96468505D01*
X181092460Y-96461221D01*
X181067022Y-96454485D01*
X181039264Y-96452184D01*
X181028053Y-96452184D01*
X181028053Y-96515882D01*
X180988681Y-96515882D01*
X180988681Y-96452184D01*
X180980743Y-96452184D01*
X180955495Y-96454796D01*
X180938072Y-96461647D01*
X180926326Y-96472016D01*
X180918220Y-96486032D01*
X180912948Y-96504201D01*
X180911012Y-96527655D01*
X180912930Y-96555275D01*
X180918681Y-96582341D01*
X180927877Y-96608342D01*
X180940004Y-96632362D01*
X180889690Y-96632362D01*
X180881212Y-96607022D01*
X180874400Y-96581510D01*
X180869881Y-96555588D01*
X180868367Y-96529023D01*
X180870255Y-96501994D01*
X180875890Y-96475826D01*
X180885890Y-96451579D01*
X180900510Y-96431130D01*
X180912898Y-96420146D01*
X180927992Y-96411753D01*
X180946305Y-96405973D01*
X180969092Y-96402889D01*
X181007268Y-96401601D01*
X181069892Y-96401601D01*
X181126776Y-96398719D01*
X181156784Y-96393812D01*
X181182000Y-96385457D01*
X181182000Y-96436039D01*
G37*
G36*
X181189937Y-96194068D02*
G01*
X181188060Y-96222964D01*
X181181952Y-96256952D01*
X181170789Y-96296870D01*
X181118838Y-96296870D01*
X181135769Y-96257685D01*
X181144987Y-96223922D01*
X181147830Y-96194605D01*
X181146162Y-96173640D01*
X181141565Y-96156878D01*
X181134421Y-96143485D01*
X181124302Y-96132709D01*
X181112555Y-96126470D01*
X181098591Y-96124337D01*
X181086457Y-96126126D01*
X181076192Y-96131353D01*
X181067303Y-96140334D01*
X181057289Y-96159129D01*
X181048008Y-96191332D01*
X181043636Y-96212386D01*
X181035864Y-96240513D01*
X181026122Y-96261077D01*
X181014791Y-96275694D01*
X181000244Y-96286602D01*
X180982291Y-96293377D01*
X180959958Y-96295795D01*
X180938433Y-96293761D01*
X180920382Y-96288000D01*
X180905110Y-96278722D01*
X180892157Y-96265729D01*
X180882335Y-96250272D01*
X180874906Y-96231344D01*
X180870101Y-96208242D01*
X180868367Y-96180122D01*
X180870371Y-96149111D01*
X180876364Y-96118841D01*
X180886417Y-96089068D01*
X180935632Y-96089068D01*
X180921513Y-96118495D01*
X180913227Y-96148247D01*
X180910475Y-96178754D01*
X180912874Y-96205755D01*
X180919042Y-96223857D01*
X180928042Y-96235567D01*
X180939899Y-96242471D01*
X180955586Y-96244919D01*
X180969363Y-96243348D01*
X180978985Y-96239180D01*
X180986412Y-96231571D01*
X180993468Y-96217320D01*
X180998983Y-96199170D01*
X181005632Y-96169741D01*
X181009466Y-96149494D01*
X181016596Y-96124565D01*
X181026376Y-96105707D01*
X181038536Y-96091723D01*
X181053194Y-96081815D01*
X181070849Y-96075666D01*
X181092314Y-96073485D01*
X181114411Y-96075625D01*
X181133302Y-96081742D01*
X181149633Y-96091692D01*
X181163828Y-96105750D01*
X181174749Y-96122403D01*
X181182890Y-96142245D01*
X181188084Y-96165885D01*
X181189937Y-96194068D01*
G37*
G36*
X180756528Y-95964944D02*
G01*
X180756528Y-95914630D01*
X180921685Y-95914630D01*
X180902234Y-95901960D01*
X180887597Y-95886933D01*
X180877140Y-95869333D01*
X180870653Y-95848646D01*
X180868367Y-95824113D01*
X180870578Y-95799529D01*
X180876591Y-95780687D01*
X180885879Y-95766301D01*
X180898557Y-95754411D01*
X180913640Y-95745180D01*
X180931528Y-95738555D01*
X180960376Y-95732855D01*
X180992223Y-95730886D01*
X181182000Y-95730886D01*
X181182000Y-95781468D01*
X180992223Y-95781468D01*
X180964921Y-95783414D01*
X180945312Y-95788513D01*
X180931528Y-95795976D01*
X180921032Y-95806983D01*
X180914490Y-95821614D01*
X180912111Y-95841064D01*
X180913854Y-95859537D01*
X180918660Y-95874069D01*
X180926204Y-95885516D01*
X180942111Y-95899043D01*
X180962425Y-95908084D01*
X180984976Y-95912973D01*
X181008905Y-95914630D01*
X181182000Y-95914630D01*
X181182000Y-95964944D01*
X180756528Y-95964944D01*
G37*
G36*
X181476197Y-93452400D02*
G01*
X181256930Y-93400174D01*
X181298880Y-93358224D01*
X181471154Y-93403663D01*
X181426872Y-93230232D01*
X181468840Y-93188264D01*
X181518165Y-93410433D01*
X181763700Y-93470759D01*
X181721750Y-93512709D01*
X181526644Y-93459153D01*
X181574605Y-93659855D01*
X181532465Y-93701995D01*
X181476197Y-93452400D01*
G37*
G36*
X181786515Y-93382213D02*
G01*
X181847221Y-93321507D01*
X181640147Y-93114433D01*
X181646537Y-93212840D01*
X181599336Y-93208195D01*
X181591029Y-93066075D01*
X181630078Y-93027026D01*
X181885890Y-93282838D01*
X181945836Y-93222892D01*
X181978702Y-93255758D01*
X181819381Y-93415079D01*
X181786515Y-93382213D01*
G37*
G36*
X180476786Y-104909995D02*
G01*
X180504780Y-104916220D01*
X180527611Y-104925856D01*
X180546169Y-104938644D01*
X180562013Y-104956510D01*
X180572962Y-104977894D01*
X180579231Y-105001938D01*
X180581438Y-105029991D01*
X180578972Y-105059861D01*
X180572090Y-105084354D01*
X180561243Y-105104498D01*
X180546438Y-105121045D01*
X180528418Y-105133746D01*
X180505806Y-105143383D01*
X180477591Y-105149659D01*
X180442537Y-105151942D01*
X180378545Y-105151942D01*
X180378545Y-105316000D01*
X180323322Y-105316000D01*
X180323322Y-105106537D01*
X180378545Y-105106537D01*
X180442537Y-105106537D01*
X180462195Y-105105080D01*
X180477781Y-105101090D01*
X180491560Y-105094522D01*
X180502425Y-105086314D01*
X180513978Y-105071548D01*
X180521169Y-105053051D01*
X180523747Y-105029722D01*
X180521155Y-105006186D01*
X180513952Y-104987701D01*
X180502425Y-104973107D01*
X180487384Y-104962449D01*
X180467861Y-104955639D01*
X180442537Y-104953152D01*
X180378545Y-104953152D01*
X180378545Y-105106537D01*
X180323322Y-105106537D01*
X180323322Y-104907748D01*
X180442537Y-104907748D01*
X180476786Y-104909995D01*
G37*
G36*
X180800135Y-104909962D02*
G01*
X180828003Y-104916090D01*
X180850687Y-104925560D01*
X180869082Y-104938107D01*
X180884449Y-104954601D01*
X180895522Y-104974101D01*
X180902440Y-104997210D01*
X180904888Y-105024789D01*
X180903439Y-105045609D01*
X180899417Y-105062671D01*
X180892581Y-105078111D01*
X180883029Y-105091785D01*
X180867056Y-105106330D01*
X180846709Y-105116851D01*
X180820942Y-105123219D01*
X180841331Y-105131208D01*
X180857310Y-105143735D01*
X180864824Y-105152663D01*
X180873869Y-105166034D01*
X180894777Y-105204429D01*
X180950293Y-105316000D01*
X180890942Y-105316000D01*
X180842289Y-105212905D01*
X180831412Y-105191467D01*
X180822188Y-105176268D01*
X180812496Y-105163593D01*
X180804553Y-105156045D01*
X180795468Y-105150420D01*
X180784721Y-105146471D01*
X180773124Y-105144234D01*
X180760516Y-105143466D01*
X180707760Y-105143466D01*
X180707760Y-105316000D01*
X180652244Y-105316000D01*
X180652244Y-105098062D01*
X180707760Y-105098062D01*
X180768186Y-105098062D01*
X180794056Y-105095770D01*
X180813209Y-105089633D01*
X180827244Y-105080305D01*
X180837602Y-105067192D01*
X180844226Y-105049695D01*
X180846661Y-105026425D01*
X180844146Y-105003426D01*
X180837199Y-104985599D01*
X180826144Y-104971739D01*
X180815308Y-104964104D01*
X180801403Y-104958086D01*
X180785715Y-104954473D01*
X180765987Y-104953152D01*
X180707760Y-104953152D01*
X180707760Y-105098062D01*
X180652244Y-105098062D01*
X180652244Y-104907748D01*
X180765987Y-104907748D01*
X180800135Y-104909962D01*
G37*
G36*
X181140565Y-104901847D02*
G01*
X181160312Y-104906094D01*
X181178025Y-104912950D01*
X181194149Y-104922782D01*
X181208605Y-104935956D01*
X181221525Y-104952884D01*
X181234932Y-104979198D01*
X181245496Y-105013316D01*
X181252553Y-105057001D01*
X181255157Y-105112277D01*
X181252556Y-105167414D01*
X181245502Y-105211021D01*
X181234939Y-105245108D01*
X181221525Y-105271425D01*
X181208605Y-105288353D01*
X181194149Y-105301527D01*
X181178025Y-105311359D01*
X181160312Y-105318215D01*
X181140565Y-105322462D01*
X181118430Y-105323937D01*
X181091102Y-105321661D01*
X181067785Y-105315195D01*
X181047752Y-105304821D01*
X181030466Y-105290464D01*
X181015628Y-105271694D01*
X181002237Y-105245513D01*
X180991672Y-105211459D01*
X180984606Y-105167734D01*
X180981996Y-105112277D01*
X181039686Y-105112277D01*
X181041207Y-105159076D01*
X181045251Y-105194719D01*
X181051125Y-105221260D01*
X181058273Y-105240528D01*
X181069344Y-105257792D01*
X181082746Y-105269535D01*
X181098829Y-105276613D01*
X181118430Y-105279094D01*
X181138483Y-105276588D01*
X181154780Y-105269472D01*
X181168209Y-105257727D01*
X181179149Y-105240528D01*
X181186106Y-105222198D01*
X181191900Y-105196164D01*
X181195935Y-105160318D01*
X181197467Y-105112277D01*
X181195939Y-105064270D01*
X181191908Y-105028375D01*
X181186115Y-105002239D01*
X181179149Y-104983780D01*
X181168209Y-104966582D01*
X181154780Y-104954837D01*
X181138483Y-104947721D01*
X181118430Y-104945214D01*
X181098829Y-104947696D01*
X181082746Y-104954774D01*
X181069344Y-104966516D01*
X181058273Y-104983780D01*
X181051129Y-105003047D01*
X181045254Y-105029619D01*
X181041208Y-105065338D01*
X181039686Y-105112277D01*
X180981996Y-105112277D01*
X180984631Y-105056683D01*
X180991759Y-105012941D01*
X181002407Y-104978950D01*
X181015897Y-104952884D01*
X181030962Y-104933948D01*
X181048358Y-104919504D01*
X181068366Y-104909102D01*
X181091492Y-104902639D01*
X181118430Y-104900371D01*
X181140565Y-104901847D01*
G37*
G36*
X181478273Y-105323937D02*
G01*
X181452517Y-105322268D01*
X181429547Y-105317464D01*
X181408957Y-105309722D01*
X181389892Y-105298815D01*
X181372861Y-105285030D01*
X181357690Y-105268152D01*
X181343094Y-105245596D01*
X181331290Y-105219361D01*
X181322413Y-105188895D01*
X181316756Y-105153545D01*
X181314752Y-105112570D01*
X181316818Y-105070715D01*
X181322632Y-105034868D01*
X181331722Y-105004215D01*
X181343774Y-104978040D01*
X181358643Y-104955741D01*
X181377501Y-104935812D01*
X181398591Y-104920533D01*
X181422211Y-104909532D01*
X181448835Y-104902736D01*
X181479079Y-104900371D01*
X181505320Y-104902186D01*
X181529393Y-104907479D01*
X181552715Y-104916823D01*
X181574798Y-104929632D01*
X181574798Y-104986223D01*
X181551399Y-104967367D01*
X181529393Y-104955057D01*
X181504798Y-104947535D01*
X181479909Y-104945214D01*
X181454178Y-104947973D01*
X181432757Y-104955811D01*
X181414713Y-104968574D01*
X181399505Y-104986785D01*
X181388700Y-105007656D01*
X181380202Y-105034664D01*
X181374533Y-105069195D01*
X181372442Y-105112838D01*
X181374226Y-105154484D01*
X181379013Y-105186819D01*
X181387546Y-105215850D01*
X181398699Y-105238062D01*
X181413351Y-105255913D01*
X181431153Y-105268515D01*
X181452716Y-105276323D01*
X181479079Y-105279094D01*
X181496535Y-105277941D01*
X181511075Y-105274722D01*
X181523922Y-105269374D01*
X181535963Y-105261582D01*
X181535963Y-105151942D01*
X181476636Y-105151942D01*
X181476636Y-105106537D01*
X181588744Y-105106537D01*
X181588744Y-105282367D01*
X181564946Y-105300572D01*
X181538967Y-105313264D01*
X181510195Y-105321207D01*
X181478273Y-105323937D01*
G37*
G36*
X177499264Y-105523937D02*
G01*
X177473508Y-105522268D01*
X177450538Y-105517464D01*
X177429947Y-105509722D01*
X177410882Y-105498815D01*
X177393852Y-105485030D01*
X177378681Y-105468152D01*
X177364085Y-105445596D01*
X177352280Y-105419361D01*
X177343404Y-105388895D01*
X177337747Y-105353545D01*
X177335743Y-105312570D01*
X177337809Y-105270715D01*
X177343622Y-105234868D01*
X177352713Y-105204215D01*
X177364765Y-105178040D01*
X177379633Y-105155741D01*
X177398492Y-105135812D01*
X177419581Y-105120533D01*
X177443202Y-105109532D01*
X177469826Y-105102736D01*
X177500070Y-105100371D01*
X177526311Y-105102186D01*
X177550384Y-105107479D01*
X177573706Y-105116823D01*
X177595788Y-105129632D01*
X177595788Y-105186223D01*
X177572390Y-105167367D01*
X177550384Y-105155057D01*
X177525788Y-105147535D01*
X177500900Y-105145214D01*
X177475169Y-105147973D01*
X177453748Y-105155811D01*
X177435704Y-105168574D01*
X177420495Y-105186785D01*
X177409691Y-105207656D01*
X177401193Y-105234664D01*
X177395523Y-105269195D01*
X177393433Y-105312838D01*
X177395216Y-105354484D01*
X177400003Y-105386819D01*
X177408537Y-105415850D01*
X177419689Y-105438062D01*
X177434342Y-105455913D01*
X177452144Y-105468515D01*
X177473707Y-105476323D01*
X177500070Y-105479094D01*
X177517525Y-105477941D01*
X177532065Y-105474722D01*
X177544913Y-105469374D01*
X177556954Y-105461582D01*
X177556954Y-105351942D01*
X177497627Y-105351942D01*
X177497627Y-105306537D01*
X177609735Y-105306537D01*
X177609735Y-105482367D01*
X177585937Y-105500572D01*
X177559958Y-105513264D01*
X177531186Y-105521207D01*
X177499264Y-105523937D01*
G37*
G36*
X177845216Y-105109995D02*
G01*
X177873210Y-105116220D01*
X177896041Y-105125856D01*
X177914599Y-105138644D01*
X177930443Y-105156510D01*
X177941392Y-105177894D01*
X177947661Y-105201938D01*
X177949867Y-105229991D01*
X177947402Y-105259861D01*
X177940520Y-105284354D01*
X177929673Y-105304498D01*
X177914867Y-105321045D01*
X177896848Y-105333746D01*
X177874235Y-105343383D01*
X177846021Y-105349659D01*
X177810966Y-105351942D01*
X177746975Y-105351942D01*
X177746975Y-105516000D01*
X177691751Y-105516000D01*
X177691751Y-105306537D01*
X177746975Y-105306537D01*
X177810966Y-105306537D01*
X177830625Y-105305080D01*
X177846211Y-105301090D01*
X177859989Y-105294522D01*
X177870855Y-105286314D01*
X177882408Y-105271548D01*
X177889599Y-105253051D01*
X177892177Y-105229722D01*
X177889584Y-105206186D01*
X177882382Y-105187701D01*
X177870855Y-105173107D01*
X177855813Y-105162449D01*
X177836291Y-105155639D01*
X177810966Y-105153152D01*
X177746975Y-105153152D01*
X177746975Y-105306537D01*
X177691751Y-105306537D01*
X177691751Y-105107748D01*
X177810966Y-105107748D01*
X177845216Y-105109995D01*
G37*
G36*
X178036525Y-105469520D02*
G01*
X178122107Y-105469520D01*
X178122107Y-105154251D01*
X178036525Y-105154251D01*
X178036525Y-105107748D01*
X178263206Y-105107748D01*
X178263206Y-105154251D01*
X178177624Y-105154251D01*
X178177624Y-105469520D01*
X178263206Y-105469520D01*
X178263206Y-105516000D01*
X178036525Y-105516000D01*
X178036525Y-105469520D01*
G37*
G36*
X178508995Y-105101847D02*
G01*
X178528741Y-105106094D01*
X178546455Y-105112950D01*
X178562579Y-105122782D01*
X178577035Y-105135956D01*
X178589954Y-105152884D01*
X178603362Y-105179198D01*
X178613926Y-105213316D01*
X178620983Y-105257001D01*
X178623587Y-105312277D01*
X178620985Y-105367414D01*
X178613932Y-105411021D01*
X178603368Y-105445108D01*
X178589954Y-105471425D01*
X178577035Y-105488353D01*
X178562579Y-105501527D01*
X178546455Y-105511359D01*
X178528741Y-105518215D01*
X178508995Y-105522462D01*
X178486860Y-105523937D01*
X178459532Y-105521661D01*
X178436215Y-105515195D01*
X178416182Y-105504821D01*
X178398896Y-105490464D01*
X178384058Y-105471694D01*
X178370667Y-105445513D01*
X178360102Y-105411459D01*
X178353035Y-105367734D01*
X178350426Y-105312277D01*
X178408116Y-105312277D01*
X178409637Y-105359076D01*
X178413680Y-105394719D01*
X178419555Y-105421260D01*
X178426703Y-105440528D01*
X178437774Y-105457792D01*
X178451175Y-105469535D01*
X178467259Y-105476613D01*
X178486860Y-105479094D01*
X178506913Y-105476588D01*
X178523210Y-105469472D01*
X178536638Y-105457727D01*
X178547578Y-105440528D01*
X178554536Y-105422198D01*
X178560330Y-105396164D01*
X178564365Y-105360318D01*
X178565897Y-105312277D01*
X178564368Y-105264270D01*
X178560338Y-105228375D01*
X178554544Y-105202239D01*
X178547578Y-105183780D01*
X178536638Y-105166582D01*
X178523210Y-105154837D01*
X178506913Y-105147721D01*
X178486860Y-105145214D01*
X178467259Y-105147696D01*
X178451175Y-105154774D01*
X178437774Y-105166516D01*
X178426703Y-105183780D01*
X178419559Y-105203047D01*
X178413684Y-105229619D01*
X178409638Y-105265338D01*
X178408116Y-105312277D01*
X178350426Y-105312277D01*
X178353060Y-105256683D01*
X178360188Y-105212941D01*
X178370837Y-105178950D01*
X178384326Y-105152884D01*
X178399392Y-105133948D01*
X178416788Y-105119504D01*
X178436795Y-105109102D01*
X178459921Y-105102639D01*
X178486860Y-105100371D01*
X178508995Y-105101847D01*
G37*
G36*
X178729124Y-105469520D02*
G01*
X178814975Y-105469520D01*
X178814975Y-105176673D01*
X178749909Y-105250776D01*
X178719818Y-105214115D01*
X178814438Y-105107748D01*
X178869661Y-105107748D01*
X178869661Y-105469520D01*
X178954438Y-105469520D01*
X178954438Y-105516000D01*
X178729124Y-105516000D01*
X178729124Y-105469520D01*
G37*
G36*
X174849106Y-105373937D02*
G01*
X174819962Y-105372367D01*
X174790855Y-105367636D01*
X174762047Y-105359991D01*
X174732627Y-105349318D01*
X174732627Y-105290528D01*
X174763709Y-105308046D01*
X174792222Y-105319789D01*
X174820132Y-105326782D01*
X174848276Y-105329094D01*
X174875606Y-105326761D01*
X174896969Y-105320375D01*
X174913635Y-105310483D01*
X174926322Y-105296596D01*
X174934106Y-105279029D01*
X174936887Y-105256628D01*
X174934934Y-105237751D01*
X174929543Y-105223028D01*
X174921012Y-105211516D01*
X174911327Y-105203431D01*
X174899005Y-105196739D01*
X174884758Y-105191529D01*
X174865251Y-105186359D01*
X174835698Y-105179520D01*
X174809125Y-105172244D01*
X174787435Y-105163937D01*
X174768227Y-105153257D01*
X174753143Y-105140685D01*
X174742156Y-105127105D01*
X174734179Y-105111273D01*
X174729187Y-105092751D01*
X174727425Y-105070954D01*
X174729896Y-105043777D01*
X174736949Y-105020506D01*
X174748363Y-105000389D01*
X174764354Y-104982905D01*
X174783330Y-104969247D01*
X174806315Y-104958847D01*
X174831811Y-104952591D01*
X174861954Y-104950371D01*
X174885924Y-104951641D01*
X174911462Y-104955574D01*
X174937962Y-104962266D01*
X174966148Y-104971694D01*
X174966148Y-105027748D01*
X174940575Y-105013411D01*
X174915834Y-105003421D01*
X174890253Y-104997242D01*
X174864958Y-104995214D01*
X174839481Y-104997477D01*
X174819195Y-105003731D01*
X174803018Y-105013533D01*
X174790427Y-105027140D01*
X174782860Y-105043610D01*
X174780206Y-105063847D01*
X174781276Y-105077137D01*
X174784162Y-105087245D01*
X174788951Y-105096058D01*
X174795251Y-105103487D01*
X174806606Y-105111755D01*
X174824383Y-105119877D01*
X174850743Y-105127570D01*
X174879735Y-105134115D01*
X174908136Y-105142264D01*
X174930943Y-105152138D01*
X174949035Y-105163491D01*
X174963143Y-105176223D01*
X174974351Y-105191001D01*
X174982587Y-105208493D01*
X174987794Y-105229228D01*
X174989644Y-105253892D01*
X174987088Y-105283660D01*
X174980069Y-105307088D01*
X174968591Y-105327348D01*
X174953838Y-105343309D01*
X174935310Y-105355939D01*
X174912339Y-105365495D01*
X174883988Y-105371693D01*
X174849106Y-105373937D01*
G37*
G36*
X175080136Y-104957748D02*
G01*
X175322425Y-104957748D01*
X175322425Y-105004251D01*
X175135384Y-105004251D01*
X175135384Y-105125103D01*
X175314218Y-105125103D01*
X175314218Y-105171582D01*
X175135384Y-105171582D01*
X175135384Y-105319520D01*
X175327603Y-105319520D01*
X175327603Y-105366000D01*
X175080136Y-105366000D01*
X175080136Y-104957748D01*
G37*
G36*
X175421929Y-104957748D02*
G01*
X175477446Y-104957748D01*
X175477446Y-105319520D01*
X175674574Y-105319520D01*
X175674574Y-105366000D01*
X175421929Y-105366000D01*
X175421929Y-104957748D01*
G37*
G36*
X175753855Y-104957748D02*
G01*
X175996144Y-104957748D01*
X175996144Y-105004251D01*
X175809103Y-105004251D01*
X175809103Y-105125103D01*
X175987938Y-105125103D01*
X175987938Y-105171582D01*
X175809103Y-105171582D01*
X175809103Y-105319520D01*
X176001322Y-105319520D01*
X176001322Y-105366000D01*
X175753855Y-105366000D01*
X175753855Y-104957748D01*
G37*
G36*
X176239752Y-105373937D02*
G01*
X176214529Y-105372348D01*
X176191623Y-105367740D01*
X176170705Y-105360260D01*
X176151325Y-105349622D01*
X176133838Y-105335767D01*
X176118070Y-105318421D01*
X176103383Y-105295856D01*
X176091506Y-105269594D01*
X176082574Y-105239080D01*
X176076881Y-105203655D01*
X176074864Y-105162570D01*
X176077259Y-105118368D01*
X176083996Y-105080624D01*
X176094550Y-105048411D01*
X176110042Y-105018550D01*
X176128924Y-104994566D01*
X176151287Y-104975675D01*
X176170305Y-104964795D01*
X176191173Y-104956916D01*
X176214198Y-104952053D01*
X176239752Y-104950371D01*
X176265543Y-104951739D01*
X176287453Y-104955574D01*
X176308424Y-104962347D01*
X176330268Y-104972793D01*
X176330268Y-105029408D01*
X176309283Y-105014484D01*
X176286793Y-105003958D01*
X176262856Y-104997361D01*
X176239483Y-104995214D01*
X176213752Y-104997978D01*
X176192388Y-105005820D01*
X176174444Y-105018581D01*
X176159372Y-105036785D01*
X176148657Y-105057646D01*
X176140236Y-105084577D01*
X176134622Y-105118934D01*
X176132554Y-105162277D01*
X176134950Y-105208374D01*
X176141426Y-105244368D01*
X176151108Y-105272105D01*
X176163420Y-105293168D01*
X176178137Y-105308808D01*
X176195414Y-105319866D01*
X176215768Y-105326690D01*
X176240021Y-105329094D01*
X176263392Y-105326942D01*
X176287330Y-105320326D01*
X176309394Y-105309687D01*
X176330268Y-105294900D01*
X176330268Y-105351516D01*
X176308430Y-105361448D01*
X176287062Y-105368466D01*
X176264645Y-105372529D01*
X176239752Y-105373937D01*
G37*
G36*
X176514818Y-105004251D02*
G01*
X176386566Y-105004251D01*
X176386566Y-104957748D01*
X176698025Y-104957748D01*
X176698025Y-105004251D01*
X176570310Y-105004251D01*
X176570310Y-105366000D01*
X176514818Y-105366000D01*
X176514818Y-105004251D01*
G37*
G36*
X168232077Y-82054394D02*
G01*
X168271333Y-82015138D01*
X168527144Y-82270949D01*
X168666535Y-82131558D01*
X168699401Y-82164424D01*
X168520754Y-82343071D01*
X168232077Y-82054394D01*
G37*
G36*
X168736723Y-82061371D02*
G01*
X168797429Y-82000665D01*
X168590355Y-81793591D01*
X168596745Y-81891998D01*
X168549544Y-81887353D01*
X168541237Y-81745233D01*
X168580286Y-81706184D01*
X168836098Y-81961996D01*
X168896044Y-81902050D01*
X168928910Y-81934916D01*
X168769589Y-82094237D01*
X168736723Y-82061371D01*
G37*
G36*
X179857908Y-87253895D02*
G01*
X179839844Y-87232921D01*
X179826977Y-87211737D01*
X179818480Y-87189113D01*
X179814214Y-87164951D01*
X179814451Y-87153495D01*
X179816338Y-87141550D01*
X179820128Y-87129468D01*
X179826804Y-87115264D01*
X179834548Y-87102402D01*
X179846596Y-87086560D01*
X179883642Y-87046821D01*
X180061529Y-86868934D01*
X180100767Y-86908172D01*
X179905092Y-87103848D01*
X179876302Y-87134987D01*
X179869688Y-87145024D01*
X179866440Y-87152966D01*
X179864013Y-87170537D01*
X179867200Y-87188163D01*
X179875355Y-87204836D01*
X179889617Y-87222186D01*
X179907154Y-87236626D01*
X179923848Y-87244810D01*
X179941888Y-87247905D01*
X179959045Y-87245570D01*
X179967552Y-87242056D01*
X179976816Y-87235916D01*
X180007765Y-87207281D01*
X180203821Y-87011226D01*
X180242887Y-87050292D01*
X180065000Y-87228179D01*
X180023706Y-87266364D01*
X179996937Y-87285396D01*
X179980530Y-87292834D01*
X179963928Y-87296847D01*
X179946852Y-87297589D01*
X179922587Y-87293427D01*
X179900256Y-87285016D01*
X179879963Y-87272841D01*
X179857908Y-87253895D01*
G37*
G36*
X180067694Y-87386723D02*
G01*
X180128400Y-87447429D01*
X180335474Y-87240355D01*
X180237067Y-87246745D01*
X180241712Y-87199544D01*
X180383832Y-87191237D01*
X180422881Y-87230286D01*
X180167069Y-87486098D01*
X180227015Y-87546044D01*
X180194149Y-87578910D01*
X180034828Y-87419589D01*
X180067694Y-87386723D01*
G37*
G36*
X181653706Y-83101847D02*
G01*
X181673452Y-83106094D01*
X181691166Y-83112950D01*
X181707290Y-83122782D01*
X181721745Y-83135956D01*
X181734665Y-83152884D01*
X181748073Y-83179198D01*
X181758637Y-83213316D01*
X181765694Y-83257001D01*
X181768298Y-83312277D01*
X181765915Y-83365576D01*
X181759435Y-83408088D01*
X181749711Y-83441628D01*
X181739191Y-83464385D01*
X181726459Y-83483198D01*
X181710872Y-83498832D01*
X181692826Y-83510528D01*
X181791818Y-83611694D01*
X181727289Y-83611694D01*
X181642244Y-83523376D01*
X181636773Y-83523644D01*
X181631863Y-83523937D01*
X181605139Y-83522219D01*
X181582099Y-83516038D01*
X181562035Y-83505638D01*
X181544437Y-83490861D01*
X181529037Y-83471157D01*
X181515072Y-83443798D01*
X181504315Y-83409250D01*
X181497373Y-83365993D01*
X181495136Y-83312277D01*
X181552826Y-83312277D01*
X181554348Y-83359076D01*
X181558391Y-83394719D01*
X181564266Y-83421260D01*
X181571413Y-83440528D01*
X181582484Y-83457792D01*
X181595886Y-83469535D01*
X181611970Y-83476613D01*
X181631570Y-83479094D01*
X181651623Y-83476588D01*
X181667921Y-83469472D01*
X181681349Y-83457727D01*
X181692289Y-83440528D01*
X181699247Y-83422198D01*
X181705041Y-83396164D01*
X181709076Y-83360318D01*
X181710607Y-83312277D01*
X181709079Y-83264270D01*
X181705049Y-83228375D01*
X181699255Y-83202239D01*
X181692289Y-83183780D01*
X181681349Y-83166582D01*
X181667921Y-83154837D01*
X181651623Y-83147721D01*
X181631570Y-83145214D01*
X181611970Y-83147696D01*
X181595886Y-83154774D01*
X181582484Y-83166516D01*
X181571413Y-83183780D01*
X181564269Y-83203047D01*
X181558395Y-83229619D01*
X181554349Y-83265338D01*
X181552826Y-83312277D01*
X181495136Y-83312277D01*
X181497771Y-83256683D01*
X181504899Y-83212941D01*
X181515547Y-83178950D01*
X181529037Y-83152884D01*
X181544103Y-83133948D01*
X181561499Y-83119504D01*
X181581506Y-83109102D01*
X181604632Y-83102639D01*
X181631570Y-83100371D01*
X181653706Y-83101847D01*
G37*
G36*
X181873835Y-83469520D02*
G01*
X181959686Y-83469520D01*
X181959686Y-83176673D01*
X181894620Y-83250776D01*
X181864529Y-83214115D01*
X181959149Y-83107748D01*
X182014372Y-83107748D01*
X182014372Y-83469520D01*
X182099149Y-83469520D01*
X182099149Y-83516000D01*
X181873835Y-83516000D01*
X181873835Y-83469520D01*
G37*
G36*
X164860743Y-107636157D02*
G01*
X164835520Y-107634568D01*
X164812614Y-107629960D01*
X164791696Y-107622480D01*
X164772316Y-107611842D01*
X164754829Y-107597987D01*
X164739061Y-107580641D01*
X164724374Y-107558076D01*
X164712497Y-107531814D01*
X164703565Y-107501300D01*
X164697872Y-107465875D01*
X164695855Y-107424790D01*
X164698250Y-107380588D01*
X164704987Y-107342844D01*
X164715541Y-107310631D01*
X164731033Y-107280770D01*
X164749915Y-107256786D01*
X164772278Y-107237895D01*
X164791296Y-107227015D01*
X164812164Y-107219136D01*
X164835189Y-107214273D01*
X164860743Y-107212591D01*
X164886534Y-107213959D01*
X164908444Y-107217794D01*
X164929415Y-107224567D01*
X164951259Y-107235013D01*
X164951259Y-107291628D01*
X164930274Y-107276704D01*
X164907784Y-107266178D01*
X164883847Y-107259581D01*
X164860474Y-107257434D01*
X164834743Y-107260198D01*
X164813379Y-107268040D01*
X164795435Y-107280801D01*
X164780363Y-107299005D01*
X164769648Y-107319866D01*
X164761227Y-107346797D01*
X164755613Y-107381154D01*
X164753545Y-107424497D01*
X164755941Y-107470594D01*
X164762417Y-107506588D01*
X164772099Y-107534325D01*
X164784411Y-107555388D01*
X164799128Y-107571028D01*
X164816405Y-107582086D01*
X164836759Y-107588910D01*
X164861012Y-107591314D01*
X164884383Y-107589162D01*
X164908322Y-107582546D01*
X164930385Y-107571907D01*
X164951259Y-107557120D01*
X164951259Y-107613736D01*
X164929421Y-107623668D01*
X164908053Y-107630686D01*
X164885636Y-107634749D01*
X164860743Y-107636157D01*
G37*
G36*
X165184698Y-107316475D02*
G01*
X165210865Y-107322110D01*
X165235112Y-107332110D01*
X165255562Y-107346730D01*
X165266545Y-107359118D01*
X165274938Y-107374212D01*
X165280719Y-107392525D01*
X165283803Y-107415312D01*
X165285091Y-107453488D01*
X165285091Y-107516112D01*
X165287973Y-107572996D01*
X165292879Y-107603004D01*
X165301235Y-107628220D01*
X165250652Y-107628220D01*
X165243252Y-107605383D01*
X165238880Y-107581740D01*
X165226675Y-107598660D01*
X165211869Y-107612240D01*
X165194183Y-107622773D01*
X165174766Y-107630214D01*
X165154734Y-107634662D01*
X165133880Y-107636157D01*
X165112002Y-107634446D01*
X165092809Y-107629535D01*
X165075843Y-107621598D01*
X165060754Y-107610585D01*
X165048470Y-107596887D01*
X165039537Y-107580487D01*
X165033911Y-107560833D01*
X165031908Y-107537166D01*
X165031985Y-107536335D01*
X165082222Y-107536335D01*
X165084397Y-107554836D01*
X165090390Y-107568931D01*
X165099979Y-107579688D01*
X165112549Y-107587455D01*
X165127731Y-107592318D01*
X165146190Y-107594050D01*
X165166456Y-107592199D01*
X165183116Y-107587006D01*
X165196894Y-107578736D01*
X165208692Y-107567562D01*
X165218186Y-107554306D01*
X165225471Y-107538680D01*
X165232207Y-107513242D01*
X165234508Y-107485484D01*
X165234508Y-107474273D01*
X165170809Y-107474273D01*
X165149675Y-107475475D01*
X165129093Y-107479060D01*
X165110282Y-107486121D01*
X165095460Y-107497256D01*
X165088396Y-107506984D01*
X165083876Y-107519710D01*
X165082222Y-107536335D01*
X165031985Y-107536335D01*
X165034282Y-107511390D01*
X165040814Y-107491150D01*
X165051033Y-107475250D01*
X165064919Y-107462004D01*
X165081460Y-107451586D01*
X165101078Y-107443938D01*
X165132664Y-107437207D01*
X165166975Y-107434901D01*
X165234508Y-107434901D01*
X165234508Y-107426963D01*
X165231896Y-107401715D01*
X165225045Y-107384292D01*
X165214675Y-107372546D01*
X165200659Y-107364440D01*
X165182491Y-107359168D01*
X165159037Y-107357232D01*
X165131416Y-107359150D01*
X165104351Y-107364901D01*
X165078350Y-107374097D01*
X165054330Y-107386224D01*
X165054330Y-107335910D01*
X165079670Y-107327432D01*
X165105181Y-107320620D01*
X165131103Y-107316101D01*
X165157669Y-107314587D01*
X165184698Y-107316475D01*
G37*
G36*
X165414148Y-107321963D02*
G01*
X165459822Y-107321963D01*
X165464731Y-107381852D01*
X165475001Y-107361432D01*
X165487867Y-107344975D01*
X165503419Y-107331953D01*
X165521367Y-107322472D01*
X165541823Y-107316626D01*
X165565359Y-107314587D01*
X165589917Y-107316808D01*
X165611608Y-107323225D01*
X165630987Y-107333736D01*
X165630987Y-107385125D01*
X165610216Y-107371822D01*
X165587108Y-107363818D01*
X165560987Y-107361067D01*
X165538111Y-107363104D01*
X165519047Y-107368848D01*
X165503055Y-107378024D01*
X165489620Y-107390742D01*
X165479320Y-107406072D01*
X165471555Y-107424875D01*
X165466540Y-107447864D01*
X165464731Y-107475910D01*
X165464731Y-107628220D01*
X165414148Y-107628220D01*
X165414148Y-107321963D01*
G37*
G36*
X165953363Y-107628220D02*
G01*
X165907959Y-107628220D01*
X165903049Y-107589654D01*
X165890872Y-107606602D01*
X165876775Y-107619395D01*
X165860559Y-107628530D01*
X165841805Y-107634178D01*
X165819909Y-107636157D01*
X165798056Y-107634449D01*
X165779570Y-107629622D01*
X165763855Y-107621942D01*
X165749763Y-107611404D01*
X165737735Y-107598790D01*
X165727634Y-107583914D01*
X165716066Y-107559097D01*
X165708070Y-107531280D01*
X165703562Y-107502307D01*
X165702161Y-107475104D01*
X165755111Y-107475104D01*
X165757847Y-107514329D01*
X165761822Y-107534450D01*
X165768105Y-107552895D01*
X165777465Y-107569249D01*
X165790234Y-107582155D01*
X165800552Y-107588242D01*
X165813255Y-107592102D01*
X165828946Y-107593488D01*
X165844447Y-107592121D01*
X165857060Y-107588306D01*
X165867366Y-107582277D01*
X165880206Y-107569497D01*
X165889787Y-107553164D01*
X165896273Y-107534727D01*
X165900314Y-107514622D01*
X165903049Y-107475104D01*
X165900314Y-107436000D01*
X165896277Y-107416002D01*
X165889787Y-107397581D01*
X165880205Y-107381227D01*
X165867366Y-107368443D01*
X165857060Y-107362414D01*
X165844447Y-107358600D01*
X165828946Y-107357232D01*
X165813246Y-107358605D01*
X165800543Y-107362425D01*
X165790234Y-107368443D01*
X165777473Y-107381235D01*
X165768105Y-107397581D01*
X165761819Y-107415989D01*
X165757847Y-107436000D01*
X165755111Y-107475104D01*
X165702161Y-107475104D01*
X165702062Y-107473174D01*
X165704353Y-107436222D01*
X165710766Y-107405186D01*
X165720792Y-107379125D01*
X165734180Y-107357256D01*
X165751832Y-107338444D01*
X165771823Y-107325321D01*
X165794625Y-107317353D01*
X165821008Y-107314587D01*
X165846742Y-107317500D01*
X165869124Y-107325945D01*
X165882201Y-107334733D01*
X165893470Y-107346315D01*
X165903049Y-107361067D01*
X165903049Y-107202748D01*
X165953363Y-107202748D01*
X165953363Y-107628220D01*
G37*
G36*
X166079124Y-107581740D02*
G01*
X166164975Y-107581740D01*
X166164975Y-107288893D01*
X166099909Y-107362996D01*
X166069818Y-107326335D01*
X166164438Y-107219968D01*
X166219661Y-107219968D01*
X166219661Y-107581740D01*
X166304438Y-107581740D01*
X166304438Y-107628220D01*
X166079124Y-107628220D01*
X166079124Y-107581740D01*
G37*
G36*
X180831570Y-95373937D02*
G01*
X180803966Y-95371880D01*
X180779889Y-95366000D01*
X180757882Y-95356010D01*
X180737781Y-95341942D01*
X180729848Y-95333674D01*
X180722736Y-95323892D01*
X180716873Y-95312669D01*
X180711549Y-95297905D01*
X180707930Y-95283334D01*
X180705248Y-95263613D01*
X180703343Y-95209318D01*
X180703343Y-94957748D01*
X180758835Y-94957748D01*
X180758835Y-95234475D01*
X180760496Y-95276851D01*
X180762916Y-95288625D01*
X180766235Y-95296537D01*
X180776944Y-95310678D01*
X180791661Y-95320888D01*
X180809218Y-95326911D01*
X180831570Y-95329094D01*
X180854181Y-95326904D01*
X180871773Y-95320888D01*
X180886717Y-95310320D01*
X180897198Y-95296537D01*
X180900728Y-95288036D01*
X180902938Y-95277144D01*
X180904575Y-95235012D01*
X180904575Y-94957748D01*
X180959822Y-94957748D01*
X180959822Y-95209318D01*
X180957624Y-95265518D01*
X180952153Y-95297905D01*
X180945811Y-95314765D01*
X180936909Y-95329342D01*
X180925360Y-95341942D01*
X180905258Y-95356157D01*
X180883521Y-95366000D01*
X180860562Y-95371739D01*
X180831570Y-95373937D01*
G37*
G36*
X181154777Y-95373937D02*
G01*
X181127275Y-95372692D01*
X181098161Y-95368735D01*
X181070538Y-95362727D01*
X181040740Y-95353690D01*
X181040740Y-95297905D01*
X181068071Y-95310776D01*
X181095695Y-95320326D01*
X181122635Y-95325675D01*
X181149575Y-95327434D01*
X181179371Y-95324831D01*
X181202084Y-95317777D01*
X181219306Y-95306942D01*
X181229775Y-95295744D01*
X181237295Y-95282591D01*
X181241979Y-95267093D01*
X181243632Y-95248690D01*
X181240787Y-95225364D01*
X181232749Y-95206577D01*
X181219575Y-95191268D01*
X181202404Y-95180130D01*
X181180757Y-95173046D01*
X181153409Y-95170483D01*
X181111277Y-95170483D01*
X181111277Y-95125103D01*
X181153409Y-95125103D01*
X181178620Y-95122991D01*
X181198068Y-95117248D01*
X181213004Y-95108421D01*
X181224532Y-95096123D01*
X181231558Y-95080684D01*
X181234058Y-95061111D01*
X181231698Y-95041418D01*
X181225093Y-95025885D01*
X181214372Y-95013533D01*
X181200615Y-95004771D01*
X181181972Y-94999002D01*
X181156951Y-94996851D01*
X181133836Y-94998153D01*
X181107467Y-95002322D01*
X181081165Y-95008897D01*
X181053050Y-95018735D01*
X181053050Y-94967884D01*
X181112108Y-94954743D01*
X181136181Y-94951431D01*
X181158318Y-94950371D01*
X181186323Y-94952281D01*
X181211221Y-94957772D01*
X181234080Y-94967162D01*
X181253475Y-94980169D01*
X181268854Y-94996014D01*
X181279734Y-95014128D01*
X181286412Y-95034965D01*
X181288744Y-95059206D01*
X181287490Y-95076404D01*
X181283957Y-95090933D01*
X181278082Y-95104167D01*
X181270157Y-95115797D01*
X181256470Y-95128686D01*
X181238541Y-95139307D01*
X181215471Y-95147524D01*
X181240982Y-95156849D01*
X181261198Y-95169445D01*
X181276996Y-95185260D01*
X181286675Y-95200246D01*
X181293263Y-95216718D01*
X181297026Y-95234345D01*
X181298318Y-95253623D01*
X181295808Y-95280927D01*
X181288652Y-95304226D01*
X181277077Y-95324296D01*
X181260852Y-95341673D01*
X181240654Y-95355429D01*
X181215862Y-95365731D01*
X181188299Y-95371763D01*
X181154777Y-95373937D01*
G37*
G36*
X165358356Y-82109995D02*
G01*
X165386350Y-82116220D01*
X165409181Y-82125856D01*
X165427739Y-82138644D01*
X165443583Y-82156510D01*
X165454532Y-82177894D01*
X165460801Y-82201938D01*
X165463008Y-82229991D01*
X165460542Y-82259861D01*
X165453660Y-82284354D01*
X165442813Y-82304498D01*
X165428008Y-82321045D01*
X165409988Y-82333746D01*
X165387376Y-82343383D01*
X165359161Y-82349659D01*
X165324107Y-82351942D01*
X165260115Y-82351942D01*
X165260115Y-82516000D01*
X165204892Y-82516000D01*
X165204892Y-82306537D01*
X165260115Y-82306537D01*
X165324107Y-82306537D01*
X165343765Y-82305080D01*
X165359351Y-82301090D01*
X165373130Y-82294522D01*
X165383995Y-82286314D01*
X165395548Y-82271548D01*
X165402739Y-82253051D01*
X165405317Y-82229722D01*
X165402725Y-82206186D01*
X165395522Y-82187701D01*
X165383995Y-82173107D01*
X165368954Y-82162449D01*
X165349431Y-82155639D01*
X165324107Y-82153152D01*
X165260115Y-82153152D01*
X165260115Y-82306537D01*
X165204892Y-82306537D01*
X165204892Y-82107748D01*
X165324107Y-82107748D01*
X165358356Y-82109995D01*
G37*
G36*
X165685275Y-82101847D02*
G01*
X165705022Y-82106094D01*
X165722735Y-82112950D01*
X165738859Y-82122782D01*
X165753315Y-82135956D01*
X165766235Y-82152884D01*
X165779643Y-82179198D01*
X165790207Y-82213316D01*
X165797264Y-82257001D01*
X165799867Y-82312277D01*
X165797266Y-82367414D01*
X165790212Y-82411021D01*
X165779649Y-82445108D01*
X165766235Y-82471425D01*
X165753315Y-82488353D01*
X165738859Y-82501527D01*
X165722735Y-82511359D01*
X165705022Y-82518215D01*
X165685275Y-82522462D01*
X165663140Y-82523937D01*
X165635812Y-82521661D01*
X165612496Y-82515195D01*
X165592462Y-82504821D01*
X165575176Y-82490464D01*
X165560338Y-82471694D01*
X165546947Y-82445513D01*
X165536383Y-82411459D01*
X165529316Y-82367734D01*
X165526706Y-82312277D01*
X165584396Y-82312277D01*
X165585917Y-82359076D01*
X165589961Y-82394719D01*
X165595835Y-82421260D01*
X165602983Y-82440528D01*
X165614054Y-82457792D01*
X165627456Y-82469535D01*
X165643539Y-82476613D01*
X165663140Y-82479094D01*
X165683193Y-82476588D01*
X165699490Y-82469472D01*
X165712919Y-82457727D01*
X165723859Y-82440528D01*
X165730817Y-82422198D01*
X165736611Y-82396164D01*
X165740646Y-82360318D01*
X165742177Y-82312277D01*
X165740649Y-82264270D01*
X165736619Y-82228375D01*
X165730825Y-82202239D01*
X165723859Y-82183780D01*
X165712919Y-82166582D01*
X165699490Y-82154837D01*
X165683193Y-82147721D01*
X165663140Y-82145214D01*
X165643539Y-82147696D01*
X165627456Y-82154774D01*
X165614054Y-82166516D01*
X165602983Y-82183780D01*
X165595839Y-82203047D01*
X165589965Y-82229619D01*
X165585919Y-82265338D01*
X165584396Y-82312277D01*
X165526706Y-82312277D01*
X165529341Y-82256683D01*
X165536469Y-82212941D01*
X165547117Y-82178950D01*
X165560607Y-82152884D01*
X165575673Y-82133948D01*
X165593069Y-82119504D01*
X165613076Y-82109102D01*
X165636202Y-82102639D01*
X165663140Y-82100371D01*
X165685275Y-82101847D01*
G37*
G36*
X165831570Y-82107748D02*
G01*
X165885426Y-82107748D01*
X165924529Y-82439161D01*
X165971033Y-82219855D01*
X166028723Y-82219855D01*
X166075740Y-82439722D01*
X166114843Y-82107748D01*
X166168723Y-82107748D01*
X166107735Y-82516000D01*
X166055516Y-82516000D01*
X166000000Y-82273466D01*
X165944777Y-82516000D01*
X165892557Y-82516000D01*
X165831570Y-82107748D01*
G37*
G36*
X166222285Y-82107748D02*
G01*
X166464574Y-82107748D01*
X166464574Y-82154251D01*
X166277533Y-82154251D01*
X166277533Y-82275103D01*
X166456368Y-82275103D01*
X166456368Y-82321582D01*
X166277533Y-82321582D01*
X166277533Y-82469520D01*
X166469752Y-82469520D01*
X166469752Y-82516000D01*
X166222285Y-82516000D01*
X166222285Y-82107748D01*
G37*
G36*
X166692284Y-82109962D02*
G01*
X166720152Y-82116090D01*
X166742836Y-82125560D01*
X166761232Y-82138107D01*
X166776598Y-82154601D01*
X166787671Y-82174101D01*
X166794589Y-82197210D01*
X166797038Y-82224789D01*
X166795588Y-82245609D01*
X166791566Y-82262671D01*
X166784730Y-82278111D01*
X166775178Y-82291785D01*
X166759205Y-82306330D01*
X166738858Y-82316851D01*
X166713091Y-82323219D01*
X166733480Y-82331208D01*
X166749459Y-82343735D01*
X166756973Y-82352663D01*
X166766019Y-82366034D01*
X166786926Y-82404429D01*
X166842442Y-82516000D01*
X166783091Y-82516000D01*
X166734438Y-82412905D01*
X166723562Y-82391467D01*
X166714337Y-82376268D01*
X166704646Y-82363593D01*
X166696703Y-82356045D01*
X166687618Y-82350420D01*
X166676870Y-82346471D01*
X166665273Y-82344234D01*
X166652666Y-82343466D01*
X166599909Y-82343466D01*
X166599909Y-82516000D01*
X166544393Y-82516000D01*
X166544393Y-82298062D01*
X166599909Y-82298062D01*
X166660335Y-82298062D01*
X166686205Y-82295770D01*
X166705358Y-82289633D01*
X166719393Y-82280305D01*
X166729752Y-82267192D01*
X166736375Y-82249695D01*
X166738810Y-82226425D01*
X166736295Y-82203426D01*
X166729348Y-82185599D01*
X166718294Y-82171739D01*
X166707458Y-82164104D01*
X166693552Y-82158086D01*
X166677864Y-82154473D01*
X166658137Y-82153152D01*
X166599909Y-82153152D01*
X166599909Y-82298062D01*
X166544393Y-82298062D01*
X166544393Y-82107748D01*
X166658137Y-82107748D01*
X166692284Y-82109962D01*
G37*
D11*
%TO.C,X1*%
X176966786Y-91402374D02*
X178280022Y-92715610D01*
X178138462Y-90230698D02*
X176966786Y-91402374D01*
%TO.C,PROG*%
X179973268Y-103751423D02*
X179973268Y-104748577D01*
X179973268Y-104748577D02*
X180762192Y-104748577D01*
X180762192Y-103751423D02*
X179973268Y-103751423D01*
X181141160Y-103748000D02*
X181777710Y-103748000D01*
X181777710Y-103748000D02*
X181930000Y-103900420D01*
X181777710Y-104745300D02*
X181141160Y-104745300D01*
X181930000Y-103900420D02*
X181930000Y-104592900D01*
X181930000Y-104592900D02*
X181777710Y-104745300D01*
D12*
G36*
X182235000Y-104592900D02*
G01*
X182082484Y-104592900D01*
X182082484Y-103900420D01*
X182235000Y-103900420D01*
X182235000Y-104592900D01*
G37*
D13*
%TO.C,U2*%
X159833000Y-90305000D02*
X159833000Y-86495000D01*
X167656200Y-86495000D02*
X159833000Y-86495000D01*
X167656200Y-86647400D02*
X167656200Y-86495000D01*
X167656200Y-86647400D02*
X167656200Y-87917400D01*
X167656200Y-88882600D02*
X167656200Y-90152600D01*
X167656200Y-90152600D02*
X167656200Y-90305000D01*
X167656200Y-90305000D02*
X159833000Y-90305000D01*
X167656200Y-88857200D02*
G75*
G02*
X167656200Y-87917400I0J469900D01*
G01*
D12*
G36*
X167080470Y-86930000D02*
G01*
X167195316Y-87006684D01*
X167272000Y-87121530D01*
X167299000Y-87257000D01*
X167272000Y-87392470D01*
X167195316Y-87507316D01*
X167080470Y-87584000D01*
X166945000Y-87611000D01*
X166809530Y-87584000D01*
X166694684Y-87507316D01*
X166618000Y-87392470D01*
X166591000Y-87257000D01*
X166618000Y-87121530D01*
X166694684Y-87006684D01*
X166809530Y-86930000D01*
X166945000Y-86903000D01*
X167080470Y-86930000D01*
G37*
D14*
%TO.C,GPIO1*%
X174875000Y-105879100D02*
X174875000Y-106129965D01*
X174875000Y-105879100D02*
X174910859Y-105879100D01*
X174875000Y-107528235D02*
X174875000Y-107779100D01*
X174875000Y-107779100D02*
X174910859Y-107779100D01*
X181339141Y-105879100D02*
X181375000Y-105879100D01*
X181339141Y-107779100D02*
X181375000Y-107779100D01*
X181375000Y-105879100D02*
X181375000Y-106129965D01*
X181375000Y-107528235D02*
X181375000Y-107779100D01*
D15*
X176233650Y-108069100D02*
G75*
G02*
X176136350Y-108069100I-48650J0D01*
G01*
X176136350Y-108069100D02*
G75*
G02*
X176233650Y-108069100I48650J0D01*
G01*
D11*
%TO.C,SELECT*%
X174725912Y-103963147D02*
X174878286Y-103810747D01*
X174725912Y-104655627D02*
X174725912Y-103963147D01*
X174878286Y-103810747D02*
X175514836Y-103810747D01*
X174878286Y-104808047D02*
X174725912Y-104655627D01*
X175514836Y-104808047D02*
X174878286Y-104808047D01*
X175893804Y-104804624D02*
X176682728Y-104804624D01*
X176682728Y-103807470D02*
X175893804Y-103807470D01*
X176682728Y-104804624D02*
X176682728Y-103807470D01*
D12*
G36*
X174573512Y-104655627D02*
G01*
X174421047Y-104655627D01*
X174421047Y-103963147D01*
X174573512Y-103963147D01*
X174573512Y-104655627D01*
G37*
D13*
%TO.C,L1*%
X169224427Y-82273270D02*
X168844203Y-82653494D01*
X170355797Y-83404640D02*
X169975573Y-83784864D01*
D16*
X169868420Y-84443281D02*
G75*
G02*
X169614422Y-84443281I-126999J0D01*
G01*
X169614422Y-84443281D02*
G75*
G02*
X169868420Y-84443281I126999J0D01*
G01*
D13*
%TO.C,U1*%
X169629452Y-87816435D02*
X169961085Y-88148068D01*
X169912295Y-87533592D02*
X169629452Y-87816435D01*
X169961085Y-87484802D02*
X169912295Y-87533592D01*
X174389101Y-92576084D02*
X174720621Y-92907604D01*
X174720621Y-82725266D02*
X174389101Y-83056786D01*
X174720621Y-92907604D02*
X175052254Y-92575971D01*
X175052254Y-83056899D02*
X174720621Y-82725266D01*
X179480270Y-88147955D02*
X179811790Y-87816435D01*
X179811790Y-87816435D02*
X179480270Y-87484915D01*
X169369755Y-88265538D02*
G75*
G02*
X169115755Y-88265538I-127000J0D01*
G01*
X169115755Y-88265538D02*
G75*
G02*
X169369755Y-88265538I127000J0D01*
G01*
D11*
%TO.C,Q1*%
X179848960Y-81523751D02*
X181251269Y-81523751D01*
X179848960Y-82839344D02*
X179848960Y-82360605D01*
X179848960Y-83676249D02*
X181251269Y-83676249D01*
X181251269Y-81523751D02*
X181251269Y-82189384D01*
X181251269Y-83676249D02*
X181251269Y-83010616D01*
D13*
%TO.C,Card1*%
X159430000Y-93200000D02*
X160579000Y-93200000D01*
X159430000Y-93716345D02*
X159430000Y-93200000D01*
X159430000Y-102691308D02*
X159430000Y-95378648D01*
X159430000Y-108047507D02*
X159430000Y-107028586D01*
X161000000Y-105300000D02*
X161000000Y-108050000D01*
X161000000Y-108050000D02*
X159430000Y-108050000D01*
X162650000Y-93750000D02*
X167600000Y-93750000D01*
X169800000Y-99800000D02*
X163200000Y-99800000D01*
X169800000Y-100900000D02*
X163200000Y-100900000D01*
X170245000Y-93200000D02*
X172839000Y-93200000D01*
X170350000Y-108047507D02*
X170350000Y-105300000D01*
X173570000Y-104066362D02*
X173570000Y-95548624D01*
X173570000Y-108047507D02*
X170350000Y-108047507D01*
X173570000Y-108047507D02*
X173570000Y-107028662D01*
X161000000Y-105300000D02*
G75*
G02*
X170350640Y-105301183I4674855J-3678220D01*
G01*
X163200000Y-100900000D02*
G75*
G02*
X163200540Y-99799540I230J550230D01*
G01*
X169800000Y-99800000D02*
G75*
G02*
X169799460Y-100899364I-3974J-549680D01*
G01*
X169557000Y-107640000D02*
G75*
G02*
X169303000Y-107640000I-127000J0D01*
G01*
X169303000Y-107640000D02*
G75*
G02*
X169557000Y-107640000I127000J0D01*
G01*
D17*
%TO.C,U3*%
X174455133Y-94799500D02*
X174455133Y-102799586D01*
X174455133Y-94799500D02*
X175130900Y-94799500D01*
X174455133Y-102799586D02*
X175131000Y-102799586D01*
X175939000Y-94799500D02*
X176411000Y-94799500D01*
X175939230Y-102799586D02*
X176411000Y-102799586D01*
X177219000Y-94799500D02*
X177691220Y-94799500D01*
X177219136Y-102799586D02*
X177691220Y-102799586D01*
X178499270Y-94799500D02*
X178971000Y-94799500D01*
X178499296Y-102799586D02*
X178971000Y-102799586D01*
X179779100Y-94799500D02*
X180455000Y-94799500D01*
X179779100Y-102799586D02*
X180455000Y-102799586D01*
X180455000Y-94799500D02*
X180455000Y-102662603D01*
X180455000Y-102662603D02*
X180455000Y-102799586D01*
D18*
X174855000Y-103200000D02*
G75*
G02*
X174655000Y-103200000I-100000J0D01*
G01*
X174655000Y-103200000D02*
G75*
G02*
X174855000Y-103200000I100000J0D01*
G01*
D11*
%TO.C,POWER*%
X166930000Y-83542900D02*
X166777710Y-83695300D01*
X166930000Y-82850420D02*
X166930000Y-83542900D01*
X166777710Y-83695300D02*
X166141160Y-83695300D01*
X166777710Y-82698000D02*
X166930000Y-82850420D01*
X166141160Y-82698000D02*
X166777710Y-82698000D01*
X165762192Y-82701423D02*
X164973268Y-82701423D01*
X164973268Y-83698577D02*
X165762192Y-83698577D01*
X164973268Y-82701423D02*
X164973268Y-83698577D01*
D12*
G36*
X167235000Y-83542900D02*
G01*
X167082484Y-83542900D01*
X167082484Y-82850420D01*
X167235000Y-82850420D01*
X167235000Y-83542900D01*
G37*
%TD*%
M02*
