#VRML V2.0 utf8

Shape {
  appearance Appearance {
    material Material {
      diffuseColor 0.1490 0.1490 0.1490
      specularColor 0.0745 0.0745 0.0745
      ambientIntensity 0.2
      transparency 0.0000
      shininess 0.5
    }
  }
  geometry IndexedFaceSet {
    ccw TRUE
    solid FALSE
    coord DEF co Coordinate {
      point [
        0.038073 -0.023688 0.157480,
        0.038073 0.094422 0.157480,
        0.050187 0.097938 0.157480,
        -0.049752 -0.023688 0.157480,
        -0.049752 0.094422 0.157480,
        -0.039153 0.097938 0.157480,
        -3.641732 0.098425 0.157480,
        -3.641732 0.097938 0.157480,
        -3.789370 0.097938 0.157480,
        -2.362205 0.236220 0.157480,
        -2.303150 0.295276 0.157480,
        -2.066929 0.098425 0.157480,
        3.149606 -0.236220 0.157480,
        3.090551 -0.295276 0.157480,
        2.854331 -0.098425 0.157480,
        2.657480 0.097938 0.157480,
        2.362205 0.236220 0.157480,
        2.657480 0.098425 0.157480,
        2.421260 0.295276 0.157480,
        2.854331 0.098425 0.157480,
        3.149606 0.097938 0.157480,
        2.854331 0.097938 0.157480,
        3.149606 0.236220 0.157480,
        3.090551 0.295276 0.157480,
        2.657480 -0.098425 0.157480,
        1.279528 0.097938 0.157480,
        1.279528 0.098425 0.157480,
        1.574803 0.236220 0.157480,
        1.082677 0.097938 0.157480,
        1.082677 -0.098425 0.157480,
        0.787402 -0.236220 0.157480,
        -0.295276 -0.098425 0.157480,
        -0.295276 0.097938 0.157480,
        -0.284567 0.097938 0.157480,
        -0.295276 0.098425 0.157480,
        -0.284567 -0.295276 0.157480,
        -0.728346 -0.295276 0.157480,
        -0.492126 -0.098425 0.157480,
        -0.787402 -0.236220 0.157480,
        -0.492126 0.097938 0.157480,
        -1.870079 0.098425 0.157480,
        -2.362205 0.097938 0.157480,
        -2.066929 0.097938 0.157480,
        -2.362205 -0.236220 0.157480,
        -2.066929 -0.098425 0.157480,
        -1.870079 0.097938 0.157480,
        -1.574803 -0.236220 0.157480,
        -1.870079 -0.098425 0.157480,
        -1.633858 -0.295276 0.157480,
        -2.303150 -0.295276 0.157480,
        -3.789370 -0.295276 0.157480,
        -3.641732 -0.098425 0.157480,
        -3.208662 -0.295276 0.157480,
        -3.444882 -0.098425 0.157480,
        -3.149606 -0.236220 0.157480,
        -3.444882 0.097938 0.157480,
        0.787402 0.097938 0.157480,
        0.492126 0.097938 0.157480,
        0.787402 0.236220 0.157480,
        0.492126 0.098425 0.157480,
        0.295276 0.098425 0.157480,
        0.271157 0.295276 0.157480,
        0.728346 0.295276 0.157480,
        0.059055 0.295276 0.157480,
        0.184197 0.097938 0.157480,
        0.050187 0.286407 0.157480,
        -0.000000 0.236220 0.157480,
        -0.039153 0.275373 0.157480,
        -0.787402 0.097938 0.157480,
        -1.082677 0.097938 0.157480,
        -0.787402 0.236220 0.157480,
        -1.082677 0.098425 0.157480,
        -0.846457 0.295276 0.157480,
        -1.515748 0.295276 0.157480,
        -1.279528 0.098425 0.157480,
        -1.574803 0.236220 0.157480,
        -1.279528 0.097938 0.157480,
        -1.574803 0.097938 0.157480,
        -2.657480 0.098425 0.157480,
        -2.421260 0.295276 0.157480,
        -2.657480 0.097938 0.157480,
        -3.090551 0.295276 0.157480,
        -2.854331 0.098425 0.157480,
        -3.149606 0.236220 0.157480,
        -2.854331 0.097938 0.157480,
        -3.149606 0.097938 0.157480,
        -3.937008 0.097938 0.157480,
        -3.937008 0.236220 0.157480,
        -3.444882 0.098425 0.157480,
        -3.789370 0.295276 0.157480,
        -3.877953 0.295276 0.157480,
        -3.937008 -0.236220 0.157480,
        -3.877953 -0.295276 0.157480,
        -3.208662 0.295276 0.157480,
        -2.854331 -0.098425 0.157480,
        -2.657480 -0.098425 0.157480,
        -2.421260 -0.295276 0.157480,
        -3.090551 -0.295276 0.157480,
        -1.279528 -0.098425 0.157480,
        -1.515748 -0.295276 0.157480,
        -1.633858 0.295276 0.157480,
        -0.846457 -0.295276 0.157480,
        -1.082677 -0.098425 0.157480,
        -0.492126 0.098425 0.157480,
        -0.728346 0.295276 0.157480,
        -0.284567 0.295276 0.157480,
        -0.059055 0.295276 0.157480,
        -0.059055 -0.295276 0.157480,
        -0.273859 -0.023688 0.157480,
        -0.217832 0.094422 0.157480,
        -0.219346 0.094422 0.157480,
        -0.140382 0.004921 0.157480,
        -0.132329 -0.007225 0.157480,
        -0.161806 -0.023688 0.157480,
        -0.191333 0.014168 0.157480,
        -0.173375 -0.023688 0.157480,
        -0.244876 0.014168 0.157480,
        -0.262337 -0.023688 0.157480,
        -0.073602 0.094422 0.157480,
        -0.092521 0.093700 0.157480,
        -0.111079 0.090163 0.157480,
        -0.123031 0.084126 0.157480,
        -0.123487 -0.015030 0.157480,
        -0.039153 -0.275373 0.157480,
        -0.114600 -0.019613 0.157480,
        -0.100192 -0.022911 0.157480,
        -0.086354 -0.023688 0.157480,
        -0.131657 0.076630 0.157480,
        -0.139186 0.065970 0.157480,
        -0.144124 0.053650 0.157480,
        -0.146496 0.039350 0.157480,
        -0.146663 0.033876 0.157480,
        -0.145002 0.018084 0.157480,
        -0.028553 0.094422 0.157480,
        -0.028553 0.082308 0.157480,
        -0.028553 0.033853 0.157480,
        0.027474 0.033853 0.157480,
        0.027474 -0.011574 0.157480,
        0.050187 -0.286407 0.157480,
        -0.000000 -0.236220 0.157480,
        -0.028553 -0.023688 0.157480,
        -0.028553 -0.011574 0.157480,
        0.027474 0.082308 0.157480,
        0.027474 0.045967 0.157480,
        -0.028553 0.045967 0.157480,
        0.085878 0.091780 0.157480,
        0.073009 0.083980 0.157480,
        0.065774 0.077102 0.157480,
        0.062301 0.072750 0.157480,
        0.062301 -0.001944 0.157480,
        0.072727 -0.012871 0.157480,
        0.150202 0.087113 0.157480,
        0.137689 0.093465 0.157480,
        0.166516 0.040796 0.157480,
        0.166783 0.035249 0.157480,
        0.114494 0.085337 0.157480,
        0.071576 0.005082 0.157480,
        0.163988 0.052270 0.157480,
        0.132122 -0.024607 0.157480,
        0.146256 -0.019172 0.157480,
        0.184197 -0.295276 0.157480,
        0.157672 -0.010979 0.157480,
        0.162406 -0.006061 0.157480,
        0.123270 0.096887 0.157480,
        0.113832 0.097451 0.157480,
        0.096643 0.095473 0.157480,
        0.155128 0.003179 0.157480,
        0.146591 -0.004628 0.157480,
        0.175430 0.052186 0.157480,
        0.170612 0.064706 0.157480,
        0.162504 0.076333 0.157480,
        0.071576 0.065652 0.157480,
        0.081047 0.074819 0.157480,
        0.078113 -0.001517 0.157480,
        0.092154 0.081092 0.157480,
        0.088559 -0.008672 0.157480,
        0.099930 -0.012969 0.157480,
        0.128459 0.083619 0.157480,
        0.140516 0.078947 0.157480,
        0.165224 0.022234 0.157480,
        0.161492 0.012428 0.157480,
        0.097330 0.082930 0.157480,
        0.110376 0.085195 0.157480,
        0.123154 -0.013959 0.157480,
        0.135156 -0.010865 0.157480,
        0.170985 0.006885 0.157480,
        0.175725 0.020463 0.157480,
        0.177383 0.036053 0.157480,
        0.113761 -0.014603 0.157480,
        0.151387 0.071308 0.157480,
        0.158723 0.062743 0.157480,
        0.084956 -0.020584 0.157480,
        0.098386 -0.025145 0.157480,
        0.059055 -0.295276 0.157480,
        0.107791 -0.026502 0.157480,
        0.113690 -0.026717 0.157480,
        0.271157 -0.295276 0.157480,
        0.271157 0.097938 0.157480,
        0.295276 -0.098425 0.157480,
        0.295276 0.097938 0.157480,
        0.728346 -0.295276 0.157480,
        0.492126 -0.098425 0.157480,
        1.082677 0.098425 0.157480,
        0.846457 0.295276 0.157480,
        1.515748 0.295276 0.157480,
        1.574803 0.097938 0.157480,
        1.870079 0.097938 0.157480,
        1.574803 -0.236220 0.157480,
        1.870079 -0.098425 0.157480,
        1.633858 -0.295276 0.157480,
        2.303150 -0.295276 0.157480,
        2.066929 -0.098425 0.157480,
        2.362205 -0.236220 0.157480,
        2.066929 0.097938 0.157480,
        2.362205 0.097938 0.157480,
        3.444882 0.097938 0.157480,
        3.444882 -0.098425 0.157480,
        3.641732 0.097938 0.157480,
        3.937008 -0.236220 0.157480,
        3.641732 -0.098425 0.157480,
        3.877953 -0.295276 0.157480,
        3.208662 -0.295276 0.157480,
        3.641732 0.098425 0.157480,
        3.937008 0.236220 0.157480,
        3.937008 0.097938 0.157480,
        3.444882 0.098425 0.157480,
        3.208662 0.295276 0.157480,
        3.877953 0.295276 0.157480,
        2.066929 0.098425 0.157480,
        2.303150 0.295276 0.157480,
        2.421260 -0.295276 0.157480,
        1.633858 0.295276 0.157480,
        1.870079 0.098425 0.157480,
        1.279528 -0.098425 0.157480,
        1.515748 -0.295276 0.157480,
        0.846457 -0.295276 0.157480,
        0.236438 0.094422 0.157480,
        0.247037 0.094422 0.157480,
        0.236438 -0.011574 0.157480,
        0.191011 -0.011574 0.157480,
        0.191011 -0.023688 0.157480,
        0.247037 -0.023688 0.157480,
        0.184197 0.295276 0.157480,
        -3.789370 -0.383858 0.787402,
        -3.779528 -0.393701 0.787402,
        -3.307087 -0.393701 0.787402,
        1.870079 0.098425 0.787402,
        1.574803 -0.236220 0.787402,
        1.870079 -0.098425 0.787402,
        1.584646 -0.246063 0.787402,
        2.066929 -0.098425 0.787402,
        2.352362 -0.246063 0.787402,
        2.362205 -0.236220 0.787402,
        2.657480 0.098425 0.787402,
        2.657480 -0.098425 0.787402,
        2.372047 -0.246063 0.787402,
        2.854331 -0.098425 0.787402,
        3.139764 -0.246063 0.787402,
        3.149606 -0.236220 0.787402,
        3.149606 0.236220 0.787402,
        2.992126 0.393701 0.787402,
        2.854331 0.098425 0.787402,
        2.519685 0.393701 0.787402,
        2.362205 0.236220 0.787402,
        2.066929 0.098425 0.787402,
        3.444882 0.098425 0.787402,
        3.444882 -0.098425 0.787402,
        3.159449 -0.246063 0.787402,
        3.641732 -0.098425 0.787402,
        3.937008 0.236220 0.787402,
        3.779528 0.393701 0.787402,
        3.641732 0.098425 0.787402,
        3.307087 0.393701 0.787402,
        3.937008 -0.236220 0.787402,
        3.927165 -0.246063 0.787402,
        3.307087 -0.393701 0.787402,
        3.779528 -0.393701 0.787402,
        2.519685 -0.393701 0.787402,
        2.992126 -0.393701 0.787402,
        1.732283 -0.393701 0.787402,
        2.204724 -0.393701 0.787402,
        1.082677 0.098425 0.787402,
        0.787402 -0.236220 0.787402,
        1.082677 -0.098425 0.787402,
        0.797244 -0.246063 0.787402,
        1.279528 -0.098425 0.787402,
        1.564961 -0.246063 0.787402,
        2.204724 0.393701 0.787402,
        1.732283 0.393701 0.787402,
        1.574803 0.236220 0.787402,
        1.279528 0.098425 0.787402,
        0.944882 -0.393701 0.787402,
        1.417323 -0.393701 0.787402,
        0.295276 0.098425 0.787402,
        -0.000000 -0.236220 0.787402,
        0.295276 -0.098425 0.787402,
        0.009843 -0.246063 0.787402,
        0.492126 -0.098425 0.787402,
        0.777559 -0.246063 0.787402,
        0.787402 0.236220 0.787402,
        0.629921 0.393701 0.787402,
        0.492126 0.098425 0.787402,
        0.157480 0.393701 0.787402,
        -0.000000 0.236220 0.787402,
        1.417323 0.393701 0.787402,
        0.944882 0.393701 0.787402,
        0.157480 -0.393701 0.787402,
        0.629921 -0.393701 0.787402,
        -0.944882 0.393701 0.787402,
        -1.417323 0.393701 0.787402,
        -0.787402 0.236220 0.787402,
        -0.492126 0.098425 0.787402,
        -1.279528 0.098425 0.787402,
        -1.574803 -0.236220 0.787402,
        -1.279528 -0.098425 0.787402,
        -1.564961 -0.246063 0.787402,
        -1.082677 -0.098425 0.787402,
        -0.629921 0.393701 0.787402,
        -0.157480 0.393701 0.787402,
        -0.295276 0.098425 0.787402,
        -0.295276 -0.098425 0.787402,
        -0.009843 -0.246063 0.787402,
        -0.797244 -0.246063 0.787402,
        -0.787402 -0.236220 0.787402,
        -1.082677 0.098425 0.787402,
        -0.777559 -0.246063 0.787402,
        -0.629921 -0.393701 0.787402,
        -0.157480 -0.393701 0.787402,
        -1.417323 -0.393701 0.787402,
        -0.944882 -0.393701 0.787402,
        -2.066929 0.098425 0.787402,
        -2.362205 -0.236220 0.787402,
        -2.066929 -0.098425 0.787402,
        -2.352362 -0.246063 0.787402,
        -1.870079 -0.098425 0.787402,
        -1.870079 0.098425 0.787402,
        -1.574803 0.236220 0.787402,
        -1.732283 0.393701 0.787402,
        -2.204724 0.393701 0.787402,
        -2.362205 0.236220 0.787402,
        -1.584646 -0.246063 0.787402,
        -0.492126 -0.098425 0.787402,
        -2.204724 -0.393701 0.787402,
        -1.732283 -0.393701 0.787402,
        -2.854331 0.098425 0.787402,
        -3.149606 -0.236220 0.787402,
        -2.854331 -0.098425 0.787402,
        -3.139764 -0.246063 0.787402,
        -2.657480 -0.098425 0.787402,
        -2.657480 0.098425 0.787402,
        -2.519685 0.393701 0.787402,
        -2.992126 0.393701 0.787402,
        -3.149606 0.236220 0.787402,
        -2.372047 -0.246063 0.787402,
        -2.992126 -0.393701 0.787402,
        -2.519685 -0.393701 0.787402,
        -3.307087 0.393701 0.787402,
        -3.444882 0.098425 0.787402,
        -3.779528 0.393701 0.787402,
        -3.641732 0.098425 0.787402,
        -3.789370 0.383858 0.787402,
        -3.641732 -0.098425 0.787402,
        -3.789370 -0.246063 0.787402,
        -3.444882 -0.098425 0.787402,
        -3.159449 -0.246063 0.787402,
        -3.937008 0.236220 0.787402,
        -3.937008 -0.236220 0.787402,
        -3.927165 -0.246063 0.787402,
        1.515748 0.295276 0.000000,
        0.846457 0.295276 0.000000,
        1.417323 0.393701 0.000000,
        0.944882 0.393701 0.000000,
        0.728346 0.295276 0.000000,
        0.059055 0.295276 0.000000,
        0.629921 0.393701 0.000000,
        0.157480 0.393701 0.000000,
        3.090551 0.295276 0.000000,
        2.421260 0.295276 0.000000,
        2.992126 0.393701 0.000000,
        2.519685 0.393701 0.000000,
        1.732283 0.393701 0.000000,
        2.204724 0.393701 0.000000,
        1.633858 0.295276 0.000000,
        2.303150 0.295276 0.000000,
        -1.633858 0.295276 0.000000,
        -2.303150 0.295276 0.000000,
        -1.732283 0.393701 0.000000,
        -2.204724 0.393701 0.000000,
        -2.421260 0.295276 0.000000,
        -3.090551 0.295276 0.000000,
        -2.519685 0.393701 0.000000,
        -2.992126 0.393701 0.000000,
        -0.059055 0.295276 0.000000,
        -0.728346 0.295276 0.000000,
        -0.157480 0.393701 0.000000,
        -0.629921 0.393701 0.000000,
        -1.417323 0.393701 0.000000,
        -0.944882 0.393701 0.000000,
        -1.515748 0.295276 0.000000,
        -0.846457 0.295276 0.000000,
        1.417323 -0.393701 0.000000,
        0.944882 -0.393701 0.000000,
        0.629921 -0.393701 0.000000,
        0.157480 -0.393701 0.000000,
        2.992126 -0.393701 0.000000,
        2.519685 -0.393701 0.000000,
        1.732283 -0.393701 0.000000,
        2.204724 -0.393701 0.000000,
        -1.732283 -0.393701 0.000000,
        -2.204724 -0.393701 0.000000,
        -2.519685 -0.393701 0.000000,
        -2.992126 -0.393701 0.000000,
        -0.157480 -0.393701 0.000000,
        -0.629921 -0.393701 0.000000,
        -1.417323 -0.393701 0.000000,
        -0.944882 -0.393701 0.000000,
        1.515748 -0.295276 0.000000,
        0.846457 -0.295276 0.000000,
        0.728346 -0.295276 0.000000,
        0.059055 -0.295276 0.000000,
        3.090551 -0.295276 0.000000,
        2.421260 -0.295276 0.000000,
        1.633858 -0.295276 0.000000,
        2.303150 -0.295276 0.000000,
        -1.633858 -0.295276 0.000000,
        -2.303150 -0.295276 0.000000,
        -2.421260 -0.295276 0.000000,
        -3.090551 -0.295276 0.000000,
        -0.059055 -0.295276 0.000000,
        -0.728346 -0.295276 0.000000,
        -1.515748 -0.295276 0.000000,
        -0.846457 -0.295276 0.000000,
        3.307087 0.393701 0.000000,
        3.779528 0.393701 0.000000,
        3.208662 0.295276 0.000000,
        3.877953 0.295276 0.000000,
        -3.877953 0.295276 0.000000,
        -3.779528 0.393701 0.000000,
        -3.208662 0.295276 0.000000,
        -3.307087 0.393701 0.000000,
        -3.208662 -0.295276 0.000000,
        -3.307087 -0.393701 0.000000,
        -3.877953 -0.295276 0.000000,
        -3.779528 -0.393701 0.000000,
        3.307087 -0.393701 0.000000,
        3.779528 -0.393701 0.000000,
        3.937008 0.196850 0.157480,
        3.208662 -0.295276 0.000000,
        3.877953 -0.295276 0.000000,
      ]
    }
    coordIndex [
      0, 1, 2, -1,
      3, 4, 5, -1,
      6, 7, 8, -1,
      9, 10, 11, -1,
      12, 13, 14, -1,
      15, 16, 17, -1,
      17, 16, 18, -1,
      17, 18, 19, -1,
      20, 21, 22, -1,
      22, 21, 19, -1,
      22, 19, 23, -1,
      23, 19, 18, -1,
      14, 13, 24, -1,
      25, 26, 27, -1,
      28, 29, 30, -1,
      31, 32, 33, -1,
      33, 32, 34, -1,
      35, 36, 37, -1,
      37, 36, 38, -1,
      37, 38, 39, -1,
      11, 10, 40, -1,
      41, 42, 43, -1,
      43, 42, 44, -1,
      45, 46, 47, -1,
      47, 46, 48, -1,
      47, 48, 44, -1,
      44, 48, 49, -1,
      44, 49, 43, -1,
      50, 51, 52, -1,
      52, 51, 53, -1,
      52, 53, 54, -1,
      54, 53, 55, -1,
      56, 57, 58, -1,
      58, 57, 59, -1,
      60, 61, 59, -1,
      59, 61, 62, -1,
      59, 62, 58, -1,
      63, 64, 65, -1,
      65, 64, 2, -1,
      65, 2, 66, -1,
      5, 67, 66, -1,
      68, 69, 70, -1,
      70, 69, 71, -1,
      70, 71, 72, -1,
      72, 71, 73, -1,
      73, 71, 74, -1,
      73, 74, 75, -1,
      75, 74, 76, -1,
      75, 76, 77, -1,
      78, 79, 9, -1,
      78, 9, 80, -1,
      79, 78, 81, -1,
      81, 78, 82, -1,
      81, 82, 83, -1,
      83, 82, 84, -1,
      83, 84, 85, -1,
      8, 86, 87, -1,
      88, 6, 89, -1,
      89, 6, 8, -1,
      89, 8, 90, -1,
      90, 8, 87, -1,
      91, 86, 92, -1,
      92, 86, 8, -1,
      92, 8, 50, -1,
      50, 8, 7, -1,
      50, 7, 51, -1,
      89, 93, 88, -1,
      88, 93, 83, -1,
      88, 83, 55, -1,
      55, 83, 85, -1,
      55, 85, 54, -1,
      54, 85, 84, -1,
      54, 84, 94, -1,
      11, 42, 9, -1,
      9, 42, 41, -1,
      9, 41, 80, -1,
      80, 41, 43, -1,
      80, 43, 95, -1,
      95, 43, 96, -1,
      95, 96, 94, -1,
      94, 96, 97, -1,
      94, 97, 54, -1,
      98, 99, 46, -1,
      10, 100, 40, -1,
      40, 100, 75, -1,
      40, 75, 45, -1,
      45, 75, 77, -1,
      45, 77, 46, -1,
      46, 77, 76, -1,
      46, 76, 98, -1,
      99, 98, 101, -1,
      101, 98, 102, -1,
      101, 102, 38, -1,
      102, 69, 38, -1,
      38, 69, 68, -1,
      38, 68, 39, -1,
      39, 68, 70, -1,
      39, 70, 103, -1,
      103, 70, 104, -1,
      103, 104, 34, -1,
      34, 104, 105, -1,
      34, 105, 33, -1,
      33, 105, 106, -1,
      33, 106, 67, -1,
      107, 35, 108, -1,
      67, 5, 33, -1,
      33, 5, 109, -1,
      33, 109, 110, -1,
      37, 31, 35, -1,
      35, 31, 33, -1,
      35, 33, 108, -1,
      108, 33, 110, -1,
      111, 112, 113, -1,
      114, 115, 116, -1,
      116, 115, 117, -1,
      4, 118, 5, -1,
      5, 118, 119, -1,
      5, 119, 109, -1,
      109, 119, 120, -1,
      109, 120, 121, -1,
      112, 122, 113, -1,
      113, 122, 123, -1,
      113, 123, 115, -1,
      115, 123, 107, -1,
      115, 107, 117, -1,
      117, 107, 108, -1,
      122, 124, 123, -1,
      123, 124, 125, -1,
      123, 125, 126, -1,
      121, 127, 109, -1,
      109, 127, 128, -1,
      109, 128, 129, -1,
      129, 130, 109, -1,
      109, 130, 131, -1,
      109, 131, 113, -1,
      113, 131, 132, -1,
      113, 132, 111, -1,
      66, 2, 5, -1,
      5, 2, 1, -1,
      5, 1, 133, -1,
      126, 3, 123, -1,
      123, 3, 5, -1,
      123, 5, 134, -1,
      134, 5, 133, -1,
      135, 136, 137, -1,
      138, 139, 140, -1,
      140, 139, 123, -1,
      140, 123, 141, -1,
      142, 143, 134, -1,
      134, 143, 144, -1,
      134, 144, 123, -1,
      123, 144, 135, -1,
      123, 135, 141, -1,
      141, 135, 137, -1,
      145, 146, 2, -1,
      2, 146, 147, -1,
      2, 147, 148, -1,
      138, 149, 150, -1,
      64, 151, 152, -1,
      153, 154, 155, -1,
      140, 0, 138, -1,
      138, 0, 2, -1,
      138, 2, 149, -1,
      149, 2, 148, -1,
      149, 148, 156, -1,
      153, 155, 157, -1,
      158, 159, 160, -1,
      160, 159, 161, -1,
      160, 161, 162, -1,
      152, 163, 64, -1,
      64, 163, 164, -1,
      64, 164, 2, -1,
      2, 164, 165, -1,
      2, 165, 145, -1,
      155, 166, 167, -1,
      168, 169, 64, -1,
      64, 169, 170, -1,
      64, 170, 151, -1,
      148, 171, 156, -1,
      156, 171, 172, -1,
      156, 172, 173, -1,
      173, 172, 174, -1,
      173, 174, 175, -1,
      175, 174, 176, -1,
      155, 177, 178, -1,
      154, 179, 155, -1,
      155, 179, 180, -1,
      155, 180, 166, -1,
      181, 182, 183, -1,
      183, 182, 155, -1,
      183, 155, 184, -1,
      184, 155, 167, -1,
      162, 185, 160, -1,
      160, 185, 186, -1,
      160, 186, 187, -1,
      181, 183, 174, -1,
      174, 183, 188, -1,
      174, 188, 176, -1,
      178, 189, 155, -1,
      155, 189, 190, -1,
      155, 190, 157, -1,
      150, 191, 138, -1,
      138, 191, 192, -1,
      138, 192, 193, -1,
      193, 192, 194, -1,
      193, 194, 160, -1,
      160, 194, 195, -1,
      160, 195, 158, -1,
      196, 197, 198, -1,
      198, 197, 199, -1,
      196, 198, 200, -1,
      200, 198, 201, -1,
      200, 201, 30, -1,
      201, 57, 30, -1,
      30, 57, 56, -1,
      30, 56, 28, -1,
      28, 56, 58, -1,
      28, 58, 202, -1,
      202, 58, 203, -1,
      202, 203, 26, -1,
      26, 203, 204, -1,
      26, 204, 27, -1,
      205, 206, 207, -1,
      207, 206, 208, -1,
      207, 208, 209, -1,
      209, 208, 210, -1,
      210, 208, 211, -1,
      210, 211, 212, -1,
      212, 211, 213, -1,
      212, 213, 214, -1,
      215, 216, 12, -1,
      217, 218, 219, -1,
      219, 218, 220, -1,
      219, 220, 216, -1,
      216, 220, 221, -1,
      216, 221, 12, -1,
      222, 223, 217, -1,
      217, 223, 224, -1,
      217, 224, 218, -1,
      14, 21, 12, -1,
      12, 21, 20, -1,
      12, 20, 215, -1,
      215, 20, 22, -1,
      215, 22, 225, -1,
      225, 22, 226, -1,
      225, 226, 222, -1,
      222, 226, 227, -1,
      222, 227, 223, -1,
      228, 229, 16, -1,
      13, 230, 24, -1,
      24, 230, 212, -1,
      24, 212, 15, -1,
      15, 212, 214, -1,
      15, 214, 16, -1,
      16, 214, 213, -1,
      16, 213, 228, -1,
      229, 228, 231, -1,
      231, 228, 232, -1,
      231, 232, 27, -1,
      232, 206, 27, -1,
      27, 206, 205, -1,
      27, 205, 25, -1,
      25, 205, 207, -1,
      25, 207, 233, -1,
      233, 207, 234, -1,
      233, 234, 29, -1,
      29, 234, 235, -1,
      29, 235, 30, -1,
      64, 197, 236, -1,
      236, 197, 237, -1,
      236, 238, 64, -1,
      64, 238, 239, -1,
      64, 239, 240, -1,
      237, 197, 241, -1,
      241, 197, 196, -1,
      241, 196, 240, -1,
      240, 196, 160, -1,
      240, 160, 64, -1,
      64, 160, 187, -1,
      64, 187, 168, -1,
      63, 242, 64, -1,
      64, 242, 61, -1,
      64, 61, 197, -1,
      197, 61, 60, -1,
      197, 60, 199, -1,
      243, 244, 245, -1,
      246, 247, 248, -1,
      248, 247, 249, -1,
      248, 249, 250, -1,
      250, 251, 252, -1,
      253, 252, 254, -1,
      254, 252, 255, -1,
      254, 255, 256, -1,
      256, 257, 258, -1,
      259, 260, 261, -1,
      261, 260, 262, -1,
      261, 262, 253, -1,
      253, 262, 263, -1,
      253, 263, 252, -1,
      252, 263, 264, -1,
      252, 264, 250, -1,
      265, 258, 266, -1,
      266, 258, 267, -1,
      266, 267, 268, -1,
      269, 270, 271, -1,
      271, 270, 272, -1,
      271, 272, 265, -1,
      265, 272, 259, -1,
      265, 259, 258, -1,
      258, 259, 261, -1,
      258, 261, 256, -1,
      269, 271, 273, -1,
      273, 271, 268, -1,
      273, 268, 274, -1,
      268, 267, 274, -1,
      274, 267, 275, -1,
      274, 275, 276, -1,
      256, 255, 257, -1,
      257, 255, 277, -1,
      257, 277, 278, -1,
      250, 249, 251, -1,
      251, 249, 279, -1,
      251, 279, 280, -1,
      281, 282, 283, -1,
      283, 282, 284, -1,
      283, 284, 285, -1,
      285, 286, 247, -1,
      263, 287, 264, -1,
      264, 287, 288, -1,
      264, 288, 246, -1,
      246, 288, 289, -1,
      246, 289, 247, -1,
      247, 289, 290, -1,
      247, 290, 285, -1,
      285, 284, 286, -1,
      286, 284, 291, -1,
      286, 291, 292, -1,
      293, 294, 295, -1,
      295, 294, 296, -1,
      295, 296, 297, -1,
      297, 298, 282, -1,
      299, 300, 301, -1,
      301, 300, 302, -1,
      301, 302, 293, -1,
      293, 302, 303, -1,
      293, 303, 294, -1,
      289, 304, 290, -1,
      290, 304, 305, -1,
      290, 305, 281, -1,
      281, 305, 299, -1,
      281, 299, 282, -1,
      282, 299, 301, -1,
      282, 301, 297, -1,
      297, 296, 298, -1,
      298, 296, 306, -1,
      298, 306, 307, -1,
      308, 309, 310, -1,
      310, 309, 311, -1,
      312, 313, 314, -1,
      314, 313, 315, -1,
      314, 315, 316, -1,
      317, 310, 318, -1,
      318, 310, 311, -1,
      318, 311, 303, -1,
      303, 311, 319, -1,
      303, 319, 294, -1,
      294, 319, 320, -1,
      294, 320, 321, -1,
      322, 323, 316, -1,
      316, 323, 324, -1,
      325, 326, 321, -1,
      321, 326, 327, -1,
      316, 315, 322, -1,
      322, 315, 328, -1,
      322, 328, 329, -1,
      330, 331, 332, -1,
      332, 331, 333, -1,
      332, 333, 334, -1,
      330, 335, 336, -1,
      337, 338, 339, -1,
      334, 340, 313, -1,
      321, 320, 325, -1,
      325, 320, 341, -1,
      325, 341, 323, -1,
      323, 341, 311, -1,
      323, 311, 324, -1,
      324, 311, 309, -1,
      324, 309, 312, -1,
      312, 309, 336, -1,
      312, 336, 313, -1,
      313, 336, 335, -1,
      313, 335, 334, -1,
      334, 333, 340, -1,
      340, 333, 342, -1,
      340, 342, 343, -1,
      344, 345, 346, -1,
      346, 345, 347, -1,
      346, 347, 348, -1,
      344, 349, 339, -1,
      350, 351, 352, -1,
      348, 353, 331, -1,
      336, 337, 330, -1,
      330, 337, 339, -1,
      330, 339, 331, -1,
      331, 339, 349, -1,
      331, 349, 348, -1,
      348, 347, 353, -1,
      353, 347, 354, -1,
      353, 354, 355, -1,
      339, 350, 344, -1,
      344, 350, 352, -1,
      344, 352, 345, -1,
      345, 352, 356, -1,
      345, 356, 357, -1,
      357, 356, 358, -1,
      357, 358, 359, -1,
      359, 358, 360, -1,
      359, 360, 361, -1,
      361, 360, 362, -1,
      361, 362, 363, -1,
      363, 362, 364, -1,
      363, 364, 357, -1,
      357, 364, 345, -1,
      365, 366, 360, -1,
      360, 366, 367, -1,
      360, 367, 362, -1,
      362, 367, 243, -1,
      362, 243, 364, -1,
      364, 243, 245, -1,
      368, 369, 370, -1,
      370, 369, 371, -1,
      372, 373, 374, -1,
      374, 373, 375, -1,
      376, 377, 378, -1,
      378, 377, 379, -1,
      380, 381, 382, -1,
      382, 381, 383, -1,
      384, 385, 386, -1,
      386, 385, 387, -1,
      388, 389, 390, -1,
      390, 389, 391, -1,
      392, 393, 394, -1,
      394, 393, 395, -1,
      396, 397, 398, -1,
      398, 397, 399, -1,
      292, 291, 400, -1,
      400, 291, 401, -1,
      307, 306, 402, -1,
      402, 306, 403, -1,
      278, 277, 404, -1,
      404, 277, 405, -1,
      406, 407, 279, -1,
      279, 407, 280, -1,
      343, 342, 408, -1,
      408, 342, 409, -1,
      355, 354, 410, -1,
      410, 354, 411, -1,
      327, 326, 412, -1,
      412, 326, 413, -1,
      414, 415, 328, -1,
      328, 415, 329, -1,
      370, 371, 304, -1,
      304, 371, 305, -1,
      374, 375, 300, -1,
      300, 375, 302, -1,
      378, 379, 260, -1,
      260, 379, 262, -1,
      288, 287, 380, -1,
      380, 287, 381, -1,
      386, 387, 337, -1,
      337, 387, 338, -1,
      390, 391, 350, -1,
      350, 391, 351, -1,
      394, 395, 318, -1,
      318, 395, 317, -1,
      309, 308, 396, -1,
      396, 308, 397, -1,
      400, 401, 416, -1,
      416, 401, 417, -1,
      402, 403, 418, -1,
      418, 403, 419, -1,
      404, 405, 420, -1,
      420, 405, 421, -1,
      422, 423, 406, -1,
      406, 423, 407, -1,
      408, 409, 424, -1,
      424, 409, 425, -1,
      410, 411, 426, -1,
      426, 411, 427, -1,
      412, 413, 428, -1,
      428, 413, 429, -1,
      430, 431, 414, -1,
      414, 431, 415, -1,
      204, 203, 368, -1,
      368, 203, 369, -1,
      62, 63, 372, -1,
      372, 63, 373, -1,
      23, 18, 376, -1,
      376, 18, 377, -1,
      382, 383, 231, -1,
      231, 383, 229, -1,
      100, 10, 384, -1,
      384, 10, 385, -1,
      79, 81, 388, -1,
      388, 81, 389, -1,
      106, 104, 392, -1,
      392, 104, 393, -1,
      398, 399, 73, -1,
      73, 399, 72, -1,
      416, 417, 234, -1,
      234, 417, 235, -1,
      418, 419, 200, -1,
      200, 419, 193, -1,
      420, 421, 13, -1,
      13, 421, 230, -1,
      209, 210, 422, -1,
      422, 210, 423, -1,
      424, 425, 48, -1,
      48, 425, 49, -1,
      426, 427, 96, -1,
      96, 427, 97, -1,
      428, 429, 107, -1,
      107, 429, 36, -1,
      99, 101, 430, -1,
      430, 101, 431, -1,
      432, 433, 434, -1,
      434, 433, 435, -1,
      436, 437, 438, -1,
      438, 437, 439, -1,
      440, 441, 442, -1,
      442, 441, 443, -1,
      439, 437, 356, -1,
      356, 437, 358, -1,
      444, 445, 275, -1,
      275, 445, 276, -1,
      223, 269, 446, -1,
      446, 269, 273, -1,
      446, 273, 218, -1,
      272, 270, 432, -1,
      432, 270, 433, -1,
      91, 366, 87, -1,
      87, 366, 365, -1,
      443, 441, 244, -1,
      244, 441, 245, -1,
      447, 448, 444, -1,
      444, 448, 445, -1,
      437, 436, 90, -1,
      87, 365, 90, -1,
      90, 365, 358, -1,
      90, 358, 437, -1,
      438, 439, 93, -1,
      93, 439, 356, -1,
      93, 356, 83, -1,
      83, 356, 352, -1,
      245, 441, 52, -1,
      52, 441, 440, -1,
      245, 52, 364, -1,
      364, 52, 54, -1,
      364, 54, 345, -1,
      442, 443, 92, -1,
      92, 443, 244, -1,
      92, 244, 91, -1,
      91, 244, 366, -1,
      93, 90, 438, -1,
      438, 90, 436, -1,
      434, 435, 226, -1,
      226, 435, 227, -1,
      221, 220, 447, -1,
      447, 220, 448, -1,
      92, 52, 442, -1,
      442, 52, 440, -1,
    ]
  }
}

Shape {
  appearance Appearance {
    material Material {
      diffuseColor 0.7529 0.7529 0.7529
      specularColor 0.3765 0.3765 0.3765
      ambientIntensity 0.2
      transparency 0.0000
      shininess 0.5
    }
  }
  geometry IndexedFaceSet {
    ccw TRUE
    solid FALSE
    coord DEF co Coordinate {
      point [
        -3.641732 0.098425 0.157480,
        -3.641732 -0.098425 0.157480,
        -3.444882 -0.098425 0.157480,
        -3.444882 0.098425 0.157480,
        -3.444882 0.098425 0.787402,
        -3.641732 0.098425 0.787402,
        -3.641732 -0.098425 0.787402,
        -3.444882 -0.098425 0.787402,
        -3.641732 0.019685 -1.102362,
        -3.641732 0.098425 -1.023622,
        -3.444882 0.019685 -1.102362,
        -3.444882 0.098425 -1.023622,
        -3.641732 -0.019685 -1.102362,
        -3.444882 -0.019685 -1.102362,
        -3.641732 -0.098425 -1.023622,
        -3.444882 -0.098425 -1.023622,
        -3.444882 -0.098425 2.283465,
        -3.641732 -0.098425 2.283465,
        -3.641732 -0.019685 2.362205,
        -3.444882 -0.019685 2.362205,
        -3.641732 0.019685 2.362205,
        -3.444882 0.019685 2.362205,
        -3.641732 0.098425 2.283465,
        -3.444882 0.098425 2.283465,
      ]
    }
    coordIndex [
      8, 9, 10, -1,
      10, 9, 11, -1,
      12, 8, 13, -1,
      13, 8, 10, -1,
      14, 12, 15, -1,
      15, 12, 13, -1,
      13, 10, 15, -1,
      15, 10, 11, -1,
      15, 11, 2, -1,
      2, 11, 3, -1,
      8, 12, 9, -1,
      9, 12, 14, -1,
      9, 14, 0, -1,
      0, 14, 1, -1,
      3, 11, 0, -1,
      0, 11, 9, -1,
      1, 14, 2, -1,
      2, 14, 15, -1,
      16, 17, 7, -1,
      7, 17, 6, -1,
      18, 17, 19, -1,
      19, 17, 16, -1,
      20, 18, 21, -1,
      21, 18, 19, -1,
      22, 20, 23, -1,
      23, 20, 21, -1,
      22, 23, 5, -1,
      5, 23, 4, -1,
      20, 22, 18, -1,
      18, 22, 5, -1,
      18, 5, 17, -1,
      17, 5, 6, -1,
      19, 16, 21, -1,
      21, 16, 7, -1,
      21, 7, 23, -1,
      23, 7, 4, -1,
    ]
  }
}

Shape {
  appearance Appearance {
    material Material {
      diffuseColor 0.1490 0.1490 0.1490
      specularColor 0.0745 0.0745 0.0745
      ambientIntensity 0.2
      transparency 0.0000
      shininess 0.5
    }
  }
  geometry IndexedFaceSet {
    ccw TRUE
    solid FALSE
    coord DEF co Coordinate {
      point [
        -2.362205 0.236220 0.157480,
        -2.303150 0.295276 0.157480,
        3.149606 -0.236220 0.157480,
        3.090551 -0.295276 0.157480,
        2.362205 0.236220 0.157480,
        2.421260 0.295276 0.157480,
        3.149606 0.236220 0.157480,
        3.090551 0.295276 0.157480,
        1.574803 0.236220 0.157480,
        0.787402 -0.236220 0.157480,
        -0.728346 -0.295276 0.157480,
        -0.787402 -0.236220 0.157480,
        -2.362205 -0.236220 0.157480,
        -1.574803 -0.236220 0.157480,
        -1.633858 -0.295276 0.157480,
        -2.303150 -0.295276 0.157480,
        -3.149606 -0.236220 0.157480,
        0.787402 0.236220 0.157480,
        0.728346 0.295276 0.157480,
        0.059055 0.295276 0.157480,
        -0.000000 0.236220 0.157480,
        -0.787402 0.236220 0.157480,
        -0.846457 0.295276 0.157480,
        -1.515748 0.295276 0.157480,
        -1.574803 0.236220 0.157480,
        -2.421260 0.295276 0.157480,
        -3.090551 0.295276 0.157480,
        -3.149606 0.236220 0.157480,
        -2.421260 -0.295276 0.157480,
        -3.090551 -0.295276 0.157480,
        -1.515748 -0.295276 0.157480,
        -1.633858 0.295276 0.157480,
        -0.846457 -0.295276 0.157480,
        -0.728346 0.295276 0.157480,
        -0.059055 0.295276 0.157480,
        -0.059055 -0.295276 0.157480,
        -0.000000 -0.236220 0.157480,
        0.059055 -0.295276 0.157480,
        0.728346 -0.295276 0.157480,
        0.846457 0.295276 0.157480,
        1.515748 0.295276 0.157480,
        1.574803 -0.236220 0.157480,
        1.633858 -0.295276 0.157480,
        2.303150 -0.295276 0.157480,
        2.362205 -0.236220 0.157480,
        3.937008 -0.236220 0.157480,
        3.877953 -0.295276 0.157480,
        3.208662 -0.295276 0.157480,
        3.937008 0.236220 0.157480,
        3.208662 0.295276 0.157480,
        3.877953 0.295276 0.157480,
        2.303150 0.295276 0.157480,
        2.421260 -0.295276 0.157480,
        1.633858 0.295276 0.157480,
        1.515748 -0.295276 0.157480,
        0.846457 -0.295276 0.157480,
        1.574803 -0.236220 0.787402,
        1.584646 -0.246063 0.787402,
        2.352362 -0.246063 0.787402,
        2.362205 -0.236220 0.787402,
        2.372047 -0.246063 0.787402,
        3.139764 -0.246063 0.787402,
        3.149606 -0.236220 0.787402,
        3.149606 0.236220 0.787402,
        2.992126 0.393701 0.787402,
        2.519685 0.393701 0.787402,
        2.362205 0.236220 0.787402,
        3.159449 -0.246063 0.787402,
        3.937008 0.236220 0.787402,
        3.779528 0.393701 0.787402,
        3.307087 0.393701 0.787402,
        3.937008 -0.236220 0.787402,
        3.927165 -0.246063 0.787402,
        3.307087 -0.393701 0.787402,
        3.779528 -0.393701 0.787402,
        2.519685 -0.393701 0.787402,
        2.992126 -0.393701 0.787402,
        1.732283 -0.393701 0.787402,
        2.204724 -0.393701 0.787402,
        0.787402 -0.236220 0.787402,
        0.797244 -0.246063 0.787402,
        1.564961 -0.246063 0.787402,
        2.204724 0.393701 0.787402,
        1.732283 0.393701 0.787402,
        1.574803 0.236220 0.787402,
        0.944882 -0.393701 0.787402,
        1.417323 -0.393701 0.787402,
        -0.000000 -0.236220 0.787402,
        0.009843 -0.246063 0.787402,
        0.777559 -0.246063 0.787402,
        0.787402 0.236220 0.787402,
        0.629921 0.393701 0.787402,
        0.157480 0.393701 0.787402,
        -0.000000 0.236220 0.787402,
        1.417323 0.393701 0.787402,
        0.944882 0.393701 0.787402,
        0.157480 -0.393701 0.787402,
        0.629921 -0.393701 0.787402,
        -0.944882 0.393701 0.787402,
        -1.417323 0.393701 0.787402,
        -0.787402 0.236220 0.787402,
        -1.574803 -0.236220 0.787402,
        -1.564961 -0.246063 0.787402,
        -0.629921 0.393701 0.787402,
        -0.157480 0.393701 0.787402,
        -0.009843 -0.246063 0.787402,
        -0.797244 -0.246063 0.787402,
        -0.787402 -0.236220 0.787402,
        -0.777559 -0.246063 0.787402,
        -0.629921 -0.393701 0.787402,
        -0.157480 -0.393701 0.787402,
        -1.417323 -0.393701 0.787402,
        -0.944882 -0.393701 0.787402,
        -2.362205 -0.236220 0.787402,
        -2.352362 -0.246063 0.787402,
        -1.574803 0.236220 0.787402,
        -1.732283 0.393701 0.787402,
        -2.204724 0.393701 0.787402,
        -2.362205 0.236220 0.787402,
        -1.584646 -0.246063 0.787402,
        -2.204724 -0.393701 0.787402,
        -1.732283 -0.393701 0.787402,
        -3.149606 -0.236220 0.787402,
        -3.139764 -0.246063 0.787402,
        -2.519685 0.393701 0.787402,
        -2.992126 0.393701 0.787402,
        -3.149606 0.236220 0.787402,
        -2.372047 -0.246063 0.787402,
        -2.992126 -0.393701 0.787402,
        -2.519685 -0.393701 0.787402,
        1.515748 0.295276 0.000000,
        0.846457 0.295276 0.000000,
        1.417323 0.393701 0.000000,
        0.944882 0.393701 0.000000,
        0.728346 0.295276 0.000000,
        0.059055 0.295276 0.000000,
        0.629921 0.393701 0.000000,
        0.157480 0.393701 0.000000,
        3.090551 0.295276 0.000000,
        2.421260 0.295276 0.000000,
        2.992126 0.393701 0.000000,
        2.519685 0.393701 0.000000,
        1.732283 0.393701 0.000000,
        2.204724 0.393701 0.000000,
        1.633858 0.295276 0.000000,
        2.303150 0.295276 0.000000,
        -1.633858 0.295276 0.000000,
        -2.303150 0.295276 0.000000,
        -1.732283 0.393701 0.000000,
        -2.204724 0.393701 0.000000,
        -2.421260 0.295276 0.000000,
        -3.090551 0.295276 0.000000,
        -2.519685 0.393701 0.000000,
        -2.992126 0.393701 0.000000,
        -0.059055 0.295276 0.000000,
        -0.728346 0.295276 0.000000,
        -0.157480 0.393701 0.000000,
        -0.629921 0.393701 0.000000,
        -1.417323 0.393701 0.000000,
        -0.944882 0.393701 0.000000,
        -1.515748 0.295276 0.000000,
        -0.846457 0.295276 0.000000,
        1.417323 -0.393701 0.000000,
        0.944882 -0.393701 0.000000,
        0.629921 -0.393701 0.000000,
        0.157480 -0.393701 0.000000,
        2.992126 -0.393701 0.000000,
        2.519685 -0.393701 0.000000,
        1.732283 -0.393701 0.000000,
        2.204724 -0.393701 0.000000,
        -1.732283 -0.393701 0.000000,
        -2.204724 -0.393701 0.000000,
        -2.519685 -0.393701 0.000000,
        -2.992126 -0.393701 0.000000,
        -0.157480 -0.393701 0.000000,
        -0.629921 -0.393701 0.000000,
        -1.417323 -0.393701 0.000000,
        -0.944882 -0.393701 0.000000,
        1.515748 -0.295276 0.000000,
        0.846457 -0.295276 0.000000,
        0.728346 -0.295276 0.000000,
        0.059055 -0.295276 0.000000,
        3.090551 -0.295276 0.000000,
        2.421260 -0.295276 0.000000,
        1.633858 -0.295276 0.000000,
        2.303150 -0.295276 0.000000,
        -1.633858 -0.295276 0.000000,
        -2.303150 -0.295276 0.000000,
        -2.421260 -0.295276 0.000000,
        -3.090551 -0.295276 0.000000,
        -0.059055 -0.295276 0.000000,
        -0.728346 -0.295276 0.000000,
        -1.515748 -0.295276 0.000000,
        -0.846457 -0.295276 0.000000,
        3.307087 0.393701 0.000000,
        3.779528 0.393701 0.000000,
        3.208662 0.295276 0.000000,
        3.877953 0.295276 0.000000,
        3.307087 -0.393701 0.000000,
        3.779528 -0.393701 0.000000,
        3.208662 -0.295276 0.000000,
        3.877953 -0.295276 0.000000,
      ]
    }
    coordIndex [
      74, 199, 46, -1,
      46, 199, 201, -1,
      74, 46, 72, -1,
      72, 46, 45, -1,
      72, 45, 71, -1,
      112, 177, 32, -1,
      32, 177, 193, -1,
      112, 32, 106, -1,
      106, 32, 11, -1,
      106, 11, 107, -1,
      10, 191, 175, -1,
      107, 11, 108, -1,
      108, 11, 10, -1,
      108, 10, 109, -1,
      109, 10, 175, -1,
      110, 174, 35, -1,
      35, 174, 190, -1,
      110, 35, 105, -1,
      105, 35, 36, -1,
      105, 36, 87, -1,
      37, 181, 165, -1,
      87, 36, 88, -1,
      88, 36, 37, -1,
      88, 37, 96, -1,
      96, 37, 165, -1,
      29, 189, 173, -1,
      122, 16, 123, -1,
      123, 16, 29, -1,
      123, 29, 128, -1,
      128, 29, 173, -1,
      129, 172, 28, -1,
      28, 172, 188, -1,
      129, 28, 127, -1,
      127, 28, 12, -1,
      127, 12, 113, -1,
      15, 187, 171, -1,
      113, 12, 114, -1,
      114, 12, 15, -1,
      114, 15, 120, -1,
      120, 15, 171, -1,
      121, 170, 14, -1,
      14, 170, 186, -1,
      121, 14, 119, -1,
      119, 14, 13, -1,
      119, 13, 101, -1,
      30, 192, 176, -1,
      101, 13, 102, -1,
      102, 13, 30, -1,
      102, 30, 111, -1,
      111, 30, 176, -1,
      78, 169, 43, -1,
      43, 169, 185, -1,
      78, 43, 58, -1,
      58, 43, 44, -1,
      58, 44, 59, -1,
      52, 183, 167, -1,
      59, 44, 60, -1,
      60, 44, 52, -1,
      60, 52, 75, -1,
      75, 52, 167, -1,
      76, 166, 3, -1,
      3, 166, 182, -1,
      76, 3, 61, -1,
      61, 3, 2, -1,
      61, 2, 62, -1,
      47, 200, 198, -1,
      62, 2, 67, -1,
      67, 2, 47, -1,
      67, 47, 73, -1,
      73, 47, 198, -1,
      97, 164, 38, -1,
      38, 164, 180, -1,
      97, 38, 89, -1,
      89, 38, 9, -1,
      89, 9, 79, -1,
      55, 179, 163, -1,
      79, 9, 80, -1,
      80, 9, 55, -1,
      80, 55, 85, -1,
      85, 55, 163, -1,
      86, 162, 54, -1,
      54, 162, 178, -1,
      86, 54, 81, -1,
      81, 54, 41, -1,
      81, 41, 56, -1,
      42, 184, 168, -1,
      56, 41, 57, -1,
      57, 41, 42, -1,
      57, 42, 77, -1,
      77, 42, 168, -1,
      153, 151, 26, -1,
      27, 126, 26, -1,
      26, 126, 125, -1,
      26, 125, 153, -1,
      197, 195, 50, -1,
      50, 195, 69, -1,
      50, 69, 48, -1,
      48, 69, 68, -1,
      161, 159, 22, -1,
      22, 159, 98, -1,
      22, 98, 21, -1,
      21, 98, 100, -1,
      157, 155, 33, -1,
      21, 100, 33, -1,
      33, 100, 103, -1,
      33, 103, 157, -1,
      154, 156, 34, -1,
      34, 156, 104, -1,
      34, 104, 20, -1,
      20, 104, 93, -1,
      137, 135, 19, -1,
      20, 93, 19, -1,
      19, 93, 92, -1,
      19, 92, 137, -1,
      150, 152, 25, -1,
      25, 152, 124, -1,
      25, 124, 0, -1,
      0, 124, 118, -1,
      149, 147, 1, -1,
      0, 118, 1, -1,
      1, 118, 117, -1,
      1, 117, 149, -1,
      146, 148, 31, -1,
      31, 148, 116, -1,
      31, 116, 24, -1,
      24, 116, 115, -1,
      158, 160, 23, -1,
      24, 115, 23, -1,
      23, 115, 99, -1,
      23, 99, 158, -1,
      145, 143, 51, -1,
      51, 143, 82, -1,
      51, 82, 4, -1,
      4, 82, 66, -1,
      141, 139, 5, -1,
      4, 66, 5, -1,
      5, 66, 65, -1,
      5, 65, 141, -1,
      138, 140, 7, -1,
      7, 140, 64, -1,
      7, 64, 6, -1,
      6, 64, 63, -1,
      194, 196, 49, -1,
      6, 63, 49, -1,
      49, 63, 70, -1,
      49, 70, 194, -1,
      134, 136, 18, -1,
      18, 136, 91, -1,
      18, 91, 17, -1,
      17, 91, 90, -1,
      133, 131, 39, -1,
      17, 90, 39, -1,
      39, 90, 95, -1,
      39, 95, 133, -1,
      130, 132, 40, -1,
      40, 132, 94, -1,
      40, 94, 8, -1,
      8, 94, 84, -1,
      142, 144, 53, -1,
      8, 84, 53, -1,
      53, 84, 83, -1,
      53, 83, 142, -1,
    ]
  }
}

Shape {
  appearance Appearance {
    material Material {
      diffuseColor 0.7529 0.7529 0.7529
      specularColor 0.3765 0.3765 0.3765
      ambientIntensity 0.2
      transparency 0.0000
      shininess 0.5
    }
  }
  geometry IndexedFaceSet {
    ccw TRUE
    solid FALSE
    coord DEF co Coordinate {
      point [
        0.038073 -0.023688 0.157480,
        0.038073 0.094422 0.157480,
        -0.049752 -0.023688 0.157480,
        -0.049752 0.094422 0.157480,
        -2.066929 0.098425 0.157480,
        2.854331 -0.098425 0.157480,
        2.657480 0.098425 0.157480,
        2.854331 0.098425 0.157480,
        2.657480 -0.098425 0.157480,
        1.279528 0.098425 0.157480,
        1.082677 -0.098425 0.157480,
        -0.295276 -0.098425 0.157480,
        -0.295276 0.098425 0.157480,
        -0.492126 -0.098425 0.157480,
        -1.870079 0.098425 0.157480,
        -2.066929 -0.098425 0.157480,
        -1.870079 -0.098425 0.157480,
        0.492126 0.098425 0.157480,
        0.295276 0.098425 0.157480,
        -1.082677 0.098425 0.157480,
        -1.279528 0.098425 0.157480,
        -2.657480 0.098425 0.157480,
        -2.854331 0.098425 0.157480,
        -2.854331 -0.098425 0.157480,
        -2.657480 -0.098425 0.157480,
        -1.279528 -0.098425 0.157480,
        -1.082677 -0.098425 0.157480,
        -0.492126 0.098425 0.157480,
        -0.273859 -0.023688 0.157480,
        -0.217832 0.094422 0.157480,
        -0.219346 0.094422 0.157480,
        -0.140382 0.004921 0.157480,
        -0.132329 -0.007225 0.157480,
        -0.161806 -0.023688 0.157480,
        -0.191333 0.014168 0.157480,
        -0.173375 -0.023688 0.157480,
        -0.244876 0.014168 0.157480,
        -0.262337 -0.023688 0.157480,
        -0.073602 0.094422 0.157480,
        -0.092521 0.093700 0.157480,
        -0.111079 0.090163 0.157480,
        -0.123031 0.084126 0.157480,
        -0.123487 -0.015030 0.157480,
        -0.114600 -0.019613 0.157480,
        -0.100192 -0.022911 0.157480,
        -0.086354 -0.023688 0.157480,
        -0.131657 0.076630 0.157480,
        -0.139186 0.065970 0.157480,
        -0.144124 0.053650 0.157480,
        -0.146496 0.039350 0.157480,
        -0.146663 0.033876 0.157480,
        -0.145002 0.018084 0.157480,
        -0.028553 0.094422 0.157480,
        -0.028553 0.082308 0.157480,
        -0.028553 0.033853 0.157480,
        0.027474 0.033853 0.157480,
        0.027474 -0.011574 0.157480,
        -0.028553 -0.023688 0.157480,
        -0.028553 -0.011574 0.157480,
        0.027474 0.082308 0.157480,
        0.027474 0.045967 0.157480,
        -0.028553 0.045967 0.157480,
        0.085878 0.091780 0.157480,
        0.073009 0.083980 0.157480,
        0.065774 0.077102 0.157480,
        0.062301 0.072750 0.157480,
        0.062301 -0.001944 0.157480,
        0.072727 -0.012871 0.157480,
        0.150202 0.087113 0.157480,
        0.137689 0.093465 0.157480,
        0.166516 0.040796 0.157480,
        0.166783 0.035249 0.157480,
        0.114494 0.085337 0.157480,
        0.071576 0.005082 0.157480,
        0.163988 0.052270 0.157480,
        0.132122 -0.024607 0.157480,
        0.146256 -0.019172 0.157480,
        0.157672 -0.010979 0.157480,
        0.162406 -0.006061 0.157480,
        0.123270 0.096887 0.157480,
        0.113832 0.097451 0.157480,
        0.096643 0.095473 0.157480,
        0.155128 0.003179 0.157480,
        0.146591 -0.004628 0.157480,
        0.175430 0.052186 0.157480,
        0.170612 0.064706 0.157480,
        0.162504 0.076333 0.157480,
        0.071576 0.065652 0.157480,
        0.081047 0.074819 0.157480,
        0.078113 -0.001517 0.157480,
        0.092154 0.081092 0.157480,
        0.088559 -0.008672 0.157480,
        0.099930 -0.012969 0.157480,
        0.128459 0.083619 0.157480,
        0.140516 0.078947 0.157480,
        0.165224 0.022234 0.157480,
        0.161492 0.012428 0.157480,
        0.097330 0.082930 0.157480,
        0.110376 0.085195 0.157480,
        0.123154 -0.013959 0.157480,
        0.135156 -0.010865 0.157480,
        0.170985 0.006885 0.157480,
        0.175725 0.020463 0.157480,
        0.177383 0.036053 0.157480,
        0.113761 -0.014603 0.157480,
        0.151387 0.071308 0.157480,
        0.158723 0.062743 0.157480,
        0.084956 -0.020584 0.157480,
        0.098386 -0.025145 0.157480,
        0.107791 -0.026502 0.157480,
        0.113690 -0.026717 0.157480,
        0.295276 -0.098425 0.157480,
        0.492126 -0.098425 0.157480,
        1.082677 0.098425 0.157480,
        1.870079 -0.098425 0.157480,
        2.066929 -0.098425 0.157480,
        3.444882 -0.098425 0.157480,
        3.641732 -0.098425 0.157480,
        3.641732 0.098425 0.157480,
        3.444882 0.098425 0.157480,
        2.066929 0.098425 0.157480,
        1.870079 0.098425 0.157480,
        1.279528 -0.098425 0.157480,
        0.236438 0.094422 0.157480,
        0.247037 0.094422 0.157480,
        0.236438 -0.011574 0.157480,
        0.191011 -0.011574 0.157480,
        0.191011 -0.023688 0.157480,
        0.247037 -0.023688 0.157480,
        1.870079 0.098425 0.787402,
        1.870079 -0.098425 0.787402,
        2.066929 -0.098425 0.787402,
        2.657480 0.098425 0.787402,
        2.657480 -0.098425 0.787402,
        2.854331 -0.098425 0.787402,
        2.854331 0.098425 0.787402,
        2.066929 0.098425 0.787402,
        3.444882 0.098425 0.787402,
        3.444882 -0.098425 0.787402,
        3.641732 -0.098425 0.787402,
        3.641732 0.098425 0.787402,
        1.082677 0.098425 0.787402,
        1.082677 -0.098425 0.787402,
        1.279528 -0.098425 0.787402,
        1.279528 0.098425 0.787402,
        0.295276 0.098425 0.787402,
        0.295276 -0.098425 0.787402,
        0.492126 -0.098425 0.787402,
        0.492126 0.098425 0.787402,
        -0.492126 0.098425 0.787402,
        -1.279528 0.098425 0.787402,
        -1.279528 -0.098425 0.787402,
        -1.082677 -0.098425 0.787402,
        -0.295276 0.098425 0.787402,
        -0.295276 -0.098425 0.787402,
        -1.082677 0.098425 0.787402,
        -2.066929 0.098425 0.787402,
        -2.066929 -0.098425 0.787402,
        -1.870079 -0.098425 0.787402,
        -1.870079 0.098425 0.787402,
        -0.492126 -0.098425 0.787402,
        -2.854331 0.098425 0.787402,
        -2.854331 -0.098425 0.787402,
        -2.657480 -0.098425 0.787402,
        -2.657480 0.098425 0.787402,
        -2.854331 0.019685 -1.102362,
        -2.854331 0.098425 -1.023622,
        -2.657480 0.019685 -1.102362,
        -2.657480 0.098425 -1.023622,
        -2.854331 -0.019685 -1.102362,
        -2.657480 -0.019685 -1.102362,
        -2.854331 -0.098425 -1.023622,
        -2.657480 -0.098425 -1.023622,
        -2.657480 -0.098425 2.283465,
        -2.854331 -0.098425 2.283465,
        -2.854331 -0.019685 2.362205,
        -2.657480 -0.019685 2.362205,
        -2.854331 0.019685 2.362205,
        -2.657480 0.019685 2.362205,
        -2.854331 0.098425 2.283465,
        -2.657480 0.098425 2.283465,
        -2.066929 0.019685 -1.102362,
        -2.066929 0.098425 -1.023622,
        -1.870079 0.019685 -1.102362,
        -1.870079 0.098425 -1.023622,
        -2.066929 -0.019685 -1.102362,
        -1.870079 -0.019685 -1.102362,
        -2.066929 -0.098425 -1.023622,
        -1.870079 -0.098425 -1.023622,
        -1.870079 -0.098425 2.283465,
        -2.066929 -0.098425 2.283465,
        -2.066929 -0.019685 2.362205,
        -1.870079 -0.019685 2.362205,
        -2.066929 0.019685 2.362205,
        -1.870079 0.019685 2.362205,
        -2.066929 0.098425 2.283465,
        -1.870079 0.098425 2.283465,
        -1.279528 0.019685 -1.102362,
        -1.279528 0.098425 -1.023622,
        -1.082677 0.019685 -1.102362,
        -1.082677 0.098425 -1.023622,
        -1.279528 -0.019685 -1.102362,
        -1.082677 -0.019685 -1.102362,
        -1.279528 -0.098425 -1.023622,
        -1.082677 -0.098425 -1.023622,
        -1.082677 -0.098425 2.283465,
        -1.279528 -0.098425 2.283465,
        -1.279528 -0.019685 2.362205,
        -1.082677 -0.019685 2.362205,
        -1.279528 0.019685 2.362205,
        -1.082677 0.019685 2.362205,
        -1.279528 0.098425 2.283465,
        -1.082677 0.098425 2.283465,
        -0.492126 0.019685 -1.102362,
        -0.492126 0.098425 -1.023622,
        -0.295276 0.019685 -1.102362,
        -0.295276 0.098425 -1.023622,
        -0.492126 -0.019685 -1.102362,
        -0.295276 -0.019685 -1.102362,
        -0.492126 -0.098425 -1.023622,
        -0.295276 -0.098425 -1.023622,
        -0.295276 -0.098425 2.283465,
        -0.492126 -0.098425 2.283465,
        -0.492126 -0.019685 2.362205,
        -0.295276 -0.019685 2.362205,
        -0.492126 0.019685 2.362205,
        -0.295276 0.019685 2.362205,
        -0.492126 0.098425 2.283465,
        -0.295276 0.098425 2.283465,
        0.295276 0.019685 -1.102362,
        0.295276 0.098425 -1.023622,
        0.492126 0.019685 -1.102362,
        0.492126 0.098425 -1.023622,
        0.295276 -0.019685 -1.102362,
        0.492126 -0.019685 -1.102362,
        0.295276 -0.098425 -1.023622,
        0.492126 -0.098425 -1.023622,
        0.492126 -0.098425 2.283465,
        0.295276 -0.098425 2.283465,
        0.295276 -0.019685 2.362205,
        0.492126 -0.019685 2.362205,
        0.295276 0.019685 2.362205,
        0.492126 0.019685 2.362205,
        0.295276 0.098425 2.283465,
        0.492126 0.098425 2.283465,
        1.082677 0.019685 -1.102362,
        1.082677 0.098425 -1.023622,
        1.279528 0.019685 -1.102362,
        1.279528 0.098425 -1.023622,
        1.082677 -0.019685 -1.102362,
        1.279528 -0.019685 -1.102362,
        1.082677 -0.098425 -1.023622,
        1.279528 -0.098425 -1.023622,
        1.279528 -0.098425 2.283465,
        1.082677 -0.098425 2.283465,
        1.082677 -0.019685 2.362205,
        1.279528 -0.019685 2.362205,
        1.082677 0.019685 2.362205,
        1.279528 0.019685 2.362205,
        1.082677 0.098425 2.283465,
        1.279528 0.098425 2.283465,
        1.870079 0.019685 -1.102362,
        1.870079 0.098425 -1.023622,
        2.066929 0.019685 -1.102362,
        2.066929 0.098425 -1.023622,
        1.870079 -0.019685 -1.102362,
        2.066929 -0.019685 -1.102362,
        1.870079 -0.098425 -1.023622,
        2.066929 -0.098425 -1.023622,
        2.066929 -0.098425 2.283465,
        1.870079 -0.098425 2.283465,
        1.870079 -0.019685 2.362205,
        2.066929 -0.019685 2.362205,
        1.870079 0.019685 2.362205,
        2.066929 0.019685 2.362205,
        1.870079 0.098425 2.283465,
        2.066929 0.098425 2.283465,
        2.657480 0.019685 -1.102362,
        2.657480 0.098425 -1.023622,
        2.854331 0.019685 -1.102362,
        2.854331 0.098425 -1.023622,
        2.657480 -0.019685 -1.102362,
        2.854331 -0.019685 -1.102362,
        2.657480 -0.098425 -1.023622,
        2.854331 -0.098425 -1.023622,
        2.854331 -0.098425 2.283465,
        2.657480 -0.098425 2.283465,
        2.657480 -0.019685 2.362205,
        2.854331 -0.019685 2.362205,
        2.657480 0.019685 2.362205,
        2.854331 0.019685 2.362205,
        2.657480 0.098425 2.283465,
        2.854331 0.098425 2.283465,
        3.444882 0.019685 -1.102362,
        3.444882 0.098425 -1.023622,
        3.641732 0.019685 -1.102362,
        3.641732 0.098425 -1.023622,
        3.444882 -0.019685 -1.102362,
        3.641732 -0.019685 -1.102362,
        3.444882 -0.098425 -1.023622,
        3.641732 -0.098425 -1.023622,
        3.641732 -0.098425 2.283465,
        3.444882 -0.098425 2.283465,
        3.444882 -0.019685 2.362205,
        3.641732 -0.019685 2.362205,
        3.444882 0.019685 2.362205,
        3.641732 0.019685 2.362205,
        3.444882 0.098425 2.283465,
        3.641732 0.098425 2.283465,
        -0.217832 0.094422 0.196850,
        -0.219346 0.094422 0.196850,
        -0.273859 -0.023688 0.196850,
        -0.262337 -0.023688 0.196850,
        -0.244876 0.014168 0.196850,
        -0.191333 0.014168 0.196850,
        -0.173375 -0.023688 0.196850,
        -0.161806 -0.023688 0.196850,
        -0.239292 0.026281 0.196850,
        -0.197083 0.026281 0.196850,
        -0.218471 0.071401 0.196850,
        -0.239292 0.026281 0.157480,
        -0.218471 0.071401 0.157480,
        -0.197083 0.026281 0.157480,
        -0.086354 -0.023688 0.196850,
        -0.049752 -0.023688 0.196850,
        -0.049752 0.094422 0.196850,
        -0.073602 0.094422 0.196850,
        -0.111079 0.090163 0.196850,
        -0.092521 0.093700 0.196850,
        -0.146663 0.033876 0.196850,
        -0.146496 0.039350 0.196850,
        -0.144124 0.053650 0.196850,
        -0.139186 0.065970 0.196850,
        -0.131657 0.076630 0.196850,
        -0.123031 0.084126 0.196850,
        -0.100192 -0.022911 0.196850,
        -0.114600 -0.019613 0.196850,
        -0.123487 -0.015030 0.196850,
        -0.132329 -0.007225 0.196850,
        -0.140382 0.004921 0.196850,
        -0.145002 0.018084 0.196850,
        -0.086919 0.081752 0.196850,
        -0.104951 0.078996 0.196850,
        -0.110250 0.077068 0.196850,
        -0.119074 0.071907 0.196850,
        -0.125900 0.065235 0.196850,
        -0.131324 0.056594 0.196850,
        -0.134778 0.046424 0.196850,
        -0.136064 0.033900 0.196850,
        -0.135978 0.030610 0.196850,
        -0.133887 0.018131 0.196850,
        -0.129979 0.009186 0.196850,
        -0.124113 0.001453 0.196850,
        -0.117087 -0.004230 0.196850,
        -0.107672 -0.008569 0.196850,
        -0.090898 -0.011096 0.196850,
        -0.073909 -0.011574 0.196850,
        -0.060352 -0.011574 0.196850,
        -0.060352 0.082308 0.196850,
        -0.068657 0.082308 0.196850,
        -0.060352 0.082308 0.157480,
        -0.060352 -0.011574 0.157480,
        -0.068657 0.082308 0.157480,
        -0.086919 0.081752 0.157480,
        -0.104951 0.078996 0.157480,
        -0.110250 0.077068 0.157480,
        -0.119074 0.071907 0.157480,
        -0.125900 0.065235 0.157480,
        -0.131324 0.056594 0.157480,
        -0.134778 0.046424 0.157480,
        -0.136064 0.033900 0.157480,
        -0.135978 0.030610 0.157480,
        -0.133887 0.018131 0.157480,
        -0.129979 0.009186 0.157480,
        -0.124113 0.001453 0.157480,
        -0.117087 -0.004230 0.157480,
        -0.107672 -0.008569 0.157480,
        -0.090898 -0.011096 0.157480,
        -0.073909 -0.011574 0.157480,
        0.038073 -0.023688 0.196850,
        0.038073 0.094422 0.196850,
        -0.028553 0.094422 0.196850,
        -0.028553 0.082308 0.196850,
        0.027474 0.082308 0.196850,
        0.027474 0.045967 0.196850,
        -0.028553 0.045967 0.196850,
        -0.028553 0.033853 0.196850,
        0.027474 0.033853 0.196850,
        0.027474 -0.011574 0.196850,
        -0.028553 -0.011574 0.196850,
        -0.028553 -0.023688 0.196850,
        0.062301 0.072750 0.196850,
        0.065774 0.077102 0.196850,
        0.073009 0.083980 0.196850,
        0.085878 0.091780 0.196850,
        0.096643 0.095473 0.196850,
        0.113832 0.097451 0.196850,
        0.071576 0.065652 0.196850,
        0.114494 0.085337 0.196850,
        0.110376 0.085195 0.196850,
        0.097330 0.082930 0.196850,
        0.092154 0.081092 0.196850,
        0.081047 0.074819 0.196850,
        0.166783 0.035249 0.196850,
        0.166516 0.040796 0.196850,
        0.163988 0.052270 0.196850,
        0.158723 0.062743 0.196850,
        0.151387 0.071308 0.196850,
        0.140516 0.078947 0.196850,
        0.128459 0.083619 0.196850,
        0.113761 -0.014603 0.196850,
        0.123154 -0.013959 0.196850,
        0.135156 -0.010865 0.196850,
        0.146591 -0.004628 0.196850,
        0.155128 0.003179 0.196850,
        0.161492 0.012428 0.196850,
        0.165224 0.022234 0.196850,
        0.071576 0.005082 0.196850,
        0.078113 -0.001517 0.196850,
        0.088559 -0.008672 0.196850,
        0.099930 -0.012969 0.196850,
        0.062301 -0.001944 0.196850,
        0.113690 -0.026717 0.196850,
        0.107791 -0.026502 0.196850,
        0.098386 -0.025145 0.196850,
        0.084956 -0.020584 0.196850,
        0.072727 -0.012871 0.196850,
        0.162406 -0.006061 0.196850,
        0.157672 -0.010979 0.196850,
        0.146256 -0.019172 0.196850,
        0.132122 -0.024607 0.196850,
        0.177383 0.036053 0.196850,
        0.175725 0.020463 0.196850,
        0.170985 0.006885 0.196850,
        0.123270 0.096887 0.196850,
        0.137689 0.093465 0.196850,
        0.150202 0.087113 0.196850,
        0.162504 0.076333 0.196850,
        0.170612 0.064706 0.196850,
        0.175430 0.052186 0.196850,
        0.247037 -0.023688 0.196850,
        0.247037 0.094422 0.196850,
        0.236438 0.094422 0.196850,
        0.236438 -0.011574 0.196850,
        0.191011 -0.011574 0.196850,
        0.191011 -0.023688 0.196850,
      ]
    }
    coordIndex [
      165, 166, 167, -1,
      167, 166, 168, -1,
      169, 165, 170, -1,
      170, 165, 167, -1,
      171, 169, 172, -1,
      172, 169, 170, -1,
      170, 167, 172, -1,
      172, 167, 168, -1,
      172, 168, 24, -1,
      24, 168, 21, -1,
      165, 169, 166, -1,
      166, 169, 171, -1,
      166, 171, 22, -1,
      22, 171, 23, -1,
      21, 168, 22, -1,
      22, 168, 166, -1,
      23, 171, 24, -1,
      24, 171, 172, -1,
      173, 174, 163, -1,
      163, 174, 162, -1,
      175, 174, 176, -1,
      176, 174, 173, -1,
      177, 175, 178, -1,
      178, 175, 176, -1,
      179, 177, 180, -1,
      180, 177, 178, -1,
      179, 180, 161, -1,
      161, 180, 164, -1,
      177, 179, 175, -1,
      175, 179, 161, -1,
      175, 161, 174, -1,
      174, 161, 162, -1,
      176, 173, 178, -1,
      178, 173, 163, -1,
      178, 163, 180, -1,
      180, 163, 164, -1,
      181, 182, 183, -1,
      183, 182, 184, -1,
      185, 181, 186, -1,
      186, 181, 183, -1,
      187, 185, 188, -1,
      188, 185, 186, -1,
      186, 183, 188, -1,
      188, 183, 184, -1,
      188, 184, 16, -1,
      16, 184, 14, -1,
      181, 185, 182, -1,
      182, 185, 187, -1,
      182, 187, 4, -1,
      4, 187, 15, -1,
      14, 184, 4, -1,
      4, 184, 182, -1,
      15, 187, 16, -1,
      16, 187, 188, -1,
      189, 190, 158, -1,
      158, 190, 157, -1,
      191, 190, 192, -1,
      192, 190, 189, -1,
      193, 191, 194, -1,
      194, 191, 192, -1,
      195, 193, 196, -1,
      196, 193, 194, -1,
      195, 196, 156, -1,
      156, 196, 159, -1,
      193, 195, 191, -1,
      191, 195, 156, -1,
      191, 156, 190, -1,
      190, 156, 157, -1,
      192, 189, 194, -1,
      194, 189, 158, -1,
      194, 158, 196, -1,
      196, 158, 159, -1,
      197, 198, 199, -1,
      199, 198, 200, -1,
      201, 197, 202, -1,
      202, 197, 199, -1,
      203, 201, 204, -1,
      204, 201, 202, -1,
      202, 199, 204, -1,
      204, 199, 200, -1,
      204, 200, 26, -1,
      26, 200, 19, -1,
      197, 201, 198, -1,
      198, 201, 203, -1,
      198, 203, 20, -1,
      20, 203, 25, -1,
      19, 200, 20, -1,
      20, 200, 198, -1,
      25, 203, 26, -1,
      26, 203, 204, -1,
      205, 206, 152, -1,
      152, 206, 151, -1,
      207, 206, 208, -1,
      208, 206, 205, -1,
      209, 207, 210, -1,
      210, 207, 208, -1,
      211, 209, 212, -1,
      212, 209, 210, -1,
      211, 212, 150, -1,
      150, 212, 155, -1,
      209, 211, 207, -1,
      207, 211, 150, -1,
      207, 150, 206, -1,
      206, 150, 151, -1,
      208, 205, 210, -1,
      210, 205, 152, -1,
      210, 152, 212, -1,
      212, 152, 155, -1,
      213, 214, 215, -1,
      215, 214, 216, -1,
      217, 213, 218, -1,
      218, 213, 215, -1,
      219, 217, 220, -1,
      220, 217, 218, -1,
      218, 215, 220, -1,
      220, 215, 216, -1,
      220, 216, 11, -1,
      11, 216, 12, -1,
      213, 217, 214, -1,
      214, 217, 219, -1,
      214, 219, 27, -1,
      27, 219, 13, -1,
      12, 216, 27, -1,
      27, 216, 214, -1,
      13, 219, 11, -1,
      11, 219, 220, -1,
      221, 222, 154, -1,
      154, 222, 160, -1,
      223, 222, 224, -1,
      224, 222, 221, -1,
      225, 223, 226, -1,
      226, 223, 224, -1,
      227, 225, 228, -1,
      228, 225, 226, -1,
      227, 228, 149, -1,
      149, 228, 153, -1,
      225, 227, 223, -1,
      223, 227, 149, -1,
      223, 149, 222, -1,
      222, 149, 160, -1,
      224, 221, 226, -1,
      226, 221, 154, -1,
      226, 154, 228, -1,
      228, 154, 153, -1,
      229, 230, 231, -1,
      231, 230, 232, -1,
      233, 229, 234, -1,
      234, 229, 231, -1,
      235, 233, 236, -1,
      236, 233, 234, -1,
      234, 231, 236, -1,
      236, 231, 232, -1,
      236, 232, 112, -1,
      112, 232, 17, -1,
      229, 233, 230, -1,
      230, 233, 235, -1,
      230, 235, 18, -1,
      18, 235, 111, -1,
      17, 232, 18, -1,
      18, 232, 230, -1,
      111, 235, 112, -1,
      112, 235, 236, -1,
      237, 238, 147, -1,
      147, 238, 146, -1,
      239, 238, 240, -1,
      240, 238, 237, -1,
      241, 239, 242, -1,
      242, 239, 240, -1,
      243, 241, 244, -1,
      244, 241, 242, -1,
      243, 244, 145, -1,
      145, 244, 148, -1,
      241, 243, 239, -1,
      239, 243, 145, -1,
      239, 145, 238, -1,
      238, 145, 146, -1,
      240, 237, 242, -1,
      242, 237, 147, -1,
      242, 147, 244, -1,
      244, 147, 148, -1,
      245, 246, 247, -1,
      247, 246, 248, -1,
      249, 245, 250, -1,
      250, 245, 247, -1,
      251, 249, 252, -1,
      252, 249, 250, -1,
      250, 247, 252, -1,
      252, 247, 248, -1,
      252, 248, 122, -1,
      122, 248, 9, -1,
      245, 249, 246, -1,
      246, 249, 251, -1,
      246, 251, 113, -1,
      113, 251, 10, -1,
      9, 248, 113, -1,
      113, 248, 246, -1,
      10, 251, 122, -1,
      122, 251, 252, -1,
      253, 254, 143, -1,
      143, 254, 142, -1,
      255, 254, 256, -1,
      256, 254, 253, -1,
      257, 255, 258, -1,
      258, 255, 256, -1,
      259, 257, 260, -1,
      260, 257, 258, -1,
      259, 260, 141, -1,
      141, 260, 144, -1,
      257, 259, 255, -1,
      255, 259, 141, -1,
      255, 141, 254, -1,
      254, 141, 142, -1,
      256, 253, 258, -1,
      258, 253, 143, -1,
      258, 143, 260, -1,
      260, 143, 144, -1,
      261, 262, 263, -1,
      263, 262, 264, -1,
      265, 261, 266, -1,
      266, 261, 263, -1,
      267, 265, 268, -1,
      268, 265, 266, -1,
      266, 263, 268, -1,
      268, 263, 264, -1,
      268, 264, 115, -1,
      115, 264, 120, -1,
      261, 265, 262, -1,
      262, 265, 267, -1,
      262, 267, 121, -1,
      121, 267, 114, -1,
      120, 264, 121, -1,
      121, 264, 262, -1,
      114, 267, 115, -1,
      115, 267, 268, -1,
      269, 270, 131, -1,
      131, 270, 130, -1,
      271, 270, 272, -1,
      272, 270, 269, -1,
      273, 271, 274, -1,
      274, 271, 272, -1,
      275, 273, 276, -1,
      276, 273, 274, -1,
      275, 276, 129, -1,
      129, 276, 136, -1,
      273, 275, 271, -1,
      271, 275, 129, -1,
      271, 129, 270, -1,
      270, 129, 130, -1,
      272, 269, 274, -1,
      274, 269, 131, -1,
      274, 131, 276, -1,
      276, 131, 136, -1,
      277, 278, 279, -1,
      279, 278, 280, -1,
      281, 277, 282, -1,
      282, 277, 279, -1,
      283, 281, 284, -1,
      284, 281, 282, -1,
      282, 279, 284, -1,
      284, 279, 280, -1,
      284, 280, 5, -1,
      5, 280, 7, -1,
      277, 281, 278, -1,
      278, 281, 283, -1,
      278, 283, 6, -1,
      6, 283, 8, -1,
      7, 280, 6, -1,
      6, 280, 278, -1,
      8, 283, 5, -1,
      5, 283, 284, -1,
      285, 286, 134, -1,
      134, 286, 133, -1,
      287, 286, 288, -1,
      288, 286, 285, -1,
      289, 287, 290, -1,
      290, 287, 288, -1,
      291, 289, 292, -1,
      292, 289, 290, -1,
      291, 292, 132, -1,
      132, 292, 135, -1,
      289, 291, 287, -1,
      287, 291, 132, -1,
      287, 132, 286, -1,
      286, 132, 133, -1,
      288, 285, 290, -1,
      290, 285, 134, -1,
      290, 134, 292, -1,
      292, 134, 135, -1,
      293, 294, 295, -1,
      295, 294, 296, -1,
      297, 293, 298, -1,
      298, 293, 295, -1,
      299, 297, 300, -1,
      300, 297, 298, -1,
      298, 295, 300, -1,
      300, 295, 296, -1,
      300, 296, 117, -1,
      117, 296, 118, -1,
      293, 297, 294, -1,
      294, 297, 299, -1,
      294, 299, 119, -1,
      119, 299, 116, -1,
      118, 296, 119, -1,
      119, 296, 294, -1,
      116, 299, 117, -1,
      117, 299, 300, -1,
      301, 302, 139, -1,
      139, 302, 138, -1,
      303, 302, 304, -1,
      304, 302, 301, -1,
      305, 303, 306, -1,
      306, 303, 304, -1,
      307, 305, 308, -1,
      308, 305, 306, -1,
      307, 308, 137, -1,
      137, 308, 140, -1,
      305, 307, 303, -1,
      303, 307, 137, -1,
      303, 137, 302, -1,
      302, 137, 138, -1,
      304, 301, 306, -1,
      306, 301, 139, -1,
      306, 139, 308, -1,
      308, 139, 140, -1,
      309, 310, 29, -1,
      29, 310, 30, -1,
      310, 311, 30, -1,
      30, 311, 28, -1,
      311, 312, 28, -1,
      28, 312, 37, -1,
      312, 313, 37, -1,
      37, 313, 36, -1,
      313, 314, 36, -1,
      36, 314, 34, -1,
      314, 315, 34, -1,
      34, 315, 35, -1,
      315, 316, 35, -1,
      35, 316, 33, -1,
      316, 309, 33, -1,
      33, 309, 29, -1,
      317, 311, 310, -1,
      309, 318, 310, -1,
      310, 318, 319, -1,
      310, 319, 317, -1,
      316, 315, 314, -1,
      312, 311, 313, -1,
      313, 311, 317, -1,
      313, 317, 314, -1,
      314, 317, 318, -1,
      314, 318, 316, -1,
      316, 318, 309, -1,
      317, 319, 320, -1,
      320, 319, 321, -1,
      318, 317, 322, -1,
      322, 317, 320, -1,
      319, 318, 321, -1,
      321, 318, 322, -1,
      323, 324, 45, -1,
      45, 324, 2, -1,
      324, 325, 2, -1,
      2, 325, 3, -1,
      325, 326, 3, -1,
      3, 326, 38, -1,
      327, 40, 39, -1,
      327, 39, 328, -1,
      328, 39, 38, -1,
      328, 38, 326, -1,
      329, 50, 49, -1,
      329, 49, 330, -1,
      330, 49, 48, -1,
      330, 48, 331, -1,
      331, 48, 47, -1,
      331, 47, 332, -1,
      332, 47, 46, -1,
      332, 46, 333, -1,
      333, 46, 41, -1,
      333, 41, 334, -1,
      334, 41, 40, -1,
      334, 40, 327, -1,
      323, 45, 44, -1,
      323, 44, 335, -1,
      335, 44, 43, -1,
      335, 43, 336, -1,
      336, 43, 42, -1,
      336, 42, 337, -1,
      337, 42, 32, -1,
      337, 32, 338, -1,
      338, 32, 31, -1,
      338, 31, 339, -1,
      339, 31, 51, -1,
      339, 51, 340, -1,
      340, 51, 50, -1,
      340, 50, 329, -1,
      341, 342, 327, -1,
      327, 342, 343, -1,
      327, 343, 334, -1,
      334, 343, 344, -1,
      334, 344, 333, -1,
      333, 344, 345, -1,
      333, 345, 332, -1,
      332, 345, 346, -1,
      332, 346, 331, -1,
      331, 346, 347, -1,
      331, 347, 330, -1,
      330, 347, 348, -1,
      330, 348, 329, -1,
      329, 348, 349, -1,
      329, 349, 340, -1,
      340, 349, 350, -1,
      340, 350, 339, -1,
      339, 350, 351, -1,
      339, 351, 338, -1,
      338, 351, 352, -1,
      338, 352, 337, -1,
      337, 352, 353, -1,
      337, 353, 336, -1,
      336, 353, 354, -1,
      336, 354, 335, -1,
      335, 354, 355, -1,
      335, 355, 323, -1,
      323, 355, 356, -1,
      323, 356, 324, -1,
      324, 356, 357, -1,
      324, 357, 325, -1,
      325, 357, 358, -1,
      325, 358, 326, -1,
      326, 358, 359, -1,
      326, 359, 328, -1,
      328, 359, 341, -1,
      328, 341, 327, -1,
      358, 357, 360, -1,
      360, 357, 361, -1,
      359, 358, 362, -1,
      362, 358, 360, -1,
      359, 362, 363, -1,
      359, 363, 341, -1,
      341, 363, 364, -1,
      341, 364, 342, -1,
      342, 364, 365, -1,
      342, 365, 343, -1,
      343, 365, 366, -1,
      343, 366, 344, -1,
      344, 366, 367, -1,
      344, 367, 345, -1,
      345, 367, 368, -1,
      345, 368, 346, -1,
      346, 368, 369, -1,
      346, 369, 347, -1,
      347, 369, 370, -1,
      347, 370, 348, -1,
      348, 370, 371, -1,
      348, 371, 349, -1,
      349, 371, 372, -1,
      349, 372, 350, -1,
      350, 372, 373, -1,
      350, 373, 351, -1,
      351, 373, 374, -1,
      351, 374, 352, -1,
      352, 374, 375, -1,
      352, 375, 353, -1,
      353, 375, 376, -1,
      353, 376, 354, -1,
      354, 376, 377, -1,
      354, 377, 355, -1,
      355, 377, 378, -1,
      355, 378, 356, -1,
      357, 356, 361, -1,
      361, 356, 378, -1,
      379, 380, 0, -1,
      0, 380, 1, -1,
      380, 381, 1, -1,
      1, 381, 52, -1,
      381, 382, 52, -1,
      52, 382, 53, -1,
      382, 383, 53, -1,
      53, 383, 59, -1,
      383, 384, 59, -1,
      59, 384, 60, -1,
      384, 385, 60, -1,
      60, 385, 61, -1,
      385, 386, 61, -1,
      61, 386, 54, -1,
      386, 387, 54, -1,
      54, 387, 55, -1,
      387, 388, 55, -1,
      55, 388, 56, -1,
      388, 389, 56, -1,
      56, 389, 58, -1,
      389, 390, 58, -1,
      58, 390, 57, -1,
      390, 379, 57, -1,
      57, 379, 0, -1,
      379, 390, 389, -1,
      389, 388, 379, -1,
      379, 388, 387, -1,
      379, 387, 380, -1,
      382, 381, 383, -1,
      383, 381, 380, -1,
      383, 380, 384, -1,
      384, 380, 387, -1,
      384, 387, 385, -1,
      385, 387, 386, -1,
      391, 65, 64, -1,
      391, 64, 392, -1,
      392, 64, 63, -1,
      392, 63, 393, -1,
      393, 63, 62, -1,
      393, 62, 394, -1,
      394, 62, 81, -1,
      394, 81, 395, -1,
      395, 81, 80, -1,
      395, 80, 396, -1,
      391, 397, 65, -1,
      65, 397, 87, -1,
      398, 72, 98, -1,
      398, 98, 399, -1,
      399, 98, 97, -1,
      399, 97, 400, -1,
      400, 97, 90, -1,
      400, 90, 401, -1,
      401, 90, 88, -1,
      401, 88, 402, -1,
      402, 88, 87, -1,
      402, 87, 397, -1,
      403, 71, 70, -1,
      403, 70, 404, -1,
      404, 70, 74, -1,
      404, 74, 405, -1,
      405, 74, 106, -1,
      405, 106, 406, -1,
      406, 106, 105, -1,
      406, 105, 407, -1,
      407, 105, 94, -1,
      407, 94, 408, -1,
      408, 94, 93, -1,
      408, 93, 409, -1,
      409, 93, 72, -1,
      409, 72, 398, -1,
      410, 104, 99, -1,
      410, 99, 411, -1,
      411, 99, 100, -1,
      411, 100, 412, -1,
      412, 100, 83, -1,
      412, 83, 413, -1,
      413, 83, 82, -1,
      413, 82, 414, -1,
      414, 82, 96, -1,
      414, 96, 415, -1,
      415, 96, 95, -1,
      415, 95, 416, -1,
      416, 95, 71, -1,
      416, 71, 403, -1,
      417, 73, 89, -1,
      417, 89, 418, -1,
      418, 89, 91, -1,
      418, 91, 419, -1,
      419, 91, 92, -1,
      419, 92, 420, -1,
      420, 92, 104, -1,
      420, 104, 410, -1,
      417, 421, 73, -1,
      73, 421, 66, -1,
      422, 110, 109, -1,
      422, 109, 423, -1,
      423, 109, 108, -1,
      423, 108, 424, -1,
      424, 108, 107, -1,
      424, 107, 425, -1,
      425, 107, 67, -1,
      425, 67, 426, -1,
      426, 67, 66, -1,
      426, 66, 421, -1,
      427, 78, 77, -1,
      427, 77, 428, -1,
      428, 77, 76, -1,
      428, 76, 429, -1,
      429, 76, 75, -1,
      429, 75, 430, -1,
      430, 75, 110, -1,
      430, 110, 422, -1,
      431, 103, 102, -1,
      431, 102, 432, -1,
      432, 102, 101, -1,
      432, 101, 433, -1,
      433, 101, 78, -1,
      433, 78, 427, -1,
      396, 80, 79, -1,
      396, 79, 434, -1,
      434, 79, 69, -1,
      434, 69, 435, -1,
      435, 69, 68, -1,
      435, 68, 436, -1,
      436, 68, 86, -1,
      436, 86, 437, -1,
      437, 86, 85, -1,
      437, 85, 438, -1,
      438, 85, 84, -1,
      438, 84, 439, -1,
      439, 84, 103, -1,
      439, 103, 431, -1,
      397, 391, 392, -1,
      421, 417, 426, -1,
      426, 417, 418, -1,
      426, 418, 425, -1,
      425, 418, 419, -1,
      425, 419, 424, -1,
      424, 419, 420, -1,
      424, 420, 423, -1,
      423, 420, 410, -1,
      397, 392, 402, -1,
      402, 392, 393, -1,
      402, 393, 401, -1,
      401, 393, 394, -1,
      401, 394, 400, -1,
      400, 394, 395, -1,
      400, 395, 399, -1,
      399, 395, 396, -1,
      399, 396, 398, -1,
      398, 396, 434, -1,
      398, 434, 409, -1,
      409, 434, 435, -1,
      409, 435, 408, -1,
      408, 435, 436, -1,
      408, 436, 407, -1,
      407, 436, 437, -1,
      407, 437, 406, -1,
      406, 437, 438, -1,
      406, 438, 405, -1,
      405, 438, 439, -1,
      405, 439, 404, -1,
      404, 439, 431, -1,
      404, 431, 403, -1,
      403, 431, 416, -1,
      416, 431, 432, -1,
      416, 432, 415, -1,
      415, 432, 433, -1,
      415, 433, 414, -1,
      414, 433, 427, -1,
      414, 427, 413, -1,
      413, 427, 428, -1,
      413, 428, 412, -1,
      412, 428, 429, -1,
      412, 429, 411, -1,
      411, 429, 430, -1,
      411, 430, 410, -1,
      410, 430, 422, -1,
      410, 422, 423, -1,
      440, 441, 128, -1,
      128, 441, 124, -1,
      441, 442, 124, -1,
      124, 442, 123, -1,
      442, 443, 123, -1,
      123, 443, 125, -1,
      443, 444, 125, -1,
      125, 444, 126, -1,
      444, 445, 126, -1,
      126, 445, 127, -1,
      445, 440, 127, -1,
      127, 440, 128, -1,
      442, 441, 443, -1,
      443, 441, 440, -1,
      443, 440, 444, -1,
      444, 440, 445, -1,
    ]
  }
}

Shape {
  appearance Appearance {
    material Material {
      diffuseColor 0.1490 0.1490 0.1490
      specularColor 0.0745 0.0745 0.0745
      ambientIntensity 0.2
      transparency 0.0000
      shininess 0.5
    }
  }
  geometry IndexedFaceSet {
    ccw TRUE
    solid FALSE
    coord DEF co Coordinate {
      point [
        -0.239292 0.026281 0.157480,
        -0.218471 0.071401 0.157480,
        -0.197083 0.026281 0.157480,
        -0.060352 0.082308 0.157480,
        -0.060352 -0.011574 0.157480,
        -0.068657 0.082308 0.157480,
        -0.086919 0.081752 0.157480,
        -0.104951 0.078996 0.157480,
        -0.110250 0.077068 0.157480,
        -0.119074 0.071907 0.157480,
        -0.125900 0.065235 0.157480,
        -0.131324 0.056594 0.157480,
        -0.134778 0.046424 0.157480,
        -0.136064 0.033900 0.157480,
        -0.135978 0.030610 0.157480,
        -0.133887 0.018131 0.157480,
        -0.129979 0.009186 0.157480,
        -0.124113 0.001453 0.157480,
        -0.117087 -0.004230 0.157480,
        -0.107672 -0.008569 0.157480,
        -0.090898 -0.011096 0.157480,
        -0.073909 -0.011574 0.157480,
      ]
    }
    coordIndex [
      1, 2, 0, -1,
      3, 4, 5, -1,
      5, 4, 21, -1,
      5, 21, 6, -1,
      6, 21, 20, -1,
      6, 20, 7, -1,
      16, 15, 20, -1,
      20, 15, 14, -1,
      20, 14, 13, -1,
      19, 18, 20, -1,
      20, 18, 17, -1,
      20, 17, 16, -1,
      13, 12, 20, -1,
      20, 12, 11, -1,
      20, 11, 10, -1,
      10, 9, 20, -1,
      20, 9, 8, -1,
      20, 8, 7, -1,
    ]
  }
}
