%TF.GenerationSoftware,KiCad,Pcbnew,9.0.2+dfsg-1*%
%TF.CreationDate,2026-09-10T19:50:38+01:00*%
%TF.ProjectId,SDCore_progBoard,5344436f-7265-45f7-9072-6f67426f6172,rev?*%
%TF.SameCoordinates,Original*%
%TF.FileFunction,Legend,Top*%
%TF.FilePolarity,Positive*%
%FSLAX46Y46*%
G04 Gerber Fmt 4.6, Leading zero omitted, Abs format (unit mm)*
G04 Created by KiCad (PCBNEW 9.0.2+dfsg-1) date 2026-09-10 19:50:38*
%MOMM*%
%LPD*%
G01*
G04 APERTURE LIST*
%ADD10C,0.150000*%
%ADD11C,0.254000*%
%ADD12C,0.152400*%
G04 APERTURE END LIST*
D10*
X119261905Y-112167118D02*
X119261905Y-112976641D01*
X119261905Y-112976641D02*
X119309524Y-113071879D01*
X119309524Y-113071879D02*
X119357143Y-113119499D01*
X119357143Y-113119499D02*
X119452381Y-113167118D01*
X119452381Y-113167118D02*
X119642857Y-113167118D01*
X119642857Y-113167118D02*
X119738095Y-113119499D01*
X119738095Y-113119499D02*
X119785714Y-113071879D01*
X119785714Y-113071879D02*
X119833333Y-112976641D01*
X119833333Y-112976641D02*
X119833333Y-112167118D01*
X120261905Y-113119499D02*
X120404762Y-113167118D01*
X120404762Y-113167118D02*
X120642857Y-113167118D01*
X120642857Y-113167118D02*
X120738095Y-113119499D01*
X120738095Y-113119499D02*
X120785714Y-113071879D01*
X120785714Y-113071879D02*
X120833333Y-112976641D01*
X120833333Y-112976641D02*
X120833333Y-112881403D01*
X120833333Y-112881403D02*
X120785714Y-112786165D01*
X120785714Y-112786165D02*
X120738095Y-112738546D01*
X120738095Y-112738546D02*
X120642857Y-112690927D01*
X120642857Y-112690927D02*
X120452381Y-112643308D01*
X120452381Y-112643308D02*
X120357143Y-112595689D01*
X120357143Y-112595689D02*
X120309524Y-112548070D01*
X120309524Y-112548070D02*
X120261905Y-112452832D01*
X120261905Y-112452832D02*
X120261905Y-112357594D01*
X120261905Y-112357594D02*
X120309524Y-112262356D01*
X120309524Y-112262356D02*
X120357143Y-112214737D01*
X120357143Y-112214737D02*
X120452381Y-112167118D01*
X120452381Y-112167118D02*
X120690476Y-112167118D01*
X120690476Y-112167118D02*
X120833333Y-112214737D01*
X121595238Y-112643308D02*
X121738095Y-112690927D01*
X121738095Y-112690927D02*
X121785714Y-112738546D01*
X121785714Y-112738546D02*
X121833333Y-112833784D01*
X121833333Y-112833784D02*
X121833333Y-112976641D01*
X121833333Y-112976641D02*
X121785714Y-113071879D01*
X121785714Y-113071879D02*
X121738095Y-113119499D01*
X121738095Y-113119499D02*
X121642857Y-113167118D01*
X121642857Y-113167118D02*
X121261905Y-113167118D01*
X121261905Y-113167118D02*
X121261905Y-112167118D01*
X121261905Y-112167118D02*
X121595238Y-112167118D01*
X121595238Y-112167118D02*
X121690476Y-112214737D01*
X121690476Y-112214737D02*
X121738095Y-112262356D01*
X121738095Y-112262356D02*
X121785714Y-112357594D01*
X121785714Y-112357594D02*
X121785714Y-112452832D01*
X121785714Y-112452832D02*
X121738095Y-112548070D01*
X121738095Y-112548070D02*
X121690476Y-112595689D01*
X121690476Y-112595689D02*
X121595238Y-112643308D01*
X121595238Y-112643308D02*
X121261905Y-112643308D01*
X122785714Y-113167118D02*
X122214286Y-113167118D01*
X122500000Y-113167118D02*
X122500000Y-112167118D01*
X122500000Y-112167118D02*
X122404762Y-112309975D01*
X122404762Y-112309975D02*
X122309524Y-112405213D01*
X122309524Y-112405213D02*
X122214286Y-112452832D01*
X120088095Y-94478613D02*
X120088095Y-95288136D01*
X120088095Y-95288136D02*
X120135714Y-95383374D01*
X120135714Y-95383374D02*
X120183333Y-95430994D01*
X120183333Y-95430994D02*
X120278571Y-95478613D01*
X120278571Y-95478613D02*
X120469047Y-95478613D01*
X120469047Y-95478613D02*
X120564285Y-95430994D01*
X120564285Y-95430994D02*
X120611904Y-95383374D01*
X120611904Y-95383374D02*
X120659523Y-95288136D01*
X120659523Y-95288136D02*
X120659523Y-94478613D01*
X121659523Y-95478613D02*
X121088095Y-95478613D01*
X121373809Y-95478613D02*
X121373809Y-94478613D01*
X121373809Y-94478613D02*
X121278571Y-94621470D01*
X121278571Y-94621470D02*
X121183333Y-94716708D01*
X121183333Y-94716708D02*
X121088095Y-94764327D01*
X123283333Y-112415422D02*
X122950000Y-111939231D01*
X122711905Y-112415422D02*
X122711905Y-111415422D01*
X122711905Y-111415422D02*
X123092857Y-111415422D01*
X123092857Y-111415422D02*
X123188095Y-111463041D01*
X123188095Y-111463041D02*
X123235714Y-111510660D01*
X123235714Y-111510660D02*
X123283333Y-111605898D01*
X123283333Y-111605898D02*
X123283333Y-111748755D01*
X123283333Y-111748755D02*
X123235714Y-111843993D01*
X123235714Y-111843993D02*
X123188095Y-111891612D01*
X123188095Y-111891612D02*
X123092857Y-111939231D01*
X123092857Y-111939231D02*
X122711905Y-111939231D01*
X123664286Y-111510660D02*
X123711905Y-111463041D01*
X123711905Y-111463041D02*
X123807143Y-111415422D01*
X123807143Y-111415422D02*
X124045238Y-111415422D01*
X124045238Y-111415422D02*
X124140476Y-111463041D01*
X124140476Y-111463041D02*
X124188095Y-111510660D01*
X124188095Y-111510660D02*
X124235714Y-111605898D01*
X124235714Y-111605898D02*
X124235714Y-111701136D01*
X124235714Y-111701136D02*
X124188095Y-111843993D01*
X124188095Y-111843993D02*
X123616667Y-112415422D01*
X123616667Y-112415422D02*
X124235714Y-112415422D01*
X118333333Y-112415422D02*
X118000000Y-111939231D01*
X117761905Y-112415422D02*
X117761905Y-111415422D01*
X117761905Y-111415422D02*
X118142857Y-111415422D01*
X118142857Y-111415422D02*
X118238095Y-111463041D01*
X118238095Y-111463041D02*
X118285714Y-111510660D01*
X118285714Y-111510660D02*
X118333333Y-111605898D01*
X118333333Y-111605898D02*
X118333333Y-111748755D01*
X118333333Y-111748755D02*
X118285714Y-111843993D01*
X118285714Y-111843993D02*
X118238095Y-111891612D01*
X118238095Y-111891612D02*
X118142857Y-111939231D01*
X118142857Y-111939231D02*
X117761905Y-111939231D01*
X119285714Y-112415422D02*
X118714286Y-112415422D01*
X119000000Y-112415422D02*
X119000000Y-111415422D01*
X119000000Y-111415422D02*
X118904762Y-111558279D01*
X118904762Y-111558279D02*
X118809524Y-111653517D01*
X118809524Y-111653517D02*
X118714286Y-111701136D01*
X148164682Y-92449171D02*
X148117063Y-92496791D01*
X148117063Y-92496791D02*
X147974206Y-92544410D01*
X147974206Y-92544410D02*
X147878968Y-92544410D01*
X147878968Y-92544410D02*
X147736111Y-92496791D01*
X147736111Y-92496791D02*
X147640873Y-92401552D01*
X147640873Y-92401552D02*
X147593254Y-92306314D01*
X147593254Y-92306314D02*
X147545635Y-92115838D01*
X147545635Y-92115838D02*
X147545635Y-91972981D01*
X147545635Y-91972981D02*
X147593254Y-91782505D01*
X147593254Y-91782505D02*
X147640873Y-91687267D01*
X147640873Y-91687267D02*
X147736111Y-91592029D01*
X147736111Y-91592029D02*
X147878968Y-91544410D01*
X147878968Y-91544410D02*
X147974206Y-91544410D01*
X147974206Y-91544410D02*
X148117063Y-91592029D01*
X148117063Y-91592029D02*
X148164682Y-91639648D01*
X149021825Y-92544410D02*
X149021825Y-92020600D01*
X149021825Y-92020600D02*
X148974206Y-91925362D01*
X148974206Y-91925362D02*
X148878968Y-91877743D01*
X148878968Y-91877743D02*
X148688492Y-91877743D01*
X148688492Y-91877743D02*
X148593254Y-91925362D01*
X149021825Y-92496791D02*
X148926587Y-92544410D01*
X148926587Y-92544410D02*
X148688492Y-92544410D01*
X148688492Y-92544410D02*
X148593254Y-92496791D01*
X148593254Y-92496791D02*
X148545635Y-92401552D01*
X148545635Y-92401552D02*
X148545635Y-92306314D01*
X148545635Y-92306314D02*
X148593254Y-92211076D01*
X148593254Y-92211076D02*
X148688492Y-92163457D01*
X148688492Y-92163457D02*
X148926587Y-92163457D01*
X148926587Y-92163457D02*
X149021825Y-92115838D01*
X149498016Y-92544410D02*
X149498016Y-91877743D01*
X149498016Y-92068219D02*
X149545635Y-91972981D01*
X149545635Y-91972981D02*
X149593254Y-91925362D01*
X149593254Y-91925362D02*
X149688492Y-91877743D01*
X149688492Y-91877743D02*
X149783730Y-91877743D01*
X150545635Y-92544410D02*
X150545635Y-91544410D01*
X150545635Y-92496791D02*
X150450397Y-92544410D01*
X150450397Y-92544410D02*
X150259921Y-92544410D01*
X150259921Y-92544410D02*
X150164683Y-92496791D01*
X150164683Y-92496791D02*
X150117064Y-92449171D01*
X150117064Y-92449171D02*
X150069445Y-92353933D01*
X150069445Y-92353933D02*
X150069445Y-92068219D01*
X150069445Y-92068219D02*
X150117064Y-91972981D01*
X150117064Y-91972981D02*
X150164683Y-91925362D01*
X150164683Y-91925362D02*
X150259921Y-91877743D01*
X150259921Y-91877743D02*
X150450397Y-91877743D01*
X150450397Y-91877743D02*
X150545635Y-91925362D01*
X151545635Y-92544410D02*
X150974207Y-92544410D01*
X151259921Y-92544410D02*
X151259921Y-91544410D01*
X151259921Y-91544410D02*
X151164683Y-91687267D01*
X151164683Y-91687267D02*
X151069445Y-91782505D01*
X151069445Y-91782505D02*
X150974207Y-91830124D01*
D11*
%TO.C,USB1*%
X124694430Y-115036579D02*
X125720000Y-115036579D01*
X125720000Y-115036579D02*
X125720000Y-121636566D01*
X125720000Y-121636566D02*
X116320000Y-121636566D01*
X116320000Y-121636566D02*
X116320000Y-115036579D01*
X116320000Y-115036579D02*
X117605569Y-115036579D01*
D12*
%TO.C,U1*%
X119478603Y-102676206D02*
X119478603Y-96023794D01*
X119478603Y-96023794D02*
X122221397Y-96023794D01*
X122221397Y-96023794D02*
X122221397Y-102676206D01*
X122221397Y-102676206D02*
X119478603Y-102676206D01*
%TO.C,R2*%
X123023788Y-109639397D02*
X122065000Y-109639397D01*
X122065000Y-109639397D02*
X122065000Y-110960603D01*
X122065000Y-110960603D02*
X123023788Y-110960603D01*
X123876212Y-109639397D02*
X124835000Y-109639397D01*
X124835000Y-109639397D02*
X124835000Y-110960603D01*
X124835000Y-110960603D02*
X123876212Y-110960603D01*
%TO.C,R1*%
X118073788Y-109639397D02*
X117115000Y-109639397D01*
X117115000Y-109639397D02*
X117115000Y-110960603D01*
X117115000Y-110960603D02*
X118073788Y-110960603D01*
X118926212Y-109639397D02*
X119885000Y-109639397D01*
X119885000Y-109639397D02*
X119885000Y-110960603D01*
X119885000Y-110960603D02*
X118926212Y-110960603D01*
D11*
%TO.C,Card1*%
X160319502Y-107311591D02*
X160319502Y-107591801D01*
X168185425Y-117591781D02*
X168185425Y-117371591D01*
X160666974Y-93389391D02*
X168138435Y-93389391D01*
X168138435Y-93389391D02*
X168138435Y-97554991D01*
X139233235Y-97960146D02*
X139233235Y-93389391D01*
X139233235Y-93389391D02*
X158204635Y-93389391D01*
X139233235Y-100460116D02*
X139233235Y-99419021D01*
X139233235Y-102960111D02*
X139233235Y-101919041D01*
X139233235Y-104660133D02*
X139233235Y-104419062D01*
X139233235Y-106310117D02*
X139233235Y-106119058D01*
X139233235Y-107960126D02*
X139233235Y-107769042D01*
X139233235Y-110460121D02*
X139233235Y-109419052D01*
X139233235Y-112960091D02*
X139233235Y-111919047D01*
X139233235Y-115390134D02*
X139233235Y-114419042D01*
X139233235Y-117090131D02*
X139233235Y-116849060D01*
X139233235Y-120440137D02*
X139233235Y-118549056D01*
X159404635Y-121989791D02*
X139233235Y-121989791D01*
X139233235Y-121989791D02*
X139233235Y-121899062D01*
X168185425Y-117591781D02*
X168185425Y-121968201D01*
X168185425Y-121968201D02*
X168163835Y-121989791D01*
X168163835Y-121989791D02*
X161866972Y-121989791D01*
X160319502Y-107311591D02*
G75*
G02*
X168087635Y-97529591I10000125J34084D01*
G01*
X168165969Y-117357263D02*
G75*
G02*
X160319044Y-107591801I2152986J9765392D01*
G01*
%TD*%
M02*
